<?xml version="1.0" encoding="utf-8"?>
<!-- Generator: Adobe Illustrator 19.0.0, SVG Export Plug-In . SVG Version: 6.00 Build 0)  -->
<svg version="1.1" id="Layer_1" xmlns="http://www.w3.org/2000/svg" xmlns:xlink="http://www.w3.org/1999/xlink" x="0px" y="0px"
	 viewBox="-624 326 50 50" style="enable-background:new -624 326 50 50;" xml:space="preserve">
<path id="XMLID_85_" d="M-585.5,273l-1.5-2h-6.5l-1.7,2H-617v22h33v-22H-585.5z M-599.9,290.5c-3.7,0-6.6-3-6.6-6.6s3-6.6,6.6-6.6
	c3.6,0,6.6,3,6.6,6.6S-596.2,290.5-599.9,290.5z"/>
<g id="XMLID_124_">
	<polygon id="XMLID_126_" points="-517.1,275.1 -514.5,272.4 -520.3,266.9 -522.9,269.7 	"/>
	<polygon id="XMLID_127_" points="-524.5,271.3 -542.3,289.9 -543.9,297.2 -536.4,295.7 -518.7,276.8 	"/>
</g>
<g id="XMLID_298_">
	<rect id="XMLID_144_" x="-539" y="151" width="11" height="6"/>
	<g id="XMLID_140_">
		<path id="XMLID_273_" d="M-532.5,135.3c-0.1,0-0.5,0.7-0.5,0.7h-1.4c0,0-0.2-0.7-0.3-0.7c-0.1,0-0.3,0.3-0.3,0.9v12.9h3v-12.9
			C-532,135.6-532.4,135.3-532.5,135.3z"/>
		<path id="XMLID_274_" d="M-533.7,124.8c-5.9,0-10.8,4.8-10.8,10.8c0,1.9,0.5,3.3,1.3,4.8l4,8.6h3.2v-12.9c0-1.2,0.5-2.2,1.5-2.2
			c0.4,0,0.6,0.2,0.9,0.4c0.3-0.3,0.5-0.4,0.9-0.4c1,0,1.7,1,1.7,2.2V149h3.3l4.5-11.9c0.1-0.6,0.2-1,0.2-1.6
			C-523,129.5-527.8,124.8-533.7,124.8z"/>
	</g>
</g>
<path id="XMLID_318_" d="M-1025,13c-57,0-114,0-171,0c0,52,0,104.3,0,156.3c0,8,0,16,0,24c0,77.3,0,154.7,0,231.7
	c57.5,0,114.7,0,172,0c7,0,14,0,21,0c57.7,0,115.3,0,173,0c0-77,0-154.5,0-231.7c0-8,0-16,0-24c0-52,0-104.3,0-156.3
	c-56.7,0-113.3,0-170,0C-1008.3,13-1016.7,13-1025,13z M-1012.5,375.3c-11.2,0-22.3,0-33.5,0
	C-1034.8,375.2-1023.7,375.3-1012.5,375.3c5.4,0,10.8,0,16.2,0C-1001.7,375.3-1007.1,375.3-1012.5,375.3z M-970.1,92.5
	c38.6,15.4,58.8,44.6,61.6,86c1.5,23.5-5,45.1-16,65.6c-8.4,15.5-17.4,30.6-25.9,46.1c-6.9,12.5-11.1,25.8-11.6,40.8
	c-34.2,0-68,0-102.1,0c-0.6-20-9.2-36.9-18.5-53.8c-9.7-17.6-19.8-35.1-27.8-53.5c-9.2-21.2-9.9-43.7-4.2-66.1
	c7.8-30.7,26.9-52,55.9-64.1C-1029.4,81.3-999.5,80.8-970.1,92.5z"/>
<path id="XMLID_48_" d="M-519.7,204c-0.3-4.1-2.3-7-6.1-8.5c-2.9-1.2-5.8-1.1-8.7,0.1c-2.9,1.2-4.7,3.3-5.5,6.3
	c-0.6,2.2-0.5,4.4,0.4,6.5c0.8,1.8,1.8,3,2.7,4.7c0.8,1.4,2,4.7,2.2,5.7h3.6v-9.9l-3.4-4.2l1.2-0.7l3.2,4.5v11.6h-4.9l0.3,0.2
	l-0.5,0.5l0.6,0.6l-0.6,0.5l0.5,0.5l-0.6,0.6l0.6,0.6l-0.5,0.7l0.5,0.8h4.7h4.6l0.7-0.9l-0.5-0.6l0.6-0.7l-0.6-0.6l0.5-0.5l-0.6-0.6
	l0.6-0.7l-0.5-0.6l0.5-0.8l-0.2-0.4c0.1-1.3,0.5-2.6,1.1-3.7c0.8-1.5,1.7-3,2.5-4.5C-520.2,208.4-519.6,206.3-519.7,204z
	 M-528,208.8V220h-1v-11.6l2.9-4.5l1,0.7L-528,208.8z"/>
<path id="XMLID_62_" d="M-598.9,196h-0.2l-17.5,15h5.6v15h5.7h12.5h5.8v-15h5.9L-598.9,196z M-595,219h-8v-8h8V219z"/>
<path id="XMLID_118_" d="M-450.5,211.7l-8.5-17.4v11.8h0.1c0.4,0,0.7,0.7,0.7,1.1c0,0.6-0.5,1.2-1.2,1.2c-0.6,0-1.2-0.5-1.2-1.1
	c0-0.5,0.7-0.9,0.7-1.1v-11.7l-8.2,17.3c0,0,6,3.3,6,8.3h-2.9v2h3v4h1h2.5h2.5v-4h3v-2h-3.2C-456.2,215-450.5,211.7-450.5,211.7z"/>
<g id="GYYMVZ.tif">
	<g id="XMLID_105_">
		<path id="XMLID_148_" d="M-660.2,319.6c0.2,0,0.4,0.1,0.6,0.1c1.2,0.2,2,1.2,2,2.4c0,1.2-0.8,2.1-1.9,2.3c-1,0.2-1.9,0.1-2.7-0.7
			c-0.3-0.3-0.5-0.7-0.6-1.2c0,0,0-0.1-0.1-0.1c0-0.3,0-0.5,0-0.8c0,0,0,0,0-0.1c0.2-1.1,0.9-1.7,2-1.9c0.2,0,0.4-0.1,0.6-0.1
			C-660.2,319.6-660.2,319.6-660.2,319.6z"/>
		<path id="XMLID_146_" d="M-655.3,326.4c1.6,0,3.1,0,4.7,0c0,0.6,0,1.3,0,1.9c0.1-0.1,0.1-0.1,0.1-0.1c1.1-1.6,2.6-2.2,4.4-2.1
			c2.5,0.1,4.4,1.7,4.9,4.3c0.1,0.7,0.2,1.4,0.2,2.1c0,2.6,0,5.1,0,7.7c0,0.1,0,0.2,0,0.3c-1.6,0-3.1,0-4.7,0c0-0.1,0-0.2,0-0.3
			c0-2.4,0-4.9,0-7.3c0-0.4-0.1-0.9-0.2-1.3c-0.2-0.8-0.7-1.5-1.5-1.7c-0.9-0.2-1.8,0-2.4,0.7c-0.5,0.5-0.8,1.1-0.8,1.8
			c0,2.6,0,5.2,0,7.8c0,0.1,0,0.2,0,0.3c-1.6,0-3.1,0-4.7,0C-655.3,335.8-655.3,331.1-655.3,326.4z"/>
		<path id="XMLID_145_" d="M-662.6,326.4c1.5,0,3.1,0,4.6,0c0,4.7,0,9.4,0,14.1c-1.5,0-3.1,0-4.6,0
			C-662.6,335.8-662.6,331.1-662.6,326.4z"/>
	</g>
</g>
<g id="XMLID_141_">
	<polygon id="XMLID_181_" points="-462.3,283 -457.2,283 -444.5,271.4 -444,271.7 -444,271 -474.7,271 	"/>
	<polygon id="XMLID_182_" points="-456.8,284 -462.7,284 -462.8,283.9 -475,272.3 -475,293 -444,293 -444,272.4 	"/>
</g>
<g id="FwRkvf.tif">
	<g id="XMLID_152_">
		<path id="XMLID_194_" d="M-542.7,350.9c0.3-1.4,0.8-2.6,1.7-3.7c1.9-2,4.9-2.7,7.4-1.6c2.6,1.1,4.1,3.7,3.9,6.7
			c-0.2,2.6-2.2,4.9-4.8,5.6c-3.8,1-7.5-1.4-8.1-5.3c0-0.1-0.1-0.1-0.1-0.2C-542.7,351.9-542.7,351.4-542.7,350.9z"/>
		<path id="XMLID_193_" d="M-515.2,352.5c-0.3,1.4-0.8,2.6-1.7,3.7c-1.9,2-4.9,2.7-7.4,1.6c-2.6-1.1-4.1-3.7-3.9-6.7
			c0.2-2.6,2.2-4.9,4.8-5.6c3.8-1,7.5,1.4,8.1,5.3c0,0.1,0.1,0.1,0.1,0.2C-515.2,351.4-515.2,351.9-515.2,352.5z"/>
	</g>
</g>
<g id="syc5yU.tif">
	<g id="XMLID_235_">
		<path id="XMLID_272_" d="M-447.4,352.4c0,0.7,0,1.4,0,2.1c0,0.2-0.1,0.4-0.1,0.5c-0.2,3.3-2,5.6-5.2,6.5c-2.3,0.7-4.7,0.8-7.1,0.7
			c-2.3-0.1-4.6-0.2-6.7-1.1c-2.2-0.8-3.7-2.3-4.2-4.6c-0.2-0.7-0.3-1.4-0.4-2.1c0-0.7,0-1.4,0-2.1c0-0.1,0.1-0.2,0.1-0.4
			c0.2-1.5,0.6-2.8,1.5-4c0.2-0.3,0.3-0.6,0.2-0.9c-0.3-1.2-0.4-2.4,0-3.6c0.5-1.8,0.3-1.5,2-1.2c1.4,0.2,2.5,1.1,3.6,1.9
			c0.2,0.1,0.5,0.2,0.7,0.2c2.5-0.5,4.9-0.6,7.4-0.1c0.5,0.1,0.8,0,1.1-0.3c1.3-1,2.6-1.8,4.3-1.9c0.4,0,0.6,0.1,0.8,0.5
			c0.6,1.5,0.6,3,0.2,4.5c-0.1,0.3,0,0.6,0.1,0.9c0.5,0.9,0.9,1.8,1.3,2.7C-447.5,351.3-447.5,351.9-447.4,352.4z M-459.3,361.1
			c0-0.1,0-0.1,0-0.2c0.5,0,1,0,1.5,0c1.7-0.1,3.4-0.2,5-1c1.9-1,2.8-3.4,2-5.6c-0.6-1.9-2.2-2.9-4.4-2.5c-2.7,0.4-5.3,0.5-8,0
			c-2.5-0.4-4.2,0.8-4.6,3.1c-0.5,2.7,0.9,4.9,3.7,5.5C-462.6,360.8-460.9,360.9-459.3,361.1z"/>
		<path id="XMLID_265_" d="M-462,355.9c0,0.8-0.2,1.5-0.7,2.1c-0.6,0.8-1.5,0.8-2.2,0.1c-1-1.1-1-3.4,0-4.5c0.6-0.7,1.5-0.7,2.1,0.1
			C-462.1,354.3-462,355.1-462,355.9z"/>
		<path id="XMLID_264_" d="M-456.5,355.8c0-0.9,0.2-1.6,0.9-2.2c0.5-0.5,1.3-0.6,1.9-0.1c1.2,1.1,1.2,3.7,0,4.7
			c-0.5,0.5-1.3,0.5-1.8,0C-456.3,357.6-456.4,356.7-456.5,355.8z"/>
	</g>
</g>
<g id="TzefjL.tif">
	<g>
		<path d="M-599.1,348.7c0,3.5,0,6.9,0,10.4c-0.3,0-0.5,0-0.8,0c-5.2,0-10.3,0-15.5,0c-0.7,0-0.9-0.2-0.9-0.8
			c-0.3-3.1,1-5.5,3.2-7.5c2.5-2.2,5.4-3.4,8.6-4.1c0.6-0.1,0.8-0.4,0.7-0.9c0-0.8,0-1.7,0-2.6c1.6-0.1,3.1-0.3,4.7-0.4
			c0,1.1,0,2.2,0,3.3c1.3,0.1,2.6,0.1,3.8,0.3c4.2,0.5,8.1,1.7,11.4,4.6c2.2,1.9,3.5,4.3,3.2,7.4c0,0.3-0.1,0.6-0.2,0.9
			c-5.7,0-11.3,0-17,0c0-3,0-6.1,0-9.3c1.5,0.2,3,0.5,4.4,0.7c0.1,0,0.3,0.4,0.3,0.6c0,1.2,0,2.4,0,3.6c0,0.2,0,0.5,0,0.8
			c2,0,3.9,0,6,0c-0.2-1.2-0.6-2.3-1.4-3.2c-1.7-2.1-4.1-2.9-6.7-3.3C-596.5,348.8-597.7,348.7-599.1,348.7z M-603.9,349.4
			c-2.9,0.4-5.9,3.5-5.9,6c1.9,0,3.9,0,5.9,0C-603.9,353.4-603.9,351.4-603.9,349.4z"/>
	</g>
</g>
</svg>
