<?xml version="1.0" encoding="utf-8"?>
<!-- Generator: Adobe Illustrator 19.0.0, SVG Export Plug-In . SVG Version: 6.00 Build 0)  -->
<svg version="1.1" id="Layer_1" xmlns="http://www.w3.org/2000/svg" xmlns:xlink="http://www.w3.org/1999/xlink" x="0px" y="0px"
	 viewBox="0 0 50 50" style="enable-background:new 0 0 50 50;" xml:space="preserve">
<path id="XMLID_85_" d="M38.5,17L37,15h-6.5l-1.7,2H7v22h33V17H38.5z M24.1,34.5c-3.7,0-6.6-3-6.6-6.6s3-6.6,6.6-6.6s6.6,3,6.6,6.6
	S27.8,34.5,24.1,34.5z"/>
<g id="XMLID_124_">
	<polygon id="XMLID_126_" points="106.9,19.1 109.5,16.4 103.7,10.9 101.1,13.7 	"/>
	<polygon id="XMLID_127_" points="99.5,15.3 81.7,33.9 80.1,41.2 87.6,39.7 105.3,20.8 	"/>
</g>
<g id="XMLID_298_">
	<rect id="XMLID_144_" x="85" y="-105" width="11" height="6"/>
	<g id="XMLID_140_">
		<path id="XMLID_273_" d="M91.5-120.7c-0.1,0-0.5,0.7-0.5,0.7h-1.4c0,0-0.2-0.7-0.3-0.7c-0.1,0-0.3,0.3-0.3,0.9v12.9h3v-12.9
			C92-120.4,91.6-120.7,91.5-120.7z"/>
		<path id="XMLID_274_" d="M90.3-131.2c-5.9,0-10.8,4.8-10.8,10.8c0,1.9,0.5,3.3,1.3,4.8l4,8.6H88v-12.9c0-1.2,0.5-2.2,1.5-2.2
			c0.4,0,0.6,0.2,0.9,0.4c0.3-0.3,0.5-0.4,0.9-0.4c1,0,1.7,1,1.7,2.2v12.9h3.3l4.5-11.9c0.1-0.6,0.2-1,0.2-1.6
			C101-126.5,96.2-131.2,90.3-131.2z"/>
	</g>
</g>
<path id="XMLID_318_" d="M-401-243c-57,0-114,0-171,0c0,52,0,104.3,0,156.3c0,8,0,16,0,24c0,77.3,0,154.7,0,231.7
	c57.5,0,114.7,0,172,0c7,0,14,0,21,0c57.7,0,115.3,0,173,0c0-77,0-154.5,0-231.7c0-8,0-16,0-24c0-52,0-104.3,0-156.3
	c-56.7,0-113.3,0-170,0C-384.3-243-392.7-243-401-243z M-388.5,119.3c-11.2,0-22.3,0-33.5,0C-410.8,119.2-399.7,119.3-388.5,119.3
	c5.4,0,10.8,0,16.2,0C-377.7,119.3-383.1,119.3-388.5,119.3z M-346.1-163.5c38.6,15.4,58.8,44.6,61.6,86c1.5,23.5-5,45.1-16,65.6
	c-8.4,15.5-17.4,30.6-25.9,46.1C-333.3,46.7-337.5,60-338,75c-34.2,0-68,0-102.1,0c-0.6-20-9.2-36.9-18.5-53.8
	c-9.7-17.6-19.8-35.1-27.8-53.5c-9.2-21.2-9.9-43.7-4.2-66.1c7.8-30.7,26.9-52,55.9-64.1C-405.4-174.7-375.5-175.2-346.1-163.5z"/>
<path id="XMLID_48_" d="M104.3-52c-0.3-4.1-2.3-7-6.1-8.5c-2.9-1.2-5.8-1.1-8.7,0.1c-2.9,1.2-4.7,3.3-5.5,6.3
	c-0.6,2.2-0.5,4.4,0.4,6.5c0.8,1.8,1.8,3,2.7,4.7c0.8,1.4,2,4.7,2.2,5.7l3.6,0v-9.9l-3.4-4.2l1.2-0.7l3.2,4.5V-36h-4.9l0.3,0.2
	l-0.5,0.5l0.6,0.6l-0.6,0.5l0.5,0.5l-0.6,0.6l0.6,0.6l-0.5,0.7l0.5,0.8H94h4.6l0.7-0.9l-0.5-0.6l0.6-0.7l-0.6-0.6l0.5-0.5l-0.6-0.6
	l0.6-0.7l-0.5-0.6l0.5-0.8L99-37.3c0.1-1.3,0.5-2.6,1.1-3.7c0.8-1.5,1.7-3,2.5-4.5C103.8-47.6,104.4-49.7,104.3-52z M96-47.2V-36h-1
	v-11.6l2.9-4.5l1,0.7L96-47.2z"/>
<path id="XMLID_62_" d="M25.1-60h-0.2L7.4-45H13v15h5.7h12.5H37v-15h5.9L25.1-60z M29-37h-8v-8h8V-37z"/>
<path id="XMLID_118_" d="M173.5-44.3L165-61.8V-50h0.1c0.4,0,0.7,0.7,0.7,1.1c0,0.6-0.5,1.2-1.2,1.2c-0.6,0-1.2-0.5-1.2-1.1
	c0-0.5,0.7-0.9,0.7-1.1v-11.7l-8.2,17.3c0,0,6,3.3,6,8.3H159v2h3v4h1h2.5h2.5v-4h3v-2h-3.2C167.8-41,173.5-44.3,173.5-44.3z"/>
<g id="GYYMVZ.tif">
	<g id="XMLID_105_">
		<path id="XMLID_148_" d="M16.9,84.6c0.2,0,0.4,0.1,0.6,0.1c1.2,0.2,2,1.2,2,2.4c0,1.2-0.8,2.1-1.9,2.3c-1,0.2-1.9,0.1-2.7-0.7
			c-0.3-0.3-0.5-0.7-0.6-1.2c0,0,0-0.1-0.1-0.1c0-0.3,0-0.5,0-0.8c0,0,0,0,0-0.1c0.2-1.1,0.9-1.7,2-1.9c0.2,0,0.4-0.1,0.6-0.1
			C16.9,84.6,16.9,84.6,16.9,84.6z"/>
		<path id="XMLID_146_" d="M21.8,91.4c1.6,0,3.1,0,4.7,0c0,0.6,0,1.3,0,1.9c0.1-0.1,0.1-0.1,0.1-0.1c1.1-1.6,2.6-2.2,4.4-2.1
			c2.5,0.1,4.4,1.7,4.9,4.3c0.1,0.7,0.2,1.4,0.2,2.1c0,2.6,0,5.1,0,7.7c0,0.1,0,0.2,0,0.3c-1.6,0-3.1,0-4.7,0c0-0.1,0-0.2,0-0.3
			c0-2.4,0-4.9,0-7.3c0-0.4-0.1-0.9-0.2-1.3c-0.2-0.8-0.7-1.5-1.5-1.7c-0.9-0.2-1.8,0-2.4,0.7c-0.5,0.5-0.8,1.1-0.8,1.8
			c0,2.6,0,5.2,0,7.8c0,0.1,0,0.2,0,0.3c-1.6,0-3.1,0-4.7,0C21.8,100.8,21.8,96.1,21.8,91.4z"/>
		<path id="XMLID_145_" d="M14.5,91.4c1.5,0,3.1,0,4.6,0c0,4.7,0,9.4,0,14.1c-1.5,0-3.1,0-4.6,0C14.5,100.8,14.5,96.1,14.5,91.4z"/>
	</g>
</g>
<g id="XMLID_141_">
	<polygon id="XMLID_181_" points="161.7,27 166.8,27 179.5,15.4 180,15.7 180,15 149.3,15 	"/>
	<polygon id="XMLID_182_" points="167.2,28 161.3,28 161.2,27.9 149,16.3 149,37 180,37 180,16.4 	"/>
</g>
<g id="FwRkvf.tif">
	<g id="XMLID_152_">
		<path id="XMLID_194_" d="M81.3,94.9c0.3-1.4,0.8-2.6,1.7-3.7c1.9-2,4.9-2.7,7.4-1.6c2.6,1.1,4.1,3.7,3.9,6.7
			c-0.2,2.6-2.2,4.9-4.8,5.6c-3.8,1-7.5-1.4-8.1-5.3c0-0.1-0.1-0.1-0.1-0.2C81.3,95.9,81.3,95.4,81.3,94.9z"/>
		<path id="XMLID_193_" d="M108.8,96.5c-0.3,1.4-0.8,2.6-1.7,3.7c-1.9,2-4.9,2.7-7.4,1.6c-2.6-1.1-4.1-3.7-3.9-6.7
			c0.2-2.6,2.2-4.9,4.8-5.6c3.8-1,7.5,1.4,8.1,5.3c0,0.1,0.1,0.1,0.1,0.2C108.8,95.4,108.8,95.9,108.8,96.5z"/>
	</g>
</g>
<g id="syc5yU.tif">
	<g id="XMLID_235_">
		<path id="XMLID_272_" d="M176.6,96.4c0,0.7,0,1.4,0,2.1c0,0.2-0.1,0.4-0.1,0.5c-0.2,3.3-2,5.6-5.2,6.5c-2.3,0.7-4.7,0.8-7.1,0.7
			c-2.3-0.1-4.6-0.2-6.7-1.1c-2.2-0.8-3.7-2.3-4.2-4.6c-0.2-0.7-0.3-1.4-0.4-2.1c0-0.7,0-1.4,0-2.1c0-0.1,0.1-0.2,0.1-0.4
			c0.2-1.5,0.6-2.8,1.5-4c0.2-0.3,0.3-0.6,0.2-0.9c-0.3-1.2-0.4-2.4,0-3.6c0.5-1.8,0.3-1.5,2-1.2c1.4,0.2,2.5,1.1,3.6,1.9
			c0.2,0.1,0.5,0.2,0.7,0.2c2.5-0.5,4.9-0.6,7.4-0.1c0.5,0.1,0.8,0,1.1-0.3c1.3-1,2.6-1.8,4.3-1.9c0.4,0,0.6,0.1,0.8,0.5
			c0.6,1.5,0.6,3,0.2,4.5c-0.1,0.3,0,0.6,0.1,0.9c0.5,0.9,0.9,1.8,1.3,2.7C176.5,95.3,176.5,95.9,176.6,96.4z M164.7,105.1
			c0-0.1,0-0.1,0-0.2c0.5,0,1,0,1.5,0c1.7-0.1,3.4-0.2,5-1c1.9-1,2.8-3.4,2-5.6c-0.6-1.9-2.2-2.9-4.4-2.5c-2.7,0.4-5.3,0.5-8,0
			c-2.5-0.4-4.2,0.8-4.6,3.1c-0.5,2.7,0.9,4.9,3.7,5.5C161.4,104.8,163.1,104.9,164.7,105.1z"/>
		<path id="XMLID_265_" d="M162,99.9c0,0.8-0.2,1.5-0.7,2.1c-0.6,0.8-1.5,0.8-2.2,0.1c-1-1.1-1-3.4,0-4.5c0.6-0.7,1.5-0.7,2.1,0.1
			C161.9,98.3,162,99.1,162,99.9z"/>
		<path id="XMLID_264_" d="M167.5,99.8c0-0.9,0.2-1.6,0.9-2.2c0.5-0.5,1.3-0.6,1.9-0.1c1.2,1.1,1.2,3.7,0,4.7
			c-0.5,0.5-1.3,0.5-1.8,0C167.7,101.6,167.6,100.7,167.5,99.8z"/>
	</g>
</g>
</svg>
