<?xml version="1.0" encoding="utf-8"?>
<!-- Generator: Adobe Illustrator 19.0.0, SVG Export Plug-In . SVG Version: 6.00 Build 0)  -->
<svg version="1.1" id="Layer_1" xmlns="http://www.w3.org/2000/svg" xmlns:xlink="http://www.w3.org/1999/xlink" x="0px" y="0px"
	 viewBox="0 0 50 50" style="enable-background:new 0 0 50 50;" xml:space="preserve">
<path id="XMLID_85_" d="M-31.5-53l-1.5-2h-6.5l-1.7,2H-63v22h33v-22H-31.5z M-45.9-35.5c-3.7,0-6.6-3-6.6-6.6s3-6.6,6.6-6.6
	s6.6,3,6.6,6.6S-42.2-35.5-45.9-35.5z"/>
<g id="XMLID_124_">
	<polygon id="XMLID_126_" points="36.9,-50.9 39.5,-53.6 33.7,-59.1 31.1,-56.3 	"/>
	<polygon id="XMLID_127_" points="29.5,-54.7 11.7,-36.1 10.1,-28.8 17.6,-30.3 35.3,-49.2 	"/>
</g>
<g id="XMLID_298_">
	<rect id="XMLID_144_" x="15" y="-175" width="11" height="6"/>
	<g id="XMLID_140_">
		<path id="XMLID_273_" d="M21.5-190.7c-0.1,0-0.5,0.7-0.5,0.7h-1.4c0,0-0.2-0.7-0.3-0.7s-0.3,0.3-0.3,0.9v12.9h3v-12.9
			C22-190.4,21.6-190.7,21.5-190.7z"/>
		<path id="XMLID_274_" d="M20.3-201.2c-5.9,0-10.8,4.8-10.8,10.8c0,1.9,0.5,3.3,1.3,4.8l4,8.6H18v-12.9c0-1.2,0.5-2.2,1.5-2.2
			c0.4,0,0.6,0.2,0.9,0.4c0.3-0.3,0.5-0.4,0.9-0.4c1,0,1.7,1,1.7,2.2v12.9h3.3l4.5-11.9c0.1-0.6,0.2-1,0.2-1.6
			C31-196.5,26.2-201.2,20.3-201.2z"/>
	</g>
</g>
<path id="XMLID_318_" d="M-471-313c-57,0-114,0-171,0c0,52,0,104.3,0,156.3c0,8,0,16,0,24c0,77.3,0,154.7,0,231.7
	c57.5,0,114.7,0,172,0c7,0,14,0,21,0c57.7,0,115.3,0,173,0c0-77,0-154.5,0-231.7c0-8,0-16,0-24c0-52,0-104.3,0-156.3
	c-56.7,0-113.3,0-170,0C-454.3-313-462.7-313-471-313z M-458.5,49.3c-11.2,0-22.3,0-33.5,0C-480.8,49.2-469.7,49.3-458.5,49.3
	c5.4,0,10.8,0,16.2,0C-447.7,49.3-453.1,49.3-458.5,49.3z M-416.1-233.5c38.6,15.4,58.8,44.6,61.6,86c1.5,23.5-5,45.1-16,65.6
	c-8.4,15.5-17.4,30.6-25.9,46.1C-403.3-23.3-407.5-10-408,5c-34.2,0-68,0-102.1,0c-0.6-20-9.2-36.9-18.5-53.8
	c-9.7-17.6-19.8-35.1-27.8-53.5c-9.2-21.2-9.9-43.7-4.2-66.1c7.8-30.7,26.9-52,55.9-64.1C-475.4-244.7-445.5-245.2-416.1-233.5z"/>
<path id="XMLID_48_" d="M34.3-122c-0.3-4.1-2.3-7-6.1-8.5c-2.9-1.2-5.8-1.1-8.7,0.1c-2.9,1.2-4.7,3.3-5.5,6.3
	c-0.6,2.2-0.5,4.4,0.4,6.5c0.8,1.8,1.8,3,2.7,4.7c0.8,1.4,2,4.7,2.2,5.7l3.6,0v-9.9l-3.4-4.2l1.2-0.7l3.2,4.5v11.6h-4.9l0.3,0.2
	l-0.5,0.5l0.6,0.6l-0.6,0.5l0.5,0.5l-0.6,0.6l0.6,0.6l-0.5,0.7l0.5,0.8H24h4.6l0.7-0.9l-0.5-0.6l0.6-0.7l-0.6-0.6l0.5-0.5l-0.6-0.6
	l0.6-0.7l-0.5-0.6l0.5-0.8l-0.2-0.4c0.1-1.3,0.5-2.6,1.1-3.7c0.8-1.5,1.7-3,2.5-4.5C33.8-117.6,34.4-119.7,34.3-122z M26-117.2v11.2
	h-1v-11.6l2.9-4.5l1,0.7L26-117.2z"/>
<path id="XMLID_62_" d="M-44.9-130h-0.2l-17.5,15h5.6v15h5.7h12.5h5.8v-15h5.9L-44.9-130z M-41-107h-8v-8h8V-107z"/>
<path id="XMLID_118_" d="M103.5-114.3L95-131.8v11.8h0.1c0.4,0,0.7,0.7,0.7,1.1c0,0.6-0.5,1.2-1.2,1.2s-1.2-0.5-1.2-1.1
	c0-0.5,0.7-0.9,0.7-1.1v-11.7l-8.2,17.3c0,0,6,3.3,6,8.3H89v2h3v4h1h2.5H98v-4h3v-2h-3.2C97.8-111,103.5-114.3,103.5-114.3z"/>
<g id="GYYMVZ.tif">
	<g id="XMLID_105_">
		<path id="XMLID_148_" d="M-53.1,14.6c0.2,0,0.4,0.1,0.6,0.1c1.2,0.2,2,1.2,2,2.4c0,1.2-0.8,2.1-1.9,2.3c-1,0.2-1.9,0.1-2.7-0.7
			c-0.3-0.3-0.5-0.7-0.6-1.2c0,0,0-0.1-0.1-0.1c0-0.3,0-0.5,0-0.8c0,0,0,0,0-0.1c0.2-1.1,0.9-1.7,2-1.9c0.2,0,0.4-0.1,0.6-0.1
			C-53.1,14.6-53.1,14.6-53.1,14.6z"/>
		<path id="XMLID_146_" d="M-48.2,21.4c1.6,0,3.1,0,4.7,0c0,0.6,0,1.3,0,1.9c0.1-0.1,0.1-0.1,0.1-0.1c1.1-1.6,2.6-2.2,4.4-2.1
			c2.5,0.1,4.4,1.7,4.9,4.3c0.1,0.7,0.2,1.4,0.2,2.1c0,2.6,0,5.1,0,7.7c0,0.1,0,0.2,0,0.3c-1.6,0-3.1,0-4.7,0c0-0.1,0-0.2,0-0.3
			c0-2.4,0-4.9,0-7.3c0-0.4-0.1-0.9-0.2-1.3c-0.2-0.8-0.7-1.5-1.5-1.7c-0.9-0.2-1.8,0-2.4,0.7c-0.5,0.5-0.8,1.1-0.8,1.8
			c0,2.6,0,5.2,0,7.8c0,0.1,0,0.2,0,0.3c-1.6,0-3.1,0-4.7,0C-48.2,30.8-48.2,26.1-48.2,21.4z"/>
		<path id="XMLID_145_" d="M-55.5,21.4c1.5,0,3.1,0,4.6,0c0,4.7,0,9.4,0,14.1c-1.5,0-3.1,0-4.6,0C-55.5,30.8-55.5,26.1-55.5,21.4z"
			/>
	</g>
</g>
<g id="XMLID_141_">
	<polygon id="XMLID_181_" points="91.7,-43 96.8,-43 109.5,-54.6 110,-54.3 110,-55 79.3,-55 	"/>
	<polygon id="XMLID_182_" points="97.2,-42 91.3,-42 91.2,-42.1 79,-53.7 79,-33 110,-33 110,-53.6 	"/>
</g>
<g id="FwRkvf.tif">
	<g id="XMLID_152_">
		<path id="XMLID_194_" d="M11.3,24.9c0.3-1.4,0.8-2.6,1.7-3.7c1.9-2,4.9-2.7,7.4-1.6c2.6,1.1,4.1,3.7,3.9,6.7
			c-0.2,2.6-2.2,4.9-4.8,5.6c-3.8,1-7.5-1.4-8.1-5.3c0-0.1-0.1-0.1-0.1-0.2C11.3,25.9,11.3,25.4,11.3,24.9z"/>
		<path id="XMLID_193_" d="M38.8,26.5c-0.3,1.4-0.8,2.6-1.7,3.7c-1.9,2-4.9,2.7-7.4,1.6c-2.6-1.1-4.1-3.7-3.9-6.7
			c0.2-2.6,2.2-4.9,4.8-5.6c3.8-1,7.5,1.4,8.1,5.3c0,0.1,0.1,0.1,0.1,0.2C38.8,25.4,38.8,25.9,38.8,26.5z"/>
	</g>
</g>
<g id="syc5yU.tif">
	<g id="XMLID_235_">
		<path id="XMLID_272_" d="M106.6,26.4c0,0.7,0,1.4,0,2.1c0,0.2-0.1,0.4-0.1,0.5c-0.2,3.3-2,5.6-5.2,6.5c-2.3,0.7-4.7,0.8-7.1,0.7
			c-2.3-0.1-4.6-0.2-6.7-1.1c-2.2-0.8-3.7-2.3-4.2-4.6c-0.2-0.7-0.3-1.4-0.4-2.1c0-0.7,0-1.4,0-2.1c0-0.1,0.1-0.2,0.1-0.4
			c0.2-1.5,0.6-2.8,1.5-4c0.2-0.3,0.3-0.6,0.2-0.9c-0.3-1.2-0.4-2.4,0-3.6c0.5-1.8,0.3-1.5,2-1.2c1.4,0.2,2.5,1.1,3.6,1.9
			c0.2,0.1,0.5,0.2,0.7,0.2c2.5-0.5,4.9-0.6,7.4-0.1c0.5,0.1,0.8,0,1.1-0.3c1.3-1,2.6-1.8,4.3-1.9c0.4,0,0.6,0.1,0.8,0.5
			c0.6,1.5,0.6,3,0.2,4.5c-0.1,0.3,0,0.6,0.1,0.9c0.5,0.9,0.9,1.8,1.3,2.7C106.5,25.3,106.5,25.9,106.6,26.4z M94.7,35.1
			c0-0.1,0-0.1,0-0.2c0.5,0,1,0,1.5,0c1.7-0.1,3.4-0.2,5-1c1.9-1,2.8-3.4,2-5.6c-0.6-1.9-2.2-2.9-4.4-2.5c-2.7,0.4-5.3,0.5-8,0
			c-2.5-0.4-4.2,0.8-4.6,3.1c-0.5,2.7,0.9,4.9,3.7,5.5C91.4,34.8,93.1,34.9,94.7,35.1z"/>
		<path id="XMLID_265_" d="M92,29.9c0,0.8-0.2,1.5-0.7,2.1c-0.6,0.8-1.5,0.8-2.2,0.1c-1-1.1-1-3.4,0-4.5c0.6-0.7,1.5-0.7,2.1,0.1
			C91.9,28.3,92,29.1,92,29.9z"/>
		<path id="XMLID_264_" d="M97.5,29.8c0-0.9,0.2-1.6,0.9-2.2c0.5-0.5,1.3-0.6,1.9-0.1c1.2,1.1,1.2,3.7,0,4.7c-0.5,0.5-1.3,0.5-1.8,0
			C97.7,31.6,97.6,30.7,97.5,29.8z"/>
	</g>
</g>
</svg>
