<?xml version="1.0" encoding="utf-8"?>
<!-- Generator: Adobe Illustrator 19.0.0, SVG Export Plug-In . SVG Version: 6.00 Build 0)  -->
<svg version="1.1" xmlns="http://www.w3.org/2000/svg" xmlns:xlink="http://www.w3.org/1999/xlink" x="0px" y="0px"
	 viewBox="0 0 50 50" style="enable-background:new 0 0 50 50;" xml:space="preserve">
<style type="text/css">
	.st0{fill:#F37626;}
	.st1{fill:#FFFFFF;}
</style>
<g id="Layer_2">
	<rect x="-2" class="st0" width="52" height="50"/>
</g>
<g id="Layer_1">
	<g id="XMLID_426_">
		<g id="XMLID_429_">
			<path id="XMLID_436_" class="st0" d="M68.6,19.2c0-0.5-0.1-0.9-0.4-1.2c-0.4,0.4-0.5,0.9-0.5,1.4c0,0.4,0.3,0.7,0.5,0.7
				C68.6,20,68.6,19.5,68.6,19.2z M63.2,9.2c1.4-1.4,3.3-2.1,5.5-2.1c2.4,0,4.2,0.7,5.7,2.1c3,3,2.8,8.3,2.8,8.4v16.8h1.2V37h-4.7v7
				h-2.1v-7h-5.8v3.2h-2.1V37h-4.5v-2.5h1.2V17.9C60.3,17.7,60,12.4,63.2,9.2z M64,19.5c0-2.9,1.8-3.8,2.8-3.8h0.1H67
				c0,0,0.7,0.1,1.2,0.5c0.7-0.4,1.3-0.7,2.2-0.7c1.3,0,2.2,1.4,2.2,3.4c0,1.8-0.8,3.8-2.8,3.9v-1.3c1.2-0.1,1.4-1.6,1.4-2.6
				c0-1.2-0.5-2.1-0.9-2.1s-0.8,0.1-1.2,0.3c0.4,0.5,0.7,1.2,0.7,2c0,1.4-0.9,2.1-1.7,2.1c-0.5,0-0.9-0.1-1.3-0.5s-0.5-0.9-0.5-1.4
				c0-0.8,0.3-1.6,0.8-2.2c-0.1-0.1-0.3-0.1-0.4-0.1c-0.4,0.1-1.3,0.5-1.3,2.5c0,2.2,1.6,2.4,1.8,2.4h0.7v0.7v12h8.2V17.6
				c0-0.1,0.3-5-2.5-7.8C72.4,8.7,70.7,8,68.7,8c-2,0-3.6,0.7-4.7,1.8c-2.8,2.8-2.5,7.9-2.5,8v16.6h5.1V23.1
				C65.4,22.9,64,22,64,19.5z"/>
			<g id="XMLID_1_">
				<g>
					<path class="st1" d="M78.3,34.5V37h-4.7v7h-2.1v-7h-5.8v3.2h-2.1V37h-4.5v-2.5h1.2V17.9c0-0.1-0.3-5.5,2.9-8.7
						c1.3-1.4,3.3-2.1,5.5-2.1c2.4,0,4.2,0.7,5.7,2.1c3,3,2.8,8.2,2.8,8.4v16.8H78.3z"/>
				</g>
				<g>
				</g>
			</g>
			<path id="XMLID_432_" class="st0" d="M68.2,18c0.3,0.3,0.4,0.7,0.4,1.2c0,0.1,0,0.8-0.4,0.8c-0.3,0-0.5-0.3-0.5-0.7
				S67.8,18.4,68.2,18z"/>
			<path id="XMLID_431_" class="st0" d="M66.7,15.6c-0.9,0.1-2.8,1.1-2.8,3.8c0,2.4,1.4,3.3,2.5,3.6v11.3h-5.1V17.9
				c0,0-0.3-5.1,2.5-8C65,8.7,66.6,8,68.6,8c2,0,3.7,0.7,4.9,1.8c2.8,2.8,2.5,7.6,2.5,7.8v16.8h-8.2v-12v-0.7h-0.7
				c-0.3,0-1.8-0.1-1.8-2.4c0-2,1.1-2.4,1.3-2.5c0.1,0,0.3,0.1,0.4,0.1c-0.5,0.7-0.8,1.4-0.8,2.2c0,0.5,0.3,1.1,0.5,1.4
				c0.4,0.4,0.8,0.5,1.3,0.5c0.9,0,1.7-0.7,1.7-2.1c0-0.8-0.3-1.4-0.7-2c0.4-0.1,0.7-0.3,1.2-0.3c0.4,0,0.9,0.9,0.9,2.1
				c0,0.9-0.3,2.5-1.4,2.6V23c2-0.1,2.8-2.1,2.8-3.9c0-2-0.9-3.4-2.2-3.4c-0.8,0-1.6,0.3-2.2,0.7c-0.7-0.4-1.2-0.5-1.2-0.5h-0.1
				L66.7,15.6z"/>
		</g>
		<g id="XMLID_430_">
		</g>
	</g>
	<g id="XMLID_34_">
		<g id="XMLID_239_">
			<g id="XMLID_242_">
				<path id="XMLID_253_" class="st0" d="M102.9,30.9c0-1.9-1.5-3.4-3.4-3.4s-3.4,1.5-3.4,3.4s1.5,3.5,3.4,3.5
					C101.4,34.3,102.9,32.8,102.9,30.9z M105.4,23c0-1.9-1.5-3.4-3.5-3.4c-1.9,0-3.4,1.5-3.4,3.4s1.5,3.5,3.4,3.5
					C103.9,26.4,105.4,24.9,105.4,23z M88.1,26.3c1.9,0,3.4-1.5,3.4-3.4s-1.5-3.5-3.4-3.5s-3.4,1.6-3.4,3.5
					C84.6,24.8,86.2,26.3,88.1,26.3z M107.3,25c0,6.8-5.5,12.3-12.3,12.3S82.7,31.8,82.7,25S88.2,12.7,95,12.7S107.3,18.2,107.3,25z
					 M90.6,34.2c1.9,0,3.5-1.5,3.5-3.4s-1.5-3.5-3.5-3.5c-1.9,0-3.4,1.5-3.4,3.5C87.2,32.7,88.7,34.2,90.6,34.2z M95,21.2
					c1.9,0,3.5-1.5,3.5-3.5c0-1.9-1.6-3.4-3.5-3.4s-3.4,1.6-3.4,3.4C91.5,19.7,93.1,21.2,95,21.2z M95,23.9c-0.6,0-1.1,0.5-1.1,1.1
					s0.5,1.1,1.1,1.1s1.1-0.5,1.1-1.1S95.6,23.9,95,23.9z"/>
				<path id="XMLID_250_" class="st1" d="M95,4.3c11.4,0,20.7,9.2,20.7,20.6S106.4,45.7,95,45.7S74.3,36.4,74.3,25S83.6,4.3,95,4.3z
					 M95,37.3c6.8,0,12.3-5.5,12.3-12.3S101.8,12.7,95,12.7S82.7,18.2,82.7,25S88.2,37.3,95,37.3z"/>
				<path id="XMLID_249_" class="st1" d="M102,19.5c1.9,0,3.5,1.5,3.5,3.4s-1.5,3.5-3.5,3.5c-1.9,0-3.4-1.6-3.4-3.5
					S100.1,19.5,102,19.5z"/>
				<path id="XMLID_248_" class="st1" d="M99.5,27.4c1.9,0,3.4,1.5,3.4,3.4c0,1.9-1.5,3.5-3.4,3.5s-3.4-1.5-3.4-3.5
					C96.1,29,97.6,27.4,99.5,27.4z"/>
				<path id="XMLID_247_" class="st1" d="M98.4,17.8c0,1.9-1.6,3.5-3.5,3.5s-3.4-1.5-3.4-3.5c0-1.9,1.5-3.4,3.4-3.4
					C96.9,14.3,98.4,15.9,98.4,17.8z"/>
				<path id="XMLID_246_" class="st1" d="M95,23.9c0.6,0,1.1,0.5,1.1,1.1s-0.5,1.1-1.1,1.1s-1.1-0.5-1.1-1.1S94.4,23.9,95,23.9z"/>
				<path id="XMLID_245_" class="st1" d="M94.1,30.8c0,1.9-1.5,3.4-3.5,3.4c-1.9,0-3.4-1.5-3.4-3.4s1.5-3.5,3.4-3.5
					C92.5,27.3,94.1,28.8,94.1,30.8z"/>
				<path id="XMLID_244_" class="st1" d="M91.5,22.9c0,1.9-1.5,3.4-3.4,3.4s-3.4-1.5-3.4-3.4s1.5-3.5,3.4-3.5S91.5,21,91.5,22.9z"/>
			</g>
			<g id="XMLID_243_">
			</g>
		</g>
	</g>
	<g id="XMLID_188_">
		<g id="XMLID_191_">
			<polygon id="XMLID_194_" class="st1" points="168.4,23.7 162.2,30 158.2,30 164.4,23.7 158.2,17.5 162.2,17.5 			"/>
			<polygon id="XMLID_193_" class="st1" points="153.8,10.7 147.6,37.1 144.2,37.1 150.4,10.7 			"/>
			<polygon id="XMLID_90_" class="st1" points="139.8,17.5 133.5,23.7 139.8,30 135.8,30 129.6,23.7 135.8,17.5 			"/>
		</g>
		<g id="XMLID_192_">
		</g>
	</g>
	<g id="XMLID_19_">
		<g id="XMLID_325_">
			<g id="XMLID_328_">
				<path id="XMLID_346_" class="st1" d="M35.9,25.7l0.3,0.4l-5,9h0.9l0.8,6H17.1l0.9-6h0.8l-5-9l0.3-0.4c0.1-0.1,7.9-12.6,8.5-18.4
					V6.7h1.7h1.3h1.8v0.7C27.9,13.1,35.7,25.6,35.9,25.7z M29.8,34.7l4.7-8.6c-1.3-2.1-7.4-12.2-8.3-18h-0.5V23c0.7,0.3,1,0.9,1,1.6
					c0,0.9-0.8,1.7-1.7,1.7c-0.9,0-1.7-0.8-1.7-1.7c0-0.7,0.4-1.3,1-1.6V8.1h-0.5c-0.9,5.7-7,15.9-8.3,18l4.7,8.6L19.5,35h10.8
					L29.8,34.7z"/>
			</g>
			<g id="XMLID_329_">
			</g>
		</g>
	</g>
	<g id="XMLID_375_">
		<g id="XMLID_378_">
			<polygon id="XMLID_412_" class="st0" points="106.6,88.7 96.6,93.1 85.5,88.8 96.2,85.2 			"/>
			<polygon id="XMLID_411_" class="st0" points="95.8,94.4 95.8,105.8 85.2,100.7 85.2,90.1 			"/>
			<polygon id="XMLID_397_" class="st0" points="106.5,90.4 106.5,100.6 97.5,105.8 97.5,94.2 			"/>
			<path id="XMLID_380_" class="st1" d="M96.1,74.3c11.4,0,20.6,9.2,20.6,20.7s-9.2,20.7-20.6,20.7S75.4,106.5,75.4,95
				S84.6,74.3,96.1,74.3z M96.6,93.1l10-4.4l-10.4-3.5l-10.7,3.6L96.6,93.1z M106.5,100.6V90.4l-9,3.8v11.6L106.5,100.6z
				 M95.8,105.8V94.4l-10.7-4.3v10.6L95.8,105.8z"/>
		</g>
		<g id="XMLID_379_">
		</g>
	</g>
	<path id="XMLID_2_" class="st1" d="M165.3,78.9c0-2.5-2-4.5-4.5-4.5c-2.5,0-4.5,2-4.5,4.5s2,4.7,4.5,4.7
		C163.3,83.4,165.3,81.4,165.3,78.9z M168.7,68.3c0-2.5-2-4.5-4.7-4.5c-2.5,0-4.5,2-4.5,4.5s2,4.7,4.5,4.7
		C166.7,72.9,168.7,70.9,168.7,68.3z M145.6,72.7c2.5,0,4.5-2,4.5-4.5s-2-4.7-4.5-4.7c-2.5,0-4.5,2.1-4.5,4.7
		C140.9,70.7,143.1,72.7,145.6,72.7z M171.2,71c0,9.1-7.3,16.4-16.4,16.4c-9.1,0-16.4-7.3-16.4-16.4s7.3-16.4,16.4-16.4
		C163.9,54.6,171.2,61.9,171.2,71z M148.9,83.3c2.5,0,4.7-2,4.7-4.5s-2-4.7-4.7-4.7c-2.5,0-4.5,2-4.5,4.7
		C144.4,81.3,146.4,83.3,148.9,83.3z M154.8,65.9c2.5,0,4.7-2,4.7-4.7c0-2.5-2.1-4.5-4.7-4.5c-2.5,0-4.5,2.1-4.5,4.5
		C150.1,63.9,152.3,65.9,154.8,65.9z M154.8,69.5c-0.8,0-1.5,0.7-1.5,1.5c0,0.8,0.7,1.5,1.5,1.5c0.8,0,1.5-0.7,1.5-1.5
		C156.3,70.2,155.6,69.5,154.8,69.5z"/>
</g>
</svg>
