<?xml version="1.0" encoding="utf-8"?>

<svg version="1.1" id="Layer_1" xmlns="http://www.w3.org/2000/svg" xmlns:xlink="http://www.w3.org/1999/xlink" x="0px" y="0px"
	 viewBox="0 0 430 280" style="enable-background:new 0 0 430 280;" xml:space="preserve">
<style type="text/css">
	.st0{fill:#C4C4C4;}
    .st2{fill:#848484;}
	.st1{fill:#565656;}
	.st3{fill:#050202;}


</style>
<g id="XMLID_2_">
	<g id="XMLID_21_">
		<polygon id="XMLID_255_" class="st0 fade-in one" points="27.8,9.7 27.2,49.7 18.4,44.6 3.2,36 		"/>
		<polygon id="XMLID_254_" class="st0 fade-in two" points="46.5,60.6 49.4,24.2 90.9,10 		"/>
		<polygon id="XMLID_253_" class="st2 fade-in three" points="46.5,60.6 27.2,75.1 3.2,36 18.4,44.6 27.2,49.7 		"/>
		<polygon id="XMLID_154_" class="st0 fade-in one" points="70.3,87 92.2,120.6 63.3,120.6 		"/>
		<polygon id="XMLID_40_" class="st0 fade-in two" points="46.5,60.6 70.3,87 27.2,75.1 		"/>
		<polygon id="XMLID_39_" class="st1 fade-in two" points="70.3,87 63.3,120.6 48.2,97.6 		"/>
		<polygon id="XMLID_38_" class="st3" points="70.3,87 48.2,97.6 27.2,75.1 		"/>
		<polygon id="XMLID_37_" class="st3" points="49.4,24.2 46.5,60.6 27.2,49.7 		"/>
		<polygon id="XMLID_36_" class="st1 fade-in two" points="3.3,93 27.2,75.1 27.8,120.6 		"/>
		<polygon id="XMLID_35_" class="st2 fade-in one" points="3.2,93.1 27.8,120.6 3.2,120.6 		"/>
		<polygon id="XMLID_34_" class="st3 fade-in three" points="27.8,120.6 3.2,93.1 3.3,93 		"/>
		<polygon id="XMLID_31_" class="st2 fade-in one" points="27.8,9.7 3.2,36 3.2,9.7 		"/>
		<polygon id="XMLID_27_" class="st3" points="3.2,36 27.2,75.1 3.2,36.2 3.2,36 		"/>
		<polygon id="XMLID_26_" class="st3 fade-in two" points="3.2,36.2 27.2,75.1 3.3,93 3.2,92.9 		"/>
		<polygon id="XMLID_25_" class="st3 fade-in three" points="3.3,93 3.2,93.1 3.2,92.9 		"/>
		<polygon id="XMLID_24_" class="st3 fade-in one" points="3.2,36 3.2,36.2 3,35.8 		"/>
	</g>
	<g id="XMLID_22_">
	</g>
</g>
<g id="XMLID_41_">
	<g id="XMLID_52_">
		<polygon id="XMLID_63_" class="st0 fade-in three" points="204,9.7 181.6,52.4 176.7,9.7 		"/>
		<polygon id="XMLID_62_" class="st3" points="176.6,10 181.6,52.4 154.8,54.5 		"/>
		<polygon id="XMLID_61_" class="st1 fade-in one" points="181.6,52.4 166.9,78.1 166.7,78 154.8,54.5 		"/>
		<polygon id="XMLID_60_" class="st1" points="142.5,78.3 167.1,120.6 142.5,120.6 		"/>
		<polygon id="XMLID_59_" class="st3 fade-in one" points="131.4,59.1 166.8,78.3 166.9,78.1 167.1,78.3 167.1,120.6 142.5,78.3 		"/>
		<polygon id="XMLID_58_" class="st4 fade-in two" points="166.9,78.1 166.8,78.3 166.7,78 		"/>
		<polygon id="XMLID_57_" class="st0" points="131.4,59.1 143.9,32.8 154.8,54.5 166.7,78 		"/>
		<polygon id="XMLID_56_" class="st4 fade-in one" points="166.8,78.3 131.4,59.1 166.7,78 		"/>
		<polygon id="XMLID_55_" class="st2 fade-in three" points="133.9,9.7 143.9,32.8 105.7,9.7 		"/>
		<polygon id="XMLID_54_" class="st3 fade-in one" points="131.4,59.1 105.7,9.7 143.9,32.8 		"/>
	</g>
	<g id="XMLID_53_">
	</g>
</g>
<g id="XMLID_64_">
	<g id="XMLID_75_">
		<polygon id="XMLID_164_" class="st2 fade-in one" points="413,48.5 413,78.3 389,64.2 		"/>
		<polygon id="XMLID_163_" class="st1 fade-in two" points="400.4,23.4 413,48.5 389,64.2 392.1,53 		"/>
		<polygon id="XMLID_162_" class="st0 fade-in three" points="413,78.3 407.4,97.6 385,87.6 		"/>
		<polygon id="XMLID_131_" class="st1 fade-in one" points="413,78.3 385,87.6 389,64.2 		"/>
		<polygon id="XMLID_129_" class="st3" points="407.4,97.6 393.5,113.3 370.7,98.9 		"/>
		<polygon id="XMLID_127_" class="st1 fade-in two" points="407.4,97.6 370.7,98.9 385,87.6 		"/>
		<polygon id="XMLID_126_" class="st0" points="400.4,23.4 392.1,53 376.1,33 		"/>
		<polygon id="XMLID_125_" class="st0 fade-in one" points="393.5,113.3 374.4,121.7 370.7,98.9 		"/>
		<polygon id="XMLID_123_" class="st1 fade-in three" points="370.7,98.9 374.4,121.7 352.2,120.6 		"/>
		<polygon id="XMLID_122_" class="st1 fade-in two" points="358.9,30.1 400.4,23.4 376.1,33 		"/>
		<polygon id="XMLID_121_" class="st3 fade-in one" points="358.9,30.1 363.3,7.5 400.4,23.4 		"/>
		<polygon id="XMLID_120_" class="st1" points="358.9,30.1 336.5,14.1 363.3,7.5 		"/>
		<polygon id="XMLID_119_" class="st2 fade-in two" points="354.1,98 370.7,98.9 352.2,120.6 		"/>
		<polygon id="XMLID_118_" class="st0 fade-in one" points="336.5,14.1 358.9,30.1 344.2,38.3 		"/>
		<polygon id="XMLID_117_" class="st0 fade-in two" points="354.1,98 352.2,120.6 340.3,86.3 		"/>
		<polygon id="XMLID_116_" class="st1" points="336.5,14.1 344.2,38.3 336.5,59.3 		"/>
		<polygon id="XMLID_115_" class="st3 fade-in two" points="336.5,14.1 336.5,59.3 315.3,40.2 		"/>
		<polygon id="XMLID_114_" class="st1" points="336.5,59.3 311.4,68.2 315.3,40.2 		"/>
		<polygon id="XMLID_113_" class="st2 fade-in one" points="340.3,86.3 352.2,120.6 320.1,100 		"/>
		<polygon id="XMLID_111_" class="st1" points="320.1,100 336.5,59.3 340.3,86.3 		"/>
		<polygon id="XMLID_91_" class="st3 fade-in three" points="336.5,59.3 320.1,100 311.4,68.2 		"/>
		<polygon id="XMLID_88_" class="st0 fade-in two" points="295.5,98 295.1,120.6 249.1,97.7 		"/>
		<polygon id="XMLID_87_" class="st1 fade-in one" points="249.1,97.7 295.1,120.6 259.3,120.6 		"/>
		<polygon id="XMLID_82_" class="st2" points="249.1,97.7 259.3,120.6 224.5,120.6 		"/>
		<polygon id="XMLID_81_" class="st0 fade-in two" points="249.1,54.9 249.1,97.6 224.5,75.1 		"/>
		<polygon id="XMLID_80_" class="st1 fade-in one" points="249.1,9.7 249.1,54.9 224.5,33 		"/>
		<polygon id="XMLID_79_" class="st0 fade-in three" points="249.1,9.7 224.5,32.6 224.5,9.7 		"/>
		<polygon id="XMLID_77_" class="st3 fade-in one" points="249.1,54.9 224.5,75.1 224.5,33 		"/>
		<polygon id="XMLID_71_" class="st1" points="224.5,75.4 249.1,97.7 224.5,120.6 		"/>
	</g>
	<g id="XMLID_76_">
	</g>
</g>
<g id="XMLID_286_">
	<g id="XMLID_303_">
		<polygon id="XMLID_161_" class="st0 fade-in one" points="67.9,218.7 99.2,270.6 65,259.5 		"/>
		<polygon id="XMLID_160_" class="st2 fade-in one" points="99.2,270.6 70.5,270.8 65,259.5 		"/>
		<polygon id="XMLID_159_" class="st2 fade-in three" points="97.5,160.3 83.8,182.8 70.1,160.3 		"/>
		<polygon id="XMLID_158_" class="st3 fade-in two" points="70.1,160.3 83.8,182.8 50.8,191.9 		"/>
		<polygon id="XMLID_157_" class="st0 fade-in one" points="83.8,182.8 64.6,213.5 50.8,191.9 		"/>
		<polygon id="XMLID_156_" class="st3 fade-in two" points="64.6,213.5 67.9,218.7 49.7,236.9 50.8,191.9 		"/>
		<polygon id="XMLID_155_" class="st1 fade-in one" points="67.9,218.7 65,259.5 49.7,236.9 		"/>
		<polygon id="XMLID_153_" class="st0" points="31.9,160.3 50.8,191.9 26.4,200 		"/>
		<polygon id="XMLID_133_" class="st2 fade-in one" points="26.4,200 50.8,191.9 49.7,236.9 35.9,215 35.9,215 		"/>
		<polygon id="XMLID_33_" class="st3 fade-in two" points="1.8,160.3 31.9,160.3 26.4,200 		"/>
		<polygon id="XMLID_32_" class="st3" points="17.8,241.5 35.9,215 49.7,236.9 		"/>
		<polygon id="XMLID_28_" class="st1 fade-in one" points="49.7,236.9 28.6,270.6 17.8,241.5 		"/>
		<polygon id="XMLID_23_" class="st0" points="17.8,241.5 28.6,270.6 1,270.4 		"/>
	</g>
	<g id="XMLID_302_">
	</g>
</g>
<g id="XMLID_226_">
	<g id="XMLID_245_">
		<polygon id="XMLID_151_" class="st0 fade-in two" points="204,160.3 204.5,234 180.8,160.3 		"/>
		<polygon id="XMLID_150_" class="st2 fade-in three" points="180.8,160.3 204.5,234 180.6,225.6 		"/>
		<polygon id="XMLID_149_" class="st1 fade-in two" points="204.5,234 198,256.4 177.7,242.9 		"/>
		<polygon id="XMLID_148_" class="st0" points="204.5,234 177.7,242.9 180.6,225.6 		"/>
		<polygon id="XMLID_147_" class="st3 fade-in one" points="198,256.4 187.1,267.7 177.7,242.9 		"/>
		<polygon id="XMLID_146_" class="st1 fade-in three" points="177.7,242.9 187.1,267.7 156.5,272.5 		"/>
		<polygon id="XMLID_145_" class="st0 fade-in two" points="177.7,242.9 156.5,272.5 170,248.9 		"/>
		<polygon id="XMLID_144_" class="st2" points="156.5,272.5 157.9,250 170,248.9 		"/>
		<polygon id="XMLID_143_" class="st1" points="157.9,250 156.5,272.5 146,238.3 		"/>
		<polygon id="XMLID_142_" class="st3 fade-in one" points="146,238.3 156.5,272.5 128.9,259.5 		"/>
		<polygon id="XMLID_141_" class="st6" points="145.3,217.1 145.3,217.2 145.2,217.2 		"/>
		<polygon id="XMLID_137_" class="st6 fade-in one" points="145.3,217.1 145.2,217.2 145.2,217.2 		"/>
		<polygon id="XMLID_134_" class="st3" points="120.7,160.3 146.2,160.3 120.7,198.5 		"/>
		<polygon id="XMLID_124_" class="st0 fade-in one" points="146.2,160.3 145.3,217.1 120.7,198.5 		"/>
		<polygon id="XMLID_96_" class="st6 fade-in three" points="120.7,198.5 145.3,217.1 145.2,217.2 		"/>
		<polygon id="XMLID_85_" class="st2 fade-in two" points="120.7,198.5 145.2,217.2 120.7,236.9 		"/>
		<polygon id="XMLID_84_" class="st0 fade-in one" points="145.3,217.2 146,238.3 128.9,259.5 145.2,217.2 		"/>
		<polygon id="XMLID_83_" class="st1 fade-in three" points="120.7,236.9 145.2,217.2 145.2,217.2 128.9,259.5 		"/>
	</g>
	<g id="XMLID_244_">
	</g>
</g>
<g id="XMLID_176_">
	<g id="XMLID_206_">
		<polygon id="XMLID_140_" class="st7 fade-in one" points="309.8,270.9 309.5,270.9 309.5,270.7 		"/>
		<polygon id="XMLID_139_" class="st0 fade-in two" points="309.5,270.7 282.3,249.3 309.2,249.3 		"/>
		<polygon id="XMLID_138_" class="st7 fade-in two" points="282.3,249.3 309.5,270.7 309.5,270.9 		"/>
		<polygon id="XMLID_136_" class="st0 fade-in one" points="301,202.6 301,223.7 260,224 		"/>
		<polygon id="XMLID_135_" class="st3" points="236.8,270.7 282.3,249.3 309.5,270.9 		"/>
		<polygon id="XMLID_132_" class="st0 fade-in two" points="260,182.2 275,160.3 306.5,182.2 		"/>
		<polygon id="XMLID_130_" class="st3 fade-in three" points="275,160.3 260,182.2 236.8,160.3 		"/>
		<polygon id="XMLID_128_" class="st2 fade-in one" points="260,202.6 301,202.6 260,224 		"/>
		<polygon id="XMLID_86_" class="st0" points="260,224.5 260.7,248.8 236.8,217.2 260,202.6 260,224 		"/>
		<polygon id="XMLID_17_" class="st2 fade-in one" points="260,182.2 260,202.6 236.8,217.2 		"/>
		<polygon id="XMLID_14_" class="st3" points="236.8,217.2 260.7,248.8 236.8,270.7 		"/>
		<polygon id="XMLID_3_" class="st1 fade-in two" points="260.7,248.8 282.3,249.3 236.8,270.7 		"/>
		<polygon id="XMLID_1_" class="st1 fade-in three" points="236.8,160.3 260,182.2 236.8,217.2 		"/>
	</g>
	<g id="XMLID_205_">
	</g>
</g>
</svg>
