<?xml version="1.0" encoding="utf-8"?>
<!-- Generator: Adobe Illustrator 19.0.0, SVG Export Plug-In . SVG Version: 6.00 Build 0)  -->
<svg version="1.1" id="Layer_1" xmlns="http://www.w3.org/2000/svg" xmlns:xlink="http://www.w3.org/1999/xlink" x="0px" y="0px"
	 viewBox="-601.5 301 105 100" style="enable-background:new -601.5 301 105 100;" xml:space="preserve">
<style type="text/css">
	.st0{fill:#929292;}
	.st1{fill:#828383;}
	.st2{fill:#575757;}
	.st3{fill:#020101;}
</style>
<g id="XMLID_11_">
	<g id="XMLID_268_">
		<g id="XMLID_297_">
		</g>
	</g>
	<g id="XMLID_12_">
		<g id="XMLID_258_">
			<g id="XMLID_25_">
				<g>
					<polygon class="st0" points="-525.6,354.9 -513.9,373.3 -526.7,369.4 					"/>
					<polygon class="st1" points="-514.5,334.3 -519.6,342.3 -524.8,334.3 					"/>
					<polygon class="st2" points="-524.8,334.3 -519.6,342.3 -532,345.5 					"/>
					<polygon class="st3" points="-519.6,342.3 -526.9,353.1 -532,345.5 					"/>
					<polygon class="st2" points="-525.6,354.9 -526.7,369.4 -532.5,361.3 					"/>
					<polygon class="st1" points="-532,345.5 -532.5,361.3 -537.6,353.6 -541.3,348.3 					"/>
					<polygon class="st2" points="-532.5,361.3 -540.4,373.3 -544.5,363 					"/>
					<polygon class="st2" points="-539.2,334.3 -541.3,348.3 -550.5,334.3 					"/>
					<polygon class="st3" points="-544.5,363 -540.4,373.3 -550.1,373.2 					"/>
					<polygon class="st2" points="-558,361.6 -550.1,373.2 -560.6,373.3 					"/>
					<polygon class="st3" points="-550.5,334.3 -566.8,352.2 -565.8,339.4 					"/>
					<polygon class="st2" points="-566.8,352.2 -558,361.6 -574.1,357.3 					"/>
					<polygon class="st0" points="-558,361.6 -560.6,373.3 -566.3,365.2 					"/>
					<polygon class="st0" points="-566.8,352.2 -574.1,357.3 -583.1,343.6 -574.1,348.4 					"/>
					<polygon class="st2" points="-573.9,334.2 -574.1,348.4 -583.1,343.6 					"/>
					<polygon class="st3" points="-573.9,334.2 -583.1,343.6 -583.1,334.2 					"/>
					<polygon class="st3" points="-574.1,357.3 -573.9,373.3 -583.1,363.7 					"/>
					<polygon class="st2" points="-583.1,363.7 -573.9,373.3 -583.1,373.3 					"/>
				</g>
				<g>
				</g>
			</g>
		</g>
		<g id="XMLID_257_">
		</g>
	</g>
</g>
</svg>
