<?xml version="1.0" encoding="utf-8"?>
<!-- Generator: Adobe Illustrator 19.0.0, SVG Export Plug-In . SVG Version: 6.00 Build 0)  -->
<svg version="1.1" id="Layer_1" xmlns="http://www.w3.org/2000/svg" xmlns:xlink="http://www.w3.org/1999/xlink" x="0px" y="0px"
	 viewBox="-601.5 301 105 100" style="enable-background:new -601.5 301 105 100;" xml:space="preserve">
<style type="text/css">
	.st0{fill:#020101;}
	.st1{fill:#575757;}
	.st2{fill:#FFFFFF;}
	.st3{fill:#929292;}
	.st4{fill:#060404;}
	.st5{fill:#828383;}
</style>
<rect id="XMLID_28_" x="-628" y="301" class="st0" width="149" height="100"/>
<g id="XMLID_11_">
	<g id="XMLID_268_">
		<g id="XMLID_298_">
			<polygon id="XMLID_24_" class="st1" points="-555.3,356.9 -549.3,365.8 -557.3,365.9 			"/>
			<polygon id="XMLID_23_" class="st2" points="-549.6,336 -562.1,349.7 -561.3,339.9 			"/>
			<polygon id="XMLID_22_" class="st1" points="-562.1,349.7 -555.3,356.9 -567.7,353.6 			"/>
			<polygon id="XMLID_21_" class="st3" points="-555.3,356.9 -557.3,365.9 -561.7,359.7 			"/>
			<polygon id="XMLID_20_" class="st3" points="-562.1,349.7 -567.7,353.6 -574.6,343.1 -567.7,346.8 			"/>
			<polygon id="XMLID_19_" class="st1" points="-567.5,335.9 -567.7,346.8 -574.6,343.1 			"/>
			<polygon id="XMLID_18_" class="st2" points="-567.5,335.9 -574.6,343.1 -574.6,335.9 			"/>
			<polygon id="XMLID_17_" class="st2" points="-567.7,353.6 -567.5,365.9 -574.6,358.5 			"/>
			<path id="XMLID_16_" class="st4" d="M-574.6,358.5l7.1,7.4L-574.6,358.5z"/>
			<polygon id="XMLID_15_" class="st1" points="-574.6,358.5 -567.5,365.9 -574.6,365.9 			"/>
			<polygon id="XMLID_14_" class="st4" points="-574.6,343.1 -567.7,353.6 -574.6,343.1 			"/>
			<polygon id="XMLID_13_" class="st4" points="-574.6,358.5 -574.6,358.5 -574.6,358.4 			"/>
			<polygon id="XMLID_10_" class="st4" points="-574.6,343.1 -574.6,343.1 -574.7,343 			"/>
		</g>
		<g id="XMLID_297_">
		</g>
	</g>
	<g id="XMLID_12_">
		<g id="XMLID_258_">
			<polygon id="XMLID_9_" class="st3" points="-530.5,351.8 -521.5,365.9 -531.3,362.9 			"/>
			<polygon id="XMLID_8_" class="st5" points="-522,336 -525.9,342.1 -529.9,336 			"/>
			<polygon id="XMLID_7_" class="st1" points="-529.9,336 -525.9,342.1 -535.4,344.6 			"/>
			<polygon id="XMLID_6_" class="st2" points="-525.9,342.1 -531.5,350.4 -535.4,344.6 			"/>
			<polygon id="XMLID_5_" class="st1" points="-530.5,351.8 -531.3,362.9 -535.8,356.7 			"/>
			<polygon id="XMLID_4_" class="st5" points="-535.4,344.6 -535.8,356.7 -539.7,350.8 -539.7,350.8 -542.5,346.7 			"/>
			<polygon id="XMLID_3_" class="st1" points="-535.8,356.7 -541.8,365.9 -545,358 			"/>
			<polygon id="XMLID_2_" class="st1" points="-540.9,336 -542.5,346.7 -549.6,336 			"/>
			<polygon id="XMLID_1_" class="st2" points="-545,358 -541.8,365.9 -549.3,365.8 			"/>
		</g>
		<g id="XMLID_257_">
		</g>
	</g>
</g>
</svg>
