<?xml version="1.0" encoding="utf-8"?>
<!-- Generator: Adobe Illustrator 19.0.0, SVG Export Plug-In . SVG Version: 6.00 Build 0)  -->
<svg version="1.1" id="Layer_1" xmlns="http://www.w3.org/2000/svg" xmlns:xlink="http://www.w3.org/1999/xlink" x="0px" y="0px"
	 viewBox="-229 196 40 110" style="enable-background:new -229 196 40 110;" xml:space="preserve">
<style type="text/css">
	.st0{fill:#575757;}
	.st1{fill:#020000;}
	.st2{fill:#929292;}
	.st3{fill:#060404;}
	.st4{fill:#828383;}
</style>
<g id="XMLID_268_">
	<g id="XMLID_298_">
		<polygon id="XMLID_23_" class="st0" points="-203,228.4 -197.7,236.3 -204.7,236.4 		"/>
		<polygon id="XMLID_22_" class="st1" points="-198,210.1 -209,222.2 -208.3,213.5 		"/>
		<polygon id="XMLID_21_" class="st0" points="-209,222.2 -203,228.4 -213.9,225.6 		"/>
		<polygon id="XMLID_20_" class="st2" points="-203,228.4 -204.7,236.4 -208.6,231 		"/>
		<polygon id="XMLID_19_" class="st2" points="-209,222.2 -213.9,225.6 -220,216.3 -218.7,217 -213.9,219.5 		"/>
		<polygon id="XMLID_18_" class="st0" points="-213.8,210 -213.9,219.5 -218.7,217 -220,216.3 		"/>
		<polygon id="XMLID_17_" class="st1" points="-213.8,210 -220,216.3 -220,210 		"/>
		<polygon id="XMLID_16_" class="st1" points="-213.9,225.6 -213.8,236.4 -220,229.9 		"/>
		<path id="XMLID_15_" class="st3" d="M-220,229.9l6.2,6.5L-220,229.9z"/>
		<polygon id="XMLID_14_" class="st0" points="-220,229.9 -213.8,236.4 -220,236.4 		"/>
		<polygon id="XMLID_13_" class="st3" points="-220,216.3 -213.9,225.6 -220,216.3 		"/>
		<polygon id="XMLID_11_" class="st3" points="-220,229.9 -220,229.9 -220,229.8 		"/>
		<polygon id="XMLID_10_" class="st3" points="-220,216.3 -220,216.3 -220.1,216.3 		"/>
	</g>
	<g id="XMLID_297_">
	</g>
</g>
<g id="XMLID_12_">
	<g id="XMLID_258_">
		<polygon id="XMLID_9_" class="st4" points="-197.2,241.5 -200.7,246.9 -204.1,241.5 		"/>
		<polygon id="XMLID_8_" class="st2" points="-204.7,255.4 -196.7,267.8 -205.4,265.2 		"/>
		<polygon id="XMLID_7_" class="st1" points="-205.5,254.2 -209,249.1 -200.7,246.9 		"/>
		<polygon id="XMLID_6_" class="st0" points="-209,249.1 -204.1,241.5 -200.7,246.9 		"/>
		<polygon id="XMLID_5_" class="st0" points="-209.3,259.8 -204.7,255.4 -205.4,265.2 		"/>
		<polygon id="XMLID_4_" class="st4" points="-209,249.1 -209.3,259.8 -212.8,254.6 -212.8,254.6 -215.2,251 		"/>
		<polygon id="XMLID_3_" class="st0" points="-209.3,259.8 -214.7,267.8 -217.4,260.9 		"/>
		<polygon id="XMLID_2_" class="st1" points="-217.4,260.9 -214.7,267.8 -221.2,267.7 		"/>
		<polygon id="XMLID_1_" class="st0" points="-213.8,241.5 -215.2,251 -221.5,241.5 		"/>
	</g>
	<g id="XMLID_257_">
	</g>
</g>
</svg>
