<?xml version="1.0" encoding="utf-8"?>
<!-- Generator: Adobe Illustrator 19.0.0, SVG Export Plug-In . SVG Version: 6.00 Build 0)  -->
<svg version="1.1" id="Layer_1" xmlns="http://www.w3.org/2000/svg" xmlns:xlink="http://www.w3.org/1999/xlink" x="0px" y="0px"
	 viewBox="0 0 40 110" style="enable-background:new 0 0 40 110;" xml:space="preserve">
<style type="text/css">
	.st0{fill:#020101;}
	.st1{fill:#575757;}
	.st2{fill:#FFFFFF;}
	.st3{fill:#929292;}
	.st4{fill:#060404;}
	.st5{fill:#828383;}
</style>
<rect id="XMLID_28_" x="2" y="1.7" class="st0" width="35.8" height="92.2"/>
<g id="XMLID_268_">
	<g id="XMLID_298_">
		<polygon id="XMLID_23_" class="st1" points="26,32.4 31.3,40.3 24.3,40.4 		"/>
		<polygon id="XMLID_22_" class="st2" points="31,14.1 20,26.2 20.7,17.5 		"/>
		<polygon id="XMLID_21_" class="st1" points="20,26.2 26,32.4 15.1,29.6 		"/>
		<polygon id="XMLID_20_" class="st3" points="26,32.4 24.3,40.4 20.4,35 		"/>
		<polygon id="XMLID_19_" class="st3" points="20,26.2 15.1,29.6 9,20.3 10.3,21 15.1,23.5 		"/>
		<polygon id="XMLID_18_" class="st1" points="15.2,14 15.1,23.5 10.3,21 9,20.3 		"/>
		<polygon id="XMLID_17_" class="st2" points="15.2,14 9,20.3 9,14 		"/>
		<polygon id="XMLID_16_" class="st2" points="15.1,29.6 15.2,40.4 9,33.9 		"/>
		<polygon id="XMLID_15_" class="st4" points="9,33.9 15.2,40.4 9,33.9 		"/>
		<polygon id="XMLID_14_" class="st1" points="9,33.9 15.2,40.4 9,40.4 		"/>
		<polygon id="XMLID_13_" class="st4" points="9,20.3 15.1,29.6 9,20.3 9,20.3 		"/>
		<polygon id="XMLID_11_" class="st4" points="9,33.9 9,33.9 9,33.8 		"/>
		<polygon id="XMLID_10_" class="st4" points="9,20.3 9,20.3 8.9,20.3 		"/>
	</g>
	<g id="XMLID_297_">
	</g>
</g>
<g id="XMLID_12_">
	<g id="XMLID_258_">
		<polygon id="XMLID_9_" class="st5" points="31.8,45.5 28.3,50.9 24.9,45.5 		"/>
		<polygon id="XMLID_8_" class="st3" points="24.3,59.4 32.3,71.8 23.6,69.2 		"/>
		<polygon id="XMLID_7_" class="st2" points="23.5,58.2 20,53.1 28.3,50.9 		"/>
		<polygon id="XMLID_6_" class="st1" points="20,53.1 24.9,45.5 28.3,50.9 		"/>
		<polygon id="XMLID_5_" class="st1" points="19.7,63.8 24.3,59.4 23.6,69.2 		"/>
		<polygon id="XMLID_4_" class="st5" points="20,53.1 19.7,63.8 16.2,58.6 16.2,58.6 13.8,55 		"/>
		<polygon id="XMLID_3_" class="st1" points="19.7,63.8 14.3,71.8 11.6,64.9 		"/>
		<polygon id="XMLID_2_" class="st2" points="11.6,64.9 14.3,71.8 7.8,71.7 		"/>
		<polygon id="XMLID_1_" class="st1" points="15.2,45.5 13.8,55 7.5,45.5 		"/>
	</g>
	<g id="XMLID_257_">
	</g>
</g>
</svg>
