<?xml version="1.0" encoding="utf-8"?>
<!-- Generator: Adobe Illustrator 19.0.0, SVG Export Plug-In . SVG Version: 6.00 Build 0)  -->
<svg version="1.1" xmlns="http://www.w3.org/2000/svg" xmlns:xlink="http://www.w3.org/1999/xlink" x="0px" y="0px"
	 viewBox="0 0 700 700" style="enable-background:new 0 0 700 700;" xml:space="preserve">
<style type="text/css">
	.st0{opacity:0.5;}
	.st1{fill:#3A3D38;}
	.st2{fill:#020202;}
	.st3{fill:#FFFDFD;stroke:#B7B7B7;stroke-width:3;stroke-miterlimit:10;}
	.st4{fill:#FFFDFD;stroke:#95A0A0;stroke-width:3;stroke-miterlimit:10;}
	.st5{fill:#95A0A0;}
	.st6{fill:#83FF0B;}
	.st7{fill:#727271;}
	.st8{fill:url(#XMLID_243_);}
	.st9{fill:#636362;}
	.st10{fill:url(#XMLID_252_);}
	.st11{opacity:0.32;fill:url(#XMLID_253_);}
	.st12{fill:#B7B7B7;}
	.st13{fill:#338987;}
	.st14{fill:#10BFBB;}
	.st15{fill:#666B6B;}
	.st16{fill:#FC5810;}
	.st17{fill:none;stroke:#FFFFFF;stroke-width:2.5;stroke-linecap:round;stroke-miterlimit:10;}
	.st18{fill:none;stroke:#338987;stroke-miterlimit:10;}
	.st19{fill:none;stroke:#338987;stroke-width:2;stroke-miterlimit:10;}
	.st20{fill:#098C82;}
	.st21{clip-path:url(#XMLID_255_);}
	.st22{fill:none;stroke:#10BFBB;stroke-width:2;stroke-miterlimit:10;}
	.st23{fill:#5B6B57;}
	.st24{fill:#892B2B;}
	.st25{fill:#E54141;}
	.st26{fill:#3D3F3F;}
	.st27{fill:url(#XMLID_256_);}
	.st28{fill:url(#XMLID_257_);}
	.st29{fill:#90B2AE;}
	.st30{fill:#DDDDDD;}
	.st31{opacity:0.72;fill:#90B2AE;}
	.st32{fill:#0D726D;}
	.st33{fill:none;stroke:#0D726D;stroke-width:3;stroke-miterlimit:10;}
	.st34{fill:#0AA098;}
	.st35{fill:#CE3F0D;}
	.st36{fill:none;stroke:#10BFBB;stroke-width:2.5;stroke-linecap:round;stroke-miterlimit:10;}
	.st37{fill:#0A9187;}
	.st38{opacity:0.59;fill:#892913;}
	.st39{fill:url(#XMLID_258_);}
	.st40{opacity:0.54;fill:url(#XMLID_259_);}
	.st41{opacity:0.54;fill:url(#XMLID_260_);}
	.st42{opacity:0.54;fill:url(#XMLID_261_);}
	.st43{clip-path:url(#XMLID_263_);}
	.st44{fill:none;stroke:#CE3F0D;stroke-width:2;stroke-miterlimit:10;}
	.st45{fill:none;stroke:#10BFBB;stroke-width:2.6;stroke-miterlimit:10;}
	.st46{fill:#FF8A61;}
	.st47{fill:#266A6D;}
	.st48{fill:none;stroke:#266A6D;stroke-width:2;stroke-miterlimit:10;}
	.st49{opacity:0.45;fill:url(#XMLID_264_);}
</style>
<g id="Layer_1">
	<g id="Y6Vj0E.tif" class="st0">
		
			<image style="overflow:visible;" width="2996" height="2037" id="Layer_1_1_" xlink:href="C25489B1F4B39304.png"  transform="matrix(0.2064 0 0 0.2064 49.0123 153.5607)">
		</image>
	</g>
</g>
<g id="Layer_5">
	<rect id="XMLID_55_" x="-111" y="-42" class="st1" width="850" height="766"/>
</g>
<g id="Layer_2">
	<polygon id="XMLID_250_" class="st2" points="273.6,219 277,237.3 309,231.5 306.2,211.2 	"/>
	<g id="XMLID_361_">
		<path id="XMLID_363_" class="st2" d="M470.4,198.7c2.7,0.2,5.4-0.3,7.9-1.3c-0.2-1.7-0.4-3.4-0.7-5c-2.5,0.9-5.2,1.4-7.8,1.4
			C470,195.4,470.2,197.1,470.4,198.7z"/>
		<path id="XMLID_364_" class="st2" d="M469.3,191.4c2.7,0,5.4-0.5,7.8-1.5c-0.3-1.8-0.7-3.5-1.2-5.2c-2.4,1.2-5,2-7.7,2.2
			C468.7,188.4,469.1,189.9,469.3,191.4z"/>
		<path id="XMLID_365_" class="st2" d="M466.6,180.9c0.4,1.2,0.8,2.4,1.1,3.6c2.7-0.2,5.3-1,7.7-2.2c-0.5-1.6-1-3.2-1.5-4.8
			C471.6,179.1,469.2,180.3,466.6,180.9z"/>
		<path id="XMLID_366_" class="st2" d="M376.5,125.1c1.7,0.1,3.4,0.2,5.1,0.4c0.8-2.6,0.8-5.4,0.2-8c-1.7-0.2-3.4-0.3-5.1-0.4
			c0.3,1.4,0.4,2.7,0.3,3.8C377,122.4,376.8,123.8,376.5,125.1z"/>
		<path id="XMLID_367_" class="st2" d="M398.8,120.3c-2.1-0.5-4.1-0.9-6.1-1.2c0.2,2.7-0.2,5.4-1.2,7.9c1.9,0.3,3.8,0.7,5.8,1.2
			C398.5,125.7,399.1,122.9,398.8,120.3z"/>
		<path id="XMLID_368_" class="st2" d="M390.2,118.6c-2-0.3-4-0.6-6-0.8c0.5,2.6,0.4,5.4-0.3,8c1.7,0.2,3.4,0.4,5.1,0.7
			C390.1,124,390.5,121.3,390.2,118.6z"/>
		<path id="XMLID_369_" class="st2" d="M478.9,212.9c0-1.7,0.1-3.5,0-5.2c-1.8,0.6-3.7,1.1-5.7,1.1c0,0,0,0,0,0
			c-0.8,0-1.5-0.1-2.2-0.2c0,2.5-0.1,4.9-0.2,7.4L478.9,212.9z"/>
		<path id="XMLID_370_" class="st2" d="M469.9,168.2c-0.8-1.6-1.7-3.2-2.6-4.7c-0.2,0.3-0.5,0.5-0.7,0.8c-1.7,1.7-3.5,3.2-5.5,4.6
			c0.7,1.3,1.4,2.6,2.1,4C465.7,171.6,468,170.1,469.9,168.2z"/>
		<path id="XMLID_371_" class="st2" d="M465.8,178.7c2.5-0.5,4.9-1.8,7.2-3.5c0-0.1-0.1-0.1-0.1-0.2c-0.6-1.5-1.2-3-1.9-4.5
			c-2,1.8-4.3,3.4-6.8,4.5c0.4,1,0.8,1.9,1.2,2.9C465.6,178.1,465.7,178.4,465.8,178.7z"/>
		<path id="XMLID_372_" class="st2" d="M442.3,142.7c0.6-1,1.4-2.7,1.3-4.2c-1.4-1-2.9-1.9-4.5-2.9c-0.5,2.7-1.5,5.3-2.9,7.6
			c1.4,0.9,2.7,1.8,4,2.7C440.9,144.9,441.6,143.9,442.3,142.7z"/>
		<path id="XMLID_373_" class="st2" d="M430.7,131.1c-1.9-0.9-3.9-1.9-6-2.7c-0.2,2.7-0.9,5.4-2.2,7.8c1.7,0.8,3.4,1.5,5.1,2.4
			c0.8-1.5,1.6-3.1,2.2-4.7C430.3,132.8,430.6,131.9,430.7,131.1z"/>
		<path id="XMLID_374_" class="st2" d="M417.4,125.6c0,1.9-0.5,3.7-0.9,5.1c-0.3,0.9-0.7,1.8-1.2,2.7c1.7,0.6,3.4,1.3,5.1,1.9
			c1.3-2.4,2-5.1,2-7.8C420.8,126.8,419.1,126.2,417.4,125.6z"/>
		<path id="XMLID_375_" class="st2" d="M433,132.3c-0.2,0.9-0.5,1.8-0.8,2.5c-0.7,1.7-1.5,3.3-2.3,4.8c1.5,0.8,2.9,1.6,4.3,2.4
			c1.5-2.3,2.4-5,2.8-7.7C435.6,133.6,434.3,132.9,433,132.3z"/>
		<path id="XMLID_376_" class="st2" d="M464.9,162.5c0.4-0.4,0.8-0.8,1.1-1.2c-1.1-1.7-2.2-3.3-3.4-4.9c-1.5,2.3-3.4,4.3-5.5,6
			c1,1.4,2,2.8,2.9,4.3C461.7,165.4,463.4,164.1,464.9,162.5z"/>
		<path id="XMLID_377_" class="st2" d="M449.9,143.3c-1.3-1.1-2.7-2.2-4.1-3.2c-0.2,1.2-0.7,2.4-1.4,3.8c-0.7,1.2-1.5,2.4-2.3,3.5
			c1.3,1,2.5,1.9,3.7,2.9C447.6,148.3,449,145.9,449.9,143.3z"/>
		<path id="XMLID_378_" class="st2" d="M447.6,151.9c1,0.9,1.9,1.8,2.8,2.7c0.9-0.8,1.8-1.6,2.6-2.5c0.8-0.9,1.8-2.3,2.4-3.8
			c-1.1-1.1-2.3-2.2-3.6-3.3C450.9,147.5,449.4,149.9,447.6,151.9z"/>
		<path id="XMLID_379_" class="st2" d="M461,154.4c-1.2-1.5-2.4-2.9-3.8-4.3c-0.6,1.2-1.4,2.4-2.4,3.6c-0.9,1-1.8,1.8-2.8,2.6
			c1.2,1.3,2.4,2.7,3.5,4.1C457.7,158.8,459.5,156.7,461,154.4z"/>
		<path id="XMLID_380_" class="st2" d="M473.2,206.4C473.2,206.4,473.2,206.4,473.2,206.4c1.9,0,3.8-0.6,5.7-1.2
			c-0.1-1.8-0.2-3.6-0.3-5.3c-2.3,0.8-4.7,1.3-7.1,1.3c-0.3,0-0.5,0-0.8,0c0.1,1.7,0.2,3.4,0.3,5
			C471.7,206.3,472.4,206.4,473.2,206.4z"/>
		<path id="XMLID_381_" class="st2" d="M341,121.4c-1.6,0.5-3.1,1-4.6,1.5c1.7,2,3,4.4,3.7,7c1.5-0.5,2.9-1,4.4-1.4
			C343.9,125.9,342.7,123.4,341,121.4z"/>
		<path id="XMLID_382_" class="st2" d="M404.6,129.9c1.4-2.3,2.3-5,2.3-7.6c-1.9-0.5-3.8-1-5.7-1.5c0.1,2.7-0.4,5.4-1.5,7.8
			C401.3,129.1,402.9,129.5,404.6,129.9z"/>
		<path id="XMLID_383_" class="st2" d="M358.1,119.9c-0.2-0.6-0.5-1.3-0.9-2c-1.8,0.2-3.5,0.5-5.2,0.8c1.4,2.3,2.3,4.9,2.5,7.5
			c1.5-0.3,3.1-0.5,4.6-0.7C359.1,123.6,358.8,121.7,358.1,119.9z"/>
		<path id="XMLID_384_" class="st2" d="M333.9,123.8c-1.5,0.6-2.9,1.2-4.3,1.8c1.7,2,2.9,4.4,3.7,7c1.5-0.7,3-1.3,4.5-1.9
			C337.1,128.1,335.8,125.7,333.9,123.8z"/>
		<path id="XMLID_385_" class="st2" d="M327.4,126.7c-1.7,0.8-3.3,1.7-4.9,2.6c2,1.8,3.5,4.1,4.5,6.6c1.4-0.8,2.8-1.5,4.2-2.2
			C330.4,131.1,329.1,128.7,327.4,126.7z"/>
		<path id="XMLID_386_" class="st2" d="M470.6,218.7c-3.2,40.3-25.5,78.4-25.8,78.9l6.9,4.1c0.4-0.7,10.7-18.2,18.6-42.6
			c5-15.4,7.8-30.1,8.5-43.7L470.6,218.7z"/>
		<path id="XMLID_387_" class="st2" d="M414.2,129.8c0.6-1.8,0.9-3.5,0.8-5.1c-1.5-0.5-2.9-1-4.4-1.4c-0.4-0.1-0.8-0.2-1.2-0.3
			c-0.2,2.7-0.9,5.3-2.3,7.7c0.4,0.1,0.8,0.2,1.2,0.4c1.6,0.5,3.2,1,4.8,1.5C413.5,131.6,413.9,130.7,414.2,129.8z"/>
		<path id="XMLID_388_" class="st2" d="M282.6,169.5c-6.4,10.8-9.1,19.2-9.3,19.7l7.6,2.4c0-0.1,3.1-9.3,10.3-20.9
			C288.4,170,285.5,169.5,282.6,169.5z"/>
		<path id="XMLID_389_" class="st2" d="M374.6,121c0-1.1-0.1-2.5-0.5-3.9c-2.1-0.1-4.1-0.1-6.1,0c0.8,2.5,1.2,5.2,1,7.9
			c1.6,0,3.3,0,5,0.1C374.4,123.7,374.6,122.3,374.6,121z"/>
		<path id="XMLID_390_" class="st2" d="M349.4,119.2c-2,0.4-4,0.9-6,1.4c1.6,2.1,2.8,4.6,3.4,7.2c1.8-0.5,3.5-0.9,5.3-1.2
			C352,124,351,121.3,349.4,119.2z"/>
		<path id="XMLID_391_" class="st2" d="M294.6,165.7c-2.6-1.1-5.4-1.9-8.3-2.1c-0.8,1.2-1.6,2.4-2.3,3.6c2.9,0.1,5.8,0.7,8.5,1.6
			C293.2,167.7,293.8,166.7,294.6,165.7z"/>
		<path id="XMLID_392_" class="st2" d="M320.3,130.5c-1.8,1.1-3.5,2.1-5.1,3.3c2.1,1.7,3.9,3.7,5.2,6c1.4-1,2.9-1.9,4.4-2.8
			C323.9,134.5,322.4,132.2,320.3,130.5z"/>
		<path id="XMLID_393_" class="st2" d="M360.4,119.1c0.7,2,1.1,4.1,1.2,6.3c1.7-0.1,3.4-0.2,5.1-0.3c0.2-2.7-0.2-5.4-1.1-7.9
			c-2,0.1-3.9,0.2-5.8,0.4C360,118.1,360.2,118.6,360.4,119.1z"/>
		<path id="XMLID_394_" class="st2" d="M290.7,157.3c-1,1.3-2,2.7-2.9,4c2.8,0.4,5.6,1.2,8.2,2.4c0.7-1,1.5-2,2.3-3
			C296,159.1,293.4,158,290.7,157.3z"/>
		<path id="XMLID_395_" class="st2" d="M295.7,151.3c-1.2,1.3-2.3,2.7-3.4,4c2.6,0.8,5.2,2,7.5,3.5c0.8-1,1.7-2,2.6-3.1
			C300.5,153.8,298.2,152.2,295.7,151.3z"/>
		<path id="XMLID_396_" class="st2" d="M306.9,140.2c-1.2,1.1-2.4,2.1-3.5,3.2c2.4,1.3,4.5,3,6.2,5.2c1.1-1,2.3-2.1,3.4-3
			C311.4,143.3,309.3,141.4,306.9,140.2z"/>
		<path id="XMLID_397_" class="st2" d="M313.1,135.2c-1.5,1.1-2.9,2.2-4.3,3.3c2.3,1.4,4.4,3.2,6,5.4c1.2-1,2.4-1.9,3.6-2.8
			C317.1,138.9,315.3,136.8,313.1,135.2z"/>
		<path id="XMLID_398_" class="st2" d="M301.5,145.1c-1.4,1.4-2.8,2.8-4.1,4.2c2.5,1.1,4.8,2.7,6.7,4.6c1.2-1.3,2.4-2.5,3.7-3.8
			c0,0,0,0,0,0C306.1,148,303.9,146.3,301.5,145.1z"/>
	</g>
	<path id="XMLID_8_" class="st3" d="M310,437c0,0-15.1,50.7-10.6,98.7c0,0-37.2,27.3-80.4,0.8l0,0c0,0,10-66.5,48-99.5
		S310,437,310,437z"/>
	<path id="XMLID_3_" class="st4" d="M337,436.4c0,0,27.3,35.1,26.8,100.1c0,0,43.9,30.8,83.9-6.8c0,0-10.7-66.5-68.2-103.5
		S337,436.4,337,436.4z"/>
	<polygon id="XMLID_2_" class="st5" points="243,217 261.8,381.1 388.5,363.5 383,396 189,423.5 171.5,226.5 	"/>
	<path id="XMLID_1_" class="st5" d="M368,163.1l51-0.1c0,0,27-3,33.5,19S469,394,469,394s2,18.5-26,28l-65.3,10.8l12.3-44.3
		L368,163.1z"/>
	<path id="XMLID_21_" class="st6" d="M403,163c0,0,18,3,20.5,23.5l5.8,61l4.9-23.2l-3.9-38.3c0,0-4.3-20.6-17-22.5L403,163z"/>
	<path id="XMLID_27_" class="st6" d="M433.8,347.3l3.4,45c0,0,2.1,19-20.1,34l13.1-2.2c0,0,16-8.1,16-29.1l-4.3-52.2L433.8,347.3z"
		/>
	<path id="XMLID_32_" class="st7" d="M432,218.2c0,0-2.4-28.1-3-32.5c-0.6-4.4-4.1-16-12-19.6c0,0-4.2-1.7-9.1-1.5L403,163
		c0,0,13-1.5,18.4,2.8c4.4,3.5,8.6,9.2,9.9,17.8c1.3,8.7,2.9,33.3,2.9,33.3L432,218.2z"/>
	<linearGradient id="XMLID_243_" gradientUnits="userSpaceOnUse" x1="412.8097" y1="213.382" x2="424.7054" y2="165.6709">
		<stop  offset="0" style="stop-color:#80ED3F"/>
		<stop  offset="1" style="stop-color:#8DC63F;stop-opacity:0"/>
	</linearGradient>
	<path id="XMLID_31_" class="st8" d="M432,218.2c0,0-2.4-28.1-3-32.5c-0.6-4.4-4.1-16-12-19.6c0,0-4.2-1.7-9.1-1.5L403,163
		c0,0,13-1.5,18.4,2.8c4.4,3.5,8.6,9.2,9.9,17.8c1.3,8.7,2.9,33.3,2.9,33.3L432,218.2z"/>
	<path id="XMLID_33_" class="st9" d="M440.7,347.3l3.3,47c0,0,0.5,15-9.7,24.2c0,0-3.4,3.4-13.3,5l-3.8,2.8c0,0,11.7-0.2,17.1-3.5
		c6.5-4,14.3-15.9,13.4-30c-1.7-21.2-3.6-47.4-3.6-47.4L440.7,347.3z"/>
	<linearGradient id="XMLID_252_" gradientUnits="userSpaceOnUse" x1="416.4065" y1="361.3061" x2="447.4817" y2="415.1299">
		<stop  offset="0" style="stop-color:#80ED3F"/>
		<stop  offset="1" style="stop-color:#8DC63F;stop-opacity:0"/>
	</linearGradient>
	<path id="XMLID_34_" class="st10" d="M440.7,347.3l3.3,47c0,0,0.5,15-9.7,24.2c0,0-3.4,3.4-13.3,5l-3.8,2.8c0,0,11.7-0.2,17.1-3.5
		c6.5-4,14.3-15.9,13.4-30c-1.7-21.2-3.6-47.4-3.6-47.4L440.7,347.3z"/>
	<path id="XMLID_40_" class="st6" d="M362,537l-0.8,16.2c0,0,21.8,17.5,55.9,11.5c0,0,24.2-3.4,34.2-18.9l-2.1-16.1l-1-2.9
		c0,0-16.5,17.1-34.8,19.1c-16.7,1.8-39.5-2.8-50.8-12.2L362,537z"/>
	<path id="XMLID_54_" class="st5" d="M400.2,442.5c0,0-16.6,10.8-52.1,13.7c0,0-3.9-10.9-7.2-16.5l42.8-6.8l4-0.9L400.2,442.5z"/>
	<path id="XMLID_30_" class="st6" d="M366.6,435.9c0,0,53.2,51.1,57.4,108.8l11.8-5.7c0,0-6.8-53.7-60.5-104.4L366.6,435.9z"/>
	<path id="XMLID_50_" class="st5" d="M374.5,434.6c0,0,47,44.4,55.8,99.6l5.6,2.9c0,0-2.8-30.9-29.5-70.9c0,0-14.8-21-26.8-32.5
		L374.5,434.6z"/>
	<linearGradient id="XMLID_253_" gradientUnits="userSpaceOnUse" x1="405.1635" y1="537.1355" x2="405.1635" y2="433.75">
		<stop  offset="0" style="stop-color:#49313F"/>
		<stop  offset="1" style="stop-color:#8DC63F;stop-opacity:0"/>
	</linearGradient>
	<path id="XMLID_52_" class="st11" d="M374.5,434.6c0,0,47,44.4,55.8,99.6l5.6,2.9c0,0-2.8-30.9-29.5-70.9c0,0-14.8-21-26.8-32.5
		L374.5,434.6z"/>
	<path id="XMLID_48_" class="st12" d="M248.3,458.6c0,0,26.2,4.9,55.6,4.9l4-18.7l-56.1,7.7L248.3,458.6z"/>
	<g id="XMLID_93_">
		<path id="XMLID_209_" class="st13" d="M60.6,320.4c-1.7-3-3.4-6.1-5-9.1c2-4.1,4-8.1,6-12.1c3.6-0.9,7.3-1.5,11-2.1
			c1.7,3.2,3.5,6.4,5.3,9.6c-2,3.6-4,7.4-6,11.2C68.1,318.6,64.3,319.4,60.6,320.4z"/>
		<path id="XMLID_118_" class="st13" d="M77.9,306.7c-1.8-3.2-3.5-6.4-5.3-9.6c2-3.7,3.9-7.4,5.9-11c3.7-0.3,7.4-0.5,11.1-0.5
			c1.8,3.4,3.6,6.7,5.5,10.1c-1.9,3.3-3.8,6.6-5.8,10.1C85.5,306,81.7,306.3,77.9,306.7z"/>
		<path id="XMLID_117_" class="st13" d="M95,315.7c-1.9-3.3-3.8-6.6-5.6-9.9c2-3.4,3.9-6.8,5.8-10.1c3.8,0.1,7.5,0.3,11.3,0.7
			c1.9,3.5,3.8,6.9,5.8,10.4c-1.9,3-3.7,6-5.6,9.2C102.7,315.8,98.8,315.7,95,315.7z"/>
		<path id="XMLID_116_" class="st13" d="M77.3,327.3c-1.8-3.1-3.6-6.3-5.4-9.4c2-3.8,4-7.5,6-11.2c3.8-0.4,7.6-0.7,11.4-0.9
			c1.9,3.3,3.7,6.6,5.6,9.9c-2,3.3-3.9,6.8-5.9,10.2C85.1,326.2,81.2,326.7,77.3,327.3z"/>
		<path id="XMLID_115_" class="st13" d="M94.8,335.7c-2-3.2-3.9-6.5-5.8-9.7c2-3.5,4-6.9,5.9-10.2c3.9,0,7.7,0.1,11.6,0.4
			c2,3.4,3.9,6.8,5.9,10.3c-1.9,3-3.8,6.2-5.8,9.3C102.8,335.5,98.8,335.5,94.8,335.7z"/>
		<path id="XMLID_114_" class="st13" d="M41.8,358.8c-1.6-2.8-3.2-5.6-4.8-8.3c2.1-4.6,4.2-9.1,6.2-13.5c3.7-1.6,7.4-3,11.1-4.2
			c1.7,2.9,3.4,5.9,5.1,8.9c-2.1,4.1-4.2,8.3-6.3,12.6C49.4,355.5,45.6,357.1,41.8,358.8z"/>
		<path id="XMLID_113_" class="st13" d="M59.6,341.6c-1.7-3-3.5-5.9-5.1-8.9c2.1-4.2,4.1-8.3,6.2-12.3c3.7-1,7.5-1.8,11.3-2.5
			c1.8,3.1,3.6,6.2,5.4,9.4c-2,3.7-4.1,7.5-6.2,11.4C67.3,339.5,63.4,340.4,59.6,341.6z"/>
		<path id="XMLID_112_" class="st13" d="M76.7,347.8c-1.9-3.1-3.7-6.1-5.6-9.2c2.1-3.9,4.1-7.7,6.2-11.4c3.9-0.6,7.8-1,11.7-1.3
			c1.9,3.2,3.8,6.5,5.8,9.7c-2,3.4-4,6.9-6.1,10.4C84.7,346.5,80.7,347.1,76.7,347.8z"/>
		<path id="XMLID_111_" class="st13" d="M58.5,362.8c-1.8-2.9-3.6-5.8-5.3-8.6c2.1-4.3,4.2-8.5,6.3-12.6c3.8-1.2,7.7-2.1,11.6-3
			c1.8,3,3.7,6.1,5.6,9.2c-2.1,3.8-4.2,7.6-6.3,11.6C66.4,360.4,62.5,361.5,58.5,362.8z"/>
		<path id="XMLID_110_" class="st13" d="M76.1,368.3c-1.9-3-3.8-6-5.7-9c2.1-3.9,4.2-7.8,6.3-11.6c4-0.7,8-1.3,12-1.7
			c2,3.2,3.9,6.3,5.9,9.5c-2.1,3.5-4.1,7-6.2,10.6C84.3,366.8,80.2,367.5,76.1,368.3z"/>
		<path id="XMLID_109_" class="st13" d="M112.5,326.4c-2-3.4-4-6.9-5.9-10.3c1.9-3.1,3.8-6.2,5.6-9.2c3.8,0.5,7.6,1.2,11.4,2
			c2,3.6,4,7.2,6,10.8c-1.8,2.7-3.6,5.5-5.4,8.3C120.3,327.3,116.4,326.8,112.5,326.4z"/>
		<path id="XMLID_108_" class="st13" d="M129.6,319.8c-2-3.6-4-7.2-6-10.8c1.8-2.8,3.5-5.5,5.3-8.1c3.7,1,7.4,2.2,11,3.6
			c2,3.8,4,7.6,6,11.4c-1.6,2.4-3.3,4.8-5,7.3C137.2,321.8,133.4,320.7,129.6,319.8z"/>
		<path id="XMLID_107_" class="st13" d="M147.1,334.3c-2.1-3.8-4.1-7.5-6.2-11.3c1.7-2.5,3.4-4.9,5-7.3c3.7,1.5,7.3,3.1,10.8,4.9
			c2,3.9,4.1,7.9,6.1,11.9c-1.5,2.1-3.1,4.2-4.6,6.4C154.6,337.2,150.9,335.7,147.1,334.3z"/>
		<path id="XMLID_106_" class="st13" d="M130.4,338.7c-2.1-3.6-4.1-7.1-6.2-10.7c1.8-2.8,3.6-5.6,5.4-8.3c3.8,0.9,7.6,2,11.3,3.3
			c2,3.7,4.1,7.5,6.2,11.3c-1.7,2.4-3.4,4.9-5.1,7.4C138.1,340.6,134.3,339.6,130.4,338.7z"/>
		<path id="XMLID_105_" class="st13" d="M148.3,352.9c-2.1-3.7-4.2-7.4-6.3-11.1c1.7-2.5,3.5-5,5.1-7.4c3.8,1.4,7.5,2.9,11.1,4.6
			c2.1,3.9,4.2,7.8,6.2,11.8c-1.6,2.1-3.1,4.3-4.8,6.5C155.9,355.6,152.1,354.2,148.3,352.9z"/>
		<path id="XMLID_104_" class="st13" d="M94.7,355.7c-2-3.2-4-6.4-5.9-9.5c2.1-3.6,4.1-7,6.1-10.4c4-0.2,7.9-0.2,11.9,0
			c2,3.4,4,6.7,6.1,10.1c-2,3.1-3.9,6.3-5.9,9.5C102.8,355.3,98.7,355.4,94.7,355.7z"/>
		<path id="XMLID_103_" class="st13" d="M112.8,345.8c-2.1-3.4-4.1-6.7-6.1-10.1c2-3.2,3.9-6.3,5.8-9.3c3.9,0.4,7.8,0.9,11.7,1.7
			c2,3.5,4.1,7.1,6.2,10.7c-1.8,2.7-3.7,5.6-5.6,8.4C120.8,346.5,116.8,346.1,112.8,345.8z"/>
		<path id="XMLID_102_" class="st13" d="M131.1,357.7c-2.1-3.5-4.2-7-6.3-10.5c1.9-2.9,3.7-5.7,5.6-8.4c3.9,0.8,7.8,1.8,11.6,3
			c2.1,3.7,4.2,7.4,6.3,11.1c-1.7,2.4-3.5,5-5.3,7.5C139.1,359.3,135.1,358.4,131.1,357.7z"/>
		<path id="XMLID_101_" class="st13" d="M113.1,365.2c-2.1-3.3-4.2-6.6-6.2-9.9c2-3.2,4-6.4,5.9-9.5c4,0.3,8,0.7,12,1.3
			c2.1,3.5,4.2,7,6.3,10.5c-1.9,2.8-3.8,5.7-5.7,8.6C121.3,365.8,117.2,365.4,113.1,365.2z"/>
		<path id="XMLID_100_" class="st13" d="M57.5,384c-1.8-2.8-3.7-5.6-5.4-8.4c2.2-4.3,4.3-8.6,6.5-12.8c3.9-1.3,7.9-2.4,11.9-3.4
			c1.9,3,3.8,6,5.7,9c-2.1,3.9-4.3,7.8-6.5,11.8C65.6,381.2,61.5,382.5,57.5,384z"/>
		<path id="XMLID_99_" class="st13" d="M38.9,402.6c-1.7-2.6-0.5-4.4-2.2-7c2.2-4.8,1.5-10.3,3.6-14.9c3.8-1.9,7.7-3.6,11.7-5.2
			c1.8,2.8,3.6,5.6,5.4,8.4c-2.2,4.3-4.4,8.6-6.6,13C46.8,398.7,42.9,400.6,38.9,402.6z"/>
		<path id="XMLID_98_" class="st13" d="M56.4,405.2c-1.9-2.7-3.7-5.5-5.6-8.2c2.2-4.4,4.4-8.8,6.6-13c4-1.4,8.1-2.7,12.2-3.8
			c1.9,2.9,3.9,5.8,5.9,8.8c-2.2,3.9-4.4,7.9-6.6,12C64.7,402.1,60.6,403.6,56.4,405.2z"/>
		<path id="XMLID_97_" class="st13" d="M75.6,388.9c-2-2.9-3.9-5.8-5.9-8.8c2.2-4,4.3-7.9,6.5-11.8c4.1-0.9,8.2-1.5,12.3-2.1
			c2,3.1,4,6.2,6.1,9.3c-2.1,3.5-4.2,7.1-6.4,10.8C83.9,387.1,79.7,387.9,75.6,388.9z"/>
		<path id="XMLID_96_" class="st13" d="M94.5,375.6c-2.1-3.1-4.1-6.2-6.1-9.3c2.1-3.6,4.2-7.2,6.2-10.6c4.1-0.3,8.1-0.4,12.2-0.3
			c2.1,3.3,4.1,6.6,6.2,9.9c-2,3.2-4,6.4-6.1,9.7C102.9,375,98.7,375.2,94.5,375.6z"/>
		<path id="XMLID_95_" class="st13" d="M113.4,384.7c-2.2-3.3-4.3-6.5-6.4-9.8c2.1-3.3,4.1-6.5,6.1-9.7c4.1,0.2,8.2,0.5,12.3,1
			c2.1,3.4,4.3,6.9,6.5,10.4c-1.9,2.8-3.9,5.8-5.9,8.7C121.8,385,117.6,384.7,113.4,384.7z"/>
		<path id="XMLID_94_" class="st13" d="M94.4,395.6c-2.1-3.1-4.2-6.1-6.2-9.1c2.2-3.7,4.3-7.3,6.4-10.8c4.2-0.4,8.3-0.6,12.5-0.7
			c2.1,3.2,4.2,6.5,6.4,9.8c-2.1,3.2-4.1,6.5-6.2,9.8C102.9,394.7,98.6,395,94.4,395.6z"/>
	</g>
	<polygon id="XMLID_220_" class="st13" points="41.8,358.8 40.1,369.8 69.3,375.2 68.7,336.8 	"/>
	<path id="XMLID_184_" class="st14" d="M89.6,285.2l3.4,5.7l-5.8,8l5.8,10.5l-5.8,9.8H75.5l-7,9.5l7,11.1l-5.8,9.7l-14,1.8l-6,12
		l-10.2,4.1c-10.7,44.5-2.8,84.4-2.8,84.4c46-36.4,104.5-33.5,104.5-33.5c-8.5-51.2,22.5-60,22.5-60l10-92
		C173.7,266.1,145.4,237.2,89.6,285.2z"/>
	<path id="XMLID_4_" class="st4" d="M357.3,164.7L167,195.3c-13.3,2.1-22.8,15.8-21.3,30.3l23,203c1.5,14.5,14.8,33,40.3,29.2
		l172-25.5c18.7-2.7,28.4-20.6,28.4-40.7l-12.9-201.2C395.5,175.6,380.5,159,357.3,164.7z M370.1,378.4L203,404l-19-170.9
		l172.4-27.9L370.1,378.4z"/>
	<path id="XMLID_222_" class="st5" d="M149.2,256l-16.9,3.5l-12.8,5.4c0,0,26.7,25.5,28.9,105.4c0,0,6.2-6.7,11.7-9L149.2,256z"/>
	<polygon id="XMLID_228_" class="st15" points="210.3,230.7 226,395 232,392.7 216.1,229.8 	"/>
	<polygon id="XMLID_231_" class="st15" points="218.3,229.8 234.5,391.6 239.9,389.4 223.9,229.1 	"/>
</g>
<g id="Layer_3">
	<g id="XMLID_7_">
		<g id="XMLID_18_">
			<path id="XMLID_60_" class="st16" d="M506.5,431.5c-4.3-5-4.6-9.8-3.1-14.1c3.9-8.6,15.1-15.4,16-15.9c0,0,0,0,0,0l3-6
				c-9-72-62.5-66.5-62.5-66.5s-24-7.7-25.7-49.7c-1.7-42,34.2-52.3,34.2-52.3s59-10.5,113,50.5c6.1,6.9,11.5,13.7,16.2,20.3
				c0,0,0,0.1,0.1,0.1c3,4.2,5.7,8.4,8.2,12.4c0,0,0,0,0,0c7.4,12.9,18.1,36,24.8,70.1c0.6,3,1.1,6,1.7,9.1c0,0,19.1,1.8,27.1,14.3
				s-1.4,17-1.4,17c2.2,2.8,3.7,5.9,3.9,9.5c1,16-24,11-28,8.5s-5.8-3.7-5.8-3.7l-0.9-0.1c-8,6.1-24.9-1.9-29.3-5.5
				c-2.2-1.8-4-3.8-5.5-5.6c-7.5,1.2-15.1-4.6-15.1-4.6c-3.5,1.1-6.9,1.3-8.5,1.5c-3.6,0.5-7.2-0.3-10.3-1.7
				c-1.3,0.4-2.8,0.7-4.3,0.8c-5.3,0.4-11.2-0.8-11.8-0.9c0,0,0,0,0,0c0,0,0,0,0,0c-0.8,1-13,16.1-24.7,17.1c0,0,0,0,0,0
				C512.8,435.9,508.9,433.4,506.5,431.5C506.5,431.5,506.5,431.5,506.5,431.5z"/>
			<path id="XMLID_38_" class="st16" d="M630.7,380.5c-6.7-34.2-17.4-57.2-24.8-70.1C624.5,340.8,629.5,366.6,630.7,380.5z"/>
			<path id="XMLID_37_" class="st16" d="M485.2,225.5c0,0,67.9,1.2,112.5,72.3c-4.7-6.6-10.1-13.4-16.2-20.3
				c-54-61-113-50.5-113-50.5s-35.8,10.3-34.2,52.3C436,321.3,460,329,460,329s53.5-5.5,62.5,66.5c-8-54.5-39.5-61.6-39.5-61.6
				s-3.9,12.2-18.3,17.9c-17.3,6.9-53.8-7.5-63.2-46.5c-9.3-39,5.5-92.2,41.5-97.2C473.8,203.7,485.2,225.5,485.2,225.5z"/>
			<path id="XMLID_61_" class="st16" d="M542.5,419.3c-9.2,14.2-17.9,17.6-24.7,17.1C529.5,435.3,541.7,420.2,542.5,419.3z"/>
			<path id="XMLID_58_" class="st16" d="M506.5,431.5c-1.6-1.4-2.5-2.5-2.5-2.5c-2.5-3.9-2.2-7.9-0.5-11.6
				C501.9,421.6,502.3,426.4,506.5,431.5z"/>
		</g>
		<g id="XMLID_19_">
			<path id="XMLID_49_" class="st17" d="M549.5,397.5c0,0,29-21,36.7,3.6c3.8,12-2.5,16.5-8.7,18.4c-3.5,1.1-6.9,1.3-8.5,1.5
				c-3.6,0.5-7.2-0.3-10.3-1.7c-5.3-2.3-9.2-6-9.2-6"/>
			<path id="XMLID_65_" class="st17" d="M517.7,436.3c6.8,0.6,15.5-2.8,24.7-17.1"/>
			<path id="XMLID_64_" class="st17" d="M503.5,417.4c-1.7,3.7-2,7.7,0.5,11.6c0,0,0.9,1.1,2.5,2.5"/>
			<path id="XMLID_59_" class="st17" d="M604,401.5c0,0,31,7.2,27.1,27c-0.6,3.1-2,5.3-3.8,6.7c-8,6.1-24.9-1.9-29.3-5.5
				c-2.2-1.8-4-3.8-5.5-5.6c-2.1-2.6-3.3-4.6-3.3-4.6"/>
			<path id="XMLID_39_" class="st17" d="M634,406.4c0,0,16.3,4.9,24.1,14.6c2.2,2.8,3.7,5.9,3.9,9.5c1,16-24,11-28,8.5
				s-5.8-3.7-5.8-3.7"/>
			<path id="XMLID_29_" class="st17" d="M577.5,419.5c0,0,7.5,5.8,15.1,4.6c0,0,0.1,0,0.1,0"/>
			<path id="XMLID_62_" class="st17" d="M557.8,419.5c-1.2,0.3-2.3,0.5-3.4,0.7c-6.4,0.9-11.3-0.7-11.8-0.9c0,0,0,0,0,0c0,0,0,0,0,0
				c-0.8,1-13,16.1-24.7,17.1c0,0,0,0,0,0c-3.9,0.3-7.8-0.9-11.2-4.9c0,0,0,0,0,0c-4.3-5-4.6-9.8-3.1-14.1c3.3-9,15.1-15.4,16-15.9
				c0,0,0,0,0,0l3-6c-8-54.5-39.5-61.6-39.5-61.6s-3.9,12.2-18.3,17.9c-17.3,6.9-53.8-7.5-63.2-46.5c-9.3-39,5.5-92.2,41.5-97.2
				c30.8-4.3,42.2,17.5,42.2,17.5s67.9,1.2,112.5,72.3c0,0,0,0.1,0.1,0.1c0.5,0.6,3.8,4.7,8.2,12.4c0,0,0,0,0,0
				c7.4,12.9,18.1,36,24.8,70.1c0.6,3,1.1,6,1.7,9.1c0,0,19.1,1.8,27.1,14.3s-1.4,17-1.4,17"/>
		</g>
	</g>
	<path id="XMLID_51_" class="st6" d="M300.8,533l2.5,17.3c0,0-16.8,18-58.8,12.8c0,0-7.9,1.3-29.9-10.8L218,533
		C218,533,249.7,558,300.8,533z"/>
	<polygon id="XMLID_63_" class="st18" points="57.1,773.7 47.7,757.3 57.1,741 76,741 85.4,757.3 76,773.7 	"/>
	<polygon id="XMLID_68_" class="st18" points="85.4,757.3 76,741 85.4,724.7 104.3,724.7 113.7,741 104.3,757.3 	"/>
	<polygon id="XMLID_69_" class="st18" points="113.7,773.7 104.3,757.3 113.7,741 132.6,741 142,757.3 132.6,773.7 	"/>
	<polygon id="XMLID_70_" class="st18" points="85.4,790 76,773.7 85.4,757.3 104.3,757.3 113.7,773.7 104.3,790 	"/>
	<polygon id="XMLID_71_" class="st18" points="113.7,806.3 104.3,790 113.7,773.7 132.6,773.7 142,790 132.6,806.3 	"/>
	<polygon id="XMLID_76_" class="st18" points="28.9,822.7 19.4,806.3 28.9,790 47.7,790 57.1,806.3 47.7,822.7 	"/>
	<polygon id="XMLID_75_" class="st18" points="57.1,806.3 47.7,790 57.1,773.7 76,773.7 85.4,790 76,806.3 	"/>
	<polygon id="XMLID_74_" class="st18" points="85.4,822.7 76,806.3 85.4,790 104.3,790 113.7,806.3 104.3,822.7 	"/>
	<polygon id="XMLID_73_" class="st18" points="57.1,839 47.7,822.7 57.1,806.3 76,806.3 85.4,822.7 76,839 	"/>
	<polygon id="XMLID_72_" class="st18" points="85.4,855.3 76,839 85.4,822.7 104.3,822.7 113.7,839 104.3,855.3 	"/>
	<polygon id="XMLID_81_" class="st18" points="142,790 132.6,773.7 142,757.3 160.9,757.3 170.3,773.7 160.9,790 	"/>
	<polygon id="XMLID_80_" class="st18" points="170.3,773.7 160.9,757.3 170.3,741 189.2,741 198.6,757.3 189.2,773.7 	"/>
	<polygon id="XMLID_79_" class="st18" points="198.6,790 189.2,773.7 198.6,757.3 217.5,757.3 226.9,773.7 217.5,790 	"/>
	<polygon id="XMLID_78_" class="st18" points="170.3,806.3 160.9,790 170.3,773.7 189.2,773.7 198.6,790 189.2,806.3 	"/>
	<polygon id="XMLID_77_" class="st18" points="198.6,822.7 189.2,806.3 198.6,790 217.5,790 226.9,806.3 217.5,822.7 	"/>
	<polygon id="XMLID_86_" class="st18" points="113.7,839 104.3,822.7 113.7,806.3 132.6,806.3 142,822.7 132.6,839 	"/>
	<polygon id="XMLID_85_" class="st18" points="142,822.7 132.6,806.3 142,790 160.9,790 170.3,806.3 160.9,822.7 	"/>
	<polygon id="XMLID_84_" class="st18" points="170.3,839 160.9,822.7 170.3,806.3 189.2,806.3 198.6,822.7 189.2,839 	"/>
	<polygon id="XMLID_83_" class="st18" points="142,855.3 132.6,839 142,822.7 160.9,822.7 170.3,839 160.9,855.3 	"/>
	<polygon id="XMLID_92_" class="st18" points="57.1,871.7 47.7,855.3 57.1,839 76,839 85.4,855.3 76,871.7 	"/>
	<polygon id="XMLID_91_" class="st18" points="28.9,888 19.4,871.7 28.9,855.3 47.7,855.3 57.1,871.7 47.7,888 	"/>
	<polygon id="XMLID_90_" class="st18" points="57.1,904.3 47.7,888 57.1,871.7 76,871.7 85.4,888 76,904.3 	"/>
	<polygon id="XMLID_89_" class="st18" points="85.4,888 76,871.7 85.4,855.3 104.3,855.3 113.7,871.7 104.3,888 	"/>
	<polygon id="XMLID_88_" class="st18" points="113.7,871.7 104.3,855.3 113.7,839 132.6,839 142,855.3 132.6,871.7 	"/>
	<polygon id="XMLID_87_" class="st18" points="142,888 132.6,871.7 142,855.3 160.9,855.3 170.3,871.7 160.9,888 	"/>
	<polygon id="XMLID_82_" class="st18" points="113.7,904.3 104.3,888 113.7,871.7 132.6,871.7 142,888 132.6,904.3 	"/>
	<g id="XMLID_151_">
		<polygon id="XMLID_182_" class="st19" points="-288.8,495.9 -294.7,485.8 -288.8,475.7 -277.2,475.7 -271.4,485.8 -277.2,495.9 		
			"/>
		<polygon id="XMLID_181_" class="st19" points="-271.4,485.8 -277.2,475.7 -271.4,465.6 -259.7,465.6 -253.9,475.7 -259.7,485.8 		
			"/>
		<polygon id="XMLID_180_" class="st19" points="-253.9,495.9 -259.7,485.8 -253.9,475.7 -242.3,475.7 -236.4,485.8 -242.3,495.9 		
			"/>
		<polygon id="XMLID_179_" class="st19" points="-271.4,506 -277.2,495.9 -271.4,485.8 -259.7,485.8 -253.9,495.9 -259.7,506 		"/>
		<polygon id="XMLID_178_" class="st19" points="-253.9,516 -259.7,506 -253.9,495.9 -242.3,495.9 -236.4,506 -242.3,516 		"/>
		<polygon id="XMLID_177_" class="st19" points="-306.3,526.1 -312.1,516 -306.3,506 -294.7,506 -288.8,516 -294.7,526.1 		"/>
		<polygon id="XMLID_176_" class="st19" points="-288.8,516 -294.7,506 -288.8,495.9 -277.2,495.9 -271.4,506 -277.2,516 		"/>
		<polygon id="XMLID_175_" class="st19" points="-271.4,526.1 -277.2,516 -271.4,506 -259.7,506 -253.9,516 -259.7,526.1 		"/>
		<polygon id="XMLID_174_" class="st19" points="-288.8,536.2 -294.7,526.1 -288.8,516 -277.2,516 -271.4,526.1 -277.2,536.2 		"/>
		<polygon id="XMLID_173_" class="st19" points="-271.4,546.3 -277.2,536.2 -271.4,526.1 -259.7,526.1 -253.9,536.2 -259.7,546.3 		
			"/>
		<polygon id="XMLID_172_" class="st19" points="-236.4,506 -242.3,495.9 -236.4,485.8 -224.8,485.8 -219,495.9 -224.8,506 		"/>
		<polygon id="XMLID_171_" class="st19" points="-219,495.9 -224.8,485.8 -219,475.7 -207.3,475.7 -201.5,485.8 -207.3,495.9 		"/>
		<polygon id="XMLID_170_" class="st19" points="-201.5,506 -207.3,495.9 -201.5,485.8 -189.9,485.8 -184,495.9 -189.9,506 		"/>
		<polygon id="XMLID_169_" class="st19" points="-219,516 -224.8,506 -219,495.9 -207.3,495.9 -201.5,506 -207.3,516 		"/>
		<polygon id="XMLID_168_" class="st19" points="-201.5,526.1 -207.3,516 -201.5,506 -189.9,506 -184,516 -189.9,526.1 		"/>
		<polygon id="XMLID_167_" class="st19" points="-253.9,536.2 -259.7,526.1 -253.9,516 -242.3,516 -236.4,526.1 -242.3,536.2 		"/>
		<polygon id="XMLID_166_" class="st19" points="-236.4,526.1 -242.3,516 -236.4,506 -224.8,506 -219,516 -224.8,526.1 		"/>
		<polygon id="XMLID_165_" class="st19" points="-219,536.2 -224.8,526.1 -219,516 -207.3,516 -201.5,526.1 -207.3,536.2 		"/>
		<polygon id="XMLID_164_" class="st19" points="-236.4,546.3 -242.3,536.2 -236.4,526.1 -224.8,526.1 -219,536.2 -224.8,546.3 		
			"/>
		<polygon id="XMLID_159_" class="st19" points="-288.8,556.4 -294.7,546.3 -288.8,536.2 -277.2,536.2 -271.4,546.3 -277.2,556.4 		
			"/>
		<polygon id="XMLID_158_" class="st19" points="-306.3,566.5 -312.1,556.4 -306.3,546.3 -294.7,546.3 -288.8,556.4 -294.7,566.5 		
			"/>
		<polygon id="XMLID_157_" class="st19" points="-288.8,576.5 -294.7,566.5 -288.8,556.4 -277.2,556.4 -271.4,566.5 -277.2,576.5 		
			"/>
		<polygon id="XMLID_155_" class="st19" points="-271.4,566.5 -277.2,556.4 -271.4,546.3 -259.7,546.3 -253.9,556.4 -259.7,566.5 		
			"/>
		<polygon id="XMLID_154_" class="st19" points="-253.9,556.4 -259.7,546.3 -253.9,536.2 -242.3,536.2 -236.4,546.3 -242.3,556.4 		
			"/>
		<polygon id="XMLID_153_" class="st19" points="-236.4,566.5 -242.3,556.4 -236.4,546.3 -224.8,546.3 -219,556.4 -224.8,566.5 		
			"/>
		<polygon id="XMLID_152_" class="st19" points="-253.9,576.5 -259.7,566.5 -253.9,556.4 -242.3,556.4 -236.4,566.5 -242.3,576.5 		
			"/>
	</g>
	<g id="XMLID_344_">
		<polygon id="XMLID_135_" class="st20" points="39.1,451 58.4,429.3 109.6,411.5 139.1,418.7 120.4,442.7 69.3,460.4 		"/>
		<path id="XMLID_132_" class="st14" d="M109.7,412.8l27.2,6.7l-17.2,22.1L69.3,459l-27.9-8.7l17.7-20L109.7,412.8 M109.5,410.1
			l-51.9,18l-20.9,23.5l32.6,10.1l51.9-18l20.1-25.8L109.5,410.1L109.5,410.1z"/>
	</g>
	<g id="XMLID_287_">
		<defs>
			<polygon id="XMLID_288_" points="36.7,451.6 70.7,461.1 121.2,443.8 141.3,417.9 118.3,403.2 60.4,408.8 			"/>
		</defs>
		<clipPath id="XMLID_255_">
			<use xlink:href="#XMLID_288_"  style="overflow:visible;"/>
		</clipPath>
		<g id="XMLID_289_" class="st21">
			<g id="XMLID_463_">
				<polygon id="XMLID_489_" class="st22" points="133.2,399.3 143.6,393.4 145.8,397.7 137.5,408.3 127.2,414.2 125.2,409.5 				
					"/>
				<polygon id="XMLID_488_" class="st22" points="127.2,414.2 137.5,408.3 139.5,413 130.9,423.9 120.6,429.7 118.9,424.7 				"/>
				<polygon id="XMLID_487_" class="st22" points="108.9,430.2 118.9,424.7 120.6,429.7 112.1,440.5 102.1,446 100.6,440.7 				"/>
				<polygon id="XMLID_486_" class="st22" points="115.1,415.1 125.2,409.5 127.2,414.2 118.9,424.7 108.9,430.2 107.1,425.3 				
					"/>
				<polygon id="XMLID_485_" class="st22" points="97.3,430.5 107.1,425.3 108.9,430.2 100.6,440.7 90.9,445.9 89.3,440.7 				"/>
				<polygon id="XMLID_484_" class="st22" points="126,386.7 136.2,381 138.7,385 130.9,395 120.8,400.6 118.5,396.3 				"/>
				<polygon id="XMLID_483_" class="st22" points="120.8,400.6 130.9,395 133.2,399.3 125.2,409.5 115.1,415.1 113.1,410.5 				"/>
				<polygon id="XMLID_482_" class="st22" points="103.2,415.8 113.1,410.5 115.1,415.1 107.1,425.3 97.3,430.5 95.5,425.6 				"/>
				<polygon id="XMLID_481_" class="st22" points="108.6,401.7 118.5,396.3 120.8,400.6 113.1,410.5 103.2,415.8 101.1,411.2 				
					"/>
				<polygon id="XMLID_480_" class="st22" points="91.6,416.2 101.1,411.2 103.2,415.8 95.5,425.6 86,430.6 84.1,425.8 				"/>
				<polygon id="XMLID_479_" class="st22" points="90.9,445.9 100.6,440.7 102.1,446 93.6,456.8 83.9,461.9 82.7,456.4 				"/>
				<polygon id="XMLID_478_" class="st22" points="83.9,461.9 93.6,456.8 94.8,462.4 86.1,473.5 76.4,478.6 75.4,472.7 				"/>
				<polygon id="XMLID_477_" class="st22" points="66,477.5 75.4,472.7 76.4,478.6 67.7,489.6 58.3,494.4 57.6,488.2 				"/>
				<polygon id="XMLID_476_" class="st22" points="73.2,461.2 82.7,456.4 83.9,461.9 75.4,472.7 66,477.5 65,471.6 				"/>
				<polygon id="XMLID_475_" class="st22" points="55.8,476.2 65,471.6 66,477.5 57.6,488.2 48.4,492.7 47.7,486.5 				"/>
				<polygon id="XMLID_474_" class="st22" points="86,430.6 95.5,425.6 97.3,430.5 89.3,440.7 79.8,445.6 78.3,440.4 				"/>
				<polygon id="XMLID_473_" class="st22" points="79.8,445.6 89.3,440.7 90.9,445.9 82.7,456.4 73.2,461.2 71.9,455.7 				"/>
				<polygon id="XMLID_472_" class="st22" points="62.7,460.3 71.9,455.7 73.2,461.2 65,471.6 55.8,476.2 54.8,470.3 				"/>
				<polygon id="XMLID_471_" class="st22" points="69,445 78.3,440.4 79.8,445.6 71.9,455.7 62.7,460.3 61.3,454.8 				"/>
				<polygon id="XMLID_470_" class="st22" points="96.6,402.5 106.3,397.4 108.6,401.7 101.1,411.2 91.6,416.2 89.4,411.7 				"/>
				<polygon id="XMLID_469_" class="st22" points="101.2,389.4 110.8,384.3 113.5,388.2 106.3,397.4 96.6,402.5 94.2,398.3 				"/>
				<polygon id="XMLID_468_" class="st22" points="84.8,403.1 94.2,398.3 96.6,402.5 89.4,411.7 80.1,416.5 77.9,412 				"/>
				<polygon id="XMLID_467_" class="st22" points="80.1,416.5 89.4,411.7 91.6,416.2 84.1,425.8 74.8,430.4 72.9,425.7 				"/>
				<polygon id="XMLID_466_" class="st22" points="74.8,430.4 84.1,425.8 86,430.6 78.3,440.4 69,445 67.4,439.9 				"/>
				<polygon id="XMLID_465_" class="st22" points="58.4,444.3 67.4,439.9 69,445 61.3,454.8 52.4,459.1 51,453.7 				"/>
				<polygon id="XMLID_464_" class="st22" points="63.8,430 72.9,425.7 74.8,430.4 67.4,439.9 58.4,444.3 56.7,439.2 				"/>
			</g>
		</g>
	</g>
	<polygon id="XMLID_230_" class="st23" points="373.5,402.7 337.5,408 336.2,393 372.2,387.7 	"/>
	<path id="XMLID_236_" class="st24" d="M327.7,402.6c-0.4-3.9-3.6-6.7-7.1-6.3c-0.6,0.1-1.1,0.2-1.6,0.4l-2.4,0.7l0.2,1
		c-1.2,1.4-1.9,3.5-1.6,5.6c0.3,2.7,2,5,4.2,5.9l0.3,1.2l3.2-0.8l0,0c0.5-0.1,1-0.3,1.5-0.6l0,0v0
		C326.6,408.4,328.1,405.6,327.7,402.6z"/>
	
		<ellipse id="XMLID_232_" transform="matrix(0.9935 -0.1141 0.1141 0.9935 -44.0035 39.0014)" class="st25" cx="318.8" cy="404" rx="6.3" ry="7.1"/>
	<polygon id="XMLID_233_" class="st26" points="338.8,392.6 340.1,405.6 373.3,400.8 373.5,402.7 337.5,408 336.2,393 	"/>
	<linearGradient id="XMLID_256_" gradientUnits="userSpaceOnUse" x1="361.25" y1="549.524" x2="405.3885" y2="549.524">
		<stop  offset="0" style="stop-color:#61AD55"/>
		<stop  offset="1" style="stop-color:#2484C6;stop-opacity:0"/>
	</linearGradient>
	<path id="XMLID_238_" class="st27" d="M362,533c0,0,9.7,8.7,28.1,11.9s15.1,1.5,15.1,1.5l-1.7,19.6c0,0-22.2,1.5-42.2-12.8
		C361.2,553.2,361.8,538.5,362,533z"/>
	<linearGradient id="XMLID_257_" gradientUnits="userSpaceOnUse" x1="303.25" y1="548.5215" x2="254.7394" y2="548.5215">
		<stop  offset="0" style="stop-color:#61AD55"/>
		<stop  offset="1" style="stop-color:#2484C6;stop-opacity:0"/>
	</linearGradient>
	<path id="XMLID_239_" class="st28" d="M300.8,533l2.5,17.3c0,0-9.4,12.3-43.5,13.7l-4.4-0.1l-0.6-19.9
		C254.7,544.1,275.9,545.8,300.8,533z"/>
	<g id="XMLID_57_">
		<path id="XMLID_242_" class="st29" d="M365.4,360.8l-8.5,1c-10.6-1.7-29.3-1.3-50.3,1.6c-20.2,2.8-37.7,7.2-47.6,11.6l-9.2,1.4
			l0.7,5.8c0.9,6,27.6,7.2,59.5,2.8c31.9-4.4,57-12.8,56-18.8L365.4,360.8z"/>
		<path id="XMLID_36_" class="st30" d="M365.4,360.8c0.9,6-24.1,14.4-56,18.8c-31.9,4.4-58.5,3.2-59.5-2.8c-0.9-6,24.1-14.4,56-18.8
			C337.8,353.6,364.4,354.8,365.4,360.8z"/>
	</g>
	<path id="XMLID_241_" class="st31" d="M315.8,372.8l15.5,3l0.8,5.4l35.9-4.2v-10.6l-2-0.2l-0.7-5.4c0,0,0.7-3.4-12.8-4.9l-4,1.4
		l-23.4,9.9L315.8,372.8z"/>
	<g id="XMLID_240_">
		<path id="XMLID_53_" class="st14" d="M289.5,277.3c0,0-33.7,9.7-32.2,35.7c0,0,0.2,12.7,10.5,21.7c0,0-8.2,20.2-3.9,32.5
			c4.3,12.3,34.2,8.8,43.5,7.1c9.3-1.7,30.9-5.7,37.9-11.8s6.1-33.5,3.7-32.5c-2.3,1-5,4.7-5,4.7s0.7-9.4-1.3-7.5s-9.2,7.2-9.2,7.2
			s-6.8-7.3-8.8-9c0,0,9-7.4,5.3-17.7c-3.7-10.3-7.7-16.2-12-18.9c0,0,1.7-5.8-0.3-6.4s-4.7-0.3-4.7-0.3s1.3-8.8-3.7-7.6
			s-5,1.2-5,1.2s2.3-4.3-3.7-6C294.8,268,289.5,277.3,289.5,277.3z"/>
		<path id="XMLID_28_" class="st16" d="M268.5,318.6c0,0,13-1.5,22.8-4c0,0,6.8-1.5,5.2,2c-1.5,3.5-8.8,8-18,10.5
			s-18.2-3.8-15.5-6.4C265.8,318.1,268.5,318.6,268.5,318.6z"/>
		<path id="XMLID_223_" class="st32" d="M298.3,308.6c0,0-0.4-13.4,5.8-7.9c7.3,6.3,1.4,10.4,1.4,10.4S299.5,313.6,298.3,308.6z"/>
		<path id="XMLID_221_" class="st33" d="M255.4,306.5c0,0,4,1.9,7.1,6l0.8,1c0,0-4.7,1.1-6.6,2.6"/>
		<path id="XMLID_224_" class="st34" d="M300.8,269.7c0,0,2.2,4.9-0.8,10.9c0,0,3.3-2.7,4.5-4.9
			C305.7,273.4,304.5,270.9,300.8,269.7z"/>
		<path id="XMLID_226_" class="st34" d="M309.5,274.4c0,0,1.2,5.5-1,9c-2.2,3.5-0.8,2.4-0.8,2.4s3.4-0.4,5.4-3.8
			C313.2,282,314.5,273.2,309.5,274.4z"/>
		<path id="XMLID_225_" class="st34" d="M317.8,282.3c0,0-1.7,5.9-3.3,8.6c0,0,8.7,11.8,6.8,25.2c0,0-1.2,10.6-8,13.7
			c0,0,18.3,27.8,2.5,43c0,0,20.3-4,28.2-9.2s6.8-23.5,6.9-29l-1.7-4.6c0,0-4.3,3.4-5,4.7c0,0,0.7-6-0.5-7.6c-1.2-1.6-10,7.2-10,7.2
			s-3-5-8.8-9c0,0,7.8-7.5,6-14.9c-1.8-7.4-6.3-17.8-12.7-21.7C318.2,288.7,320,282.7,317.8,282.3z"/>
		<path id="XMLID_227_" class="st34" d="M275.5,335.6c0,0,7.2,0.4,17-1.4c0,0-4,7.8-8.5,8S275.5,335.6,275.5,335.6z"/>
		<path id="XMLID_229_" class="st35" d="M264.3,324.5c0,0,12.4,2.8,32.2-8l0,0c0,0-3.5,8.4-21.6,11c-0.8,0,0,0,0,0
			S268.1,328.4,264.3,324.5"/>
		<path id="XMLID_235_" class="st36" d="M290.8,277.8c0,0,6.8-6,9.2-15.2c2.4-9.2-15.2-14.3-17.3-7.5c-2.2,6.8,6.2,6.3,9.8,4.7
			c3.7-1.7,5.4-10.5,4.2-14.7c-1.2-4.2-5.6-5.7-5.6-5.7"/>
		<path id="XMLID_234_" class="st37" d="M296.7,256.6c0,0,0.8-2,1-2.8c0,0,1.2,1,1.9,2l-1,3C298.6,258.8,297.8,257.4,296.7,256.6z"
			/>
		<path id="XMLID_237_" class="st37" d="M295.3,252.5l-0.7,2.5c0,0-1.7-0.9-2.6-1.2c0,0,0.5-2.1,0.5-2.4
			C292.5,251.4,294.1,251.7,295.3,252.5z"/>
	</g>
</g>
<g id="Layer_4">
	<g id="XMLID_188_">
		<path id="XMLID_219_" class="st19" d="M87.4,287.8c1.9,3.5,1.1,2,3.1,5.5c-1.9,3-3.7,6-5.6,9.2"/>
		<path id="XMLID_218_" class="st19" d="M84.8,302.4c2,3.4,3.9,6.8,5.9,10.3c-1.9,3-3.8,6.2-5.8,9.3c-4-0.2-7.9-0.2-11.9,0"/>
		<path id="XMLID_217_" class="st19" d="M67,332.5c2,3.2,3.9,6.3,5.9,9.5c-2.1,3.5-4.1,7-6.2,10.6c-4.1,0.5-8.2,1.2-12.3,2.1"/>
		<path id="XMLID_216_" class="st19" d="M90.8,312.7c-2-3.4-4-6.9-5.9-10.3c1.9-3.1,3.8-6.2,5.6-9.2c3.8,0.5,7.6,1.2,11.4,2
			c2,3.6,4,7.2,6,10.8c-1.8,2.7-3.6,5.5-5.4,8.3C98.6,313.7,94.7,313.1,90.8,312.7z"/>
		<path id="XMLID_215_" class="st19" d="M107.9,306.1c-2-3.6-4-7.2-6-10.8c1.8-2.8,3.5-5.5,5.3-8.1c3.7,1,7.4,2.2,11,3.6
			c2,3.8,4,7.6,6,11.4c-1.6,2.4-3.3,4.8-5,7.3C115.5,308.1,111.7,307,107.9,306.1z"/>
		<path id="XMLID_214_" class="st19" d="M125.4,320.7c-2.1-3.8-4.1-7.5-6.2-11.3c1.7-2.5,3.4-4.9,5-7.3c3.7,1.5,7.3,3.1,10.8,4.9
			c2,3.9,4.1,7.9,6.1,11.9c-1.5,2.1-3.1,4.2-4.6,6.4C132.8,323.6,129.1,322,125.4,320.7z"/>
		<path id="XMLID_213_" class="st19" d="M108.6,325.1c-2.1-3.6-4.1-7.1-6.2-10.7c1.8-2.8,3.6-5.6,5.4-8.3c3.8,0.9,7.6,2,11.3,3.3
			c2,3.7,4.1,7.5,6.2,11.3c-1.7,2.4-3.4,4.9-5.1,7.4C116.4,326.9,112.5,325.9,108.6,325.1z"/>
		<path id="XMLID_212_" class="st19" d="M126.5,339.2c-2.1-3.7-4.2-7.4-6.3-11.1c1.7-2.5,3.5-5,5.1-7.4c3.8,1.4,7.5,2.9,11.1,4.6
			c2.1,3.9,4.2,7.8,6.2,11.8c-1.6,2.1-3.1,4.3-4.8,6.5C134.2,341.9,130.4,340.5,126.5,339.2z"/>
		<path id="XMLID_211_" class="st19" d="M72.9,342c-2-3.2-4-6.4-5.9-9.5c2.1-3.6,4.1-7,6.1-10.4c4-0.2,7.9-0.2,11.9,0
			c2,3.4,4,6.7,6.1,10.1c-2,3.1-3.9,6.3-5.9,9.5C81.1,341.6,77,341.7,72.9,342z"/>
		<path id="XMLID_210_" class="st19" d="M91.1,332.1C89,328.8,87,325.4,85,322c2-3.2,3.9-6.3,5.8-9.3c3.9,0.4,7.8,0.9,11.7,1.7
			c2,3.5,4.1,7.1,6.2,10.7c-1.8,2.7-3.7,5.6-5.6,8.4C99.1,332.9,95.1,332.4,91.1,332.1z"/>
		<path id="XMLID_208_" class="st19" d="M109.4,344c-2.1-3.5-4.2-7-6.3-10.5c1.9-2.9,3.7-5.7,5.6-8.4c3.9,0.8,7.8,1.8,11.6,3
			c2.1,3.7,4.2,7.4,6.3,11.1c-1.7,2.4-3.5,5-5.3,7.5C117.3,345.7,113.4,344.7,109.4,344z"/>
		<path id="XMLID_207_" class="st19" d="M91.4,351.6c-2.1-3.3-4.2-6.6-6.2-9.9c2-3.2,4-6.4,5.9-9.5c4,0.3,8,0.7,12,1.3
			c2.1,3.5,4.2,7,6.3,10.5c-1.9,2.8-3.8,5.7-5.7,8.6C99.6,352.1,95.5,351.7,91.4,351.6z"/>
		<path id="XMLID_206_" class="st19" d="M54.4,354.7c-2.1,3.9-4.3,7.8-6.5,11.8c-4.1,1.1-3.8,1.6-7.8,3.1"/>
		<path id="XMLID_205_" class="st19" d="M47.9,366.5c1.9,2.9,3.9,5.8,5.9,8.8c-2.2,3.9-4.4,7.9-6.6,12c-4.2,1.2-6.3,1.7-10.4,3.3"/>
		<path id="XMLID_204_" class="st19" d="M53.8,375.2c-2-2.9-3.9-5.8-5.9-8.8c2.2-4,4.3-7.9,6.5-11.8c4.1-0.9,8.2-1.5,12.3-2.1
			c2,3.1,4,6.2,6.1,9.3c-2.1,3.5-4.2,7.1-6.4,10.8C62.2,373.4,58,374.2,53.8,375.2z"/>
		<path id="XMLID_203_" class="st19" d="M72.8,361.9c-2.1-3.1-4.1-6.2-6.1-9.3c2.1-3.6,4.2-7.2,6.2-10.6c4.1-0.3,8.1-0.4,12.2-0.3
			c2.1,3.3,4.1,6.6,6.2,9.9c-2,3.2-4,6.4-6.1,9.7C81.1,361.3,76.9,361.5,72.8,361.9z"/>
		<path id="XMLID_200_" class="st19" d="M91.7,371c-2.2-3.3-4.3-6.5-6.4-9.8c2.1-3.3,4.1-6.5,6.1-9.7c4.1,0.2,8.2,0.5,12.3,1
			c2.1,3.4,4.3,6.9,6.5,10.4c-1.9,2.8-3.9,5.8-5.9,8.7C100.1,371.3,95.9,371.1,91.7,371z"/>
		<path id="XMLID_199_" class="st19" d="M72.6,381.9c-2.1-3.1-4.2-6.1-6.2-9.1c2.2-3.7,4.3-7.3,6.4-10.8c4.2-0.4,8.3-0.6,12.5-0.7
			c2.1,3.2,4.2,6.5,6.4,9.8c-2.1,3.2-4.1,6.5-6.2,9.8C81.2,381,76.9,381.4,72.6,381.9z"/>
	</g>
	<path id="XMLID_20_" class="st38" d="M507,431.8c0.6,0.5,20.3-0.1,31.3-19.7c0,0,5.9,1.9,12.8,1l-1.6-1.7c0,0,27.5,5,37.7-2.3
		c0,0-0.1,3.4-2.2,5.5c0,0,0.2,1.3,6.2,1.3s4-0.5,4-0.5s14.4,19,34.7,16.4l1.3-4.4c0,0,15.5,13.9,27.5,11.3c0,0-12.1,9.1-31.2-3.9
		c0,0-8.9,7.2-27.6-3.9c0,0-4.3-3.1-7.3-7c0,0-6.7,1.7-15.2-4.6c0,0-7.5,3.5-18.5-0.2c0,0-8.9,2.1-16.5,0c0,0-8.4,14.4-18.4,16.5
		C514,437.8,507,431.8,507,431.8z"/>
	<linearGradient id="XMLID_258_" gradientUnits="userSpaceOnUse" x1="842.4986" y1="335.9026" x2="883.4766" y2="264.9265">
		<stop  offset="0" style="stop-color:#FFFFFF;stop-opacity:0"/>
		<stop  offset="5.140263e-02" style="stop-color:#E6E6E6;stop-opacity:3.855197e-02"/>
		<stop  offset="0.1411" style="stop-color:#C0C1C1;stop-opacity:0.1058"/>
		<stop  offset="0.238" style="stop-color:#A0A0A2;stop-opacity:0.1785"/>
		<stop  offset="0.3422" style="stop-color:#868688;stop-opacity:0.2566"/>
		<stop  offset="0.4561" style="stop-color:#717274;stop-opacity:0.3421"/>
		<stop  offset="0.5849" style="stop-color:#636466;stop-opacity:0.4386"/>
		<stop  offset="0.7409" style="stop-color:#5B5C5D;stop-opacity:0.5557"/>
		<stop  offset="1" style="stop-color:#58595B;stop-opacity:0.75"/>
	</linearGradient>
	<path id="XMLID_125_" class="st39" d="M916.1,283.8c0,0,3.4,3.9,2.6,4.9c-0.8,1-4.8,3.9-4.8,3.9l2.5,1.7l-34.9,11l-4.8,7.3l-24,5.9
		l-4.7,5.3l-22.1,1.7l-2.5-0.6l1.6-2c0,0-4.5-4.8-4-6.3s2.5-3.9,2.5-3.9s2.8-2,2.3-3.8c-0.5-1.8-1.5-4.4-5-6.1l5.4-5.7
		c0,0,0.8-1.8-0.5-2.7c-2.9-2-4.2-3.2-4.5-7.5l0.8-1.9c0,0,24.8,4.9,46.4,4.6C890,289.3,909.5,285.7,916.1,283.8z"/>
	<linearGradient id="XMLID_259_" gradientUnits="userSpaceOnUse" x1="582.5283" y1="397.3793" x2="557.7606" y2="411.679">
		<stop  offset="0" style="stop-color:#EF4136;stop-opacity:0.75"/>
		<stop  offset="1" style="stop-color:#F15A29;stop-opacity:0"/>
	</linearGradient>
	<path id="XMLID_23_" class="st40" d="M552.9,396.6c0,0,15.7-9.7,25.6-3.2s6.8,21.6,2.5,22.7l-5,2.3
		C576,418.4,553.1,419.2,552.9,396.6z"/>
	<linearGradient id="XMLID_260_" gradientUnits="userSpaceOnUse" x1="629.8415" y1="420.2376" x2="596.5" y2="420.2376">
		<stop  offset="0" style="stop-color:#EF4136;stop-opacity:0.75"/>
		<stop  offset="1" style="stop-color:#F15A29;stop-opacity:0"/>
	</linearGradient>
	<path id="XMLID_22_" class="st41" d="M612.5,405.5c0,0,17.1,5.5,17.4,19.2s-16.5,10.2-16.5,10.2s-9.8-2.6-13.7-5.9
		C595.8,425.7,591.5,401.9,612.5,405.5z"/>
	<linearGradient id="XMLID_261_" gradientUnits="userSpaceOnUse" x1="660.2729" y1="424.6429" x2="628" y2="424.6429">
		<stop  offset="0" style="stop-color:#EF4136;stop-opacity:0.75"/>
		<stop  offset="1" style="stop-color:#F15A29;stop-opacity:0"/>
	</linearGradient>
	<path id="XMLID_25_" class="st42" d="M640.6,410.4c0,0,15.9,6.8,19,16.1c3,9.3-5.1,14.1-12.6,13.5c-7.6-0.6-10.6-1.7-15.9-5.4
		c-5.3-3.8-1.1-0.7-1.1-0.7s6.4-5.2,1.2-16.3l-3.2-3.8C628,413.7,631.7,406.4,640.6,410.4z"/>
	<path id="XMLID_26_" class="st35" d="M436.2,294.8c0,0,2.1,20.2-22.2,32.8c0,0,11,18.2,31.2,23.5c20.2,5.3,31.4-7.1,37.3-18.2
		c0,0-11-4.9-22.5-3.8C460,329,445.7,328,436.2,294.8z"/>
	<g id="XMLID_24_">
		<defs>
			<path id="XMLID_47_" d="M510.2,234.5c0,0-24.6-17-53.6-1.6s-9,39.1-9,39.1l-2,52.3L409.4,336l-25.2-98.7l43.3-32.8l47.2-2
				L510.2,234.5z"/>
		</defs>
		<clipPath id="XMLID_263_">
			<use xlink:href="#XMLID_47_"  style="overflow:visible;"/>
		</clipPath>
		<g id="XMLID_35_" class="st43">
			<path id="XMLID_41_" class="st44" d="M482.5,229.5c0,0-27.3-25.8-53.8,12.7c0,0-22.6,42.8,5.6,83.1"/>
			<path id="XMLID_43_" class="st44" d="M485.2,230.8c0,0-15-19.8-37-11c-22,8.8-32.7,33.5-33.2,53.8s3.2,44.4,22.2,61.1"/>
			<path id="XMLID_44_" class="st44" d="M485.2,228c0,0-31.9-35.7-62.2,6.8s0.3,101,9.4,101.2"/>
			<path id="XMLID_45_" class="st44" d="M486.2,228.7c0,0-24.5-30.2-52.6-11.7s-30.5,56-27.6,76c2.5,17.1,14.4,44.9,25.8,48"/>
			<path id="XMLID_42_" class="st44" d="M477.2,229c-8.2-4.8-21.6-1.1-27.6,3.9c-6,5-10.7,10.9-13.9,18.1
				c-4.8,10.7-5.8,22.1-5.4,33.8s5.2,27,13.4,35.4"/>
			<path id="XMLID_46_" class="st44" d="M479.8,229.8c0,0-19.2-17.2-42,7.8s-14.5,98,24.5,101.8"/>
		</g>
	</g>
	<g id="XMLID_67_">
		<path id="XMLID_66_" class="st45" d="M89.8,285c1.9,3.5,1.1,2,3.1,5.5c-1.9,3-3.7,6-5.6,9.2"/>
		<path id="XMLID_201_" class="st45" d="M87.2,299.7c2,3.4,3.9,6.8,5.9,10.3c-1.9,3-3.8,6.2-5.8,9.3c-4-0.2-7.9-0.2-11.9,0"/>
		<path id="XMLID_202_" class="st45" d="M69.3,329.7c2,3.2,3.9,6.3,5.9,9.5c-2.1,3.5-4.1,7-6.2,10.6c-4.1,0.5-8.2,1.2-12.3,2.1"/>
		<path id="XMLID_198_" class="st45" d="M93.1,309.9c-2-3.4-4-6.9-5.9-10.3c1.9-3.1,3.8-6.2,5.6-9.2c3.8,0.5,7.6,1.2,11.4,2
			c2,3.6,4,7.2,6,10.8c-1.8,2.7-3.6,5.5-5.4,8.3C100.9,310.9,97,310.3,93.1,309.9z"/>
		<path id="XMLID_197_" class="st45" d="M110.2,303.3c-2-3.6-4-7.2-6-10.8c1.8-2.8,3.5-5.5,5.3-8.1c3.7,1,7.4,2.2,11,3.6
			c2,3.8,4,7.6,6,11.4c-1.6,2.4-3.3,4.8-5,7.3C117.8,305.3,114,304.3,110.2,303.3z"/>
		<path id="XMLID_196_" class="st45" d="M127.7,317.9c-2.1-3.8-4.1-7.5-6.2-11.3c1.7-2.5,3.4-4.9,5-7.3c3.7,1.5,7.3,3.1,10.8,4.9
			c2,3.9,4.1,7.9,6.1,11.9c-1.5,2.1-3.1,4.2-4.6,6.4C135.2,320.8,131.5,319.2,127.7,317.9z"/>
		<path id="XMLID_195_" class="st45" d="M111,322.3c-2.1-3.6-4.1-7.1-6.2-10.7c1.8-2.8,3.6-5.6,5.4-8.3c3.8,0.9,7.6,2,11.3,3.3
			c2,3.7,4.1,7.5,6.2,11.3c-1.7,2.4-3.4,4.9-5.1,7.4C118.7,324.1,114.9,323.1,111,322.3z"/>
		<path id="XMLID_194_" class="st45" d="M128.9,336.4c-2.1-3.7-4.2-7.4-6.3-11.1c1.7-2.5,3.5-5,5.1-7.4c3.8,1.4,7.5,2.9,11.1,4.6
			c2.1,3.9,4.2,7.8,6.2,11.8c-1.6,2.1-3.1,4.3-4.8,6.5C136.5,339.1,132.7,337.7,128.9,336.4z"/>
		<path id="XMLID_193_" class="st45" d="M75.3,339.2c-2-3.2-4-6.4-5.9-9.5c2.1-3.6,4.1-7,6.1-10.4c4-0.2,7.9-0.2,11.9,0
			c2,3.4,4,6.7,6.1,10.1c-2,3.1-3.9,6.3-5.9,9.5C83.4,338.8,79.3,338.9,75.3,339.2z"/>
		<path id="XMLID_192_" class="st45" d="M93.4,329.4c-2.1-3.4-4.1-6.7-6.1-10.1c2-3.2,3.9-6.3,5.8-9.3c3.9,0.4,7.8,0.9,11.7,1.7
			c2,3.5,4.1,7.1,6.2,10.7c-1.8,2.7-3.7,5.6-5.6,8.4C101.4,330.1,97.4,329.6,93.4,329.4z"/>
		<path id="XMLID_191_" class="st45" d="M111.7,341.2c-2.1-3.5-4.2-7-6.3-10.5c1.9-2.9,3.7-5.7,5.6-8.4c3.9,0.8,7.8,1.8,11.6,3
			c2.1,3.7,4.2,7.4,6.3,11.1c-1.7,2.4-3.5,5-5.3,7.5C119.7,342.9,115.7,342,111.7,341.2z"/>
		<path id="XMLID_190_" class="st45" d="M93.7,348.8c-2.1-3.3-4.2-6.6-6.2-9.9c2-3.2,4-6.4,5.9-9.5c4,0.3,8,0.7,12,1.3
			c2.1,3.5,4.2,7,6.3,10.5c-1.9,2.8-3.8,5.7-5.7,8.6C101.9,349.3,97.8,349,93.7,348.8z"/>
		<path id="XMLID_189_" class="st45" d="M56.8,351.9c-2.1,3.9-4.3,7.8-6.5,11.8c-4.1,1.1-6.1,1.8-10.2,3.3"/>
		<path id="XMLID_187_" class="st45" d="M50.3,363.7c1.9,2.9,3.9,5.8,5.9,8.8c-2.2,3.9-4.4,7.9-6.6,12c-4.2,1.2-9.8,2.9-13.9,4.5"/>
		<path id="XMLID_186_" class="st45" d="M56.2,372.4c-2-2.9-3.9-5.8-5.9-8.8c2.2-4,4.3-7.9,6.5-11.8c4.1-0.9,8.2-1.5,12.3-2.1
			c2,3.1,4,6.2,6.1,9.3c-2.1,3.5-4.2,7.1-6.4,10.8C64.5,370.6,60.3,371.4,56.2,372.4z"/>
		<path id="XMLID_185_" class="st45" d="M75.1,359.2c-2.1-3.1-4.1-6.2-6.1-9.3c2.1-3.6,4.2-7.2,6.2-10.6c4.1-0.3,8.1-0.4,12.2-0.3
			c2.1,3.3,4.1,6.6,6.2,9.9c-2,3.2-4,6.4-6.1,9.7C83.5,358.5,79.3,358.7,75.1,359.2z"/>
		<path id="XMLID_183_" class="st45" d="M94,368.2c-2.2-3.3-4.3-6.5-6.4-9.8c2.1-3.3,4.1-6.5,6.1-9.7c4.1,0.2,8.2,0.5,12.3,1
			c2.1,3.4,4.3,6.9,6.5,10.4c-1.9,2.8-3.9,5.8-5.9,8.7C102.4,368.5,98.2,368.3,94,368.2z"/>
		<path id="XMLID_150_" class="st45" d="M75,379.1c-2.1-3.1-4.2-6.1-6.2-9.1c2.2-3.7,4.3-7.3,6.4-10.8c4.2-0.4,8.3-0.6,12.5-0.7
			c2.1,3.2,4.2,6.5,6.4,9.8c-2.1,3.2-4.1,6.5-6.2,9.8C83.5,378.2,79.2,378.6,75,379.1z"/>
	</g>
	<g id="XMLID_56_">
		<polygon id="XMLID_144_" class="st46" points="551.2,290.3 538.5,276.4 542.5,263.2 559.3,263.9 571.8,277.9 567.7,291.1 		"/>
	</g>
	<g id="XMLID_244_">
		<polygon id="XMLID_145_" class="st46" points="576.1,325.9 563.4,311.9 567.4,298.7 584.2,299.4 596.7,313.4 592.6,326.6 		"/>
	</g>
	<g id="XMLID_120_">
		<polygon id="XMLID_146_" class="st46" points="590.7,364.4 578.9,349.4 584.6,336.6 602.2,338.8 613.9,353.9 608.1,366.7 		"/>
	</g>
	<polygon id="XMLID_119_" class="st35" points="542,265.4 555.9,266 567.5,278.5 563.8,290.9 567.7,291.1 571.8,277.8 559.3,263.9 
		542.7,263.1 	"/>
	<polygon id="XMLID_121_" class="st35" points="567.5,298.8 566.8,301.2 581.7,301.8 592.3,313.7 588.6,326.4 592.6,326.6 
		596.8,313.3 584.1,299.3 	"/>
	<polygon id="XMLID_123_" class="st35" points="584.5,336.6 583.7,338.7 583.2,339.6 600.4,341.7 610.1,354 604.6,366.2 
		608.1,366.7 614,353.8 602.2,338.8 	"/>
	<g id="XMLID_122_">
		<g id="XMLID_461_">
			<g id="XMLID_493_">
				<path id="XMLID_507_" class="st5" d="M186.6,220.2c0.2,1,0.1,1.9-0.3,2.6c-0.2,0.4-0.4,0.7-0.8,0.9c-0.3,0.2-0.7,0.4-1.2,0.5
					l-1,0.2l-0.3,0l-1.2-7.1l0.9-0.1l0.5-0.1c0.5-0.1,0.9-0.1,1.3,0.1c0.4,0.1,0.7,0.3,1,0.6C186.1,218.4,186.5,219.2,186.6,220.2z
					 M185.8,220.4c-0.1-0.7-0.4-1.3-0.7-1.7c-0.4-0.4-1-0.6-1.6-0.5l-0.5,0.1l0.8,4.9l0.5-0.1c0.7-0.1,1.1-0.4,1.4-0.9
					C185.8,221.8,185.9,221.1,185.8,220.4z"/>
				<path id="XMLID_505_" class="st5" d="M192.6,223l-0.6-3.8l-1.2,3.6l-2.3-3.1l0.6,3.8l-0.9,0.1l-1.2-7.5l3.5,4.6l1.9-5.4l1.2,7.5
					L192.6,223z"/>
				<path id="XMLID_503_" class="st5" d="M194.9,218.3l2.1-0.3l0.2,1l-2.1,0.3l0.3,2.2l2.5-0.4l0.2,1l-2.5,0.4l-0.9,0.1l-1.1-7.2
					l0.9-0.1l2.5-0.4l0.2,1l-2.5,0.4L194.9,218.3z"/>
				<path id="XMLID_499_" class="st5" d="M202.4,219.3c0.1,0.4,0,0.7,0,1c-0.1,0.3-0.2,0.5-0.4,0.8c-0.3,0.4-0.8,0.6-1.5,0.7
					l-0.5,0.1l-0.7,0.1l-1.1-7.2l0.9-0.1l0.4-0.1c0.6-0.1,1.1,0,1.5,0.2c0.2,0.1,0.4,0.3,0.5,0.6c0.1,0.2,0.2,0.5,0.2,0.7
					c0.1,0.4,0,0.9-0.3,1.4c0.1,0.1,0.2,0.1,0.3,0.2c0.2,0.2,0.4,0.4,0.5,0.6C202.2,218.6,202.3,218.9,202.4,219.3z M199.1,215.6
					l0.3,2.2c0.2-0.1,0.4-0.2,0.5-0.3c0.3-0.2,0.5-0.4,0.6-0.6c0.1-0.2,0.2-0.4,0.1-0.7c-0.1-0.3-0.2-0.5-0.3-0.5
					c-0.2-0.2-0.7-0.2-1-0.1L199.1,215.6z M201.6,219.4c-0.1-0.4-0.2-0.7-0.4-0.9c-0.1-0.1-0.3-0.2-0.5-0.3
					c-0.1,0.1-0.1,0.1-0.2,0.2c-0.3,0.2-0.6,0.4-0.8,0.5l0.3,1.9l0.4-0.1c0.5-0.1,0.9-0.2,1.1-0.5
					C201.5,220,201.6,219.7,201.6,219.4z"/>
				<path id="XMLID_496_" class="st5" d="M205.2,220.7c-0.4-0.1-0.7-0.3-1-0.6c-0.3-0.3-0.6-0.6-0.8-1c-0.2-0.4-0.4-0.9-0.4-1.4
					c-0.1-0.5-0.1-1,0-1.4c0.1-0.4,0.2-0.9,0.4-1.2c0.2-0.4,0.5-0.7,0.8-0.9c0.3-0.2,0.7-0.4,1.1-0.5s0.8,0,1.2,0.1
					c0.4,0.1,0.7,0.3,1,0.6c0.3,0.3,0.6,0.6,0.8,1c0.2,0.4,0.4,0.9,0.4,1.4c0.1,0.5,0.1,1,0,1.4c-0.1,0.5-0.2,0.9-0.4,1.2
					c-0.2,0.4-0.5,0.7-0.8,0.9c-0.3,0.2-0.7,0.4-1.1,0.5S205.5,220.8,205.2,220.7z M204.2,215.7c-0.3,0.5-0.4,1.2-0.3,1.8
					c0.1,0.7,0.4,1.2,0.8,1.6c0.4,0.4,1,0.6,1.5,0.5c0.5-0.1,1-0.4,1.3-0.9c0.3-0.5,0.4-1.2,0.3-1.8c-0.1-0.7-0.4-1.2-0.8-1.6
					c-0.4-0.4-1-0.6-1.5-0.5C204.9,214.9,204.5,215.2,204.2,215.7z"/>
				<path id="XMLID_494_" class="st5" d="M212.5,213.5l-1.6,0.2l0.8,6.2l-0.9,0.1l-0.9-6.2l-1.6,0.2l-0.1-1l4-0.6L212.5,213.5z"/>
			</g>
			<g id="XMLID_462_">
				<path id="XMLID_490_" class="st5" d="M215.3,221.6l-33.8,5.4l-1.9-11.3l34.2-5.4L215.3,221.6z M182.2,226.1l32.3-5.1l-1.3-9.7
					l-32.6,5.1L182.2,226.1z"/>
			</g>
		</g>
	</g>
	<g id="XMLID_129_">
		
			<text id="XMLID_265_" transform="matrix(0.8365 0 0 1 795.2509 212.1912)" class="st47" style="font-family:'ADAM.CGPRO'; font-size:23.6085px;">DMEBOT</text>
	</g>
	<rect id="XMLID_127_" x="792.9" y="190.9" class="st48" width="85.6" height="25.8"/>
	<polygon id="XMLID_254_" class="st15" points="304.1,235.7 303.8,232.5 282.4,236.4 283.2,239.4 289.2,238.3 289.6,240.6 
		294.2,239.7 293.9,237.5 	"/>
	<linearGradient id="XMLID_264_" gradientUnits="userSpaceOnUse" x1="292.9544" y1="233.9202" x2="294.2888" y2="239.7004">
		<stop  offset="0" style="stop-color:#FFFFFF;stop-opacity:0"/>
		<stop  offset="1" style="stop-color:#FFFFFF;stop-opacity:0.75"/>
	</linearGradient>
	<polygon id="XMLID_251_" class="st49" points="304.1,235.7 303.8,232.5 282.4,236.4 283.2,239.4 289.2,238.3 289.6,240.6 
		294.2,239.7 293.9,237.5 	"/>
</g>
</svg>
