<?xml version="1.0" encoding="utf-8"?>
<!-- Generator: Adobe Illustrator 19.0.0, SVG Export Plug-In . SVG Version: 6.00 Build 0)  -->
<svg version="1.1" xmlns="http://www.w3.org/2000/svg" xmlns:xlink="http://www.w3.org/1999/xlink" x="0px" y="0px"
	 viewBox="0 0 792 792" style="enable-background:new 0 0 792 792;" xml:space="preserve">
<style type="text/css">
	.st0{display:none;}
	.st1{display:inline;opacity:0.51;}
	.st2{fill:#177272;}
	.st3{fill:#A5A5A5;}
	.st4{fill:#D3BA26;}
	.st5{fill:#8D62D1;}
	.st6{fill:#D1A128;}
	.st7{fill:#5EB72A;}
	.st8{fill:#BCBCBC;}
	.st9{fill:#8B6EAF;}
	.st10{fill:#5594AA;}
	.st11{fill:#56A8A6;}
	.st12{fill:#6394CE;}
	.st13{fill:#2D7773;}
	.st14{fill:#CED625;}
	.st15{fill:#A55D9E;}
	.st16{fill:#518E57;}
	.st17{fill:#4CA1D6;}
	.st18{fill:#A8B52C;}
	.st19{fill:#020202;}
	.st20{fill:#D36288;}
	.st21{fill:#D16BC2;}
	.st22{fill:#FFFFFF;}
	.st23{fill:#1C1C1C;}
	.st24{fill:#026ABF;}
	.st25{fill:#4FAA6B;}
	.st26{fill:#020201;}
	.st27{fill:url(#XMLID_162_);}
	.st28{fill:url(#XMLID_163_);}
	.st29{fill:url(#XMLID_166_);}
	.st30{fill:url(#XMLID_167_);}
	.st31{fill:#F9F9F9;}
	.st32{fill:#42CECE;}
	.st33{fill:url(#XMLID_357_);}
	.st34{fill:url(#XMLID_358_);}
	.st35{fill:none;stroke:#000000;stroke-width:0.5;stroke-linecap:round;stroke-linejoin:round;}
	.st36{fill:#EDAA98;}
	.st37{fill:#999898;}
	.st38{opacity:0.28;fill:#5C6970;}
	.st39{opacity:0.73;fill:url(#XMLID_359_);}
	.st40{opacity:0.69;fill:none;stroke:#C1C1C1;stroke-width:3;stroke-miterlimit:10;}
	.st41{fill:#F4C7BE;}
	.st42{opacity:0.68;fill:none;stroke:#C1C1C1;stroke-width:3;stroke-miterlimit:10;}
	.st43{fill:none;stroke:#4CA1D6;stroke-width:4;stroke-miterlimit:10;}
	.st44{fill:none;stroke:#000000;stroke-width:2;stroke-linecap:round;stroke-linejoin:round;}
	.st45{fill:url(#XMLID_360_);}
	.st46{fill:url(#XMLID_361_);}
	.st47{fill:url(#XMLID_362_);}
	.st48{fill:url(#XMLID_363_);}
	.st49{fill:url(#XMLID_364_);}
	.st50{fill:url(#XMLID_365_);}
	.st51{fill:url(#XMLID_366_);}
	.st52{fill:#ABB7BA;}
	.st53{fill:none;stroke:#BCBCBC;stroke-width:2;stroke-miterlimit:10;}
	.st54{fill:#4F4F4F;}
	.st55{fill:#FCFCFC;}
	.st56{fill:#969696;}
	.st57{fill:#D8D2C5;}
	.st58{fill:#D8A460;}
	.st59{fill:#191919;}
</style>
<g id="Layer_1" class="st0">
	<g id="_x32_Ul8x8.tif" class="st1">
		
			<image style="overflow:visible;" width="1677" height="2242" id="Layer_1_1_" xlink:href="EF1F65F80E7BE920.png"  transform="matrix(0.2655 0 0 0.2655 179.75 92.3094)">
		</image>
	</g>
</g>
<g id="Layer_5">
	<rect id="XMLID_67_" x="-26.1" y="-8" class="st2" width="883.9" height="836"/>
</g>
<g id="Layer_2">
	<g id="XMLID_1_">
		<g id="XMLID_31_">
			<path id="XMLID_85_" class="st3" d="M208.6,205.7c-20.1,37.3,31.4,99.4,72.8,122.2c41.4,22.8,85.2,26.4,85.2,26.4L251.2,191.5
				C251.2,191.5,228.7,168.4,208.6,205.7z"/>
			<polygon id="XMLID_84_" class="st4" points="230.5,636.6 300.9,710.6 283.8,657.7 			"/>
			<path id="XMLID_83_" class="st5" d="M251.2,191.5l115.4,162.8l32.6-50c-7.3-4.9-13.2-9.9-17.4-14.3L251.2,191.5z"/>
			<polygon id="XMLID_82_" class="st6" points="283.8,657.7 300.9,710.6 308.1,685.7 			"/>
			<polygon id="XMLID_81_" class="st7" points="308.1,685.7 300.9,710.6 366.7,701.9 344.2,688.7 			"/>
			<path id="XMLID_80_" class="st8" d="M302.3,79.2c0,0-27.7,112.8,60.7,156.6l0.9,0c0.8-16.1,6.2-33.3,18.1-49.4L302.3,79.2z"/>
			<polygon id="XMLID_78_" class="st5" points="302.3,79.2 382,186.5 421.5,151.8 			"/>
			<polygon id="XMLID_77_" class="st4" points="375.7,642.7 344.2,688.7 366.7,701.9 			"/>
			<polygon id="XMLID_76_" class="st9" points="366.7,354.2 363,434.2 409.3,385.6 461,327.9 			"/>
			<polygon id="XMLID_75_" class="st10" points="409.3,385.6 363,434.2 396.4,465.5 403.6,421.1 			"/>
			<polygon id="XMLID_74_" class="st11" points="363,434.2 388.6,584.5 429.8,496.9 396.4,465.5 			"/>
			<path id="XMLID_70_" class="st3" d="M461.8,299.2c3.9,0,7.8-1.2,9.5-2.4c4-2.8,8.9-1,8.9-1c2.3,1.6,4.3,2.5,6.2,3.1
				c0,0-2.5,22.2-16.1,21.4c-13.6-0.8-8.5-20-8.5-20L461.8,299.2z M363.9,235.9c-1,20.2,5.3,38.7,15.2,50.9c0.8,1,1.7,2,2.7,3.1
				c4.2,4.4,10.1,9.4,17.4,14.3c15.5,10.4,37.2,20.4,61.8,23c17.3,1.9,36,0.1,54.8-7.7c7.7-3.2,15.4-7.3,23-12.6
				c31.8-22,37.8-50.3,34.9-74.5c-3.3-28.5-18.9-51.4-18.9-51.4l-36.1,43.3l-31.7,57.1l-7.7,7.4l-5.6-6.5l-25.2-17.8
				c-5.3,3.6-14.2,5-14.2,5c-23.1-1.5-23.4-27.2-23.4-27.2l-29-55.8C370.2,202.6,364.7,219.8,363.9,235.9z M529.4,266.9
				c-8.4,0.9-17.2-6.2-17.2-6.2c8.9-36.1,34.3-20.1,34.3-20.1C546.6,263.1,536.8,266.2,529.4,266.9z"/>
			<path id="XMLID_69_" class="st12" d="M399.2,304.2l-32.6,50l94.3-26.4l0.1-0.7C436.5,324.6,414.7,314.6,399.2,304.2z"/>
			<polygon id="XMLID_68_" class="st13" points="375.7,642.7 366.7,701.9 401.7,635.9 			"/>
			<polygon id="XMLID_66_" class="st14" points="393.8,604.9 375.7,642.7 401.7,635.9 			"/>
			<path id="XMLID_65_" class="st15" d="M382,186.5l29,55.8c1-0.7,2-1.3,3-1.9L461,211l-39.5-59.2L382,186.5z"/>
			<polygon id="XMLID_64_" class="st16" points="429.8,496.9 388.6,584.5 473.8,623.6 			"/>
			<polygon id="XMLID_63_" class="st7" points="446.1,674.6 473.8,623.6 388.6,584.5 393.8,604.9 401.7,635.9 408.1,660.8 
				409.3,665.6 443.6,679.2 			"/>
			<path id="XMLID_62_" class="st3" d="M408.1,660.8c-10.5,6.9-15.6,22.4-11.8,38.5c4.6,19.4,20.6,32.2,35.6,28.6
				c15-3.6,23.5-22.2,18.9-41.6c-1-4.3-2.6-8.3-4.6-11.9l-2.5,4.7l-18.9,9.5l-15.4-23.1L408.1,660.8z"/>
			<path id="XMLID_61_" class="st3" d="M403.6,421.1l-7.1,44.4l33.4,31.4l43.9,126.7c0,0,10.7-46.8,45-67.5
				c26.5-16,38.2-11.5,42.1-8.7c1.2-1.9,2.8-4,4.6-6.1c10.2-11.8,22.2-18.1,32.9-20.6c4.7-13.4,4.4-19.1,4.4-19.1
				c5.9-49.1-42.2-44.4-63.5-54.4c-21.3-10.1-33-45.6-33-45.6l-68.8-11.3L403.6,421.1z"/>
			<polygon id="XMLID_60_" class="st14" points="409.3,385.6 403.6,421.1 437.5,390.3 			"/>
			<polygon id="XMLID_59_" class="st17" points="437.5,390.3 506.3,401.6 461,327.9 409.3,385.6 			"/>
			<polygon id="XMLID_58_" class="st18" points="409.3,665.6 424.7,688.7 443.6,679.2 			"/>
			<path id="XMLID_57_" class="st19" d="M414.1,240.5l-3,1.9c0,0,0.3,25.7,23.4,27.2c0,0,8.9-1.5,14.2-5
				C448.6,264.6,446.1,221.7,414.1,240.5z"/>
			<path id="XMLID_56_" class="st5" d="M461,211l-46.9,29.5c32-18.8,34.6,24.1,34.6,24.1L461,211z"/>
			<polygon id="XMLID_55_" class="st20" points="421.5,151.8 461,211 509.1,151.8 			"/>
			<polygon id="XMLID_54_" class="st15" points="461,211 448.6,264.6 518.8,224.3 			"/>
			<polygon id="XMLID_53_" class="st20" points="448.6,264.6 473.8,282.3 487.1,281.4 518.8,224.3 			"/>
			<polygon id="XMLID_52_" class="st21" points="509.1,151.8 461,211 518.8,224.3 			"/>
			<path id="XMLID_51_" class="st10" d="M461,327.2l-0.1,0.7l45.4,73.7l5.1-33.8l0.8-5.3l3.6-43C497,327.3,478.3,329.1,461,327.2z"
				/>
			<path id="XMLID_50_" class="st22" d="M461.8,300.3c0,0-5.1,19.2,8.5,20c13.6,0.8,16.1-21.4,16.1-21.4c-1.8-0.5-3.9-1.5-6.2-3.1
				c0,0-5-1.8-8.9,1c-1.7,1.2-5.6,2.4-9.5,2.4L461.8,300.3z"/>
			<polygon id="XMLID_49_" class="st23" points="473.8,282.3 479.4,288.8 487.1,281.4 			"/>
			<polygon id="XMLID_48_" class="st21" points="593.6,50.8 509.1,151.8 554.9,181 			"/>
			<polygon id="XMLID_47_" class="st15" points="509.1,151.8 518.8,224.3 554.9,181 			"/>
			<polygon id="XMLID_46_" class="st11" points="536.6,354.3 607,316.4 515.9,319.5 512.3,362.5 511.5,367.8 			"/>
			<path id="XMLID_45_" class="st24" d="M512.3,260.7c0,0,8.7,7,17.2,6.2c7.4-0.7,17.2-3.8,17.2-26.3
				C546.6,240.6,521.1,224.6,512.3,260.7z"/>
			<polygon id="XMLID_44_" class="st10" points="536.6,354.3 574.5,364.3 607,316.4 			"/>
			<path id="XMLID_39_" class="st8" d="M593.6,50.8L554.9,181c0,0,15.6,22.8,18.9,51.4l0.6-0.1C660.9,144.7,593.6,50.8,593.6,50.8z"
				/>
			<path id="XMLID_38_" class="st3" d="M560.9,547.4c-13.9,21.7,7.5,30.8,20,26.4c13.6-4.7,32.6-13,40.8-22.5
				c8.3-9.5,7.1-20.7,4.1-25.5c-3.5-5.5-14.5-8.2-27.5-5.2c-10.7,2.5-22.7,8.8-32.9,20.6C563.7,543.4,562.2,545.5,560.9,547.4z"/>
			<polygon id="XMLID_37_" class="st25" points="607,316.4 574.5,364.3 659.7,341.1 			"/>
			<polygon id="XMLID_36_" class="st13" points="574.5,364.3 593.6,417.6 659.7,341.1 			"/>
			<polygon id="XMLID_35_" class="st7" points="659.7,341.1 593.6,417.6 675.6,389.8 			"/>
			<polygon id="XMLID_34_" class="st14" points="593.6,417.6 636.4,422.9 675.6,389.8 			"/>
		</g>
		<g id="XMLID_32_">
		</g>
	</g>
	<circle id="XMLID_33_" class="st22" cx="429.8" cy="252.2" r="6.6"/>
	<circle id="XMLID_79_" class="st22" cx="529.4" cy="252.6" r="6"/>
	<path id="XMLID_173_" class="st19" d="M242.6,213.8c-1.5-2.8-4-5-6.9-6.3c-0.5-0.2-1-0.4-1.5-0.3c-1,0.2-1.5,1.3-1.8,2.3
		c-1.1,4.3-0.7,9,1.2,13.1c1.1,2.3,3.8,4.7,6,3.3c0.9-0.6,1.3-1.7,1.6-2.7C242.6,218.8,243.4,218.4,242.6,213.8"/>
	<path id="XMLID_174_" class="st19" d="M606.7,417.2c-0.4,1.4-0.9,3.3-0.9,4.7c0,0.4,0.6,1.6,1.2,2c0.5,0.3,0.8,0.4,1.3,0.5
		c1.4,0.2,2.9-0.7,3.7-1.9c0.8-1.2,1.2-2.6,1.6-4.1"/>
	<path id="XMLID_175_" class="st19" d="M619.1,419.4c0.2,2.1,0.9,4.2,2,6c0.2,0.4,0.5,0.8,0.8,1c0.6,0.5,1.5,0.5,2.3,0.2
		c0.7-0.3,1.3-0.9,1.7-1.6c0.8-1.4,1.1-3.1,0.8-4.7"/>
	<path id="XMLID_176_" class="st19" d="M639.7,417c0.6,1.3,1.4,2.5,2.5,3.4c1.1,1.1,2.8,1.9,4.2,1.2c0.8-0.4,1.3-1.4,1.4-2.4
		c0.1-1-0.2-1.9-0.5-2.8c-0.6-1.7-1.7-3.4-3.4-4"/>
	<path id="XMLID_177_" class="st19" d="M650,408.5c1.2,2,3.4,3.4,5.7,3.8c0.4,0.1,0.9,0.1,1.3-0.1c1-0.4,1.2-1.8,0.9-2.9
		c-0.5-2.3-1.9-4.3-3.8-5.6"/>
	<path id="XMLID_184_" class="st26" d="M410.8,718.8c-1.1,3.4-1.1,7.2-0.1,10.7c0.1,0.4,0.3,0.8,0.6,1c0.7,0.6,1.8-0.1,2.4-0.8
		c1.3-1.5,2-3.6,1.9-5.6"/>
	<path id="XMLID_185_" class="st26" d="M420.6,725.4c-0.3,2.1,0.1,4.2,0.7,6.2c0.4,1.6,1,3.2,2.3,4.2c0.2,0.2,0.5,0.3,0.8,0.4
		c0.6,0,1-0.5,1.3-1c1.4-2.4,1.8-5.4,1.2-8.1"/>
	<path id="XMLID_186_" class="st26" d="M432.3,725.9c0,2.2,0.9,4.4,2.4,5.9c0.6,0.6,1.5,1.2,2.3,0.8c0.5-0.2,0.8-0.7,1-1.2
		c0.5-1.3,0.5-2.7,0.3-4.1c-0.3-1.7-0.8-3.4-1.6-4.9"/>
	<path id="XMLID_187_" class="st26" d="M441.1,721.4c0.2,1.3,1,2.6,2.1,3.4c0.7,0.5,1.7,0.9,2.4,0.4c0.8-0.5,0.9-1.6,0.8-2.5
		c-0.2-2.4-0.9-4.8-2.2-6.9"/>
	<path id="XMLID_41_" class="st12" d="M411,242.4l-3.1,59.4l40.6-37.2c0,0-14.6,9.4-26,1.3C410,256.9,411,242.4,411,242.4z"/>
	<polygon id="XMLID_43_" class="st8" points="300.9,90.4 293.7,90.4 298.8,103.8 292,106.3 299.9,120.1 300.9,99.7 	"/>
	<polygon id="XMLID_348_" class="st8" points="598.5,62.2 603.6,55 605.3,72.3 610.8,69.7 610.8,87.2 	"/>
</g>
<g id="Layer_4">
	<g id="XMLID_611_">
		<g id="XMLID_641_">
			<linearGradient id="XMLID_162_" gradientUnits="userSpaceOnUse" x1="204.1083" y1="269.3203" x2="366.6538" y2="269.3203">
				<stop  offset="0" style="stop-color:#6D6E71;stop-opacity:0.5"/>
				<stop  offset="0.137" style="stop-color:#6D6E71;stop-opacity:0.4315"/>
				<stop  offset="1" style="stop-color:#6D6E71;stop-opacity:0"/>
			</linearGradient>
			<path id="XMLID_97_" class="st27" d="M208.6,205.7c-20.1,37.3,31.4,99.4,72.8,122.2c41.4,22.8,85.2,26.4,85.2,26.4L251.2,191.5
				C251.2,191.5,228.7,168.4,208.6,205.7z"/>
			<linearGradient id="XMLID_163_" gradientUnits="userSpaceOnUse" x1="298.2336" y1="157.5448" x2="382.0439" y2="157.5448">
				<stop  offset="0" style="stop-color:#6D6E71;stop-opacity:0.5"/>
				<stop  offset="0.137" style="stop-color:#6D6E71;stop-opacity:0.4315"/>
				<stop  offset="1" style="stop-color:#6D6E71;stop-opacity:0"/>
			</linearGradient>
			<path id="XMLID_96_" class="st28" d="M302.3,79.2c0,0-27.7,112.8,60.7,156.6l0.9,0c0.8-16.1,6.2-33.3,18.1-49.4L302.3,79.2z"/>
			<linearGradient id="XMLID_166_" gradientUnits="userSpaceOnUse" x1="302.3348" y1="132.8614" x2="421.5019" y2="132.8614">
				<stop  offset="0" style="stop-color:#6D6E71"/>
				<stop  offset="0.137" style="stop-color:#6D6E71;stop-opacity:0.863"/>
				<stop  offset="1" style="stop-color:#6D6E71;stop-opacity:0"/>
			</linearGradient>
			<polygon id="XMLID_95_" class="st29" points="302.3,79.2 382,186.5 421.5,151.8 			"/>
			<linearGradient id="XMLID_167_" gradientUnits="userSpaceOnUse" x1="363.8252" y1="254.4449" x2="574.4528" y2="254.4449">
				<stop  offset="0" style="stop-color:#FFFFFF;stop-opacity:0.3"/>
				<stop  offset="8.776546e-03" style="stop-color:#FBFBFB;stop-opacity:0.2974"/>
				<stop  offset="0.1029" style="stop-color:#D5D6D7;stop-opacity:0.2691"/>
				<stop  offset="0.2045" style="stop-color:#B5B5B7;stop-opacity:0.2386"/>
				<stop  offset="0.3136" style="stop-color:#9B9B9D;stop-opacity:0.2059"/>
				<stop  offset="0.4329" style="stop-color:#86878A;stop-opacity:0.1701"/>
				<stop  offset="0.5676" style="stop-color:#78797C;stop-opacity:0.1297"/>
				<stop  offset="0.7306" style="stop-color:#707173;stop-opacity:8.082663e-02"/>
				<stop  offset="1" style="stop-color:#6D6E71;stop-opacity:0"/>
			</linearGradient>
			<path id="XMLID_92_" class="st30" d="M554.9,181l-36.1,43.3l-31.7,57.1l-7.7,7.4l-5.6-6.5l-25.2-17.8c-5.3,3.6-14.2,5-14.2,5
				c-23.1-1.5-23.4-27.2-23.4-27.2l-29-55.8c-11.9,16.1-17.3,33.3-18.1,49.4c-1,20.2,5.3,38.7,15.2,50.9c0.8,1,1.7,2,2.7,3.1
				c4.2,4.4,10.1,9.4,17.4,14.3c15.5,10.4,37.2,20.4,61.8,23c17.3,1.9,36,0.1,54.8-7.7c7.7-3.2,15.4-7.3,23-12.6
				c31.8-22,37.8-50.3,34.9-74.5C570.5,203.8,554.9,181,554.9,181z M529.4,266.9c-8.2,2.2-17.2-6.2-17.2-6.2
				c8.9-36.1,34.3-20.1,34.3-20.1C546.6,258.4,535.9,265.2,529.4,266.9z"/>
			<path id="XMLID_91_" class="st31" d="M408.1,660.8c-10.5,6.9-15.6,22.4-11.8,38.5c4.6,19.4,20.6,32.2,35.6,28.6
				c15-3.6,23.5-22.2,18.9-41.6c-1-4.3-2.6-8.3-4.6-11.9l-2.5,4.7l-18.9,9.5l-15.4-23.1L408.1,660.8z"/>
			<polygon id="XMLID_90_" class="st32" points="409.3,385.6 403.6,421.1 437.5,390.3 			"/>
			<linearGradient id="XMLID_357_" gradientUnits="userSpaceOnUse" x1="396.416" y1="506.9189" x2="603.2894" y2="506.9189">
				<stop  offset="0" style="stop-color:#6D6E71;stop-opacity:0.5"/>
				<stop  offset="0.137" style="stop-color:#6D6E71;stop-opacity:0.4315"/>
				<stop  offset="1" style="stop-color:#6D6E71;stop-opacity:0"/>
			</linearGradient>
			<path id="XMLID_89_" class="st33" d="M429.8,496.9l43.9,126.7c0,0,10.7-46.8,45-67.5c26.5-16,38.2-11.5,42.1-8.7
				c1.2-1.9,2.8-4,4.6-6.1c10.2-11.8,22.2-18.1,32.9-20.6c4.7-13.4,4.4-19.1,4.4-19.1c5.9-49.1-47.4-39.1-68.7-49.1
				c-21.3-10.1-27.8-50.9-27.8-50.9l-68.8-11.3l-34,30.9l-7.1,44.4L429.8,496.9z"/>
			<path id="XMLID_88_" class="st31" d="M560.9,547.4c-13.9,21.7,7.5,30.8,20,26.4c13.6-4.7,32.6-13,40.8-22.5
				c8.3-9.5,7.1-20.7,4.1-25.5c-3.5-5.5-14.5-8.2-27.5-5.2c-10.7,2.5-22.7,8.8-32.9,20.6C563.7,543.4,562.2,545.5,560.9,547.4z"/>
			<linearGradient id="XMLID_358_" gradientUnits="userSpaceOnUse" x1="554.8871" y1="141.5864" x2="618.548" y2="141.5864">
				<stop  offset="0" style="stop-color:#6D6E71"/>
				<stop  offset="0.137" style="stop-color:#6D6E71;stop-opacity:0.863"/>
				<stop  offset="1" style="stop-color:#6D6E71;stop-opacity:0"/>
			</linearGradient>
			<path id="XMLID_87_" class="st34" d="M593.6,50.8L554.9,181c0,0,15.6,22.8,18.9,51.4l0.6-0.1C660.9,144.7,593.6,50.8,593.6,50.8z
				"/>
		</g>
		<g id="XMLID_640_">
			<polyline id="XMLID_160_" class="st35" points="408.1,660.8 401.7,635.9 393.8,604.9 388.6,584.5 473.8,623.6 			"/>
		</g>
	</g>
	<path id="XMLID_610_" class="st19" d="M613.6,522.4c2.5-3.2,6.3-5.5,10.4-6.1c0.7-0.1,1.5-0.1,2,0.4c0.7,0.7,0.2,2-0.4,2.8
		c-1.3,1.9-2.9,3.8-5,4.8c-2.1,1-4.9,0.9-6.5-0.7"/>
	<path id="XMLID_609_" class="st19" d="M623.9,527.5c1.9-1.8,4.8-2.8,7.3-3.2c1-0.2,2.2-0.1,2.7,0.7c0.5,0.8,0.2,1.8-0.3,2.5
		c-1.2,1.7-3.2,2.7-5.3,3.1c-1.1,0.2-2.4,0.3-3.4-0.2C624,529.9,623.3,528.5,623.9,527.5"/>
	<path id="XMLID_608_" class="st19" d="M625.6,537.4c2.6-1.3,5.9-2.2,8.3-0.6c0.4,0.2,0.7,0.5,0.8,0.9c0.2,0.6-0.1,1.3-0.5,1.8
		c-1.8,2.4-5.3,2.8-8.3,2.4c-0.8-0.1-1.9-0.5-1.9-1.4c0-0.3,0.2-0.6,0.4-0.8c0.9-1.2,0.5-1.9,1.8-2.7"/>
	<path id="XMLID_607_" class="st19" d="M622.5,546.3c1.9-0.1,3.8,0.9,4.8,2.5c0.3,0.5,0.5,1,0.3,1.6c-0.2,0.4-0.6,0.7-1,0.8
		c-2.1,0.9-4.7,0.7-6.7-0.5c-0.4-0.3-0.9-0.7-0.8-1.1c0-0.3,0.3-0.4,0.4-0.7C620.1,547.4,621.2,546.5,622.5,546.3"/>
	<path id="XMLID_606_" class="st36" d="M591.3,545.3c-5,2.5-8.6,5-14.3,12.9c-1.1,1.6-2.2,3.7-1.2,5.4c0.9,1.6,3.2,1.9,5.1,1.9
		c5.5-0.1,10.8-1.9,15.6-4.4c3.6-1.8,7.1-4.3,8.7-7.9c1.6-3.6,0.7-8.5-3-10.2C598.7,541.3,594.5,543,591.3,545.3"/>
	<polygon id="XMLID_605_" class="st37" points="300.9,90.4 293.7,90.4 298.8,103.8 292,106.3 299.9,120.1 300.9,99.7 	"/>
	<path id="XMLID_604_" class="st19" d="M403.6,307l35.8,26.9l14.1,2.3l13.7,1.8l35.7-10.1l0.3-4c0,0-27.2,6.4-47,2.7
		C434.5,322.5,415.3,315.4,403.6,307z"/>
	<path id="XMLID_603_" class="st38" d="M486.5,376.1c0,0,5.2,0.2,4.8,2.1c-0.4,1.9-11.1,5.1-24,5c-12.9-0.1-7.6-5.1-7.6-5.1
		l-2.1-3.3l0.3-4.1l-1.7-2.5l0.7-3.7l-1.7-3.8l1.1-3.3l10.9-6.1l15.5,3.9L486.5,376.1z"/>
	<linearGradient id="XMLID_359_" gradientUnits="userSpaceOnUse" x1="394.5294" y1="684.4529" x2="424.6628" y2="684.4529">
		<stop  offset="0" style="stop-color:#FFFFFF;stop-opacity:0"/>
		<stop  offset="3.692508e-03" style="stop-color:#FEFEFE;stop-opacity:2.769381e-03"/>
		<stop  offset="0.1227" style="stop-color:#D2D2D3;stop-opacity:9.202887e-02"/>
		<stop  offset="0.2456" style="stop-color:#ADADAE;stop-opacity:0.1842"/>
		<stop  offset="0.3743" style="stop-color:#8E8F90;stop-opacity:0.2807"/>
		<stop  offset="0.5085" style="stop-color:#767779;stop-opacity:0.3814"/>
		<stop  offset="0.6507" style="stop-color:#656668;stop-opacity:0.488"/>
		<stop  offset="0.8061" style="stop-color:#5B5C5E;stop-opacity:0.6046"/>
		<stop  offset="1" style="stop-color:#58595B;stop-opacity:0.75"/>
	</linearGradient>
	<path id="XMLID_602_" class="st39" d="M424.7,688.7c0,0-14.6,10.7-25.5,19.1c0,0-14.8-30.6,8.6-46.8l1.5,4.5L424.7,688.7z"/>
</g>
<g id="Layer_6">
	<path id="XMLID_190_" class="st40" d="M447.8,404.2c-0.2,5-0.1,10,0.2,15"/>
	<path id="XMLID_191_" class="st40" d="M461.6,396.9c-0.8,3.1-1.1,6.3-1,9.5"/>
	<path id="XMLID_192_" class="st40" d="M477.9,398.6c-0.5,3.5-0.5,7.1,0,10.6"/>
	<path id="XMLID_193_" class="st40" d="M467.3,411.4c-0.3,5.6,0.1,11.2,1,16.7"/>
	<path id="XMLID_194_" class="st40" d="M456.2,433.6c0.4,4.7,1.5,9.3,3.3,13.6"/>
	<path id="XMLID_195_" class="st40" d="M481.7,426.4c0.4,4.2,1.6,8.4,3.4,12.2"/>
	<path id="XMLID_196_" class="st40" d="M473.5,441.4c1.6,6,3.9,11.8,6.7,17.3c-0.1-0.6-0.1-1.1-0.2-1.7"/>
	<path id="XMLID_197_" class="st40" d="M493.4,414.7c0.8,4.9,2.6,9.6,5.1,13.8c-0.2-0.5-0.4-1.1-0.7-1.6"/>
	<path id="XMLID_198_" class="st40" d="M501.2,403c-0.2,4.1,1,8.3,3.4,11.7"/>
	<path id="XMLID_199_" class="st40" d="M495.7,442.5c1.2,3.6,3.1,7,5.7,9.8"/>
	<path id="XMLID_200_" class="st40" d="M509.4,438.7c1.3,4.3,3.8,8.3,7.2,11.2"/>
	<path id="XMLID_201_" class="st40" d="M493.2,462.1c1.8,3.9,4.2,7.6,7.1,10.8c0.2,0.2,0.5,0.4,0.7,0.3c0.3-0.1-0.1-0.6-0.2-0.4"/>
	<path id="XMLID_202_" class="st40" d="M511.7,459.3c2.5,4,6.2,7.2,10.5,9.2"/>
	<path id="XMLID_203_" class="st40" d="M529.5,460.5c4.4,2.6,9.1,4.6,14,6c-1.1-0.2-2.2-0.4-3.3-0.6"/>
	<path id="XMLID_204_" class="st40" d="M437.7,393.4c0.2,0.4,0.6-0.5,0.2-0.6c-0.5-0.1-0.7,0.5-0.9,0.9c-1.4,4.3-2.5,8.7-3.1,13.1"
		/>
	<path id="XMLID_205_" class="st40" d="M434,421.4c0.2,5.9,0.3,11.8,0.5,17.7c0,0.3,0.1,0.7,0.4,0.7s0.3-0.5,0.1-0.4"/>
	<path id="XMLID_206_" class="st40" d="M418.6,409.7c-1.4,4.9-2.4,10-3.1,15.1"/>
	<path id="XMLID_207_" class="st40" d="M418.9,437.5c0.2,5.2,0,10.4-0.6,15.6"/>
	<path id="XMLID_208_" class="st40" d="M405.6,432.5c-0.3,4.7-1.1,9.4-2.5,13.9"/>
	<path id="XMLID_209_" class="st40" d="M432.2,455.9c0.5,4.8,0.9,9.7,1.4,14.5"/>
	<path id="XMLID_210_" class="st40" d="M449.6,452.1c0.5,5.3,1.5,10.5,2.9,15.6"/>
	<path id="XMLID_211_" class="st40" d="M464.4,462.6c2.1,4.9,4.1,9.9,5.7,15"/>
	<path id="XMLID_212_" class="st40" d="M456.6,478.7c0.8,5.2,2.4,10.2,4.8,14.9"/>
	<path id="XMLID_213_" class="st40" d="M442.7,479.9c0.7,4.1,1.4,8.2,2.1,12.3"/>
	<path id="XMLID_214_" class="st40" d="M417.2,463.7c-0.6,4.4-0.8,8.8-0.6,13.2c0-0.5,0-1,0-1.6"/>
	<path id="XMLID_215_" class="st40" d="M401,457.6c0,2.8,0,5.6,0,8.3"/>
	<path id="XMLID_216_" class="st40" d="M429.9,483.2c0.3,3.7,0.4,7.4,0.4,11.1"/>
	<path id="XMLID_217_" class="st40" d="M448.7,506c1.2,4.6,2.5,9.2,3.7,13.8"/>
	<path id="XMLID_218_" class="st40" d="M447.3,533.2c1,4,2.6,7.8,4.6,11.3"/>
	<path id="XMLID_219_" class="st40" d="M465.6,507.1c2.2,3.8,4.4,7.6,6.5,11.5"/>
	<path id="XMLID_220_" class="st40" d="M464.5,531c2.6,3.6,4.9,7.6,6.7,11.7"/>
	<path id="XMLID_221_" class="st40" d="M463.4,556.6c1.6,3,3.6,6,5.1,9.1c0.4,0.8,3.3,7.4,2.2,4.8"/>
	<path id="XMLID_222_" class="st40" d="M480.6,552.7c2.2,2.9,4.1,6.1,5.5,9.5"/>
	<path id="XMLID_223_" class="st40" d="M479.5,572.7c2.5,4.4,4.3,9.1,5.5,13.9"/>
	<path id="XMLID_224_" class="st40" d="M468.6,586.6c1.2,4.7,2.5,9.3,3.7,14c0.1,0.3,0.3,0.7,0.6,0.7c0.3,0,0.2-0.7-0.1-0.4"/>
	<path id="XMLID_225_" class="st40" d="M498,556.3c2,3.5,3.2,7.4,3.4,11.4c0.3-0.5,0.1-1.2-0.3-1.6"/>
	<path id="XMLID_226_" class="st40" d="M492.9,570.5c0.5,1.5,1,3,1.5,4.5"/>
	<path id="XMLID_227_" class="st40" d="M481.1,531.6c3.3,4.1,5.8,8.9,7.3,13.9"/>
	<path id="XMLID_228_" class="st40" d="M483.3,512.8c2.6,3.9,5.3,7.7,7.9,11.6c-0.7-0.2-1.2-0.6-1.6-1.2"/>
	<path id="XMLID_229_" class="st40" d="M471.4,487.4c2.4,2.9,4.3,6.2,5.8,9.7"/>
	<path id="XMLID_230_" class="st40" d="M484.4,476.6c3.7,4.9,7.1,10.1,10.1,15.5"/>
	<path id="XMLID_231_" class="st40" d="M490.7,499.8c2.1,3.4,4.3,6.8,6.4,10.2"/>
	<path id="XMLID_232_" class="st40" d="M505.2,523.2c2.2,4.3,4.4,8.6,6.6,12.8"/>
	<path id="XMLID_233_" class="st40" d="M499.7,536c1.8,4.5,3.6,9,5.4,13.5c0.1,0.3,0.3,0.7,0.7,0.6c0.3-0.1,0-0.7-0.1-0.4"/>
	<path id="XMLID_234_" class="st40" d="M517,557.2c0.8-3.7,0.3-7.7-1.4-11.1"/>
	<path id="XMLID_235_" class="st40" d="M531.4,550.5c-0.9-5-1.7-10-2.6-15"/>
	<path id="XMLID_236_" class="st40" d="M514.6,512.7c1.5,2.2,2.8,4.5,4.1,6.9c0.2,0.4,2.7,5.4,1.5,3.1"/>
	<path id="XMLID_237_" class="st40" d="M508.6,489.2c2.3,2.9,4.6,5.8,6.8,8.7"/>
	<path id="XMLID_238_" class="st40" d="M518.5,479.8c5.3,3.5,10.2,7.6,14.6,12.1"/>
	<path id="XMLID_239_" class="st40" d="M528.1,503.6c3,4.8,6.1,9.6,9.1,14.4c0.1,0.2,0.3,0.5,0.6,0.4c0.2-0.1,0.1-0.6-0.1-0.4"/>
	<path id="XMLID_240_" class="st40" d="M541.6,529.2c1.8,4.6,2.6,9.5,2.6,14.5c0,0.4,0.8-0.1,0.4-0.4"/>
	<path id="XMLID_241_" class="st40" d="M548.5,509.4c2.7,2.7,4.6,6.2,5.2,9.9"/>
	<path id="XMLID_242_" class="st40" d="M551.3,528.8c1.7,3.1,3,6.5,3.8,10"/>
	<path id="XMLID_243_" class="st40" d="M568.7,513.2c1.6,3.6,2.9,7.3,3.8,11.2"/>
	<path id="XMLID_245_" class="st40" d="M545.1,489.4c4.5,3.6,9,7.2,13.6,10.9"/>
	<path id="XMLID_246_" class="st40" d="M547.4,475.3c5.1,1.6,10,3.9,14.5,6.7"/>
	<path id="XMLID_247_" class="st40" d="M563.5,467c5.6,0.6,11.1,2.7,15.6,6.2"/>
	<path id="XMLID_248_" class="st40" d="M573,482.6c4,2.7,7.4,6,10.2,9.9"/>
	<path id="XMLID_249_" class="st40" d="M574.7,500.3c3.9,2.6,6.6,6.7,7.6,11.3"/>
	<path id="XMLID_250_" class="st40" d="M594.7,504.3c0.5,5.1-0.1,10.2-1.6,15"/>
	<path id="XMLID_244_" class="st40" d="M591.5,475.8c3.2,3.7,5.4,8.2,6.4,13"/>
	<path id="XMLID_251_" class="st40" d="M565.6,532.7c0.7,2.1,1.9,4,3.5,5.5"/>
	<path id="XMLID_252_" class="st40" d="M309.2,334.6c4.7,1.3,9.5,2.3,14.3,3.2c-0.7-0.2-1.4-0.3-2.1-0.5"/>
	<path id="XMLID_253_" class="st40" d="M299.8,316.2c4.5,2.2,8.8,4.7,12.9,7.7"/>
	<path id="XMLID_254_" class="st40" d="M308.2,302.2c5,3.6,10.4,6.7,16,9.2"/>
	<path id="XMLID_255_" class="st40" d="M327,325.2c5.4,2.6,10.8,5.2,16.1,7.8"/>
	<path id="XMLID_256_" class="st40" d="M340.9,344.2c5.3,2.2,10.7,4.2,16.2,5.9"/>
	<path id="XMLID_257_" class="st40" d="M275.3,316.8c4.9,3.6,10.4,6.3,16.2,8.2"/>
	<path id="XMLID_258_" class="st40" d="M274.7,294c3.3,3.5,7.3,6.3,11.7,8.4"/>
	<path id="XMLID_259_" class="st40" d="M290.3,276.2c3.6,4.7,7.5,9.1,11.7,13.2c-0.7-0.3-1.5-0.7-2.2-1"/>
	<path id="XMLID_260_" class="st40" d="M271.7,270.2c2.3,4.6,5.9,8.6,10.3,11.5"/>
	<path id="XMLID_261_" class="st40" d="M250.3,271.2c3.7,4.1,7.5,8.1,11.2,12.2"/>
	<path id="XMLID_262_" class="st40" d="M245.8,291.8c4.6,3.9,9.2,7.8,13.9,11.7"/>
	<path id="XMLID_263_" class="st40" d="M226.6,260.8c3,4.8,6.3,9.5,9.8,13.9c0.2,0.3,0.6,0.6,1,0.5c0.3-0.2-0.2-0.8-0.3-0.4"/>
	<path id="XMLID_264_" class="st40" d="M246,243.2c2.7,3.4,5.4,6.8,8.1,10.2"/>
	<path id="XMLID_265_" class="st40" d="M259.7,232.7c3.4,3.7,6.8,7.3,10.2,11"/>
	<path id="XMLID_266_" class="st40" d="M275.6,254.7c3.2,3.6,6.3,7.1,9.5,10.7c0.7,0.8-0.6,2.3-1.5,1.7s0.1-2.4,1.1-2"/>
	<path id="XMLID_267_" class="st40" d="M279.2,241.1c3.8,2.2,7.1,5.2,9.7,8.7"/>
	<path id="XMLID_268_" class="st40" d="M226.5,239.8c3.3,3.4,6.4,7,9.1,10.9"/>
	<path id="XMLID_269_" class="st40" d="M209.7,230.5c2,5.5,4.4,10.9,7.2,16.2"/>
	<path id="XMLID_270_" class="st40" d="M231.2,222.3c2.4,3.3,4.8,6.7,7.2,10"/>
	<path id="XMLID_271_" class="st40" d="M245.8,214.5c2.4,1.4,4.5,3.2,6.3,5.4"/>
	<path id="XMLID_272_" class="st40" d="M238.7,194.1c3.9,1.8,7.6,4.1,11,6.9c0.6,0.5,0.7,2,0,1.6"/>
	<path id="XMLID_273_" class="st40" d="M221.8,196.7c2,0.5,4,1.4,5.6,2.6"/>
	<path id="XMLID_274_" class="st40" d="M213.6,205.5c1.1,1.3,2.2,2.6,3.3,3.9"/>
	<path id="XMLID_275_" class="st40" d="M393.8,221.1c-2.2,4.2-3.9,8.7-5.2,13.3"/>
	<path id="XMLID_276_" class="st40" d="M383.7,204.3c-2.7,3.1-4.8,6.7-6.2,10.6"/>
	<path id="XMLID_277_" class="st40" d="M378.2,228.3c-1.6,5.2-3.2,10.3-4.8,15.5"/>
	<path id="XMLID_278_" class="st40" d="M384.4,247.2c0.1,5-0.2,10-0.6,15"/>
	<path id="XMLID_279_" class="st40" d="M373.9,262.3c0.2,5.5,1.2,11,2.9,16.2"/>
	<path id="XMLID_280_" class="st40" d="M391.5,275.1c0.4,4.4,1.2,8.7,2.6,12.9"/>
	<path id="XMLID_281_" class="st40" d="M400.1,248.9c-0.8,5-1.6,9.9-2.3,14.9c-0.1,0.4-0.1,0.9,0.3,1.1c0.4,0.1,0.5-0.7,0.1-0.5"/>
	<path id="XMLID_283_" class="st40" d="M404.3,275.7c1,4.8,2,9.6,3,14.4"/>
	<path id="XMLID_284_" class="st40" d="M398.2,298.5c1.7,2.8,3.8,5.5,6,7.9"/>
	<path id="XMLID_285_" class="st40" d="M419,302.8c2,3.7,4,7.5,6,11.2"/>
	<path id="XMLID_286_" class="st40" d="M426.2,286.8c-0.4,4.2,2.3,8.9,4.3,12.6"/>
	<path id="XMLID_287_" class="st40" d="M439.4,275c0.8,3.2,2.9,9.7,3.7,13"/>
	<path id="XMLID_288_" class="st40" d="M440.4,297.4c1.4,3.7,2.7,7.4,4.1,11.1"/>
	<path id="XMLID_289_" class="st40" d="M436.6,312.4c1.8,3,3.7,6,5.5,8.9"/>
	<path id="XMLID_290_" class="st40" d="M457.8,272.3c1.4,3.9,2.3,8.1,2.5,12.2"/>
	<path id="XMLID_291_" class="st40" d="M456.2,307.9c0.9,5,1.4,10,1.4,15"/>
	<path id="XMLID_292_" class="st40" d="M487.9,315.7c-0.1,3.7-1.1,7.3-2.9,10.5"/>
	<path id="XMLID_293_" class="st40" d="M503,301.8c-0.5,4.3-1.5,8.6-3,12.8"/>
	<path id="XMLID_294_" class="st40" d="M512,319.7c2.7-5.2,6.1-10,10-14.3"/>
	<path id="XMLID_295_" class="st40" d="M516.3,287.9c0.3,4.7-0.3,9.4-1.9,13.9"/>
	<path id="XMLID_314_" class="st40" d="M500.1,285.1"/>
	<path id="XMLID_313_" class="st40" d="M496.9,273.4c1.2,4.1,2.3,8.3,3.5,12.4"/>
	<path id="XMLID_297_" class="st40" d="M505.6,257.8c3.1,4.9,5.4,10.4,6.5,16.2"/>
	<path id="XMLID_298_" class="st40" d="M530.8,272.2c1.8,4.2,2.5,8.8,2.2,13.4"/>
	<path id="XMLID_299_" class="st40" d="M535.8,295.1c-1.2,4.7-2.4,9.3-3.6,14"/>
	<path id="XMLID_300_" class="st40" d="M546.8,284c1,5-1.4,10-3.9,14.6c-0.2,0.3-0.5,0.7-0.9,0.6c-0.4-0.1,0.1-0.8,0.2-0.4"/>
	<path id="XMLID_301_" class="st40" d="M545.5,263.8c0.9,2.9,1.4,6,1.7,9"/>
	<path id="XMLID_302_" class="st40" d="M553.8,244.6c2.3,4.9,3.8,10.1,4.6,15.5"/>
	<path id="XMLID_303_" class="st40" d="M559.1,269.5c0,4.8,0,9.6,0,14.5"/>
	<path id="XMLID_304_" class="st40" d="M511.7,238.4c1.4,2.5,2.6,5,3.5,7.7"/>
	<path id="XMLID_305_" class="st40" d="M520,225c2.2,3.5,3.9,7.2,5.2,11"/>
	<path id="XMLID_306_" class="st40" d="M528,214.4c2.3,2.9,4.1,6.1,5.5,9.5"/>
	<path id="XMLID_307_" class="st40" d="M539.3,220.3c3.3,3.6,5.4,8.1,6.2,12.9c0.1,0.4,0.2,0.8,0.5,0.9c0.4,0.1,0.6-0.6,0.2-0.6"/>
	<path id="XMLID_308_" class="st40" d="M551.4,214.3c3.7,4.7,6.2,10.3,7.3,16.2"/>
	<path id="XMLID_309_" class="st40" d="M539.2,201c1.8,3.2,3.6,6.4,5.3,9.6"/>
	<path id="XMLID_310_" class="st40" d="M548.5,192c-0.3-0.3,0-0.8,0.5-0.8s0.7,0.4,1,0.7c3.1,4,6,8.2,8.7,12.5"/>
	<path id="XMLID_311_" class="st40" d="M565.3,228.8c2.1,4.8,3.4,9.9,3.8,15.1"/>
	<path id="XMLID_312_" class="st40" d="M568.9,253.4c-0.2,5.6-0.3,11.1-0.5,16.7"/>
	<path id="XMLID_296_" class="st40" d="M358.3,175.4c4.5,4.1,8.9,8.1,13.4,12.2"/>
	<path id="XMLID_315_" class="st40" d="M341.5,154.3c5.1,2.8,9.7,6.6,13.5,11"/>
	<path id="XMLID_316_" class="st40" d="M326.1,132.4c4,3.4,8.1,6.8,12.1,10.2"/>
	<path id="XMLID_317_" class="st40" d="M310.4,110.8c4.1,2.7,7.9,5.8,11.4,9.3"/>
	<path id="XMLID_318_" class="st40" d="M300.9,125.2c4.7,2,9,4.9,12.7,8.5"/>
	<path id="XMLID_319_" class="st40" d="M309.2,149.9c4.9,2.7,9.6,5.8,14,9.3"/>
	<path id="XMLID_320_" class="st40" d="M318.7,143.2c2.8,2.6,5.6,5.1,8.5,7.7"/>
	<path id="XMLID_321_" class="st40" d="M299.9,93c3,2.2,5.9,4.5,8.9,6.7"/>
	<path id="XMLID_322_" class="st40" d="M331.6,162.5c4.9,2.7,9.5,6,13.7,9.9c0.3,0.3,0.6,0.6,0.5,1c-0.1,0.4-0.9,0.2-0.7-0.1"/>
	<path id="XMLID_323_" class="st40" d="M313,169.5c4.9,1.9,9.8,3.8,14.6,5.7"/>
	<path id="XMLID_324_" class="st40" d="M318.7,186.8c5.8,0.2,11.5,1.7,16.6,4.3"/>
	<path id="XMLID_325_" class="st40" d="M340.9,183.9c6.2,2,12.1,4.9,17.4,8.7"/>
	<path id="XMLID_326_" class="st40" d="M347.6,200c5.5,0.3,11,1.4,16.2,3.1c-0.8-0.1-1.5-0.2-2.3-0.3"/>
	<path id="XMLID_327_" class="st40" d="M324.8,204.3c4-1.1,8.2-1.4,12.3-0.9"/>
	<path id="XMLID_328_" class="st40" d="M341.4,215.8c5.5-2.1,11.4-3.2,17.4-3.3"/>
	<path id="XMLID_329_" class="st40" d="M350.5,225.1c4-1.1,7.8-2.5,11.6-4.1"/>
	<path id="XMLID_330_" class="st40" d="M562.6,182.3c4.2-3.5,8.8-6.5,13.7-8.9c0.3-0.1,0.7-0.3,0.9,0c0.2,0.2-0.3,0.7-0.4,0.4"/>
	<path id="XMLID_331_" class="st40" d="M562.5,164.4c3.6-5.1,8.3-9.5,13.7-12.6"/>
	<path id="XMLID_332_" class="st40" d="M572.1,137.5c3.6-6.7,8.9-12.4,15.3-16.6"/>
	<path id="XMLID_333_" class="st40" d="M584.6,141.4c4.6-2.4,9.3-4.8,13.9-7.2"/>
	<path id="XMLID_334_" class="st40" d="M581.9,158.2c4.9-2.7,10.2-4.7,15.6-6.2"/>
	<path id="XMLID_335_" class="st40" d="M588,172.2c4.4-1,8.8-1.9,13.2-2.9c0.4-0.1,0.8-0.1,1.1,0.1c0.2,0.3-0.2,0.8-0.4,0.5"/>
	<path id="XMLID_336_" class="st40" d="M580.9,184.7c5.4-1.6,11.5-1.2,16.7,1.1c-0.6-0.1-1.2-0.2-1.7-0.3"/>
	<path id="XMLID_337_" class="st40" d="M566.3,195.7c5.3-0.7,10.7,0,15.7,1.9"/>
	<path id="XMLID_338_" class="st40" d="M575.8,208.2c3.9,1.3,7.6,3,11.1,5.2"/>
	<path id="XMLID_339_" class="st40" d="M591.9,197.8c3.1,0.5,6,1.7,8.6,3.5"/>
	<path id="XMLID_340_" class="st40" d="M572.9,220.1c2.7,1.6,5.3,3.1,8,4.7"/>
	<path id="XMLID_341_" class="st40" d="M579.7,110.4c2.9-5.4,7.4-9.9,12.7-13"/>
	<path id="XMLID_342_" class="st40" d="M596.4,112.7c4.5-2.7,9.3-4.9,14.3-6.4"/>
	<path id="XMLID_343_" class="st40" d="M605.3,127.7c3.9-1.4,8.1-2.4,12.2-2.8"/>
	<path id="XMLID_344_" class="st40" d="M607.4,146.3c2.8-1.3,5.8-1.9,8.9-1.9c0.3,0,0.7-0.1,0.8-0.4c0.1-0.3-0.6-0.4-0.5-0.1"/>
	<path id="XMLID_345_" class="st40" d="M588.6,88.1c1.6-5.5,4.8-10.5,9.1-14.3"/>
	<path id="XMLID_346_" class="st40" d="M601.5,90.4c1.8-2.5,3.9-4.7,6.4-6.5"/>
	<path id="XMLID_347_" class="st40" d="M589.7,68.1c1.1-3.1,3.6-7.4,6.5-8.7"/>
	<path id="XMLID_351_" class="st41" d="M463.7,310.5c0,0,0.2,4.6,2.8,5.8s7.8,1.9,9.9-1c2.1-2.9,4-7.8-2.8-10
		C466.1,302.9,464.3,306.8,463.7,310.5z"/>
	<path id="XMLID_100_" class="st42" d="M524.1,441.1c3.1,2.3,8.4,6.9,11.7,8.9"/>
	<path id="XMLID_101_" class="st42" d="M547.6,454c4.7,1.6,9.5,3,14.3,4"/>
	<path id="XMLID_102_" class="st42" d="M575.8,461.5c3.9,1.1,7.8,2.6,11.4,4.3"/>
	<path id="XMLID_103_" class="st42" d="M509.9,422.3c1.7,4.2,4.1,8,7.1,11.4"/>
</g>
<g id="Layer_3">
	<path id="XMLID_403_" class="st43" d="M461,339c0,0,1.5-7.7,11.8-7.9c10.3-0.3,11.2,10.3,11.2,10.3"/>
	<path id="XMLID_402_" class="st44" d="M499.2,291.9c0,0-4.6,13.8-19.1,4c0,0-4-2.4-7.9,0.4c-3.9,2.8-20.7,6.2-20.7-6.3v-3.2"/>
	<linearGradient id="XMLID_360_" gradientUnits="userSpaceOnUse" x1="580.0551" y1="538.8868" x2="552.0924" y2="505.5623">
		<stop  offset="0.1845" style="stop-color:#FFFFFF;stop-opacity:0.3"/>
		<stop  offset="0.3793" style="stop-color:#D9DADA;stop-opacity:0.2283"/>
		<stop  offset="0.8043" style="stop-color:#8C8C8F;stop-opacity:7.198863e-02"/>
		<stop  offset="1" style="stop-color:#6D6E71;stop-opacity:0"/>
	</linearGradient>
	<path id="XMLID_356_" class="st45" d="M560.9,547.4c0,0-6.2-4.7-19.5-1.5l-11.5,4.2c0,0-1.3-39.7,34.3-48.9c35.6-9.3,39-5.6,39-5.6
		s-1.6,19.8-5.7,27.6C593.4,531,560.9,547.4,560.9,547.4z"/>
	<path id="XMLID_355_" class="st36" d="M234.1,207.3c0,0-2.9,0.5-2.2,9.6c0,0,0.5,2.8,0.7,3.6c0.3,0.8-14.8,11.2-14.3-1.2
		c0.6-12.4,9.7-19.9,13.4-16.9S234.1,207.3,234.1,207.3z"/>
	<linearGradient id="XMLID_361_" gradientUnits="userSpaceOnUse" x1="579.6632" y1="281.0992" x2="531.9557" y2="281.0992">
		<stop  offset="0" style="stop-color:#FFFFFF;stop-opacity:0.3"/>
		<stop  offset="0.4168" style="stop-color:#FDFDFD;stop-opacity:0.175"/>
		<stop  offset="0.567" style="stop-color:#F6F6F7;stop-opacity:0.1299"/>
		<stop  offset="0.674" style="stop-color:#EBEBEB;stop-opacity:9.780130e-02"/>
		<stop  offset="0.7606" style="stop-color:#DADADB;stop-opacity:7.182814e-02"/>
		<stop  offset="0.8347" style="stop-color:#C4C4C5;stop-opacity:4.958713e-02"/>
		<stop  offset="0.9003" style="stop-color:#A8A9AB;stop-opacity:2.990490e-02"/>
		<stop  offset="0.9582" style="stop-color:#898A8C;stop-opacity:1.253310e-02"/>
		<stop  offset="1" style="stop-color:#6D6E71;stop-opacity:0"/>
	</linearGradient>
	<path id="XMLID_354_" class="st46" d="M532,281.5c0,0,33.2-5.8,47.7-4.7c0,0-36.2,3.8-46.6,8.9"/>
	<linearGradient id="XMLID_362_" gradientUnits="userSpaceOnUse" x1="577.0026" y1="291.5834" x2="532.9486" y2="291.5834">
		<stop  offset="0" style="stop-color:#FFFFFF;stop-opacity:0.3"/>
		<stop  offset="0.4168" style="stop-color:#FDFDFD;stop-opacity:0.175"/>
		<stop  offset="0.567" style="stop-color:#F6F6F7;stop-opacity:0.1299"/>
		<stop  offset="0.674" style="stop-color:#EBEBEB;stop-opacity:9.780130e-02"/>
		<stop  offset="0.7606" style="stop-color:#DADADB;stop-opacity:7.182814e-02"/>
		<stop  offset="0.8347" style="stop-color:#C4C4C5;stop-opacity:4.958713e-02"/>
		<stop  offset="0.9003" style="stop-color:#A8A9AB;stop-opacity:2.990490e-02"/>
		<stop  offset="0.9582" style="stop-color:#898A8C;stop-opacity:1.253310e-02"/>
		<stop  offset="1" style="stop-color:#6D6E71;stop-opacity:0"/>
	</linearGradient>
	<path id="XMLID_353_" class="st47" d="M534.1,289.7c0,0,25.6-2.8,42.9,1.6c0,0-31.7-0.5-44.1,3"/>
	<linearGradient id="XMLID_363_" gradientUnits="userSpaceOnUse" x1="562.5991" y1="301.0793" x2="530.8106" y2="301.0793">
		<stop  offset="0" style="stop-color:#FFFFFF;stop-opacity:0.3"/>
		<stop  offset="0.4168" style="stop-color:#FDFDFD;stop-opacity:0.175"/>
		<stop  offset="0.567" style="stop-color:#F6F6F7;stop-opacity:0.1299"/>
		<stop  offset="0.674" style="stop-color:#EBEBEB;stop-opacity:9.780130e-02"/>
		<stop  offset="0.7606" style="stop-color:#DADADB;stop-opacity:7.182814e-02"/>
		<stop  offset="0.8347" style="stop-color:#C4C4C5;stop-opacity:4.958713e-02"/>
		<stop  offset="0.9003" style="stop-color:#A8A9AB;stop-opacity:2.990490e-02"/>
		<stop  offset="0.9582" style="stop-color:#898A8C;stop-opacity:1.253310e-02"/>
		<stop  offset="1" style="stop-color:#6D6E71;stop-opacity:0"/>
	</linearGradient>
	<path id="XMLID_352_" class="st48" d="M532.2,299.4c0,0,19.6-0.6,30.4,3.4c0,0-20.4-1.8-31.8-0.4"/>
	
		<linearGradient id="XMLID_364_" gradientUnits="userSpaceOnUse" x1="439.0857" y1="277.7931" x2="391.3782" y2="277.7931" gradientTransform="matrix(-0.9917 0.1285 0.1285 0.9917 756.5886 -48.7985)">
		<stop  offset="0" style="stop-color:#FFFFFF;stop-opacity:0.3"/>
		<stop  offset="0.4168" style="stop-color:#FDFDFD;stop-opacity:0.175"/>
		<stop  offset="0.567" style="stop-color:#F6F6F7;stop-opacity:0.1299"/>
		<stop  offset="0.674" style="stop-color:#EBEBEB;stop-opacity:9.780130e-02"/>
		<stop  offset="0.7606" style="stop-color:#DADADB;stop-opacity:7.182814e-02"/>
		<stop  offset="0.8347" style="stop-color:#C4C4C5;stop-opacity:4.958713e-02"/>
		<stop  offset="0.9003" style="stop-color:#A8A9AB;stop-opacity:2.990490e-02"/>
		<stop  offset="0.9582" style="stop-color:#898A8C;stop-opacity:1.253310e-02"/>
		<stop  offset="1" style="stop-color:#6D6E71;stop-opacity:0"/>
	</linearGradient>
	<path id="XMLID_350_" class="st49" d="M404.2,277.3c0,0-33.7-1.5-47.9,1.5c0,0,36.4-0.9,47.4,2.8"/>
	
		<linearGradient id="XMLID_365_" gradientUnits="userSpaceOnUse" x1="436.4252" y1="288.2773" x2="392.3711" y2="288.2773" gradientTransform="matrix(-0.9917 0.1285 0.1285 0.9917 756.5886 -48.7985)">
		<stop  offset="0" style="stop-color:#FFFFFF;stop-opacity:0.3"/>
		<stop  offset="0.4168" style="stop-color:#FDFDFD;stop-opacity:0.175"/>
		<stop  offset="0.567" style="stop-color:#F6F6F7;stop-opacity:0.1299"/>
		<stop  offset="0.674" style="stop-color:#EBEBEB;stop-opacity:9.780130e-02"/>
		<stop  offset="0.7606" style="stop-color:#DADADB;stop-opacity:7.182814e-02"/>
		<stop  offset="0.8347" style="stop-color:#C4C4C5;stop-opacity:4.958713e-02"/>
		<stop  offset="0.9003" style="stop-color:#A8A9AB;stop-opacity:2.990490e-02"/>
		<stop  offset="0.9582" style="stop-color:#898A8C;stop-opacity:1.253310e-02"/>
		<stop  offset="1" style="stop-color:#6D6E71;stop-opacity:0"/>
	</linearGradient>
	<path id="XMLID_349_" class="st50" d="M403.1,285.8c0,0-25.8,0.5-42.3,7.1c0,0,31.4-4.6,44.1-2.7"/>
	
		<linearGradient id="XMLID_366_" gradientUnits="userSpaceOnUse" x1="422.0216" y1="297.7731" x2="390.2331" y2="297.7731" gradientTransform="matrix(-0.9917 0.1285 0.1285 0.9917 756.5886 -48.7985)">
		<stop  offset="0" style="stop-color:#FFFFFF;stop-opacity:0.3"/>
		<stop  offset="0.4168" style="stop-color:#FDFDFD;stop-opacity:0.175"/>
		<stop  offset="0.567" style="stop-color:#F6F6F7;stop-opacity:0.1299"/>
		<stop  offset="0.674" style="stop-color:#EBEBEB;stop-opacity:9.780130e-02"/>
		<stop  offset="0.7606" style="stop-color:#DADADB;stop-opacity:7.182814e-02"/>
		<stop  offset="0.8347" style="stop-color:#C4C4C5;stop-opacity:4.958713e-02"/>
		<stop  offset="0.9003" style="stop-color:#A8A9AB;stop-opacity:2.990490e-02"/>
		<stop  offset="0.9582" style="stop-color:#898A8C;stop-opacity:1.253310e-02"/>
		<stop  offset="1" style="stop-color:#6D6E71;stop-opacity:0"/>
	</linearGradient>
	<path id="XMLID_282_" class="st51" d="M406.2,295.1c0,0-19.5,1.9-29.7,7.3c0,0,20-4.4,31.5-4.5"/>
	<path id="XMLID_189_" class="st14" d="M214.2,401.2c-1.4-1.6-1.5-5-1.6-7.1c-0.7-8.4-1.2-16.2,1.5-24.3c1-3.2,4.2-7.5,6.7-9.6
		s7.2-1.7,9.9,0.1c3.5,2.4,3.4,7.7,1.7,11.6c-2.5,5.7-7.5,9.9-11.6,14.6c-4.1,4.7-7.6,10.9-6.2,17"/>
	<path id="XMLID_188_" class="st20" d="M196.1,354.2c0.9-8.5,3.4-18.2,5-26.2c1-5.4,1.6-11.2-1-16c-2.4-4.5-7.6-7.3-12.7-6.7
		c-5,0.6-9.5,4.9-10,10c-0.7,6.3,3.9,11.7,7.6,16.8C190.6,339.9,193.7,345,196.1,354.2"/>
	<path id="XMLID_183_" class="st5" d="M186.3,376.3c-0.5-5-1.5-9.9-3.7-14.4c-2.2-4.5-5.8-8.4-10.3-10.4c-2.4-1-5.5-1.3-7.2,0.6
		c-0.8,0.9-1.1,2.1-1.2,3.3c-0.2,2.7,0.8,5.4,2.6,7.3c3,3.2,7.6,4,11.6,5.7C182.7,370.5,183.8,371.9,186.3,376.3"/>
	<g id="XMLID_142_">
		<path id="XMLID_182_" class="st22" d="M493.5,371.9c0,0-0.9-3.1-1.6-3.6c-0.6-0.5,0.1-3.7,0.1-3.7l-1.8-4l0.4-3l-1.7-3.4l0.4-2.9
			l-1.7-3.5l0.3-3.3c0,0-12.7-5.6-30,6.2l2,4l-0.6,2.8l2,3.9l-0.5,3.2l2.1,2.8l-0.8,3.4l1.9,2l-0.4,5.3L493.5,371.9z"/>
		
			<ellipse id="XMLID_181_" transform="matrix(-0.9796 0.201 -0.201 -0.9796 1022.5211 646.0545)" class="st52" cx="478.5" cy="374.9" rx="15.3" ry="3.8"/>
		
			<ellipse id="XMLID_180_" transform="matrix(-0.9796 0.201 -0.201 -0.9796 987.3984 603.0607)" class="st52" cx="463.1" cy="351.7" rx="2.4" ry="2.4"/>
		<path id="XMLID_179_" class="st19" d="M461,336.5c1.7-3.1,4.9-5.1,9.4-6c3.9-0.8,7.1-0.2,9.7,1.8c4.7,3.7,5.1,11,5.1,11.3
			l-1.9,0.1c0-0.1-0.3-6.7-4.4-9.8c-2.1-1.6-4.8-2.1-8.1-1.4c-4,0.8-6.7,2.5-8.1,5.1c-2.1,3.8-1,8.8,0.4,12.4l0.7,1.3
			c0,0,0.4,0.7-0.2,1.2c-0.8,0.7-1.5-0.4-1.5-0.4l-0.7-1.3l0-0.1C459.8,346.6,458.6,340.9,461,336.5z"/>
		<path id="XMLID_178_" class="st53" d="M490,366.5c-3.8-0.2-7.6,0.1-11.2,1"/>
		<path id="XMLID_168_" class="st53" d="M480.2,361c-4.9,0.7-9.6,2.2-14,4.4c0.1-0.1,0.1-0.3,0.2-0.4"/>
		<path id="XMLID_165_" class="st53" d="M489.7,357c-5.9-1.5-12.2-0.9-17.9,1.2"/>
		<path id="XMLID_164_" class="st53" d="M478.4,352.2c-5.8,0.6-10.2,2.9-14.9,5.4"/>
		<path id="XMLID_143_" class="st53" d="M486.1,347.8c-5.4-0.7-10.5-0.1-15.7,1.5"/>
	</g>
	<path id="XMLID_169_" class="st19" d="M238.6,187.8c-0.7-4.6-3.8-7.7-8.1-9.3c-0.8-0.3-1.8-0.5-2.5,0.1c-0.6,0.5-0.6,1.4-0.6,2.1
		c0.1,2.1,0.7,4.2,1.7,6.1c0.4,0.8,1,1.6,1.9,1.9c0.6,0.2,1.3,0.1,1.9,0C235.3,188.3,236.3,188.2,238.6,187.8"/>
	<path id="XMLID_170_" class="st19" d="M222.3,191.7c-2.3-2.6-5.1-4.6-8.2-6c-0.7-0.3-1.5-0.6-2.1-0.3c-1.1,0.4-1.3,2-1.1,3.1
		c0.7,4.1,3.8,7.6,7.7,8.9c1.3-1.6,2.6-3.2,3.8-4.9"/>
	<path id="XMLID_171_" class="st19" d="M211.8,205.2c-2.5-0.9-5.1-1.8-7.6-2.6c-0.4-0.2-0.9-0.3-1.4-0.2c-0.8,0.3-1,1.4-0.9,2.2
		c0.6,4.7,5.1,8.5,9.8,8.2c1-2.7,0.9-5.8-0.4-8.4"/>
	<path id="XMLID_172_" class="st19" d="M203.7,219.5c-1.5-0.4-1.6-0.3-3.1,0c-1.5,0.3-2.8,1.7-2.6,3.2c0.2,1.1,1.2,1.9,2.1,2.5
		c1.1,0.8,2.3,1.6,3.7,1.9c1.4,0.3,2.9-0.1,3.7-1.3c0.7-1.1,0.4-2.5,0.1-3.8c-0.2-1-0.3-0.9-1.1-1.6S204.2,218.6,203.7,219.5"/>
	<g id="XMLID_112_">
		<g id="XMLID_109_">
			<path id="XMLID_110_" class="st17" d="M450.5,559l49.6,13.8c0,0-18.6,28.5-26.3,50.8L450.5,559z"/>
		</g>
		<g id="XMLID_111_">
		</g>
	</g>
	<g id="XMLID_105_">
		<g id="XMLID_118_">
			<polygon id="XMLID_135_" class="st54" points="246,468.5 296.1,523.3 259.6,570.5 			"/>
			<polygon id="XMLID_134_" class="st55" points="296.1,523.3 283.4,584.7 259.6,570.5 			"/>
			<polygon id="XMLID_133_" class="st6" points="266.1,594 283.8,657.7 230.5,636.6 259.6,570.5 			"/>
			<polygon id="XMLID_132_" class="st56" points="283.4,584.7 266.1,594 259.6,570.5 			"/>
			<polygon id="XMLID_131_" class="st3" points="246,468.5 259.6,570.5 144.3,565.4 197.9,514.3 197.9,514.3 197.9,514.3 			"/>
			<polygon id="XMLID_130_" class="st57" points="259.6,570.5 230.5,636.6 213.2,614.1 			"/>
			<polygon id="XMLID_129_" class="st58" points="259.6,570.5 213.2,614.1 177.3,610 			"/>
			<polygon id="XMLID_128_" class="st55" points="259.6,570.5 177.3,610 144.3,565.4 			"/>
			<polygon id="XMLID_127_" class="st59" points="193.9,400.1 246,468.5 182.2,458 			"/>
			<polygon id="XMLID_126_" class="st54" points="246,468.5 197.9,514.3 182.2,458 			"/>
			<polygon id="XMLID_120_" class="st59" points="182.2,458 197.9,514.3 197.9,514.3 144.3,511.8 			"/>
			<polygon id="XMLID_117_" class="st57" points="197.9,514.3 144.3,565.4 144.3,511.8 			"/>
		</g>
		<g id="XMLID_119_">
		</g>
	</g>
	<polygon id="XMLID_122_" class="st20" points="183.2,453.1 194.6,430.7 202,455.9 204.1,428.6 223.9,458.7 215.5,428.6 
		193.9,400.1 	"/>
</g>
</svg>
