<?xml version="1.0" encoding="utf-8"?>
<!-- Generator: Adobe Illustrator 19.0.0, SVG Export Plug-In . SVG Version: 6.00 Build 0)  -->
<svg version="1.1" xmlns="http://www.w3.org/2000/svg" xmlns:xlink="http://www.w3.org/1999/xlink" x="0px" y="0px"
	 viewBox="0 0 612 612" style="enable-background:new 0 0 612 612;" xml:space="preserve">
<style type="text/css">
	.st0{fill:#562E66;}
	.st1{display:none;}
	.st2{display:inline;}
	.st3{fill:#32868E;}
	.st4{fill:#5EAEB2;}
	.st5{fill:#E56D02;}
	.st6{fill:#E6AE00;}
	.st7{fill:#3F9FA8;}
	.st8{fill:#6E7070;}
	.st9{fill:#E3AD07;}
	.st10{fill:#C7C9C9;}
	.st11{fill:#909191;}
	.st12{fill:#A3A3A3;}
	.st13{fill:#8B8C8C;}
	.st14{fill:#565656;}
	.st15{fill:#B5B5B5;}
	.st16{fill:#384F4E;}
	.st17{fill:url(#XMLID_118_);}
	.st18{fill:url(#XMLID_119_);}
	.st19{fill:#050505;}
	.st20{fill:none;stroke:#5EAEB2;stroke-width:2.4;stroke-linecap:round;stroke-miterlimit:10;}
	.st21{fill:url(#XMLID_169_);}
	.st22{fill:url(#XMLID_170_);}
	.st23{fill:#FFFFFF;}
	.st24{opacity:0.36;fill:url(#XMLID_171_);}
	.st25{fill:url(#XMLID_172_);}
	.st26{opacity:0.36;fill:url(#XMLID_173_);}
	.st27{fill:#545454;}
	.st28{clip-path:url(#XMLID_174_);fill:none;stroke:#545454;stroke-width:3;stroke-miterlimit:10;}
	.st29{fill:#266A6D;}
	.st30{fill:none;stroke:#D36011;stroke-width:4;stroke-linecap:round;stroke-linejoin:round;stroke-miterlimit:10;}
	.st31{clip-path:url(#XMLID_175_);fill:none;stroke:#6E7070;stroke-width:3;stroke-miterlimit:10;}
	.st32{clip-path:url(#XMLID_176_);fill:#545454;}
	.st33{clip-path:url(#XMLID_176_);fill:none;stroke:#545454;stroke-width:3;stroke-miterlimit:10;}
	.st34{clip-path:url(#XMLID_176_);fill:none;stroke:#6E7070;stroke-width:3;stroke-miterlimit:10;}
</style>
<g id="Layer_4">
	<rect id="XMLID_113_" x="-234.2" y="-144.2" class="st0" width="966.1" height="918.1"/>
</g>
<g id="Layer_1" class="st1">
	<g id="TuwLD0.tif" class="st2">
		
			<image style="overflow:visible;" width="2011" height="2677" id="Layer_1_1_" xlink:href="D99C6F1A49A3FA4A.png"  transform="matrix(0.24 0 0 0.24 42.18 -15.24)">
		</image>
	</g>
</g>
<g id="Layer_2">
	<path id="XMLID_98_" class="st3" d="M411.1,436.8v24.9c0,2.9,6.8,7.5,15.2,7.5s15.2-4.6,15.2-7.5v-24.9H411.1z"/>
	<ellipse id="XMLID_97_" class="st4" cx="426.3" cy="438" rx="15.2" ry="5.8"/>
	<path id="XMLID_96_" class="st5" d="M419.2,425.9v10.9c0,1.3,3,2.7,6.7,2.7c3.7,0,6.7-1.5,6.7-2.7v-10.9H419.2z"/>
	<ellipse id="XMLID_95_" class="st6" cx="425.9" cy="426.5" rx="6.7" ry="2.6"/>
	<path id="XMLID_104_" class="st3" d="M216.1,442.2v24.9c0,2.9,6.8,7.5,15.2,7.5c8.4,0,15.2-4.6,15.2-7.5v-24.9H216.1z"/>
	<ellipse id="XMLID_103_" class="st4" cx="231.3" cy="443.4" rx="15.2" ry="5.8"/>
	<path id="XMLID_102_" class="st5" d="M224.2,431.3v10.9c0,1.3,3,2.7,6.7,2.7s6.7-1.5,6.7-2.7v-10.9H224.2z"/>
	<ellipse id="XMLID_101_" class="st6" cx="230.9" cy="431.8" rx="6.7" ry="2.6"/>
	<path id="XMLID_30_" class="st7" d="M242.2,449.8c0,0-19.7,2.1-11.6,22.6l56.2,24.8l11.6-22.6L242.2,449.8z"/>
	<path id="XMLID_47_" class="st7" d="M414,445.2c0,0,19.6-2.2,16.2,19.6L380.5,501l-16.2-19.6L414,445.2z"/>
	<path id="XMLID_70_" class="st3" d="M260.2,465.1v49c0,14.2,33,25.7,73.7,25.7c38,0,69.2-10,73.2-22.9l0.4,0v-51.8H260.2z"/>
	<ellipse id="XMLID_29_" class="st4" cx="333.9" cy="465.1" rx="73.7" ry="25.7"/>
	<g id="XMLID_60_">
		<g id="XMLID_65_">
			<path id="XMLID_111_" class="st8" d="M488.5,209.1c4.2,10.8,7.2,22.2,6.8,33.8c-0.8,24.9-14.1,49.6-35.6,62.1
				c-19,11.1-43.9,13.3-66.6,12.6c-0.6-8.5-0.1-17.1,1.7-25.5c1.6,0.5,3.2,0.8,4.8,1.2c14.2,2.8,29-0.6,41.7-7.5
				c15.4-8.3,22.7-17,27.8-30.5c2.4-6.2,3.1-15.2,2.6-21.9c-0.3-4.5-2.2-8.9-4.5-13.1c4.4,0.4,8.8-0.4,12.7-2.6
				C482.9,216.1,486.7,212.8,488.5,209.1z"/>
			<path id="XMLID_76_" class="st9" d="M484.2,196.7L484.2,196.7c0.9-0.5,1.6-1.2,2.1-2c1.5,3.5,3.4,7.6,3.3,10.8
				c-0.1,1.2-0.4,2.4-1,3.6c-1.8,3.6-5.7,7-8.7,8.6c-3.8,2.2-8.3,3-12.7,2.6c-1.5-0.1-3.1-0.5-4.5-1c-3-3.2-5.9-6.6-8.8-10
				C464,205.3,474.1,200.8,484.2,196.7z"/>
			<path id="XMLID_72_" class="st10" d="M486.3,194.7c-0.5,0.8-1.2,1.5-2.1,1.9c-0.2,0.1-0.4,0.2-0.6,0.2c-1.6,0.5-3.3,0.2-4.9-0.3
				c-9.5-3.1-16.3-11.4-21.5-19.9c-9.6-15.6-15.1-32.4-17.6-50.6c5.6,5.5,9.2,9.1,15.3,14c2.3,7.3,5.2,14.4,8.8,21.2
				c1.8,3.5,4,7,7.4,8.8c1.3-0.9,0.8-2.9,0.2-4.3c-3.6-8.1-9.9-19.6-14.8-25.7l-0.2-0.5l-8.2-22.6c7.3,3.9,12.5,10.8,17,17.7
				c5.8,9,11,18.5,15.4,28.4c3.4,7.7,6.4,15.7,7.2,24C487.9,189.7,487.6,192.7,486.3,194.7z M480.4,188.3c1.3-0.5,1.2-3.4-0.1-6.5
				c-1.3-3-3.4-5-4.7-4.5c-1.3,0.6-1.2,3.4,0.1,6.5C477.1,186.9,479.1,188.9,480.4,188.3z"/>
			<path id="XMLID_71_" class="st11" d="M453.9,209.5c-0.6,0.3-1.2,0.5-1.8,0.8c-15.9-8.9-27.9-24.5-32.4-42.2l2.6-31.8
				c5.8-3.4,11.6-6.8,17.4-10.2l0,0.1c2.5,18.2,8,35,17.6,50.6c5.2,8.5,12,16.8,21.5,19.9c1.6,0.5,3.3,0.9,4.9,0.3
				c0.2-0.1,0.4-0.1,0.6-0.2l0,0.1C474.1,200.8,464,205.3,453.9,209.5z"/>
			<path id="XMLID_69_" class="st11" d="M480.3,181.8c1.3,3,1.4,5.9,0.1,6.5c-1.3,0.6-3.3-1.5-4.7-4.5c-1.3-3-1.4-5.9-0.1-6.5
				C476.9,176.8,478.9,178.8,480.3,181.8z"/>
			<path id="XMLID_68_" class="st8" d="M471.3,165.8c0.6,1.4,1.1,3.4-0.2,4.3c-3.5-1.8-5.6-5.3-7.4-8.8c-3.6-6.8-6.5-13.9-8.8-21.2
				l1.4-0.5l0.2,0.5C461.5,146.2,467.8,157.7,471.3,165.8z"/>
			<path id="XMLID_67_" class="st8" d="M439.6,126c-5.8,3.4-11.6,6.8-17.4,10.2v-5.3l5.3-2.1l20.7-11.8l8.2,22.6l-1.4,0.5
				C448.8,135.2,445.2,131.6,439.6,126L439.6,126z"/>
		</g>
		<g id="XMLID_66_">
		</g>
	</g>
	<g id="XMLID_37_">
		<g id="XMLID_40_">
			<path id="XMLID_110_" class="st8" d="M378.4,460.7c-0.7,1.4-0.7,1.7-1.5,2.6c-13.9,3.7-28.1,6.4-42.4,6.5
				c-14.6,0.1-31.2-2.5-44.4-9.1c0.8-0.7,1.7-1.3,2.6-2c-0.8-0.7-1.6-1.4-2.3-2.1c13.5,6.2,28.6,8.4,43.5,8.2
				c14.2-0.2,28.8-2.5,42.4-5.8C377,459.6,377.7,460.2,378.4,460.7z"/>
			<path id="XMLID_109_" class="st12" d="M376.5,463.6c1.1,0.7,0.8,2.2,1.6,3.2c-1.1,1.1-4.2,1.7-6.2,2.4c-24.3,7.8-50,8.2-74.7-0.6
				c-3.5-1.3-6.3-1.2-9-6.4c0.6-0.5,1.2-1,1.9-1.5c13.2,6.5,29.8,9.2,44.4,9.1c14.4-0.1,28.6-2.8,42.4-6.5
				C376.8,463.4,376.7,463.5,376.5,463.6z"/>
			<path id="XMLID_108_" class="st12" d="M376.5,445.9c0.7,0.7,0.9,1.7,0.6,2.7c-27.8,7.1-57.3,7.1-85.1,0.1
				c0.5-0.4,0.9-0.7,1.4-1.1c-0.3-1.8-2.2-3-3-4.5c27.2,7.6,55.8,7.5,83.1,0.5C373.7,444.7,375.6,445.1,376.5,445.9z"/>
			<path id="XMLID_93_" class="st8" d="M377.1,448.6c-0.1,0.6-0.4,1.2-0.7,1.7c-0.9,1.4-2.1,2.6-2.3,4.2c0,0.2,0,0.5,0,0.7
				c-0.1,0-0.3,0.1-0.4,0.1c-28.1,7.6-58.5,6.5-85.9-3.2c1.4-1.2,2.9-2.3,4.3-3.4C319.8,455.7,349.4,455.7,377.1,448.6z"/>
			<path id="XMLID_52_" class="st8" d="M376,425.9c0.1,0.8,0,1.5-0.4,2.2c-0.7,1.4-2.5,2.3-3.1,3.6c-25.2,7.9-52.5,8.4-78.3,2.7
				c-0.2-2.1-2.4-3.9-4.4-5.1c0.4-0.4,0.8-0.8,1.2-1.2C319,434.1,348.3,433.3,376,425.9z"/>
			<path id="XMLID_50_" class="st8" d="M375.9,437c0.4,1.8,0,3.7-1.4,4.9c-0.4,0.4-1,0.8-1.1,1.4c0,0.1,0,0.3,0,0.4
				c-27.3,7-55.9,7.1-83.1-0.5c-0.3-0.5-0.5-1-0.5-1.6c0.1-1.1,0.8-1.9,1.6-2.7C319.1,445.8,348.6,445.1,375.9,437z"/>
			<path id="XMLID_49_" class="st12" d="M375.7,436.3c0.1,0.2,0.1,0.4,0.2,0.7c-27.3,8.1-56.8,8.8-84.4,1.8c1-0.9,2.1-1.7,2.5-2.9
				c0.2-0.5,0.2-1,0.2-1.5c25.8,5.6,53.1,5.2,78.3-2.7c-0.2,0.4-0.3,0.8-0.3,1.2C373.9,433.3,375.2,434.7,375.7,436.3z"/>
			<path id="XMLID_46_" class="st8" d="M375.1,415.6c0.3,0.4,0.5,0.9,0.4,1.3c-0.1,0.4-0.4,0.6-0.7,0.8c-1.2,0.9-2.3,1.7-3.5,2.6
				c0.1,0.1,0.2,0.1,0.4,0.2c-25,8-52.3,8.5-77.6,1.4c-0.5-0.5-1.3-1-1.9-1.4c-1.3-1-2-2.6-2.1-4.3c27.6,6.9,57.1,6.5,84.5-1.3
				C374.8,415.2,374.9,415.4,375.1,415.6z"/>
			<path id="XMLID_44_" class="st12" d="M375,423.5c0.5,0.7,0.9,1.5,1,2.4c-27.6,7.4-57,8.2-85,2.3c1-1,1.9-2,2.9-2.9
				c0.4-0.4,0.8-0.9,0.9-1.5c0.1-0.7-0.2-1.2-0.7-1.7c25.2,7.1,52.6,6.6,77.6-1.4C372.9,421.5,374.1,422.3,375,423.5z"/>
			<path id="XMLID_43_" class="st12" d="M371.5,410.1c1.1,1.6,2.1,3.3,3.2,4.9c-27.4,7.8-56.9,8.3-84.5,1.3
				c-0.1-1.8,0.6-3.6,1.9-4.8c7.3,2.3,15,2.9,22.7,3.1C333.8,415.2,352.8,413.7,371.5,410.1z"/>
			<path id="XMLID_42_" class="st12" d="M374.1,455.2c0.1,1.5,1,2.7,2.2,3.8c-13.6,3.3-28.2,5.6-42.4,5.8c-14.9,0.2-30-2-43.5-8.2
				c-1.2-1.2-2.2-2.6-3.1-4c0.2-0.1,0.3-0.3,0.5-0.4c27.4,9.6,57.8,10.8,85.9,3.2C373.8,455.3,374,455.3,374.1,455.2z"/>
		</g>
		<g id="XMLID_41_">
		</g>
	</g>
	<path id="XMLID_3_" class="st3" d="M260.2,286.2v108.5c0,12.6,31.3,22.8,70,22.8s70-10.2,70-22.8V286.2H260.2z"/>
	<ellipse id="XMLID_1_" class="st4" cx="330.2" cy="286.2" rx="70" ry="22.8"/>
	<g id="XMLID_12_">
		<g id="XMLID_15_">
			<path id="XMLID_92_" class="st8" d="M275.2,317.1c0.2,5.3-3.2,12-7.4,15.3c-19.6-6.2-39.5-6.4-56.8,3.7
				c-16.8,9.9-29.5,25.9-38.4,43.3l0,0c-0.9,1.3-1.6,2.7-2,4.3c-6.5-7.6-16.1-11.9-26.1-12.4c9.7-23.7,26.4-44.9,48.5-58
				c22.2-13.2,49.6-15.4,74.7-9.5C275.2,305.5,275,311.8,275.2,317.1z"/>
			<path id="XMLID_78_" class="st13" d="M171.2,398.4c5.9,6.7,10,14.3,11.4,19.1c3.5,12.3,2.9,32.1-6.9,45.5
				c-9.5,13-27.1,15.8-27.1,15.8l-4.3-26.3l3.5-0.4c8.9-1.6,12.7-14,11.4-21.4c-1.3-7.4-10.9-17.5-20.6-18.8
				c-7.8-1.1-16.2,4.2-18.1,11.6c-0.5,1.7-0.6,3.6-0.2,5.5c1.8,10.1,9.3,19.3,9.3,19.3l-2.3,2.6l-0.4,0.3L108,468.7
				c-0.3,0-0.5,0.1-0.8,0.1l-4.1-5.3c-4.8-6.6-11.4-21.9-12.7-28.9c-1.3-7-3.1-28,15.8-45.5c1.1-1,2.1-1.8,3.3-2.6c0,0,0,0,0,0
				c6.4-4.4,14-5.7,21.2-5.5c14.4,0.4,27.4,6.8,27.4,6.8C163.1,390.4,167.5,394.2,171.2,398.4z M155.8,402.5c0-2.7-2.2-4.8-4.9-4.8
				s-4.9,2.2-4.9,4.8c0,2.7,2.2,4.8,4.9,4.8S155.8,405.2,155.8,402.5z"/>
			<path id="XMLID_75_" class="st9" d="M144.5,371.3c10,0.5,19.6,4.8,26.1,12.4c0.9,1,1.7,2.1,2.4,3.2c-0.9,3.4-1.7,8-1.8,11.6
				c-3.7-4.2-8.2-8.1-13.1-10.6c0,0-13.1-6.4-27.4-6.8c2.5-3.6,4.6-6.2,7.6-9.5C140.3,371.2,142.4,371.2,144.5,371.3z"/>
			<path id="XMLID_32_" class="st14" d="M159.1,430.7c1.3,7.4-2.5,19.8-11.4,21.4l-3.5,0.4c-5.3,0.1-10.7-0.2-15.9,0.2
				c3.4-0.3,7.2-1.9,10.2-3.5s5.7-4.3,6.7-7.5c0.7-2.1,0.7-4.4,0.3-6.6c-1.4-7.7-8.5-14-16.3-14.5c-3.2-0.2-6.7,0.6-8.9,2.8
				c2-7.4,10.3-12.6,18.1-11.6C148.2,413.2,157.8,423.2,159.1,430.7z"/>
			<path id="XMLID_28_" class="st15" d="M150.9,397.7c2.7,0,4.9,2.2,4.9,4.8c0,2.7-2.2,4.8-4.9,4.8s-4.9-2.2-4.9-4.8
				C145.9,399.9,148.1,397.7,150.9,397.7z"/>
			<path id="XMLID_25_" class="st15" d="M144.3,452.5l4.3,26.3c-5.3-1.7-10.4-1.3-15.9-2c-1.5-7.6-2.4-16.4-4.4-24
				C133.6,452.4,139,452.6,144.3,452.5z"/>
			<path id="XMLID_2_" class="st14" d="M103.1,463.5l4.1,5.3c-4.7,0.6-9.1,1.5-13.7,2.5c-8-8.3-13.4-19-15.2-30.4
				c-1.8-11.4,0-23.3,5-33.6c2-4.1,3.8-5.6,7.5-8.8c5.1-4.3,12.6-8.8,18.6-12.1c-1.1,0.8-2.2,1.6-3.3,2.6
				c-18.8,17.5-17.1,38.5-15.8,45.5C91.7,441.6,98.3,456.9,103.1,463.5z"/>
		</g>
		<g id="XMLID_16_">
		</g>
	</g>
	<path id="XMLID_82_" class="st7" d="M390,510.2c0,0-19.2,6.1-11.6,24.4l56.2,26.8l11.6-24.4L390,510.2z"/>
	<path id="XMLID_91_" class="st3" d="M432.2,534.7v26.5c0,3.1,7.2,8,16.2,8s16.2-4.9,16.2-8v-26.5H432.2z"/>
	<ellipse id="XMLID_90_" class="st4" cx="448.4" cy="536" rx="16.2" ry="6.2"/>
	<path id="XMLID_89_" class="st5" d="M440.9,523.1v11.6c0,1.3,3.2,2.9,7.1,2.9s7.1-1.6,7.1-2.9v-11.6H440.9z"/>
	<ellipse id="XMLID_87_" class="st6" cx="447.9" cy="523.7" rx="7.1" ry="2.7"/>
	<path id="XMLID_105_" class="st16" d="M285.3,288.4c0,0,28.9-11.9,88.4,0l-18.4,5.8l-30.7,2.5l-18.8-2.5L285.3,288.4z"/>
	<linearGradient id="XMLID_118_" gradientUnits="userSpaceOnUse" x1="302.1678" y1="287.5725" x2="360.5063" y2="186.5273">
		<stop  offset="0" style="stop-color:#FFFFFF;stop-opacity:0"/>
		<stop  offset="7.367390e-02" style="stop-color:#E0E1E1;stop-opacity:6.630651e-02"/>
		<stop  offset="0.1631" style="stop-color:#C3C4C5;stop-opacity:0.1468"/>
		<stop  offset="0.2625" style="stop-color:#AAABAD;stop-opacity:0.2363"/>
		<stop  offset="0.374" style="stop-color:#97999B;stop-opacity:0.3366"/>
		<stop  offset="0.5043" style="stop-color:#8A8C8F;stop-opacity:0.4539"/>
		<stop  offset="0.6711" style="stop-color:#828487;stop-opacity:0.604"/>
		<stop  offset="1" style="stop-color:#808285;stop-opacity:0.9"/>
	</linearGradient>
	<path id="XMLID_106_" class="st17" d="M349,290.6c0,0-5.8-62.1-6.4-64.7c-0.6-2.7-6.4-3.6-6.4-3.6s-0.4,0-1.2,0v-39.8h1.3
		c2.6,0,4.7-2.1,4.7-4.7s-2.1-4.7-4.7-4.7h-14c-2.6,0-4.7,2.1-4.7,4.7s2.1,4.7,4.7,4.7h1.3v39.7c-0.6,0-1.2,0-1.8,0
		c-5.6,0.1-6.7,3.6-6.7,3.6l-5.1,66.2"/>
	<linearGradient id="XMLID_119_" gradientUnits="userSpaceOnUse" x1="309.7495" y1="278.3273" x2="333.1249" y2="237.8399">
		<stop  offset="0" style="stop-color:#FFFFFF;stop-opacity:0"/>
		<stop  offset="1" style="stop-color:#FFFFFF"/>
	</linearGradient>
	<path id="XMLID_107_" class="st18" d="M320.8,234.9c-0.7,8.3-1.5,16.7-2.2,25c-0.7,7.5-1.3,15-0.5,22.4c0,0.5,0.2,1,0.7,1.2
		c0.4,0.2,1,0,1.4-0.3c2.8-1.6,3.5-4.7,3.8-7.5c1.8-13.5,2.9-27.1,1.2-40.6c-0.2-1.4-1-3.3-2.8-3.1c-0.9,1.3-1.3,2.8-1.1,4.2"/>
	<path id="XMLID_23_" class="st19" d="M210.3,518.3"/>
	<path id="XMLID_120_" class="st19" d="M415.6,421.4c8.9,4.3,17.1,10.2,26.5,13.2c8.2,2.6,17,2.9,25.7,2.5c0.5,0,1.1-0.2,1.1-0.7
		c0-0.3-0.2-0.5-0.4-0.6c-5.7-5.2-13.7-6.9-21.3-8.5c-7.7-1.7-15.4-3.6-23-5.8c-5.7-1.6-10.2-3.5-15.8-5.6c-5.1-2-8.2-2.1-13.6-1.9
		c6,4.4,9.9,5.8,17,8c5.9,1.8,12.1,2.9,17.4,6.1"/>
	<path id="XMLID_116_" class="st19" d="M454.3,498c0,0-2.1,2.9-4,9c-3.3,10.8-14,22.9-14,22.9s-6.8,8.9-1.7,18.9
		c0,0,8.7,14.7,8.7,5.8c0-8.9,4.8-30,9.2-34s8.4-7.5,8.4-11.4c0-3.9-1.5-2.2-1.8-5.1C458.7,501.1,457.5,497.4,454.3,498z"/>
	<path id="XMLID_86_" class="st8" d="M447.9,515.8c-1.4,0-2.5,2.7-2.5,2.7v3.8c0,0.8,1.1,1.4,2.5,1.4c1.3,0,2.4-0.6,2.4-1.4v-3.8
		C450.4,518.5,449.3,515.8,447.9,515.8z"/>
	<path id="XMLID_22_" class="st19" d="M445.5,519.8c0,0,1.8,1.6,4.9,0c3.1-1.6,0.8,1.8,0.8,1.8l-1.5,3.4l-5,1.1l-1.1-2.3
		L445.5,519.8z"/>
	<path id="XMLID_94_" class="st8" d="M425.9,419.1c-1.3,0-2.3,2.5-2.3,2.5v3.6c0,0.7,1.1,1.3,2.3,1.3c1.3,0,2.3-0.6,2.3-1.3v-3.6
		C428.2,421.6,427.2,419.1,425.9,419.1z"/>
	<path id="XMLID_115_" class="st19" d="M423.6,422.8c0,0,1.9,1.7,4.6,0l1.4,1.8l0.4,3.9l-4.1-1.5l-3.7-2.1L423.6,422.8z"/>
	<path id="XMLID_31_" class="st19" d="M199.9,438.1c0,0,16.9-0.7,33.5-7.9c0,0,2.2-3.5,11.4-4.4c9.1-0.9,21.8-7.9,21.8-7.9
		s-10.6-0.1-21.9,3.1s-15.7,6.1-26.3,8c-9.2,1.6-26.1,6.2-27.5,7.7C189.3,438.1,199.1,438.1,199.9,438.1z"/>
	<path id="XMLID_100_" class="st8" d="M230.9,424.4c-1.3,0-2.3,2.5-2.3,2.5v3.6c0,0.7,1.1,1.3,2.3,1.3c1.3,0,2.3-0.6,2.3-1.3V427
		C233.1,427,232.2,424.4,230.9,424.4z"/>
	<path id="XMLID_48_" class="st19" d="M228.6,427.7c0,0,1.9,1.5,4.6,0s0.2,2.5,0.2,2.5l-4.8,1.9l-3.2-0.8L228.6,427.7z"/>
	<path id="XMLID_45_" class="st19" d="M305.1,391.9c0,0,50.2,10.6,83.8-8v-40.4c0,0-30.7,10.8-83.8,6.4V391.9z"/>
	<path id="XMLID_77_" class="st9" d="M311.9,380.6l17.5,8.5c0,0,5-12.6,21.2-13.7c15.1-1,19.8,9.8,19.8,9.8l14.1-10.4
		c0,0-11.9-21.1-35.6-19.1C321.8,358.1,311.9,380.6,311.9,380.6z"/>
	<line id="XMLID_99_" class="st20" x1="280.5" y1="302" x2="280.5" y2="409.7"/>
	<line id="XMLID_124_" class="st20" x1="275.9" y1="480.2" x2="275.9" y2="518.3"/>
	<path id="XMLID_51_" class="st7" d="M282.3,514l-51,35.6l15.4,22.1l51-35.6C302.2,516.9,282.3,514,282.3,514z"/>
	<path id="XMLID_83_" class="st3" d="M215.1,547.2v26.5c0,3.1,7.2,8,16.2,8c8.9,0,16.2-4.9,16.2-8v-26.5H215.1z"/>
	<ellipse id="XMLID_81_" class="st4" cx="231.3" cy="548.4" rx="16.2" ry="6.2"/>
	<path id="XMLID_85_" class="st5" d="M223.8,535.5v11.6c0,1.3,3.2,2.9,7.1,2.9s7.1-1.6,7.1-2.9v-11.6H223.8z"/>
	<ellipse id="XMLID_84_" class="st6" cx="230.9" cy="536.1" rx="7.1" ry="2.7"/>
	<path id="XMLID_114_" class="st19" d="M218.9,528.5c10.2,6.1,19.3,14,30.2,18.6c9.5,4,20,5.2,30.3,5.7c0.6,0,1.4-0.1,1.4-0.7
		c0-0.3-0.2-0.6-0.4-0.8c-6.2-6.8-15.6-9.6-24.4-12.4c-9-2.8-18-6-26.8-9.4c-6.6-2.6-12.3-6.8-18.6-10c-5.9-2.9-12.3-4.5-18.8-4.9
		c6.7,5.9,14.4,10.7,22.6,14.1c6.8,2.8,14.1,4.8,20.1,9.1"/>
	<path id="XMLID_88_" class="st8" d="M230.9,528.2c-1.4,0-2.5,2.7-2.5,2.7v3.8c0,0.8,1.1,1.4,2.5,1.4c1.3,0,2.4-0.6,2.4-1.4v-3.8
		C233.3,530.9,232.2,528.2,230.9,528.2z"/>
	<path id="XMLID_112_" class="st19" d="M233,537.8c0,0-6.5-4.9-9.2-5.6l4.6,0.7c0,0,1.9,1.8,4.9,0.4c1.4-0.7,4.7,4.3,4.7,4.3
		L233,537.8z"/>
</g>
<g id="Layer_3">
	<linearGradient id="XMLID_169_" gradientUnits="userSpaceOnUse" x1="324.3593" y1="29.758" x2="324.3593" y2="298.5024">
		<stop  offset="0" style="stop-color:#FFFFFF;stop-opacity:0"/>
		<stop  offset="1" style="stop-color:#96F1FF;stop-opacity:0.75"/>
	</linearGradient>
	<path id="XMLID_283_" class="st21" d="M273.3,284.5c0,0,21,14,56.9,14s56-14,56-14s5.3-10.5,7-21c1.8-10.5,6.1-50.8,19.3-71.8
		s22.8-84.9,7-109.4c-15.8-24.5-37.6-47.3-72.6-51.6s-76.1,7-97.1,26.3s-31.5,47.3-28,70s12.3,45.5,23.6,66.5s15.8,40.6,17.5,49.3
		C264.6,251.5,268.7,276,273.3,284.5z"/>
	<g id="XMLID_278_">
		<path id="XMLID_280_" class="st12" d="M330.6,34.6c5.4,0,10.6,0.4,15.6,1c35.3,4.9,61.3,28.9,71.5,50.6
			c5.2,11.1,6.8,30.5,4.3,53.2c-2.3,20.5-7.7,40.1-13.7,49.7c-12,19.2-16.8,52.3-19.1,68.3c-0.3,2.2-0.6,4-0.8,5.3
			c-1.3,7.6-4.6,15.5-6,18.4c-4.4,2.7-22.7,12.4-52.1,12.4c-29.4,0-48.5-9.9-53.1-12.5c-3.4-7.3-6.7-24.6-8.5-34.2
			c-0.4-1.9-0.7-3.6-1-5c-3.7-18.4-9.7-35.4-18-50.7c-12.1-22.4-19.9-44.2-23.1-64.9c-3.3-21.7,7.3-48,26.4-65.6
			C270.1,45.1,301.2,34.6,330.6,34.6 M330.6,29.6c-30.7,0-63.1,11-80.9,27.4c-21,19.3-31.5,47.3-28,70c3.5,22.8,12.3,45.5,23.6,66.5
			c11.4,21,15.8,40.6,17.5,49.3c1.8,8.8,5.8,33.3,10.5,41.7c0,0,21,14,56.9,14s56-14,56-14s5.3-10.5,7-21
			c1.8-10.5,6.1-50.8,19.3-71.8c13.1-21,22.1-81.3,9.7-107.6c-10.5-22.3-37.7-48.1-75.3-53.4C341.5,29.9,336.1,29.6,330.6,29.6
			L330.6,29.6z"/>
	</g>
	<linearGradient id="XMLID_170_" gradientUnits="userSpaceOnUse" x1="266.9503" y1="95.4282" x2="266.9503" y2="263.4945">
		<stop  offset="0" style="stop-color:#FFFFFF;stop-opacity:0"/>
		<stop  offset="1" style="stop-color:#FFFFFF;stop-opacity:0.75"/>
	</linearGradient>
	<path id="XMLID_277_" class="st22" d="M244.8,104.2c-3.4,19.2,1.3,32.8,7.5,51.2c5.3,15.7,14,30.2,19,46
		c5.9,18.7,6.5,38.8,12.7,57.4c1,2.9,4.4,6.2,6.3,3.8c-3.1-30.9-10.1-61.3-20.8-90.5c-4.4-11.9-9.4-23.5-12.1-35.9
		c-2.3-10.2-1-20.5-0.9-31c0-2.4,0.1-6.1-1.6-7.9C253.2,95.7,249.1,91.7,244.8,104.2"/>
	<path id="XMLID_276_" class="st23" d="M286.8,269.9c2.4-0.2,4.3,2.1,5.4,4.2c0.6,1.2,1.2,2.5,1,3.9c-0.1,1.4-1.2,2.7-2.6,2.7
		c-0.7,0-1.4-0.3-2-0.7c-1.5-0.9-2.7-2.2-3.7-3.7c-0.7-1.1-1.2-2.4-1.1-3.6s0.9-2.6,2.1-3c1.2-0.4,2.8,0.4,2.9,1.7"/>
	<linearGradient id="XMLID_171_" gradientUnits="userSpaceOnUse" x1="300.4121" y1="495.1322" x2="330.8022" y2="442.495">
		<stop  offset="0" style="stop-color:#FFFFFF;stop-opacity:0"/>
		<stop  offset="7.380247e-03" style="stop-color:#F6FAFC;stop-opacity:5.535185e-03"/>
		<stop  offset="4.767627e-02" style="stop-color:#C8E1ED;stop-opacity:3.575720e-02"/>
		<stop  offset="9.308982e-02" style="stop-color:#9DCADF;stop-opacity:6.981736e-02"/>
		<stop  offset="0.1419" style="stop-color:#77B6D3;stop-opacity:0.1064"/>
		<stop  offset="0.195" style="stop-color:#57A5C9;stop-opacity:0.1463"/>
		<stop  offset="0.2537" style="stop-color:#3B96C0;stop-opacity:0.1903"/>
		<stop  offset="0.32" style="stop-color:#258AB9;stop-opacity:0.24"/>
		<stop  offset="0.3974" style="stop-color:#1481B4;stop-opacity:0.2981"/>
		<stop  offset="0.4931" style="stop-color:#097BB0;stop-opacity:0.3698"/>
		<stop  offset="0.6274" style="stop-color:#0277AE;stop-opacity:0.4705"/>
		<stop  offset="1" style="stop-color:#0076AD;stop-opacity:0.75"/>
	</linearGradient>
	<path id="XMLID_275_" class="st24" d="M374.9,468.3c4.9-1.9-39.8,19.2-68.4,20.6c0,0-42.1-6.1-46.1-21.8
		c-4-15.8,31.7-23.2,31.7-23.2l1.3,3.6l-6.1,5l5.3,6.2l-4.4,3.4c0,0,0.9,3.1,3.5,4.3s25.5,9.8,42.6,8.6
		C334.3,475.1,359.5,474.1,374.9,468.3z"/>
	<linearGradient id="XMLID_172_" gradientUnits="userSpaceOnUse" x1="308.7891" y1="458.3587" x2="344.653" y2="396.2407">
		<stop  offset="0" style="stop-color:#FFFFFF;stop-opacity:0"/>
		<stop  offset="5.140263e-02" style="stop-color:#E6E6E6;stop-opacity:3.855197e-02"/>
		<stop  offset="0.1411" style="stop-color:#C0C1C1;stop-opacity:0.1058"/>
		<stop  offset="0.238" style="stop-color:#A0A0A2;stop-opacity:0.1785"/>
		<stop  offset="0.3422" style="stop-color:#868688;stop-opacity:0.2566"/>
		<stop  offset="0.4561" style="stop-color:#717274;stop-opacity:0.3421"/>
		<stop  offset="0.5849" style="stop-color:#636466;stop-opacity:0.4386"/>
		<stop  offset="0.7409" style="stop-color:#5B5C5D;stop-opacity:0.5557"/>
		<stop  offset="1" style="stop-color:#58595B;stop-opacity:0.75"/>
	</linearGradient>
	<path id="XMLID_274_" class="st25" d="M373.2,412.7c0,0,3,3.4,2.3,4.3c-0.7,0.8-4.2,3.4-4.2,3.4l2.2,1.5l-30.5,9.6l-4.2,6.4
		l-21,5.2l-4.1,4.6l-19.3,1.5l-2.2-0.5l1.4-1.7c0,0-3.9-4.2-3.5-5.5c0.4-1.3,2.2-3.4,2.2-3.4s2.5-1.8,2.1-3.4s-1.3-3.9-4.4-5.4
		l4.7-5c0,0,0.7-1.5-0.4-2.4c-2.5-1.8-3.7-2.8-3.9-6.6l0.7-1.6c0,0,21.7,4.3,40.6,4C350.4,417.5,367.4,414.4,373.2,412.7z"/>
	<path id="XMLID_273_" class="st3" d="M289.8,541.7c0,0-15.1-15-27.9-13.4l20.4-14.2c0,0,22.1,2.2,15.4,22.1L289.8,541.7z"/>
	<path id="XMLID_272_" class="st3" d="M262.6,458.7c0,0-3,3.9-2.1,8.4c0.9,4.4-0.2,18.3-0.2,18.3l-17.4-7.7c0,0-4.8-15.7,10.6-23
		L262.6,458.7z"/>
	<linearGradient id="XMLID_173_" gradientUnits="userSpaceOnUse" x1="267.6912" y1="374.2069" x2="267.6912" y2="318.3565">
		<stop  offset="0" style="stop-color:#FFFFFF;stop-opacity:0"/>
		<stop  offset="7.380247e-03" style="stop-color:#F6FAFC;stop-opacity:5.535185e-03"/>
		<stop  offset="4.767627e-02" style="stop-color:#C8E1ED;stop-opacity:3.575720e-02"/>
		<stop  offset="9.308982e-02" style="stop-color:#9DCADF;stop-opacity:6.981736e-02"/>
		<stop  offset="0.1419" style="stop-color:#77B6D3;stop-opacity:0.1064"/>
		<stop  offset="0.195" style="stop-color:#57A5C9;stop-opacity:0.1463"/>
		<stop  offset="0.2537" style="stop-color:#3B96C0;stop-opacity:0.1903"/>
		<stop  offset="0.32" style="stop-color:#258AB9;stop-opacity:0.24"/>
		<stop  offset="0.3974" style="stop-color:#1481B4;stop-opacity:0.2981"/>
		<stop  offset="0.4931" style="stop-color:#097BB0;stop-opacity:0.3698"/>
		<stop  offset="0.6274" style="stop-color:#0277AE;stop-opacity:0.4705"/>
		<stop  offset="1" style="stop-color:#0076AD;stop-opacity:0.75"/>
	</linearGradient>
	<path id="XMLID_271_" class="st26" d="M275.2,318.4c0,0-1.8,28-14.9,55.9v-27.9l2.4-15.4l5.2,1.5
		C267.8,332.3,275.1,326.7,275.2,318.4z"/>
	<path id="XMLID_270_" class="st27" d="M170.6,383.8c0,0,13.2-30.7,36.1-45s39.4-10.9,43.9-10.3c4.5,0.7,17.2,3.8,17.2,3.8
		s4-3.7,5.5-7.3c0,0-35.6-10.8-59.1-0.5c-23.1,10.1-35.9,27.6-42.7,37.4s-8.8,15-8.8,15L170.6,383.8z"/>
	<g id="XMLID_260_">
		<defs>
			<path id="XMLID_261_" d="M172,380.8c8.9-18,21.8-34.5,39.1-44.7c17.3-10.2,37.2-9.9,56.8-3.7c4.2-3.2,7.6-10,7.4-15.3
				c-0.2-5.3,0-11.6-7.5-13.3c-25.1-5.9-52.5-3.7-74.7,9.5c-22.2,13.2-39,34.6-48.7,58.6"/>
		</defs>
		<clipPath id="XMLID_174_">
			<use xlink:href="#XMLID_261_"  style="overflow:visible;"/>
		</clipPath>
		<path id="XMLID_269_" class="st28" d="M145.6,364.2c2-1.5,4.7-1.4,7.1-0.9c6.4,1.2,14,3.9,17.9,9.1"/>
		<path id="XMLID_268_" class="st28" d="M152.6,350.2c9.1-0.7,18.5,2.7,25.1,9.2"/>
		<path id="XMLID_267_" class="st28" d="M163.1,335.9c2.5-1.2,5.5-0.2,8,0.8c6.3,2.4,12.8,5.3,16.5,11"/>
		<path id="XMLID_266_" class="st28" d="M174.9,322.3c10.2,1.1,19.7,7.2,24.9,16c-0.2-0.2-0.4-0.4-0.6-0.6"/>
		<path id="XMLID_265_" class="st28" d="M190.5,311c9.1,2.5,17.1,8.7,21.9,16.8c0.1,0.2,0.2,0.5,0,0.6s-0.3-0.3-0.1-0.2"/>
		<path id="XMLID_264_" class="st28" d="M208.3,302.1c1.3-0.1,2.6,0.4,3.8,1c7.7,3.8,12.9,11.4,15.7,19.5"/>
		<path id="XMLID_263_" class="st28" d="M229.4,297.7c9.3,4.6,15.4,14.9,14.9,25.3c0,0.6-0.8,1.1-1.4,0.8s-0.6-1.2-0.1-1.6
			s1.4-0.1,1.5,0.6"/>
		<path id="XMLID_262_" class="st28" d="M249.5,297.2c5.5,1.7,9.7,6.6,11.6,12.1c1.9,5.5,1.8,11.4,1,17.1"/>
	</g>
	<g id="XMLID_168_">
		<g id="XMLID_388_">
			<path id="XMLID_408_" class="st29" d="M275.6,400.6l-2.6-1.3l2.3,2.4l-2.3,0.1l2.6,1.3v0.6l-5.1-2.6l3.4-0.2l-3.4-3.6l5.1,2.6
				V400.6z"/>
			<path id="XMLID_405_" class="st29" d="M274.6,396.4v1.4l1,0.9v0.7l-5.1-4.4l5.1,0.8v0.7L274.6,396.4z M273.9,396.2l-1.5-0.3
				l1.5,1.2V396.2z"/>
			<path id="XMLID_402_" class="st29" d="M273.2,391.1c0.7,0.4,1.3,0.8,1.7,1.4c0.2,0.3,0.4,0.6,0.5,0.9c0.1,0.3,0.2,0.7,0.2,1v0.7
				v0.2l-4.8-2.5v-0.6v-0.3c0-0.3,0.1-0.6,0.2-0.8c0.1-0.2,0.3-0.3,0.5-0.4C271.9,390.6,272.5,390.7,273.2,391.1z M273.2,391.7
				c-0.5-0.3-0.9-0.4-1.2-0.3c-0.3,0.1-0.5,0.3-0.5,0.8v0.3l3.3,1.7v-0.3c0-0.5-0.2-0.9-0.5-1.3
				C274.1,392.3,273.7,391.9,273.2,391.7z"/>
			<path id="XMLID_400_" class="st29" d="M272.7,389.5V388l0.7,0.4v1.5l1.5,0.8v-1.8l0.7,0.4v1.8v0.6l-4.8-2.5v-0.6v-1.8l0.7,0.4
				v1.8L272.7,389.5z"/>
			<path id="XMLID_398_" class="st29" d="M275.6,386.8l-4.8-2.5v-0.6l4.8,2.5V386.8z"/>
			<path id="XMLID_396_" class="st29" d="M272.5,383.1l3.1,1.6v0.6l-5.1-2.6l3.3-0.8l-3.1-1.6v-0.6l5.1,2.6L272.5,383.1z"/>
			<path id="XMLID_393_" class="st29" d="M273.2,375.4c0.7,0.4,1.3,0.8,1.7,1.4c0.2,0.3,0.4,0.6,0.5,0.9c0.1,0.3,0.2,0.7,0.2,1v0.7
				v0.2l-4.8-2.5v-0.6v-0.3c0-0.3,0.1-0.6,0.2-0.8c0.1-0.2,0.3-0.3,0.5-0.4C271.9,374.9,272.5,375.1,273.2,375.4z M273.2,376.1
				c-0.5-0.3-0.9-0.4-1.2-0.3c-0.3,0.1-0.5,0.3-0.5,0.8v0.3l3.3,1.7v-0.3c0-0.5-0.2-0.9-0.5-1.3
				C274.1,376.6,273.7,376.3,273.2,376.1z"/>
			<path id="XMLID_391_" class="st29" d="M275.6,372.8l-2.6-1.3l2.3,2.4L273,374l2.6,1.3v0.6l-5.1-2.6l3.4-0.1l-3.4-3.7l5.1,2.7
				V372.8z"/>
			<path id="XMLID_389_" class="st29" d="M272.7,369.2v-1.5l0.7,0.4v1.5l1.5,0.8v-1.8l0.7,0.4v1.8v0.6l-4.8-2.5v-0.6v-1.8l0.7,0.4
				v1.8L272.7,369.2z"/>
		</g>
	</g>
	<path id="XMLID_166_" class="st5" d="M329.4,389.1c0,0,5.2-12,20.1-13.6c14.9-1.6,20.1,8.3,20.9,9.7l14.1-10.4l-1.3-2L369.8,383
		c0,0-6.7-11.3-21.2-9.5c-14.4,1.8-19.1,9.9-22.2,14.2L329.4,389.1z"/>
	
		<rect id="XMLID_165_" x="346.9" y="359.9" transform="matrix(0.9976 -6.967256e-02 6.967256e-02 0.9976 -24.7384 25.1555)" class="st5" width="2.8" height="14.6"/>
	
		<rect id="XMLID_164_" x="341.8" y="369.4" transform="matrix(0.971 -0.2392 0.2392 0.971 -79.056 92.873)" class="st5" width="2.8" height="5.6"/>
	
		<rect id="XMLID_163_" x="352.1" y="368.4" transform="matrix(0.9976 6.911553e-02 -6.911553e-02 0.9976 26.4971 -23.5447)" class="st5" width="2.8" height="5.6"/>
	
		<rect id="XMLID_162_" x="357.5" y="369.4" transform="matrix(0.9686 0.2488 -0.2488 0.9686 103.8847 -77.5912)" class="st5" width="2.8" height="5.6"/>
	
		<rect id="XMLID_161_" x="362.5" y="372.3" transform="matrix(0.8176 0.5758 -0.5758 0.8176 282.0513 -141.1924)" class="st5" width="2.8" height="4.7"/>
	
		<rect id="XMLID_160_" x="336.8" y="371.2" transform="matrix(0.8956 -0.4449 0.4449 0.8956 -131.072 189.509)" class="st5" width="2.8" height="5.6"/>
	
		<rect id="XMLID_159_" x="332" y="374.1" transform="matrix(0.7851 -0.6194 0.6194 0.7851 -161.7752 287.5072)" class="st5" width="2.8" height="5.6"/>
	
		<rect id="XMLID_158_" x="327.8" y="377.8" transform="matrix(0.6221 -0.7829 0.7829 0.6221 -173.5683 401.5814)" class="st5" width="2.8" height="5.6"/>
	
		<rect id="XMLID_157_" x="369.7" y="369.2" transform="matrix(0.6788 0.7343 -0.7343 0.6788 394.7951 -151.9031)" class="st5" width="2.8" height="12.4"/>
	
		<rect id="XMLID_156_" x="321.7" y="377" transform="matrix(0.4669 -0.8843 0.8843 0.4669 -166.5725 490.0076)" class="st5" width="2.8" height="12.4"/>
	<path id="XMLID_155_" class="st30" d="M304.8,271.4c-0.5-35.8-7-71.5-19.2-105.1c-7.8-21.3-17.8-44.9-8.5-65.6
		c12.4,5.8,20,20.3,17.9,33.8c-5.3-5.6-7.9-13.6-7-21.3c0.2-2.1,0.8-4.2,2.1-5.8c2.5-2.9,7.2-3,10.7-1.3c3.4,1.7,5.9,4.9,8.3,7.9
		c2.7,3.5,5.4,8.5,2.5,11.8c-4.9-1.2-7.5-7.7-5.1-12.2c2.4-4.4,8.9-5.9,13.2-3.2c4.3,2.7,5.9,8.8,3.9,13.4c-2.6-3-5.4-6.2-6.1-10.1
		s1.6-8.7,5.6-9.1c1.6-0.2,3.1,0.4,4.6,1c5.3,2.5,9.5,7.2,11.5,12.7c1.1,3.1-0.3,8.2-3.5,7.1c-0.7-0.3-1.3-0.9-1.8-1.5
		c-2.3-3.1-2.7-7.5-1-11c3-6.1,12.2-7.7,17.4-3.4c5.2,4.3,5.6,13.1,1.2,18.3c-5.5-4.2-5.9-13.7-0.6-18.3c1.5-1.3,3.4-2.2,5.3-2.2
		c4.1,0.1,8.2,8,8.2,12.1c-0.1,4.1,0,6.1-5.5,8.1c0.1-14,6.4-27.8,17-37c1.3-1.2,2.8-2.3,4.5-2.7c4.2-1,8.3,3,9.1,7.2
		c0.9,4.2-0.6,8.6-1.9,12.7C370,162,360.5,218.8,359.8,275.7"/>
	<g id="XMLID_145_">
		<defs>
			<path id="XMLID_146_" d="M170.6,383.8c0,0,13.2-30.7,36.1-45s39.4-10.9,43.9-10.3c4.5,0.7,17.2,3.8,17.2,3.8s4-3.7,5.5-7.3
				c0,0-22.5-16.6-60.2-3.6c-23.9,8.2-37.6,29.4-44.3,39.2s-5.9,16.3-5.9,16.3L170.6,383.8z"/>
		</defs>
		<clipPath id="XMLID_175_">
			<use xlink:href="#XMLID_146_"  style="overflow:visible;"/>
		</clipPath>
		<path id="XMLID_154_" class="st31" d="M165.7,364.7c5.2,3.2,9.9,7.1,14.1,11.6"/>
		<path id="XMLID_153_" class="st31" d="M172.8,352.3c6,3.7,11.1,8.7,15,14.6"/>
		<path id="XMLID_152_" class="st31" d="M183.3,339.7c6.1,4.7,11.1,10.9,14.3,17.9"/>
		<path id="XMLID_151_" class="st31" d="M196.4,329.7c5.1,5.8,8.5,12.9,9.9,20.5"/>
		<path id="XMLID_150_" class="st31" d="M211.2,321.4c3.5,4.8,5.3,10.7,5.3,16.6c0,1.2-0.1,2.4,0.6,3.4"/>
		<path id="XMLID_149_" class="st31" d="M227.4,314.9c3.1,6.3,4,13.7,2.5,20.6"/>
		<path id="XMLID_148_" class="st31" d="M245.8,314.6c1.5,4.9,1.3,10.3-0.5,15.1c-0.6,1.6-1.4,3.2-2,4.9c0,0.1-0.1,0.2,0,0.3
			s0.2,0.1,0.2,0"/>
		<path id="XMLID_147_" class="st31" d="M265.5,318c0.1,4-1,8-2.6,11.6c-1.6,3.7-3.7,7.1-5.8,10.5"/>
	</g>
	<g id="XMLID_121_">
		<defs>
			<path id="XMLID_122_" d="M461.5,210.6c4,7.1,9.6,14.7,10.3,22.9c0.5,6.7-0.3,15.6-2.6,21.9c-5.1,13.5-12.4,22.2-27.8,30.5
				c-12.7,6.9-27.5,10.2-41.7,7.5c-3.7-0.7-7.2-1.8-10.7-3.2l-4.5,27.1c24.8,1.7,53.8,0.4,75.3-12.1c21.5-12.5,34.8-37.3,35.6-62.1
				c0.4-13.9-3.9-27.5-9.4-40.2"/>
		</defs>
		<clipPath id="XMLID_176_">
			<use xlink:href="#XMLID_122_"  style="overflow:visible;"/>
		</clipPath>
		<path id="XMLID_144_" class="st32" d="M400.2,293.4v9.9c0,0,35.5,3.9,57.9-15.8c22.4-19.7,22.6-38.7,23.3-45.9
			c0.7-7.2-4.8-20.7-5.9-22c-0.1-0.1-1.4,0.3-1.8,0.4c-5.9,1.5-15.6-1.6-15.6-1.6l-36.9,55.4L400.2,293.4z"/>
		<path id="XMLID_143_" class="st33" d="M495.1,221.4c0.2-0.2,0-0.5-0.3-0.5s-0.5,0.2-0.7,0.4c-5.3,4.9-12.1,8.1-19.2,9.2"/>
		<path id="XMLID_142_" class="st33" d="M497.5,237.2c-7.2,3.4-15,5.4-23,5.8c-0.2,0-0.5,0-0.6,0.2c-0.1,0.2,0,0.5,0.2,0.5"/>
		<path id="XMLID_141_" class="st33" d="M472.9,253.2c1.5,1.5,3.7,1.9,5.9,2c6.2,0.4,12.5-0.8,18.2-3.5"/>
		<path id="XMLID_140_" class="st33" d="M468.9,264c1.7,1.6,4,2.4,6.2,3.1c6.9,2,14.3,2.4,21.3,1c-0.2,0.1-0.5,0.1-0.7,0.2"/>
		<path id="XMLID_139_" class="st33" d="M462.6,274.4c3.5,3.2,8.2,4.5,12.7,5.7c4.5,1.2,9.2,2.4,13.8,1.3c0.1,0,0.3-0.1,0.4,0.1
			c0.1,0.1-0.2,0.2-0.2,0.1"/>
		<path id="XMLID_138_" class="st33" d="M453.2,280.5c2.8,4.3,7.1,7.5,11.8,9.8c4.6,2.3,9.6,3.7,14.6,5.1c-0.5,0.2-1,0.3-1.5,0.5"/>
		<path id="XMLID_137_" class="st33" d="M444.1,290.6c5.6,7.8,14.3,13.2,23.8,14.8c-0.3-0.1-0.6-0.2-0.9-0.3"/>
		<path id="XMLID_136_" class="st33" d="M431.6,293.3c3.5,8.6,10.5,15.7,19,19.3"/>
		<path id="XMLID_135_" class="st33" d="M419,294.6c1.3,9.4,6.2,18.2,13.4,24.3c0.2,0.1,0.3,0.3,0.3,0.5c0,0.2-0.4,0.3-0.4,0.1"/>
		<path id="XMLID_134_" class="st33" d="M404.7,294.4c0.8,10.3,4.6,20.2,10.8,28.4"/>
		<path id="XMLID_133_" class="st34" d="M469.4,229.1c2.3,1.8,5.1,2.9,8.1,3.1c2.9,0.1,5.9-0.7,8.3-2.3"/>
		<path id="XMLID_132_" class="st34" d="M469.4,240.1c1.4,1.7,2.8,3.4,4.8,4.2c1.3,0.5,2.6,0.7,4,0.7c2.5,0.1,5.1,0,7.6-0.2
			c0.1,0.1,0.2,0.3,0.1,0.4"/>
		<path id="XMLID_131_" class="st34" d="M482.6,258.6c-2.9-0.4-5.9-1-8.6-2.2c-2.7-1.2-5.3-2.9-6.9-5.4c-0.1-0.1-0.2-0.1-0.3-0.1
			c-0.1,0-0.2-0.1-0.2-0.2s0.2,0,0.1,0.1"/>
		<path id="XMLID_129_" class="st34" d="M475.4,270c-4.6-1.1-8.8-4.2-11.3-8.3"/>
		<path id="XMLID_128_" class="st34" d="M468.1,280.6c-5-1.4-9.3-5-11.5-9.7"/>
		<path id="XMLID_127_" class="st34" d="M459.1,290c-4.4-3.3-8-7.7-10.3-12.8"/>
		<path id="XMLID_126_" class="st34" d="M446.5,298.2c-3.3-4.3-5-9.7-6.2-15"/>
		<path id="XMLID_125_" class="st34" d="M433.6,302.9c-2.8-4.7-3.1-10.3-3.3-15.8c0-0.2,0-0.4,0-0.6"/>
		<path id="XMLID_123_" class="st34" d="M419.5,306.2c-2.1-6.4-2.8-13.2-2-19.8"/>
	</g>
</g>
</svg>
