<?xml version="1.0" encoding="utf-8"?>
<!-- Generator: Adobe Illustrator 19.0.0, SVG Export Plug-In . SVG Version: 6.00 Build 0)  -->
<svg version="1.1" id="Layer_1" xmlns="http://www.w3.org/2000/svg" xmlns:xlink="http://www.w3.org/1999/xlink" x="0px" y="0px"
	 viewBox="0 0 432 288" style="enable-background:new 0 0 432 288;" xml:space="preserve">
<style type="text/css">
	.st0{clip-path:url(#SVGID_2_);fill:url(#SVGID_3_);}
	.st1{clip-path:url(#SVGID_5_);fill:#231F20;}
	.st2{clip-path:url(#SVGID_5_);fill-rule:evenodd;clip-rule:evenodd;fill:#FFFFFF;}
	.st3{clip-path:url(#SVGID_7_);fill:#FBBD18;}
	.st4{clip-path:url(#SVGID_9_);fill-rule:evenodd;clip-rule:evenodd;fill:#FFFFFF;}
	.st5{clip-path:url(#SVGID_11_);fill:#FBBD18;}
	.st6{clip-path:url(#SVGID_13_);fill-rule:evenodd;clip-rule:evenodd;fill:#FFFFFF;}
	.st7{clip-path:url(#SVGID_15_);fill:#FBBD18;}
	.st8{clip-path:url(#SVGID_17_);fill-rule:evenodd;clip-rule:evenodd;fill:#231F20;}
	.st9{clip-path:url(#SVGID_17_);fill-rule:evenodd;clip-rule:evenodd;}
	.st10{clip-path:url(#SVGID_17_);fill-rule:evenodd;clip-rule:evenodd;fill:#FBBD18;}
	.st11{clip-path:url(#SVGID_17_);}
	.st12{clip-path:url(#SVGID_19_);}
	.st13{clip-path:url(#SVGID_21_);}
	.st14{clip-path:url(#SVGID_23_);}
</style>
<g>
	<defs>
		<rect id="SVGID_1_" width="432" height="288"/>
	</defs>
	<clipPath id="SVGID_2_">
		<use xlink:href="#SVGID_1_"  style="overflow:visible;"/>
	</clipPath>
	
		<radialGradient id="SVGID_3_" cx="0" cy="288" r="1" gradientTransform="matrix(228.2486 0 0 -155.0813 215.4122 44806.6562)" gradientUnits="userSpaceOnUse">
		<stop  offset="0" style="stop-color:#CD2026"/>
		<stop  offset="1" style="stop-color:#AC2B31"/>
	</radialGradient>
	<rect y="0" class="st0" width="432" height="288"/>
</g>
<g>
	<defs>
		<rect id="SVGID_4_" width="432" height="288"/>
	</defs>
	<clipPath id="SVGID_5_">
		<use xlink:href="#SVGID_4_"  style="overflow:visible;"/>
	</clipPath>
	<path class="st1" d="M268.1,183.6c3.4,0.9,6.7,1.7,9.3,3.6c0-0.1-0.1-0.1-0.1-0.2c-0.8-1.4-1.6-2.8-2.1-3.7l0-0.1
		c-0.8-1.6-3-3.2-5.6-4.4c-2.7-1.3-5.6-2-7.4-1.8c-0.6,0.2-1.2,0.6-1.5,1c-0.3,0.3-0.5,0.8-0.6,1.3l0,0c0,0.2,0,0.4,0.1,0.6
		c0.1,0.3,0.2,0.6,0.4,0.8C262.6,182.2,265.4,182.9,268.1,183.6 M228.2,202.2c0.4-0.2,0.8-0.4,1.2-0.7c1.8-2,2.8-5,3-8.1
		c0.3-3.4-0.4-6.8-1.8-9.5c-0.2-0.4-0.5-0.7-0.9-1c-0.3-0.3-0.7-0.6-1.1-0.9c-0.9-0.4-1.9-0.6-2.9-0.6c-0.8,0-1.5,0.2-2.1,0.6
		c-1.8,2-2.9,4.9-3.1,8c-0.3,3.4,0.3,6.9,1.7,9.7c0.5,0.8,1.2,1.5,2,2c0.7,0.4,1.6,0.8,2.5,0.8C227.2,202.5,227.7,202.3,228.2,202.2
		 M189.4,201.5c0.9-1.5,1.4-3.3,1.7-5c0.3-2.8,0.5-6.1,0.1-9.1c-0.4-2.9-1.3-5.8-3-8c-0.8-0.6-1.6-1.1-2.4-1.2
		c-0.8-0.1-1.6-0.1-2.6,0.3c-3.8,2.1-4.2,6.8-4.6,10.8c0,0.3-0.1,0.7-0.1,1c0.1,0.9,0.1,1.6,0.2,2.3c0.2,4.1,0.5,9,4.2,10.9l0.2,0.1
		c0.9,0.6,2.5,0.3,3.8,0c0.4-0.1,0.2,0,0.3-0.1C188.1,203.2,188.8,202.4,189.4,201.5 M249.7,195.5c0.4-0.1,0.8-0.1,1.2,0l0.5,0.1
		c2.2,1,3.1,2.3,4,3.5c0.7,0.9,1.4,1.9,2.8,2.6l0.1,0.1c1.5,0.9,3.3,1.8,4.9,2c1.4,0.2,2.8,0,4-0.9c0.3-0.4,0.4-0.9,0.5-1.4
		c0-0.5,0-0.9-0.2-1.4c-1.9-1.9-4.5-2.3-7.2-2.7c-2.9-0.5-5.8-0.9-8.5-3c-0.7-0.6-1.3-1.2-1.9-1.8c0,0.7,0,1.4-0.1,2.2
		C249.8,194.9,249.7,195.2,249.7,195.5 M340.3,183.9c-0.2-0.2-0.4-0.5-0.6-0.7l-0.3-0.4c-0.8-1.6-2.8-3.1-5.2-4.3
		c-2.4-1.2-5.1-1.8-6.9-1.5c-0.6,0.2-1.2,0.6-1.6,1c-0.3,0.4-0.5,0.8-0.6,1.3l0,0c0,0.2,0,0.4,0.1,0.6c0.1,0.3,0.2,0.6,0.3,0.8
		c2.1,1.3,4.9,2,7.7,2.7c5.7,1.4,11.3,2.8,13.4,9.4c1.2,2.7,1.3,5.6,0.6,8.3c-0.8,3.1-2.5,6.1-4.6,8.2l-0.1,0.1
		c-3.5,2.9-7.5,4-11.7,4.1c-4,0-8-0.9-11.8-2.3c-0.4,0-0.9,0.2-1.4,0.4c-1.4,0.6-2.8,1.1-4.6-0.2l-0.4-0.4c-1.6-2.4-2.2-4.7-2.1-7
		c0.1-2.2,0.7-4.5,1.8-7l0.2-0.3c0.4-0.5,1-0.9,1.6-1.1c0.6-0.2,1.3-0.3,1.9-0.2l0.5,0.1c2.2,1,3.1,2.3,4,3.5
		c0.7,0.9,1.4,1.9,2.7,2.6l0.1,0.1c1.5,0.9,3.2,1.8,4.9,2c1.4,0.2,2.8,0,4-0.9c0.3-0.4,0.4-0.9,0.5-1.4c0-0.5,0-0.9-0.2-1.4
		c-1.9-1.9-4.5-2.3-7.2-2.7c-2.9-0.5-5.8-0.9-8.5-3h0c-1.4-1.1-2.7-2.6-3.6-4.2c-0.3-0.5-0.5-0.9-0.7-1.4
		c-2.2,5.1-4.4,10.3-6.7,15.3c-3,6.6-6.1,13.2-9.5,19.7l-0.3,0.4c-2.8,2.7-6.5,2.3-9.9,1.9c-0.6-0.1-1.2-0.1-2-0.2l-0.5-0.1
		c-1-0.4-2-1-2.5-1.9c-0.6-0.9-0.8-1.9-0.3-3.1l0.2-0.4c0.9-1.1,1.9-2.1,2.9-3.1c1.8-1.8,3.6-3.7,4.8-5.9c-0.1-1.5-0.7-2.9-1.3-4.4
		c-0.3-0.6-0.5-1.2-0.7-1.8c-1.7-3.4-3.2-6.3-4.6-8.8c0.2,1.7,0.1,3.4-0.3,5.1c-0.8,3.1-2.5,6.1-4.6,8.2l-0.1,0.1
		c-3.5,2.9-7.6,4-11.7,4.1c-3.9,0-8-0.9-11.8-2.3c-0.4,0-0.9,0.2-1.4,0.4c-1.4,0.6-2.7,1.1-4.5-0.2l-0.4-0.4c-1.3-2-1.9-3.9-2.1-5.7
		c-2.2,2.8-5.2,5.1-8.5,6.4l-0.1,0c-3,1-6.5,1.3-9.8,0.7c-2.5-0.4-4.9-1.3-6.9-2.6c0.1,1.4,0.3,2.8,0.8,4c0.6,1.4,1.7,2.6,3.5,3.4
		l0.8,0.8c0.3,0.8,0.4,1.7,0.3,2.4c-0.2,0.8-0.6,1.6-1.3,2.1l-0.2,0.1c-3.8,1.7-8.4,1.6-12.7,1.6c-1,0-1.9,0-2.8,0l-0.4-0.1
		c-0.5-0.1-1-0.2-1.6-0.2c-2.2-0.2-4.5-0.5-5.8-3l-0.1-0.4c-0.6-2.9,1-3.8,2.6-4.7c0.5-0.3,1-0.6,1.2-0.9c0.2-2.8,0.4-5.6,0.5-8.4
		c0-1,0.1-2,0.1-2.9c-1.6,2.4-3.7,4.6-6.3,6.1c-3.6,2.7-7.8,4-12,4.2c-4.7,0.3-9.5-0.8-13.6-2.8c-1.5-0.7-2.9-1.6-4.1-2.6
		c-0.2,0.6-0.6,1.4-1.2,2.2l-0.6,0.5c-3.1,1.4-6.2,1.3-9.3,1.2c-1.7-0.1-3.3-0.1-4.7,0h-0.4c-0.5-0.1-1.1-0.1-1.8-0.1
		c-2.6,0-5.4,0-6.4-3.4l-0.1-0.5c0.1-1.8,1.2-2.7,2.3-3.5c0.5-0.3,0.9-0.7,1.1-1c0.9-5.1,0.8-10.2,0.7-15.2c0-1.5-0.1-3-0.1-4.6
		c-0.2-0.4-0.5-0.9-0.9-1.5c-0.4-0.5-0.8-1-1.1-1.1c-0.5-0.2-1-0.3-1.5-0.3c-0.5,0-1,0-1.5,0.2c-2.1,0.9-3.2,2.4-3.7,4.1
		c-0.6,1.9-0.7,4.1-0.7,6.2c0.2,1.5,0.1,3,0.1,4.4c0,2.7-0.1,5.4,1,7.7c0.3,0.2,0.5,0.5,0.7,0.8c0.1,0.1,0.2,0.2,0.3,0.3l0.4,0.3
		c0,0,0.3,0.1,0.5,0.2c1,0.4,2,0.9,2.1,2.5v0c0.1,1.1-0.2,2-0.8,2.7c-0.6,0.8-1.5,1.3-2.4,1.6l-0.3,0.1c-2.9,0.4-5.8,0.6-8.7,0.5
		c-2.9,0-5.9-0.2-8.9-0.7l-0.4-0.1c-0.7-0.3-1.2-0.7-1.6-1.3c-0.4-0.5-0.6-1.1-0.6-1.7c-0.1,0.1-0.3,0.2-0.4,0.3
		c-2.9,2-6.4,3.3-9.7,3.4c-2.7,0.2-5.6,0.1-8.1-0.1c-2.5-0.2-4.8-0.6-6.6-1.2l-0.3-0.1c-0.7-0.4-1.6-0.2-2.6,0
		c-2.3,0.5-4.4,1-6.1-2.4l-0.1-0.1c-1.1-2.7-2.3-7.3-2.7-11.5c-0.3-3.3-0.2-6.4,0.9-8.4l0.1-0.2c0.8-1.2,1.9-1.3,3-1.5
		c0.2,0,0.4-0.1,0.5-0.1l0.7,0c3.1,0.9,4.2,3.1,5.4,5.4c0.6,1.2,1.2,2.5,2.2,3.3l0.2,0.2c1.7,2,3.7,3.8,5.8,4.9
		c1.7,0.9,3.5,1.3,5.4,1.2c0.8-0.3,1.6-0.8,2.2-1.3c0.4-0.4,0.8-0.9,0.9-1.4l0-0.1c0.2-0.5,0.2-1.1,0.1-1.6
		c-0.1-0.6-0.2-1.1-0.4-1.5c-2.4-2.9-5.8-4.4-9.3-5.8c-3-1.3-6-2.5-8.6-4.8h0c-2.5-2-4.2-4.4-5.2-7.1c-1-2.8-1.1-5.8-0.4-8.8v0
		c0.6-2.4,2.1-4.6,4-6.5c2-1.9,4.6-3.5,7.3-4.4h0c1.6-0.6,3.4-1,5.2-1.3c1.9-0.3,3.8-0.3,5.8,0l0.1,0c3.8,0.8,8.2,1.6,12.6,1.9
		c4.3,0.3,8.6,0.1,12.4-1.2l0.2-0.1c1-0.2,1.9,0,2.6,0.4c0.9,0.4,1.6,1.1,2,1.8l0.3,0.8c0,1.8,0,3.5,0,5.2c0,1.7-0.1,3.4,0,5.1
		c1.2-1,2.5-1.8,3.8-2.5c1.9-0.9,3.9-1.6,6.1-1.7v0c1.8-0.2,3.9,0.3,6,1c2.1,0.8,4.1,2,5.2,3.2c1.1,1.3,1.7,2.2,2.1,3.3
		c0.4,1,0.5,2,0.6,3.5l0.2,1.8l0,0.1c0,0.1,0,0.2,0,0.2c1.9-3.4,4.5-6.3,7.6-8.4c3.6-2.5,8-4,12.8-4.1c3.9-0.2,8.1,0.5,11.9,2.2
		c1.8,0.8,3.4,1.8,4.9,3c1.6-2.3,4.2-2.5,6.8-2.6c1.2-0.1,2.5-0.2,3.4-0.5l0.2-0.1c0.2,0,0.5-0.1,0.7-0.2c1.8-0.5,3.9-1,6.1-0.1l0,0
		c1.4,0.6,1.7,1.4,1.8,2.3c1.4-1.2,3.1-2.1,4.9-2.7v0c2.4-0.9,5.2-1.2,8.1-0.9c2.8,0.2,5.3,1.3,7.4,2.9c2.4,1.8,4.4,4.1,5.6,6.5l0,0
		c0.1,0.1,0.1,0.2,0.1,0.2c0,0,0,0,0,0c0,0,0,0,0,0l0,0c0,0.1,0.1,0.3,0.3,0.5c0.1,0.1,0.1,0.3,0.2,0.5c0.9-2.8,2.3-5.2,4.4-7
		c2.2-1.9,5-3.2,8.3-3.7l0.1,0c3.8-0.4,8,0.1,12.3,0.6c4.9,0.6,9.9,1.2,14.5,0.6l0.4,0c0.6,0.1,1.4,0,2.2-0.1
		c2.2-0.3,4.5-0.5,6.2,1.5l0.3,0.4c0.4,0.8,0.4,1.3,0.4,1.9c0,0.2,0,0.4,0,0.4l-0.1,0.7c-0.6,1.5-1.9,2.1-3.2,2.8
		c-0.9,0.5-1.8,1-1.6,1.9l0,0c0.8,2.6,1.5,5.2,2.4,7.7c0.8,2.4,1.8,4.7,3.1,6.8c0.1,0.1,0.5,0.3,1,0.5c0.1,0,0.1,0.2,0.2,0.3
		c1.4-2.3,2.5-4.6,3.5-7c1-2.5,1.7-5.1,2.3-7.7c0-0.7-0.7-1.5-1.4-2.3c-1.9-2.3-3.7-4.5-0.1-7.8l0.7-0.4c2.5-0.6,5.1-0.7,7.7-0.7
		c1.7,0,3.4,0,5.1-0.2c0.3-0.9,0.5-1.8,0.3-2.4c-0.3-0.1-0.6-0.3-0.9-0.4c-2.2-0.8-4.5-1.7-4-5l0-0.1c0.2-1.1,0.6-2.3,1.2-3.4
		c0.7-1.2,1.6-2.3,2.9-3l0.4-0.1c1.8-0.3,4.1-0.2,6,0.7c1,0.4,1.8,1,2.5,1.8c1.3,1.6,1.3,3.3,0.9,5.2c-0.2,1.3-0.6,2.6-1.2,3.8
		c-0.6,1.4-1.4,2.7-2.3,4c1.1-0.4,2.2-0.7,3.4-0.9l0.2,0l5.8-0.2h0.1c0.3,0,0.6,0,0.9,0.1c3.3,0.2,8.1,0.6,10.9,0.1l0.8,0.1
		c3.9,1.5,4.2,4.9,4.5,8.2c0.1,1,0.2,2.1,0.4,2.8l0,0.2c0.1,0.9,0.1,2.1-0.1,3.1c-0.3,1.3-1,2.4-2.3,3.1l-0.1,0.1
		C343.1,186.9,341.7,185.4,340.3,183.9 M123.1,183.7c0.6,0.6,1.2,1.3,1.7,2v-4.9c-0.1-0.7-0.7-4.6-2.4-7.2l-0.1-0.1
		c-0.4-0.7-1.2-1.6-2.1-2.4c-1-0.9-2-1.7-3-2.2c-1.6-0.7-3.2-1.2-4.9-1.3c-1.7-0.1-3.3,0-5,0.4c-0.8,0.4-1.7,0.9-2.4,1.5
		c-0.5,0.5-0.9,1-0.9,1.7l0,0.2c-0.1,0.5,0,0.9,0.2,1.4c0.2,0.5,0.5,1,0.9,1.4c2,1.1,4.2,2,6.5,2.9c1.6,0.7,3.3,1.3,5.1,2.1
		C118.9,180.1,121.2,181.7,123.1,183.7"/>
	<path class="st2" d="M93.6,231.9c0.4,0.6,0.8,1.4,1,2.2c0.2,0.8,0.3,1.7,0.3,2.7c0,0.9-0.1,1.7-0.3,2.5c-0.2,0.8-0.5,1.6-0.9,2.2
		c-0.5,0.7-1,1.1-1.7,1.5c-0.6,0.4-1.5,0.5-2.6,0.5c-0.3,0-0.8,0-1.3,0c-0.5,0-0.9,0-1.3,0c-0.4,0-0.8,0-1.4,0c-0.6,0-1,0-1.3,0
		c0,0-0.1-0.1-0.1-0.2c0-0.1,0-0.2,0-0.3c0-0.1,0-0.2,0-0.2c0-0.1,0.1-0.2,0.1-0.2c0.5-0.1,0.9-0.3,1-0.5c0.2-0.2,0.2-0.6,0.2-1.1
		v-8.6c0-0.5-0.1-0.9-0.2-1.1c-0.2-0.2-0.5-0.4-1-0.5c0,0-0.1-0.1-0.1-0.2c0-0.1,0-0.2,0-0.2c0-0.1,0-0.2,0-0.3
		c0-0.1,0.1-0.2,0.1-0.2c0.3,0,0.8,0,1.3,0c0.6,0,1.1,0,1.4,0c0.3,0,0.8,0,1.3,0c0.5,0,0.9,0,1.3,0c0.9,0,1.7,0.2,2.4,0.5
		C92.5,230.8,93.1,231.3,93.6,231.9 M92.1,236.8c0-1.8-0.2-3.3-0.6-4.3c-0.4-1.1-1.1-1.6-2.2-1.6l-0.5,0c-0.2,0-0.4,0.1-0.5,0.2
		c-0.2,0.1-0.3,0.4-0.3,0.9v9.3c0,0.5,0.1,0.8,0.3,0.9c0.2,0.1,0.4,0.2,0.5,0.2l0.5,0c1,0,1.7-0.5,2.1-1.5
		C91.9,240,92.1,238.6,92.1,236.8"/>
	<path class="st2" d="M105.7,238.9c-0.1,0.7-0.1,1.5-0.2,2.3c-0.1,0.8-0.1,1.6-0.1,2.3c-0.6,0-1.3-0.1-2.1-0.1c-0.9,0-1.5,0-2.1,0
		c-0.5,0-1.3,0-2.2,0c-1,0-1.7,0-2.2,0.1c0,0,0-0.1-0.1-0.2c0-0.1,0-0.2,0-0.3c0-0.1,0-0.2,0-0.2c0-0.1,0.1-0.2,0.1-0.2
		c0.5-0.1,0.9-0.3,1.1-0.5c0.1-0.2,0.2-0.6,0.2-1.2v-8.6c0-0.5-0.1-0.9-0.2-1.2c-0.2-0.2-0.5-0.4-1.1-0.5c0,0,0-0.1-0.1-0.2
		c0-0.1,0-0.2,0-0.3c0-0.1,0-0.2,0-0.3c0-0.1,0.1-0.2,0.1-0.2c0.5,0,1.2,0,2.1,0.1c0.9,0,1.6,0,2.2,0c0.5,0,1.2,0,2.1,0
		c0.9,0,1.6,0,2.1-0.1c0,0.5,0,1.2,0,2.1c0,0.8,0.1,1.6,0.1,2.3c0,0.1,0,0.1-0.1,0.2c-0.1,0.1-0.2,0.1-0.3,0.1c-0.1,0-0.1,0-0.2-0.1
		c0,0-0.1,0-0.1-0.1c-0.1-0.8-0.3-1.6-0.7-2.3c-0.4-0.7-1-1.1-1.7-1.1h-0.8c-0.2,0-0.4,0.1-0.5,0.2c-0.2,0.1-0.2,0.4-0.2,0.9v4h0.4
		c0.4,0,0.8-0.2,1.1-0.6c0.3-0.4,0.4-0.9,0.5-1.5c0,0,0-0.1,0.1-0.1c0.1,0,0.1,0,0.2,0c0,0,0.1,0,0.2,0c0.1,0,0.1,0.1,0.1,0.1
		c0,0.5,0,0.9,0,1.4c0,0.4,0,0.9,0,1.3c0,0.5,0,0.9,0,1.3c0,0.4,0,0.8,0,1.3c0,0,0,0.1-0.1,0.1c-0.1,0-0.1,0.1-0.2,0.1
		c0,0-0.1,0-0.2-0.1c-0.1,0-0.1-0.1-0.1-0.1c0-0.7-0.2-1.2-0.4-1.6c-0.3-0.4-0.6-0.6-1.1-0.6h-0.4v4.2c0,0.5,0.1,0.8,0.2,0.9
		c0.2,0.1,0.3,0.2,0.5,0.2h0.7c0.7,0,1.3-0.4,1.8-1.1c0.5-0.7,0.9-1.6,1-2.7c0,0,0-0.1,0-0.1c0,0,0.1,0,0.2,0c0.1,0,0.2,0,0.3,0.1
		C105.6,238.8,105.7,238.9,105.7,238.9"/>
	<path class="st2" d="M116.5,238.5c-0.1,0.7-0.1,1.6-0.2,2.7c-0.1,1.1-0.1,1.8-0.1,2.4c-0.6,0-1.3-0.1-2.1-0.1c-0.8,0-1.5,0-2.1,0
		c-0.6,0-1.3,0-2.2,0c-0.9,0-1.6,0-2,0.1c0,0,0-0.1-0.1-0.2c0-0.1,0-0.2,0-0.3c0-0.1,0-0.2,0-0.2c0-0.1,0-0.2,0.1-0.2
		c0.5-0.1,0.9-0.3,1-0.5c0.1-0.2,0.2-0.6,0.2-1.2v-8.6c0-0.5-0.1-0.9-0.2-1.2c-0.2-0.2-0.5-0.4-1-0.5c0,0,0-0.1-0.1-0.2
		c0-0.1,0-0.2,0-0.3c0-0.1,0-0.2,0-0.3c0-0.1,0-0.1,0.1-0.1c0.4,0,0.9,0,1.3,0.1c0.5,0,0.9,0,1.3,0c0.4,0,0.8,0,1.3,0
		c0.4,0,0.9-0.1,1.3-0.1c0,0,0,0.1,0.1,0.2c0,0.1,0,0.2,0,0.3c0,0.1,0,0.2,0,0.3c0,0.1,0,0.2-0.1,0.2c-0.5,0.1-0.8,0.2-1,0.5
		c-0.2,0.3-0.3,0.6-0.3,1.2v8.9c0,0.5,0.1,0.8,0.3,0.9c0.2,0.1,0.3,0.2,0.5,0.2h0.8c0.6,0,1.2-0.4,1.6-1.3c0.5-0.9,0.8-1.8,1-2.9
		c0,0,0-0.1,0.1-0.1c0,0,0.1,0,0.1,0c0.1,0,0.2,0,0.3,0.1C116.4,238.3,116.5,238.4,116.5,238.5"/>
	<path class="st2" d="M123.5,243.1c0,0.1,0,0.2,0,0.3c0,0.1-0.1,0.2-0.1,0.2c-0.5,0-0.9,0-1.3-0.1c-0.4,0-0.9,0-1.3,0
		c-0.4,0-0.9,0-1.3,0c-0.5,0-0.9,0.1-1.3,0.1c0,0-0.1-0.1-0.1-0.2c0-0.1,0-0.2,0-0.3c0-0.1,0-0.2,0-0.2c0-0.1,0-0.2,0.1-0.2
		c0.5-0.1,0.9-0.3,1-0.5c0.2-0.2,0.2-0.6,0.2-1.2v-8.6c0-0.5-0.1-0.9-0.2-1.2c-0.2-0.2-0.5-0.4-1-0.5c0,0-0.1-0.1-0.1-0.2
		c0-0.1,0-0.2,0-0.3c0-0.1,0-0.2,0-0.3c0-0.1,0-0.2,0-0.2c0.5,0,0.9,0,1.4,0.1c0.4,0,0.9,0,1.3,0c0.4,0,0.8,0,1.3,0
		c0.4,0,0.9-0.1,1.3-0.1c0,0,0,0.1,0.1,0.1c0,0.1,0,0.2,0,0.3c0,0.1,0,0.2,0,0.3c0,0.1-0.1,0.2-0.1,0.2c-0.5,0.1-0.9,0.2-1,0.5
		c-0.2,0.3-0.3,0.6-0.3,1.2v8.6c0,0.5,0.1,0.9,0.3,1.2c0.2,0.2,0.5,0.4,1,0.5c0,0,0,0.1,0.1,0.2C123.5,242.9,123.5,243,123.5,243.1"
		/>
</g>
<g>
	<defs>
		<path id="SVGID_6_" d="M129.2,234.5c-0.4,0.6-0.6,1.4-0.6,2.2c0,0.9,0.2,1.6,0.6,2.2c0.4,0.6,0.9,0.9,1.5,0.9
			c0.6,0,1.1-0.3,1.5-0.9c0.4-0.6,0.6-1.4,0.6-2.2c0-0.9-0.2-1.6-0.6-2.2c-0.4-0.6-0.9-0.9-1.5-0.9
			C130.1,233.6,129.6,233.9,129.2,234.5"/>
	</defs>
	<clipPath id="SVGID_7_">
		<use xlink:href="#SVGID_6_"  style="overflow:visible;"/>
	</clipPath>
	<polygon class="st3" points="130,231.6 125.6,237.8 131.5,242 135.9,235.7 	"/>
</g>
<g>
	<defs>
		<rect id="SVGID_8_" width="432" height="288"/>
	</defs>
	<clipPath id="SVGID_9_">
		<use xlink:href="#SVGID_8_"  style="overflow:visible;"/>
	</clipPath>
	<path class="st4" d="M148.6,243.1c0,0.1,0,0.2-0.1,0.3c0,0.1-0.1,0.2-0.1,0.2c-0.2,0-0.6,0-1-0.1c-0.4,0-0.7,0-0.8,0
		c-0.2,0-0.5,0-0.9,0c-0.3,0-0.6,0.1-0.8,0.1l-1.7-5c-0.1-0.4-0.3-0.7-0.5-0.8c-0.2-0.2-0.4-0.2-0.8-0.2v3.5c0,0.5,0.1,0.9,0.2,1.2
		c0.1,0.2,0.5,0.4,1,0.5c0,0,0,0.1,0.1,0.2c0,0.1,0,0.2,0,0.3c0,0.1,0,0.2,0,0.3c0,0.1-0.1,0.2-0.1,0.2c-0.4,0-0.9,0-1.3-0.1
		c-0.4,0-0.8,0-1.2,0c-0.4,0-0.8,0-1.3,0c-0.4,0-0.9,0.1-1.3,0.1c0,0,0-0.1-0.1-0.2c0-0.1-0.1-0.2-0.1-0.3c0-0.1,0-0.2,0.1-0.2
		c0-0.1,0-0.2,0.1-0.2c0.5-0.1,0.9-0.3,1-0.5c0.2-0.2,0.2-0.6,0.2-1.2v-8.6c0-0.5-0.1-0.9-0.2-1.2c-0.2-0.2-0.5-0.4-1-0.5
		c0,0,0-0.1-0.1-0.2c0-0.1-0.1-0.2-0.1-0.3c0-0.1,0-0.2,0.1-0.3c0-0.1,0-0.1,0.1-0.1c0.4,0,0.9,0,1.4,0.1c0.5,0,0.9,0,1.3,0
		c0.4,0,0.8,0,1.1,0c0.3,0,0.7-0.1,1.2-0.1c1.4,0,2.5,0.4,3.1,1.1c0.7,0.7,1,1.5,1,2.5c0,0.9-0.1,1.6-0.4,2.1
		c-0.3,0.6-0.8,1-1.4,1.3l1.8,4.5c0.2,0.5,0.4,0.8,0.6,1c0.2,0.2,0.5,0.3,0.9,0.4c0,0,0.1,0.1,0.1,0.2
		C148.6,242.9,148.6,243,148.6,243.1 M144.2,233.8c0-1-0.1-1.7-0.4-2.2c-0.2-0.5-0.6-0.7-1.2-0.7c-0.3,0-0.5,0.1-0.6,0.3
		c-0.1,0.2-0.2,0.5-0.2,0.9v4.4c0.1,0,0.1,0,0.2,0c0.1,0,0.2,0,0.3,0c0.6,0,1.1-0.2,1.4-0.6C144.1,235.5,144.2,234.8,144.2,233.8"/>
	<path class="st4" d="M158.4,238.9c-0.1,0.7-0.1,1.5-0.2,2.3c-0.1,0.8-0.1,1.6-0.1,2.3c-0.6,0-1.3-0.1-2.1-0.1c-0.9,0-1.5,0-2.1,0
		c-0.5,0-1.2,0-2.2,0c-1,0-1.7,0-2.2,0.1c0,0-0.1-0.1-0.1-0.2c0-0.1,0-0.2,0-0.3c0-0.1,0-0.2,0-0.2c0-0.1,0-0.2,0.1-0.2
		c0.5-0.1,0.9-0.3,1-0.5c0.2-0.2,0.2-0.6,0.2-1.2v-8.6c0-0.5-0.1-0.9-0.2-1.2c-0.2-0.2-0.5-0.4-1-0.5c0,0-0.1-0.1-0.1-0.2
		c0-0.1,0-0.2,0-0.3c0-0.1,0-0.2,0-0.3c0-0.1,0-0.2,0.1-0.2c0.5,0,1.2,0,2,0.1c0.9,0,1.6,0,2.2,0c0.5,0,1.2,0,2,0
		c0.9,0,1.6,0,2.1-0.1c0,0.5,0,1.2,0,2.1c0,0.8,0.1,1.6,0.1,2.3c0,0.1,0,0.1-0.1,0.2c-0.1,0.1-0.1,0.1-0.3,0.1c-0.1,0-0.1,0-0.2-0.1
		c-0.1,0-0.1,0-0.1-0.1c-0.1-0.8-0.3-1.6-0.7-2.3c-0.4-0.7-1-1.1-1.7-1.1h-0.8c-0.2,0-0.4,0.1-0.5,0.2c-0.2,0.1-0.3,0.4-0.3,0.9v4
		h0.5c0.4,0,0.8-0.2,1.1-0.6c0.3-0.4,0.4-0.9,0.5-1.5c0,0,0-0.1,0.1-0.1c0.1,0,0.1,0,0.2,0c0.1,0,0.1,0,0.2,0c0.1,0,0.1,0.1,0.1,0.1
		c0,0.5,0,0.9,0,1.4c0,0.4,0,0.9,0,1.3c0,0.5,0,0.9,0,1.3c0,0.4,0,0.8,0,1.3c0,0,0,0.1-0.1,0.1c-0.1,0-0.1,0.1-0.2,0.1
		c0,0-0.1,0-0.2-0.1c-0.1,0-0.1-0.1-0.1-0.1c-0.1-0.7-0.2-1.2-0.5-1.6c-0.2-0.4-0.6-0.6-1.1-0.6h-0.5v4.2c0,0.5,0.1,0.8,0.3,0.9
		c0.2,0.1,0.4,0.2,0.5,0.2h0.7c0.7,0,1.3-0.4,1.8-1.1c0.5-0.7,0.9-1.6,1-2.7c0,0,0-0.1,0.1-0.1c0,0,0.1,0,0.1,0c0.1,0,0.2,0,0.3,0.1
		C158.4,238.8,158.4,238.9,158.4,238.9"/>
	<path class="st4" d="M166.2,235.4c0.5,0.5,1,1,1.5,1.6c0.4,0.6,0.7,1.4,0.7,2.4c0,1.4-0.4,2.5-1,3.3c-0.7,0.8-1.6,1.2-2.6,1.2
		c-0.6,0-1.2-0.1-1.6-0.4c-0.4-0.3-1-0.5-1.5-0.6c0-0.5,0-1.1,0-1.9c0-0.8,0-1.5,0-2.1c0,0,0-0.1,0.1-0.1c0.1,0,0.1-0.1,0.2-0.1
		c0.1,0,0.1,0,0.2,0c0.1,0,0.1,0.1,0.1,0.1c0.2,1.2,0.5,2.1,1.1,2.9c0.5,0.8,1.1,1.1,1.6,1.1c0.5,0,0.9-0.2,1.1-0.5
		c0.2-0.3,0.3-0.8,0.3-1.4c0-0.7-0.2-1.3-0.7-1.8c-0.5-0.5-1-0.9-1.5-1.4c-0.6-0.4-1.1-1-1.5-1.6c-0.5-0.6-0.7-1.4-0.7-2.3
		c0-1.2,0.3-2.2,0.9-3.1c0.6-0.8,1.5-1.2,2.6-1.2c0.5,0,0.9,0.1,1.3,0.3c0.4,0.2,0.7,0.3,1.2,0.4c0,0.5,0,1.1,0,1.8
		c0,0.7,0.1,1.3,0.1,1.8c0,0,0,0.1-0.1,0.1c-0.1,0-0.1,0-0.2,0c-0.1,0-0.1,0-0.2,0c-0.1,0-0.1-0.1-0.1-0.1c-0.2-1-0.4-1.8-0.7-2.4
		c-0.3-0.6-0.7-0.9-1.2-0.9c-0.4,0-0.8,0.2-1,0.5c-0.2,0.3-0.3,0.7-0.3,1.2c0,0.7,0.2,1.2,0.7,1.7
		C165.1,234.4,165.6,234.9,166.2,235.4"/>
	<path class="st4" d="M180.1,234.5c0,0.1,0,0.1-0.1,0.2c-0.1,0.1-0.1,0.1-0.2,0.1c0,0-0.1,0-0.2,0c-0.1,0-0.1,0-0.1-0.1
		c-0.1-0.7-0.4-1.5-0.9-2.4c-0.5-0.8-0.9-1.3-1.3-1.3h-0.2c-0.2,0-0.4,0.1-0.4,0.2c-0.1,0.1-0.1,0.3-0.1,0.6v9.3
		c0,0.5,0.1,0.9,0.3,1.2c0.2,0.2,0.5,0.4,1,0.5c0,0,0,0.1,0.1,0.2c0,0.1,0,0.2,0,0.3c0,0.1,0,0.2,0,0.3c0,0.1,0,0.2-0.1,0.2
		c-0.4,0-0.9,0-1.3-0.1c-0.4,0-0.9,0-1.3,0c-0.4,0-0.8,0-1.3,0c-0.4,0-0.9,0.1-1.3,0.1c0,0-0.1-0.1-0.1-0.2c0-0.1,0-0.2,0-0.3
		c0-0.1,0-0.2,0-0.2c0-0.1,0-0.2,0.1-0.2c0.5-0.1,0.9-0.3,1-0.5c0.2-0.2,0.3-0.6,0.3-1.2v-9.3c0-0.3,0-0.5-0.1-0.6
		c-0.1-0.1-0.2-0.2-0.5-0.2h-0.1c-0.4,0-0.8,0.4-1.4,1.2c-0.5,0.8-0.9,1.6-1.1,2.5c0,0,0,0.1-0.1,0.1c-0.1,0-0.1,0-0.1,0
		c-0.1,0-0.2,0-0.2-0.1c-0.1-0.1-0.1-0.1-0.1-0.2c0.1-0.6,0.2-1.4,0.3-2.4c0.1-1,0.2-1.7,0.2-2.4c0.3,0.1,0.8,0.2,1.5,0.2
		c0.7,0.1,1.7,0.1,3.1,0.1c1.2,0,2.2,0,3-0.1c0.8,0,1.4-0.1,1.6-0.2c0,0.6,0.1,1.4,0.1,2.2C180,232.8,180.1,233.7,180.1,234.5"/>
	<path class="st4" d="M191,243.1c0,0.1,0,0.2,0,0.3c0,0.1,0,0.1-0.1,0.1c-0.4,0-0.9,0-1.3-0.1c-0.5,0-0.8,0-1.2,0
		c-0.4,0-0.8,0-1.3,0c-0.4,0-0.9,0.1-1.3,0.1c0,0-0.1-0.1-0.1-0.1c0-0.1,0-0.2,0-0.3v-0.2c0-0.1,0-0.2,0.1-0.2
		c0.4,0,0.7-0.1,0.9-0.2c0.1-0.1,0.2-0.3,0.2-0.6c0-0.1,0-0.2-0.1-0.4c0-0.2-0.1-0.3-0.1-0.4l-0.4-1.4h-2.8l-0.3,1.1
		c-0.1,0.2-0.1,0.4-0.1,0.5c0,0.2,0,0.3,0,0.4c0,0.3,0.1,0.5,0.1,0.7c0.1,0.2,0.4,0.2,0.9,0.3c0,0,0,0.1,0,0.2c0,0.1,0,0.2,0,0.3
		c0,0.1,0,0.2,0,0.3c0,0.1-0.1,0.1-0.1,0.1c-0.4,0-0.7,0-0.9-0.1c-0.2,0-0.5,0-0.9,0c-0.3,0-0.6,0-0.8,0c-0.2,0-0.5,0.1-0.8,0.1
		c0,0,0-0.1-0.1-0.2c0-0.1,0-0.2,0-0.3c0-0.1,0-0.2,0.1-0.2c0-0.1,0.1-0.2,0.1-0.2c0.4-0.1,0.7-0.2,0.9-0.5c0.2-0.3,0.4-0.8,0.7-1.5
		l3.3-10.9c0,0,0.1-0.1,0.1-0.1c0.1,0,0.2,0,0.3,0c0.1,0,0.2,0,0.2,0c0.1,0,0.1,0.1,0.2,0.1l3,10.9c0.2,0.6,0.3,1.1,0.6,1.4
		c0.2,0.3,0.6,0.5,1,0.5c0,0,0.1,0.1,0.1,0.2C191,242.9,191,243,191,243.1 M186,238.7l-1.1-4.3l-1.2,4.3H186z"/>
	<path class="st4" d="M202.3,230.3c0,0.1,0,0.2,0,0.3c0,0.1,0,0.2-0.1,0.2c-0.5,0.1-0.9,0.2-1.1,0.5c-0.2,0.2-0.3,0.6-0.3,1.2v6.2
		c0,1.4-0.3,2.6-0.9,3.7c-0.6,1-1.5,1.6-2.7,1.6c-1.5,0-2.6-0.5-3.4-1.4c-0.8-1-1.2-2.4-1.2-4.4v-5.6c0-0.5-0.1-0.9-0.3-1.2
		c-0.2-0.2-0.5-0.4-1-0.5c0,0,0-0.1-0.1-0.2c0-0.1,0-0.2,0-0.3c0-0.1,0-0.2,0-0.3c0-0.1,0-0.2,0.1-0.2c0.4,0,0.9,0,1.3,0.1
		c0.5,0,0.9,0,1.3,0c0.4,0,0.8,0,1.3,0c0.5,0,0.9-0.1,1.3-0.1c0,0,0,0.1,0.1,0.2c0,0.1,0,0.2,0,0.3c0,0.1,0,0.2,0,0.3
		c0,0.1,0,0.2-0.1,0.2c-0.5,0.1-0.9,0.2-1,0.5c-0.2,0.3-0.2,0.6-0.2,1.2v6.2c0,1.3,0.2,2.3,0.5,2.9c0.3,0.6,0.9,0.9,1.8,0.9
		c0.8,0,1.4-0.4,1.8-1.1c0.4-0.7,0.6-1.7,0.6-3v-6c0-0.5-0.1-0.9-0.3-1.1c-0.2-0.2-0.5-0.4-1-0.5c0,0-0.1-0.1-0.1-0.2
		c0-0.1,0-0.2,0-0.3c0-0.1,0-0.2,0-0.3c0-0.1,0.1-0.1,0.1-0.1c0.3,0,0.6,0,0.9,0.1c0.3,0,0.6,0,0.9,0c0.3,0,0.6,0,0.9,0
		c0.3,0,0.6-0.1,0.9-0.1c0,0,0,0.1,0.1,0.2C202.2,230.2,202.3,230.3,202.3,230.3"/>
	<path class="st4" d="M214.2,243.1c0,0.1,0,0.2,0,0.3c0,0.1-0.1,0.2-0.1,0.2c-0.2,0-0.6,0-1-0.1c-0.4,0-0.7,0-0.8,0
		c-0.2,0-0.5,0-0.9,0c-0.4,0-0.6,0.1-0.8,0.1l-1.7-5c-0.1-0.4-0.3-0.7-0.5-0.8c-0.2-0.2-0.4-0.2-0.8-0.2v3.5c0,0.5,0.1,0.9,0.2,1.2
		c0.1,0.2,0.5,0.4,1,0.5c0,0,0,0.1,0.1,0.2c0,0.1,0,0.2,0,0.3c0,0.1,0,0.2,0,0.3c0,0.1,0,0.2-0.1,0.2c-0.4,0-0.9,0-1.3-0.1
		c-0.4,0-0.8,0-1.2,0c-0.4,0-0.8,0-1.3,0c-0.4,0-0.9,0.1-1.3,0.1c0,0-0.1-0.1-0.1-0.2c0-0.1-0.1-0.2-0.1-0.3c0-0.1,0-0.2,0.1-0.2
		c0-0.1,0.1-0.2,0.1-0.2c0.5-0.1,0.9-0.3,1-0.5c0.2-0.2,0.3-0.6,0.3-1.2v-8.6c0-0.5-0.1-0.9-0.3-1.2c-0.2-0.2-0.5-0.4-1-0.5
		c0,0-0.1-0.1-0.1-0.2c0-0.1-0.1-0.2-0.1-0.3c0-0.1,0-0.2,0.1-0.3c0-0.1,0.1-0.1,0.1-0.1c0.4,0,0.9,0,1.3,0.1c0.5,0,0.9,0,1.3,0
		c0.4,0,0.8,0,1.1,0c0.3,0,0.7-0.1,1.1-0.1c1.5,0,2.5,0.4,3.2,1.1c0.6,0.7,0.9,1.5,0.9,2.5c0,0.9-0.1,1.6-0.4,2.1
		c-0.3,0.6-0.8,1-1.4,1.3l1.8,4.5c0.2,0.5,0.4,0.8,0.6,1c0.2,0.2,0.5,0.3,0.9,0.4c0,0,0,0.1,0.1,0.2
		C214.2,242.9,214.2,243,214.2,243.1 M209.8,233.8c0-1-0.1-1.7-0.4-2.2c-0.3-0.5-0.6-0.7-1.2-0.7c-0.3,0-0.5,0.1-0.6,0.3
		c-0.1,0.2-0.1,0.5-0.1,0.9v4.4c0.1,0,0.1,0,0.2,0c0.1,0,0.2,0,0.3,0c0.6,0,1.1-0.2,1.4-0.6C209.7,235.5,209.8,234.8,209.8,233.8"/>
	<path class="st4" d="M225.1,243.1c0,0.1,0,0.2,0,0.3c0,0.1-0.1,0.1-0.1,0.1c-0.4,0-0.9,0-1.3-0.1c-0.4,0-0.8,0-1.2,0
		c-0.4,0-0.8,0-1.3,0c-0.5,0-0.9,0.1-1.4,0.1c0,0,0-0.1-0.1-0.1c0-0.1,0-0.2,0-0.3c0-0.1,0-0.2,0-0.2c0-0.1,0-0.2,0.1-0.2
		c0.4,0,0.7-0.1,0.8-0.2c0.1-0.1,0.2-0.3,0.2-0.6c0-0.1,0-0.2,0-0.4c0-0.2-0.1-0.3-0.1-0.4l-0.4-1.4h-2.8l-0.3,1.1
		c-0.1,0.2-0.1,0.4-0.1,0.5c0,0.2,0,0.3,0,0.4c0,0.3,0,0.5,0.2,0.7c0.1,0.2,0.4,0.2,0.8,0.3c0,0,0.1,0.1,0.1,0.2c0,0.1,0,0.2,0,0.3
		c0,0.1,0,0.2,0,0.3c0,0.1-0.1,0.1-0.1,0.1c-0.4,0-0.7,0-0.9-0.1c-0.2,0-0.5,0-0.9,0c-0.3,0-0.6,0-0.8,0c-0.2,0-0.5,0.1-0.8,0.1
		c0,0-0.1-0.1-0.1-0.2c0-0.1,0-0.2,0-0.3c0-0.1,0-0.2,0.1-0.2c0-0.1,0.1-0.2,0.1-0.2c0.4-0.1,0.7-0.2,0.9-0.5
		c0.2-0.3,0.4-0.8,0.7-1.5l3.3-10.9c0,0,0.1-0.1,0.2-0.1c0.1,0,0.2,0,0.3,0c0.1,0,0.2,0,0.2,0c0.1,0,0.1,0.1,0.2,0.1l3,10.9
		c0.2,0.6,0.4,1.1,0.6,1.4c0.2,0.3,0.6,0.5,1,0.5c0,0,0,0.1,0.1,0.2C225.1,242.9,225.1,243,225.1,243.1 M220,238.7l-1.1-4.3
		l-1.2,4.3H220z"/>
	<path class="st4" d="M237.7,230.3c0,0.1,0,0.2,0,0.3c0,0.1-0.1,0.2-0.1,0.2c-0.5,0.1-0.9,0.2-1.1,0.5c-0.2,0.3-0.3,0.6-0.3,1.2
		l-0.2,11.2c0,0,0,0.1-0.1,0.1c0,0-0.2,0.1-0.3,0.1c-0.1,0-0.2,0-0.3,0c-0.1,0-0.1-0.1-0.2-0.1l-6.5-9.6l-0.1,7
		c0,0.5,0.1,0.9,0.3,1.2c0.2,0.2,0.6,0.4,1.1,0.5c0,0,0.1,0.1,0.1,0.2c0,0.1,0,0.2,0,0.3c0,0.1,0,0.2,0,0.3c0,0.1,0,0.2-0.1,0.2
		c-0.3,0-0.7,0-0.9-0.1c-0.3,0-0.6,0-0.9,0c-0.3,0-0.6,0-0.9,0c-0.3,0-0.6,0.1-0.8,0.1c0,0-0.1-0.1-0.1-0.2c0-0.1,0-0.2,0-0.3
		c0-0.1,0-0.2,0-0.3c0-0.1,0.1-0.2,0.1-0.2c0.5-0.1,0.9-0.2,1.1-0.5c0.2-0.2,0.3-0.6,0.3-1.2l0.2-8c0-0.7-0.1-1.2-0.3-1.6
		c-0.2-0.4-0.6-0.6-1.2-0.7c0,0-0.1-0.1-0.1-0.2c0-0.1,0-0.2,0-0.3c0-0.1,0-0.2,0-0.3c0-0.1,0.1-0.1,0.1-0.1c0.2,0,0.5,0,0.8,0.1
		c0.3,0,0.5,0,0.7,0c0.2,0,0.4,0,0.6,0c0.2,0,0.4-0.1,0.7-0.1l6,8.9v-6.4c0-0.5-0.1-0.9-0.3-1.1c-0.2-0.2-0.6-0.4-1.1-0.5
		c0,0,0-0.1-0.1-0.1c0-0.1,0-0.2,0-0.3c0-0.1,0-0.2,0-0.3c0-0.1,0.1-0.2,0.1-0.2c0.3,0,0.6,0,0.9,0.1c0.2,0,0.5,0,0.8,0
		c0.3,0,0.6,0,1,0c0.3,0,0.6-0.1,0.9-0.1c0,0,0,0.1,0.1,0.1C237.7,230.1,237.7,230.2,237.7,230.3"/>
	<path class="st4" d="M248.6,234.5c0,0.1,0,0.1-0.1,0.2c-0.1,0.1-0.1,0.1-0.2,0.1c0,0-0.1,0-0.2,0c-0.1,0-0.1,0-0.1-0.1
		c-0.1-0.7-0.4-1.5-0.9-2.4c-0.5-0.8-0.9-1.3-1.3-1.3h-0.2c-0.2,0-0.4,0.1-0.5,0.2c-0.1,0.1-0.1,0.3-0.1,0.6v9.3
		c0,0.5,0.1,0.9,0.3,1.2c0.2,0.2,0.5,0.4,1,0.5c0,0,0.1,0.1,0.1,0.2c0,0.1,0,0.2,0,0.3c0,0.1,0,0.2,0,0.3c0,0.1,0,0.2-0.1,0.2
		c-0.4,0-0.9,0-1.3-0.1c-0.5,0-0.9,0-1.3,0c-0.4,0-0.8,0-1.3,0c-0.4,0-0.9,0.1-1.3,0.1c0,0,0-0.1-0.1-0.2c0-0.1,0-0.2,0-0.3
		c0-0.1,0-0.2,0-0.2c0-0.1,0.1-0.2,0.1-0.2c0.5-0.1,0.9-0.3,1.1-0.5c0.2-0.2,0.3-0.6,0.3-1.2v-9.3c0-0.3,0-0.5-0.1-0.6
		c-0.1-0.1-0.2-0.2-0.5-0.2h-0.1c-0.4,0-0.8,0.4-1.4,1.2c-0.5,0.8-0.9,1.6-1.1,2.5c0,0,0,0.1-0.1,0.1c0,0-0.1,0-0.1,0
		c-0.1,0-0.2,0-0.2-0.1c-0.1-0.1-0.1-0.1-0.1-0.2c0.1-0.6,0.2-1.4,0.3-2.4c0.1-1,0.2-1.7,0.2-2.4c0.3,0.1,0.8,0.2,1.5,0.2
		c0.7,0.1,1.7,0.1,3.1,0.1c1.2,0,2.2,0,3.1-0.1c0.8,0,1.3-0.1,1.6-0.2c0,0.6,0.1,1.4,0.1,2.2C248.5,232.8,248.6,233.7,248.6,234.5"
		/>
</g>
<g>
	<defs>
		<path id="SVGID_10_" d="M253.2,234.5c-0.4,0.6-0.6,1.4-0.6,2.2c0,0.9,0.2,1.6,0.6,2.2c0.4,0.6,0.9,0.9,1.5,0.9
			c0.6,0,1.1-0.3,1.5-0.9c0.4-0.6,0.6-1.4,0.6-2.2c0-0.9-0.2-1.6-0.6-2.2c-0.4-0.6-0.9-0.9-1.5-0.9
			C254.2,233.6,253.7,233.9,253.2,234.5"/>
	</defs>
	<clipPath id="SVGID_11_">
		<use xlink:href="#SVGID_10_"  style="overflow:visible;"/>
	</clipPath>
	<polygon class="st5" points="254,231.6 249.6,237.8 255.5,242 259.9,235.7 	"/>
</g>
<g>
	<defs>
		<rect id="SVGID_12_" width="432" height="288"/>
	</defs>
	<clipPath id="SVGID_13_">
		<use xlink:href="#SVGID_12_"  style="overflow:visible;"/>
	</clipPath>
	<path class="st6" d="M271.3,238.7c-0.1,0.6-0.1,1.3-0.2,2.3c-0.1,0.9-0.1,1.6-0.2,2c-0.4,0-0.9,0.2-1.5,0.4
		c-0.6,0.3-1.2,0.4-1.9,0.4c-0.9,0-1.7-0.2-2.4-0.6c-0.7-0.4-1.3-0.9-1.8-1.6c-0.5-0.7-0.8-1.4-1-2.2c-0.2-0.9-0.3-1.7-0.3-2.6
		c0-1.9,0.5-3.6,1.5-5c1-1.5,2.4-2.2,4.1-2.2c0.8,0,1.4,0.1,1.9,0.3c0.5,0.2,0.9,0.3,1.4,0.3c0,0.6,0,1.3,0.1,2.1
		c0,0.8,0.1,1.5,0.1,2.1c0,0,0,0.1-0.1,0.1c-0.1,0-0.1,0-0.2,0c0,0-0.1,0-0.2,0c-0.1,0-0.1-0.1-0.1-0.1c-0.1-0.9-0.5-1.8-1-2.7
		c-0.6-0.8-1.2-1.2-1.9-1.2c-1.1,0-1.8,0.6-2.2,1.8c-0.4,1.2-0.6,2.7-0.6,4.5c0,1.8,0.2,3.2,0.6,4.4c0.4,1.2,1.1,1.7,2.2,1.7
		c0.8,0,1.5-0.4,2-1.3c0.5-0.8,0.9-1.8,1.2-2.9c0,0,0-0.1,0.1-0.1c0.1,0,0.1,0,0.2,0c0,0,0.1,0,0.2,0
		C271.2,238.6,271.3,238.7,271.3,238.7"/>
	<path class="st6" d="M283.3,243.1c0,0.1,0,0.2,0,0.3c0,0.1,0,0.1-0.1,0.1c-0.4,0-0.9,0-1.3-0.1c-0.4,0-0.8,0-1.2,0
		c-0.4,0-0.9,0-1.3,0c-0.5,0-0.9,0.1-1.4,0.1c0,0,0-0.1-0.1-0.1c0-0.1,0-0.2,0-0.3c0-0.1,0-0.2,0-0.2c0-0.1,0-0.2,0-0.2
		c0.4,0,0.7-0.1,0.9-0.2c0.1-0.1,0.2-0.3,0.2-0.6c0-0.1,0-0.2,0-0.4c0-0.2-0.1-0.3-0.1-0.4l-0.4-1.4h-2.8l-0.3,1.1
		c0,0.2-0.1,0.4-0.1,0.5c0,0.2,0,0.3,0,0.4c0,0.3,0,0.5,0.1,0.7c0.1,0.2,0.4,0.2,0.9,0.3c0,0,0,0.1,0.1,0.2v0.3c0,0.1,0,0.2,0,0.3
		c0,0.1-0.1,0.1-0.1,0.1c-0.4,0-0.7,0-0.9-0.1c-0.2,0-0.5,0-0.8,0c-0.3,0-0.6,0-0.8,0c-0.2,0-0.5,0.1-0.8,0.1c0,0,0-0.1-0.1-0.2
		c0-0.1,0-0.2,0-0.3c0-0.1,0-0.2,0.1-0.2c0-0.1,0.1-0.2,0.1-0.2c0.4-0.1,0.7-0.2,0.9-0.5c0.2-0.3,0.4-0.8,0.7-1.5l3.3-10.9
		c0,0,0-0.1,0.1-0.1c0.1,0,0.2,0,0.3,0c0.1,0,0.2,0,0.2,0c0.1,0,0.1,0.1,0.2,0.1l3,10.9c0.2,0.6,0.4,1.1,0.6,1.4
		c0.2,0.3,0.6,0.5,1,0.5c0,0,0.1,0.1,0.1,0.2C283.3,242.9,283.3,243,283.3,243.1 M278.3,238.7l-1.1-4.3l-1.2,4.3H278.3z"/>
	<path class="st6" d="M293.3,234.5c0,0.1,0,0.1-0.1,0.2c-0.1,0.1-0.1,0.1-0.2,0.1c0,0-0.1,0-0.1,0c-0.1,0-0.1,0-0.1-0.1
		c-0.1-0.7-0.4-1.5-0.9-2.4c-0.5-0.8-0.9-1.3-1.3-1.3h-0.2c-0.2,0-0.4,0.1-0.4,0.2c-0.1,0.1-0.2,0.3-0.2,0.6v9.3
		c0,0.5,0.1,0.9,0.2,1.2c0.2,0.2,0.5,0.4,1,0.5c0,0,0,0.1,0.1,0.2c0,0.1,0,0.2,0,0.3c0,0.1,0,0.2,0,0.3c0,0.1,0,0.2-0.1,0.2
		c-0.4,0-0.9,0-1.3-0.1c-0.4,0-0.9,0-1.3,0c-0.4,0-0.9,0-1.3,0c-0.4,0-0.9,0.1-1.3,0.1c0,0,0-0.1-0.1-0.2c0-0.1,0-0.2,0-0.3
		c0-0.1,0-0.2,0-0.2c0-0.1,0-0.2,0.1-0.2c0.5-0.1,0.9-0.3,1-0.5c0.2-0.2,0.3-0.6,0.3-1.2v-9.3c0-0.3,0-0.5-0.1-0.6
		c-0.1-0.1-0.2-0.2-0.5-0.2h-0.1c-0.4,0-0.8,0.4-1.4,1.2c-0.5,0.8-0.9,1.6-1.1,2.5c0,0,0,0.1-0.1,0.1c-0.1,0-0.1,0-0.1,0
		c-0.1,0-0.2,0-0.2-0.1c-0.1-0.1-0.1-0.1-0.1-0.2c0.1-0.6,0.2-1.4,0.3-2.4c0.1-1,0.2-1.7,0.2-2.4c0.3,0.1,0.8,0.2,1.5,0.2
		c0.7,0.1,1.7,0.1,3.1,0.1c1.2,0,2.2,0,3.1-0.1c0.8,0,1.3-0.1,1.6-0.2c0,0.6,0.1,1.4,0.1,2.2C293.2,232.8,293.2,233.7,293.3,234.5"
		/>
	<path class="st6" d="M303.7,238.9c-0.1,0.7-0.1,1.5-0.2,2.3c-0.1,0.8-0.1,1.6-0.1,2.3c-0.6,0-1.3-0.1-2.1-0.1c-0.9,0-1.5,0-2.1,0
		c-0.5,0-1.3,0-2.2,0c-1,0-1.7,0-2.1,0.1c0,0-0.1-0.1-0.1-0.2c0-0.1,0-0.2,0-0.3c0-0.1,0-0.2,0-0.2c0-0.1,0.1-0.2,0.1-0.2
		c0.5-0.1,0.9-0.3,1-0.5c0.2-0.2,0.3-0.6,0.3-1.2v-8.6c0-0.5-0.1-0.9-0.3-1.2c-0.2-0.2-0.5-0.4-1-0.5c0,0-0.1-0.1-0.1-0.2
		c0-0.1,0-0.2,0-0.3c0-0.1,0-0.2,0-0.3c0-0.1,0.1-0.2,0.1-0.2c0.5,0,1.1,0,2,0.1c0.9,0,1.6,0,2.2,0c0.5,0,1.1,0,2,0
		c0.9,0,1.6,0,2.1-0.1c0,0.5,0,1.2,0,2.1c0,0.8,0,1.6,0.1,2.3c0,0.1,0,0.1-0.1,0.2c-0.1,0.1-0.1,0.1-0.3,0.1c-0.1,0-0.1,0-0.1-0.1
		c-0.1,0-0.1,0-0.1-0.1c-0.1-0.8-0.3-1.6-0.7-2.3c-0.4-0.7-1-1.1-1.7-1.1h-0.8c-0.2,0-0.4,0.1-0.5,0.2c-0.2,0.1-0.2,0.4-0.2,0.9v4
		h0.5c0.5,0,0.8-0.2,1.1-0.6c0.3-0.4,0.4-0.9,0.5-1.5c0,0,0-0.1,0.1-0.1c0.1,0,0.1,0,0.2,0c0.1,0,0.1,0,0.2,0c0.1,0,0.1,0.1,0.1,0.1
		c0,0.5,0,0.9,0,1.4c0,0.4,0,0.9,0,1.3c0,0.5,0,0.9,0,1.3c0,0.4,0,0.8,0,1.3c0,0,0,0.1-0.1,0.1c-0.1,0-0.2,0.1-0.2,0.1
		c0,0-0.1,0-0.2-0.1c-0.1,0-0.1-0.1-0.1-0.1c-0.1-0.7-0.2-1.2-0.5-1.6c-0.2-0.4-0.6-0.6-1.1-0.6h-0.5v4.2c0,0.5,0.1,0.8,0.2,0.9
		c0.2,0.1,0.4,0.2,0.5,0.2h0.7c0.7,0,1.3-0.4,1.8-1.1c0.5-0.7,0.9-1.6,1-2.7c0,0,0-0.1,0-0.1c0,0,0.1,0,0.1,0c0.1,0,0.2,0,0.3,0.1
		C303.7,238.8,303.7,238.9,303.7,238.9"/>
	<path class="st6" d="M316.3,243.1c0,0.1,0,0.2-0.1,0.3c0,0.1-0.1,0.2-0.1,0.2c-0.2,0-0.6,0-1-0.1c-0.4,0-0.7,0-0.9,0
		c-0.2,0-0.5,0-0.8,0c-0.4,0-0.7,0.1-0.9,0.1l-1.7-5c-0.1-0.4-0.3-0.7-0.5-0.8c-0.2-0.2-0.5-0.2-0.8-0.2v3.5c0,0.5,0.1,0.9,0.2,1.2
		c0.1,0.2,0.5,0.4,1,0.5c0,0,0.1,0.1,0.1,0.2c0,0.1,0,0.2,0,0.3c0,0.1,0,0.2,0,0.3c0,0.1,0,0.2-0.1,0.2c-0.4,0-0.9,0-1.3-0.1
		c-0.4,0-0.8,0-1.2,0c-0.4,0-0.8,0-1.3,0c-0.4,0-0.9,0.1-1.3,0.1c0,0,0-0.1-0.1-0.2c0-0.1,0-0.2,0-0.3c0-0.1,0-0.2,0-0.2
		c0-0.1,0-0.2,0.1-0.2c0.5-0.1,0.9-0.3,1-0.5c0.2-0.2,0.3-0.6,0.3-1.2v-8.6c0-0.5-0.1-0.9-0.3-1.2c-0.2-0.2-0.5-0.4-1-0.5
		c0,0,0-0.1-0.1-0.2c0-0.1,0-0.2,0-0.3c0-0.1,0-0.2,0-0.3c0-0.1,0-0.1,0.1-0.1c0.5,0,0.9,0,1.4,0.1c0.5,0,0.9,0,1.3,0
		c0.4,0,0.8,0,1.1,0c0.3,0,0.7-0.1,1.1-0.1c1.5,0,2.5,0.4,3.2,1.1c0.6,0.7,1,1.5,1,2.5c0,0.9-0.1,1.6-0.4,2.1
		c-0.3,0.6-0.8,1-1.4,1.3l1.9,4.5c0.2,0.5,0.4,0.8,0.6,1c0.2,0.2,0.5,0.3,0.9,0.4c0,0,0,0.1,0.1,0.2
		C316.3,242.9,316.3,243,316.3,243.1 M312,233.8c0-1-0.1-1.7-0.4-2.2c-0.3-0.5-0.6-0.7-1.2-0.7c-0.3,0-0.5,0.1-0.6,0.3
		c-0.1,0.2-0.2,0.5-0.2,0.9v4.4c0,0,0.1,0,0.3,0c0.1,0,0.2,0,0.3,0c0.6,0,1.1-0.2,1.4-0.6C311.9,235.5,312,234.8,312,233.8"/>
	<path class="st6" d="M322.7,243.1c0,0.1,0,0.2,0,0.3c0,0.1,0,0.2-0.1,0.2c-0.5,0-0.9,0-1.3-0.1c-0.4,0-0.9,0-1.3,0
		c-0.4,0-0.8,0-1.3,0c-0.4,0-0.9,0.1-1.3,0.1c0,0-0.1-0.1-0.1-0.2c0-0.1,0-0.2,0-0.3c0-0.1,0-0.2,0-0.2c0-0.1,0-0.2,0.1-0.2
		c0.5-0.1,0.9-0.3,1.1-0.5c0.2-0.2,0.2-0.6,0.2-1.2v-8.6c0-0.5-0.1-0.9-0.2-1.2c-0.2-0.2-0.5-0.4-1.1-0.5c0,0-0.1-0.1-0.1-0.2
		c0-0.1,0-0.2,0-0.3c0-0.1,0-0.2,0-0.3c0-0.1,0-0.2,0.1-0.2c0.5,0,0.9,0,1.3,0.1c0.5,0,0.9,0,1.3,0c0.4,0,0.8,0,1.3,0
		c0.4,0,0.9-0.1,1.3-0.1c0,0,0,0.1,0.1,0.1c0,0.1,0,0.2,0,0.3c0,0.1,0,0.2,0,0.3c0,0.1,0,0.2-0.1,0.2c-0.5,0.1-0.9,0.2-1,0.5
		c-0.2,0.3-0.3,0.6-0.3,1.2v8.6c0,0.5,0.1,0.9,0.3,1.2c0.2,0.2,0.5,0.4,1,0.5c0,0,0,0.1,0.1,0.2C322.6,242.9,322.7,243,322.7,243.1"
		/>
	<path class="st6" d="M335.8,230.3c0,0.1,0,0.2,0,0.3c0,0.1-0.1,0.2-0.1,0.2c-0.5,0.1-0.8,0.2-1,0.5c-0.2,0.3-0.3,0.6-0.3,1.2
		l-0.2,11.2c0,0,0,0.1-0.1,0.1c-0.1,0-0.2,0.1-0.3,0.1c-0.1,0-0.2,0-0.2,0c-0.1,0-0.1-0.1-0.2-0.1l-6.5-9.6l-0.1,7
		c0,0.5,0.1,0.9,0.3,1.2c0.2,0.2,0.6,0.4,1.1,0.5c0,0,0,0.1,0.1,0.2c0,0.1,0,0.2,0,0.3c0,0.1,0,0.2,0,0.3c0,0.1,0,0.2-0.1,0.2
		c-0.4,0-0.7,0-0.9-0.1c-0.3,0-0.6,0-0.9,0c-0.3,0-0.6,0-0.9,0c-0.3,0-0.6,0.1-0.9,0.1c0,0,0-0.1-0.1-0.2c0-0.1,0-0.2,0-0.3
		c0-0.1,0-0.2,0-0.3c0-0.1,0.1-0.2,0.1-0.2c0.5-0.1,0.9-0.2,1.1-0.5c0.2-0.2,0.3-0.6,0.3-1.2l0.2-8c0-0.7-0.1-1.2-0.3-1.6
		c-0.2-0.4-0.6-0.6-1.2-0.7c0,0-0.1-0.1-0.1-0.2c0-0.1,0-0.2,0-0.3c0-0.1,0-0.2,0-0.3c0-0.1,0-0.1,0.1-0.1c0.2,0,0.5,0,0.8,0.1
		c0.3,0,0.5,0,0.7,0c0.2,0,0.4,0,0.6,0c0.2,0,0.4-0.1,0.7-0.1l6,8.9v-6.4c0-0.5-0.1-0.9-0.3-1.1c-0.2-0.2-0.6-0.4-1.1-0.5
		c0,0,0-0.1-0.1-0.1c0-0.1,0-0.2,0-0.3c0-0.1,0-0.2,0-0.3c0-0.1,0-0.2,0.1-0.2c0.4,0,0.7,0,0.9,0.1c0.2,0,0.5,0,0.8,0
		c0.4,0,0.7,0,1,0c0.3,0,0.6-0.1,0.9-0.1c0,0,0.1,0.1,0.1,0.1C335.8,230.1,335.8,230.2,335.8,230.3"/>
	<path class="st6" d="M347.5,237.5c0,0.1,0,0.2,0,0.3c0,0.1,0,0.2-0.1,0.2c-0.4,0.1-0.7,0.2-0.9,0.5c-0.1,0.3-0.2,0.7-0.2,1.2v2
		c0,0.3,0,0.6,0,0.7c0,0.1,0.1,0.3,0.1,0.4c-0.5,0.3-1.2,0.5-1.9,0.8c-0.7,0.2-1.4,0.3-2.2,0.3c-0.9,0-1.6-0.2-2.3-0.6
		c-0.7-0.4-1.2-0.9-1.7-1.6c-0.4-0.6-0.8-1.4-1-2.2c-0.2-0.8-0.4-1.7-0.4-2.6c0-1,0.1-1.9,0.4-2.7c0.3-0.8,0.6-1.6,1.1-2.3
		c0.5-0.7,1.1-1.2,1.8-1.6c0.8-0.4,1.6-0.6,2.5-0.6c0.5,0,1.1,0.1,1.6,0.3c0.6,0.2,1,0.3,1.5,0.3c0,0.5,0,1.2,0,2.1
		c0,0.8,0,1.6,0,2.1c0,0,0,0.1-0.1,0.1c-0.1,0-0.1,0-0.2,0c-0.1,0-0.1,0-0.2,0c0,0-0.1-0.1-0.1-0.1c-0.2-1.1-0.6-2-1.1-2.8
		c-0.5-0.8-1.1-1.1-1.9-1.1c-0.8,0-1.4,0.6-1.9,1.7c-0.5,1.2-0.7,2.7-0.7,4.5c0,1.8,0.2,3.2,0.7,4.4c0.4,1.2,1.1,1.7,1.9,1.7
		c0.6,0,0.9-0.1,1.1-0.3c0.2-0.2,0.3-0.5,0.3-0.9v-2.3c0-0.4-0.1-0.8-0.3-0.9c-0.2-0.2-0.5-0.3-1.1-0.4c0,0-0.1-0.1-0.1-0.1
		c0-0.1,0-0.2,0-0.3c0-0.1,0-0.2,0-0.3c0-0.1,0.1-0.2,0.1-0.2c0.4,0,0.8,0,1.1,0.1c0.4,0,0.7,0.1,1.1,0.1c0.4,0,0.9,0,1.3-0.1
		c0.5,0,0.9-0.1,1.4-0.1c0,0,0,0.1,0.1,0.2C347.5,237.3,347.5,237.4,347.5,237.5"/>
</g>
<g>
	<defs>
		<path id="SVGID_14_" d="M220.8,200.4c-2.9-5.8-2.6-14.8,1.8-19.5c1.8-1.3,4.7-1.1,6.8-0.2c1,0.7,1.9,1.4,2.5,2.4
			c3.1,5.8,2.9,14.8-1.5,19.5c-1.1,1-2.4,1.4-3.8,1.5C224.1,203.9,222,202.3,220.8,200.4 M219.7,174.5c-2-0.3-0.1-2.7-2-3.4
			c-2-0.8-4.1-0.1-5.8,0.3c-3,1.2-7.6-0.1-9.6,2.8c1,0.9,1.8,2,2.6,3.1c0.2,0.3,0.4,0.7,0.6,1c0,0,0.1,0.1,0.1,0.1
			c0,0.1,0,0.1,0.1,0.2c0.5,0.9,0.9,1.9,1.3,2.9c0.2,0.4,0.4,0.8,0.6,1.3l0.1,0.2c0.2,0.6,0.4,1.2,0.6,1.9c0.2,0.7,0.3,1.4,0.4,2
			c0.1,0.8,0.2,1.7,0.3,2.5c0,0.8,0.1,1.7,0.1,2.5l0,0.2c-0.3,3-1.1,6.2-2.4,9c0.1,4.9-0.2,9.7-0.5,14.4c-0.6,2.3-4.5,2-3.9,5.1
			c1.2,2.3,4.3,1.9,6.4,2.4c0.9,0,1.9,0,2.8,0c4.2,0.1,8.6,0.1,12-1.4c0.8-0.5,0.9-1.8,0.5-2.7c-4.3-1.9-5.3-5.9-5.2-10.2
			c0.2-0.3,0.2-1,0.9-1c4.6,3.7,11.4,4.6,16.9,2.7c6.5-2.5,11.5-9.1,11.8-15.8c0.2-2,0.1-4-0.1-6c-1.3-6.6-2.8-8.9-3.3-10
			c0-0.1,0-0.1-0.1-0.2c-2.1-4.1-6.4-8.1-11.8-8.6c-0.6-0.1-1.2-0.1-1.8-0.1C226.5,169.7,222.5,171.4,219.7,174.5 M259.6,169.8
			c-6.1,0.9-10.1,4.7-11.6,10.3c-0.1,0.5-0.1,1-0.2,1.6c0.6,1.5,1.2,3.7,1.8,6.6l0,0.1c0,0.4,0.1,0.9,0.1,1.3c0.8,1.3,1.9,2.5,3,3.4
			c4.9,4,11.7,1.4,16,6.1c0.8,1.6,0.6,3.4-0.4,4.7c-3.1,2.8-7.6,1.2-10.8-0.8c-3.5-1.7-3.2-4.4-6.7-6.1c-0.5-0.1-0.9,0-1.3,0.2
			c-0.5,2.1-1.3,4.1-2.4,5.9c-0.3,2.4,0.2,4.7,1.8,7.2c1.1,0.8,2.1,0.4,3.2,0c0.7-0.3,1.5-0.6,2.3-0.4c7.4,2.7,15.7,3.8,22.2-1.4
			c3.6-3.7,6-9.9,3.6-14.9c-2.9-9.2-14.2-7.2-20.8-11.6c-0.5-0.7-1-1.8-0.9-2.7c0.2-2,1.6-3.1,3.2-3.7c4.1-0.8,12.9,3,14.9,7
			c3.3,5.9,6.6,11.3,11.9,21.8c0.8,2.3,2.2,4.5,2.2,7.2c-1.9,3.8-5.4,6.5-8.1,9.7c-0.6,1.4,0.6,2.4,2,3c3.4,0.2,7.9,1.5,10.7-1.2
			c6.7-12.9,12.4-26.2,18-39.4c0.1-0.1,0.1-0.2,0.1-0.2c0.1-0.4,0.3-1,0.7-1.8c0.2-0.4,0.4-0.8,0.7-1.1c0.1-0.1,0.2-0.2,0.3-0.4
			c2-2.4,3.3-5.7,3.7-6.8c0.2-0.5,0-1.2-0.2-1.7c-0.3,0.1-0.7,0.2-1.1,0.2c-0.4,0-0.8-0.1-1.2-0.2c-0.5-0.2-0.9-0.6-1.1-1.2
			c-0.1-0.2-0.2-0.4-0.2-0.6c-4.1,0.4-8.3-0.1-12.1,0.8c-4.1,3.8,2.2,5.8,2,9.1c-1.2,5.5-3.1,10.9-6.3,15.9
			c-0.6,0.4-2.8-0.4-3.4-1.1c-2.7-4.6-4.1-9.7-5.7-15.1c-1.1-3.6,3.7-3.3,4.8-5.7c-0.1-0.7,0-1.1-0.3-1.8c-1.3-1.4-3.1-1.2-4.9-1
			c-0.9,0.1-1.8,0.2-2.5,0.1c-4.7,0.6-9.8,0.1-14.6-0.5c-3.3-0.4-6.6-0.8-9.6-0.8C261.3,169.7,260.4,169.7,259.6,169.8 M324.8,169.8
			c-1.8,0.3-3.4,0.8-4.8,1.5c0.2,0.8,0.4,1.8,0.1,2.6c-0.2,0.7-0.9,2.3-1.8,4c-0.6,1.1-1.3,2.2-2.1,3.2l0,0c0,0,0,0-0.1,0.1
			c0,0.1-0.1,0.1-0.1,0.2l-0.2,0.3c-0.1,0-0.1,0.1-0.2,0.2c-0.1,0.1-0.1,0.2-0.2,0.3l-0.1,0.1c-0.2,0.3-0.3,0.5-0.4,0.7h0
			c-0.1,0.2-0.2,0.4-0.2,0.6l-0.1,0.4c0,0.1,0,0.1,0,0c0,0,0,0,0,0c0,0.1-0.1,0.1-0.1,0.2c-0.4,0.8-0.7,1.5-1,2.3
			c0.8,2.5,2.4,4.9,4.4,6.5c4.9,4,11.7,1.4,16,6.1c0.8,1.6,0.6,3.4-0.4,4.7c-3.1,2.8-7.5,1.2-10.8-0.8c-3.5-1.7-3.2-4.4-6.7-6.1
			c-0.7-0.1-1.6,0.1-2.1,0.7c-2,4.7-2.6,8.3,0.2,12.6c1.1,0.8,2.1,0.4,3.1,0c0.7-0.3,1.5-0.6,2.3-0.4c7.4,2.7,15.7,3.8,22.2-1.4
			c3.6-3.7,6-9.9,3.7-14.9c-2.9-9.2-14.2-7.2-20.8-11.6c-0.5-0.7-1-1.8-0.9-2.7c0.2-2,1.7-3.1,3.2-3.7c4.1-0.8,11.9,2.7,13.8,6.6
			c1.2,1.2,2.3,3.1,4.2,2.2c1.7-0.9,1.8-3.1,1.6-4.7c-0.8-3.5,0.2-8.4-3.9-10c-3.3,0.5-8.8,0.1-12.1-0.1L324.8,169.8z M182.2,204.9
			c-5.3-2.8-4.7-9.7-5.2-14.6c0.5-4.7,0.6-10.6,5.6-13.2c2.5-1,4.8-0.4,6.7,1.3c4,5,4,12.5,3.3,18.4c-0.6,3.2-1.9,7.2-5.1,8.3
			c-1,0.2-2.1,0.5-3.1,0.5C183.6,205.6,182.8,205.4,182.2,204.9 M184.4,169.4c-9.3,0.2-16.7,5.9-20.3,14c-0.4,1.5-1.3,3.1-1.6,6.1
			c-0.8,8.7,3.2,16.7,11.1,20.5c7.3,3.6,17.1,4,24.1-1.4c6.1-3.4,8.9-10.3,9.6-16.8c0-1.6-0.1-3.4-0.3-4.8c-0.2-1.2-0.6-2.6-1-3.8
			c-0.8-1.8-1.4-3.6-2.5-5.2c-3.7-5.7-11.3-8.7-17.9-8.7C185.2,169.4,184.8,169.4,184.4,169.4 M99,160.4c-4.8,1.6-9.3,5.5-10.3,9.8
			c-1.2,5.2,0.3,10.6,5,14.3c5.5,4.8,13.6,5,18.3,10.9c0.6,1.3,0.8,2.9,0.4,4.4c-0.4,2-2.5,3.3-4.3,4c-5,0.6-9.4-2.6-12.7-6.6
			c-3-2.6-2.8-7.2-7-8.4c-0.9,0.1-1.9,0.1-2.4,0.9c-2.1,4.1,0.1,14,1.9,18.6c1.2,2.3,2.8,2,4.4,1.6c1.2-0.3,2.4-0.5,3.6,0.1
			c3.4,1.1,9.1,1.5,14.2,1.2c5.8-0.2,12.4-4.3,14.4-10c0.2-0.9,0.8-2.3,1.1-3.2c1-3.9,0.1-6.8-0.2-7.8c-1.1-3.8-5.5-8-9.2-9.6
			c-4-1.9-8.2-3.1-12-5.2c-1.3-1.3-1.9-2.8-1.7-4.2c0-2.2,2.3-3.7,4.2-4.6c3.8-1,7.6-0.7,11.1,1c2.2,1.2,4.7,3.5,5.7,5.2
			c2.1,3.1,2.7,8,2.7,8v16.9c0.1,0.9,0.1,1.9,0,2.8v0c-0.1,1.1-0.2,2.3-0.4,3.5c-0.3,2.4-3.8,2.8-4.1,5.1c0,0.8,0.5,1.4,1.3,1.8
			c5.9,0.9,11.6,0.9,17.3,0.2c1.2-0.4,2.2-1.3,2.1-2.7c-0.1-1.3-1.6-1.1-2.3-1.9c-0.7-0.4-0.7-1-1.4-1.4c-2.1-4.1-1-8.7-1.4-13.1
			c0.1-4.3,0.2-9.6,5.5-11.8c1.4-0.4,2.6-0.3,4,0.2c1.1,0.5,2.7,2.7,3,3.8c0,6.8,0.6,13.6-0.7,20.5c-0.7,1.7-3.3,2.2-3.4,4.1
			c0.9,3.1,4.6,2.1,6.9,2.4c1.6-0.2,3.3-0.1,4.9-0.1c2.9,0.1,5.9,0.3,8.6-1c0.9-1.2,1-2,0.7-2.7c-0.4-0.4-0.8-0.9-1.2-1.3
			c-1.5-1.1-3.7-2-3.7-4.2c-0.1-0.6-0.1-1.5-0.1-2.5c-1.1-3.1-1.5-6.4-1.2-9.9c0.2-2.4,0.8-4,1.3-5.3c0,0,0-0.1,0-0.1
			c0.1-1.5,0.1-2.5,0.1-2.5s0-0.8,0-1.2l-0.2-1.8c-0.3-2.7-0.4-3.7-2.3-5.9c-1.9-2.1-6.9-4.1-9.9-3.8c-4.2,0.3-7.8,2.5-10.7,5.3
			c-0.6,0.1-0.6-0.4-0.8-0.6c-0.3-4.2,0.1-8.1,0-12.3c-0.6-0.9-1.6-1.7-3.2-1.5c-8.1,2.6-18,0.9-25.8-0.7c-0.8-0.1-1.7-0.2-2.5-0.2
			C104.1,158.9,101.5,159.6,99,160.4 M315.5,155.1c-1.9,1-2.8,3.4-3.3,5.4c-0.4,2.8,2.8,3,4.6,4c1,1.6,0.2,3.3-0.2,4.9
			c0,1.1,1.2,0.9,1.9,0.6c2.9-3.1,4.9-7.3,4.9-11.3c-0.8-2.6-3.7-3.7-6.3-3.7C316.5,155,316,155,315.5,155.1"/>
	</defs>
	<clipPath id="SVGID_15_">
		<use xlink:href="#SVGID_14_"  style="overflow:visible;"/>
	</clipPath>
	<polygon class="st7" points="327,139.9 94.4,139.7 50.3,201.9 118.9,250.5 330.9,249.4 381.3,178.4 	"/>
</g>
<g>
	<defs>
		<rect id="SVGID_16_" width="432" height="288"/>
	</defs>
	<clipPath id="SVGID_17_">
		<use xlink:href="#SVGID_16_"  style="overflow:visible;"/>
	</clipPath>
	<path class="st8" d="M117.8,165.1c1,0.6,3.1,1.2,4.1,2c-4.6-2.7-11.6-3.8-16.6-1.8c-2.2,1.1-3.8,2.9-4.5,4.9
		c-0.4,1.9,0.1,3.7,1.3,5.3c-1.5-1.4-2.6-3.3-2.3-5.2c0.2-2.6,2.4-4.9,5.2-6.2C109.1,162.6,114.1,163.3,117.8,165.1"/>
	<path class="st8" d="M113.4,194.4c0,0.5,0.3,1,0.3,1.5c-3.4-5.9-10.2-6.9-15.6-10c-2-0.9-3.8-2.3-5.3-3.9
		C99.1,187.4,108.6,187.1,113.4,194.4"/>
	<path class="st8" d="M136.7,161.1l0.5,0.8c0.2,4.3-0.7,8.3,0.4,12.3l0.5,0.4c-0.2,0.4-0.6,0.7-0.9,1c-0.7,0.1-0.6-0.6-0.9-1
		c-0.6-4.4,0.1-9.3-0.3-13.7"/>
	<path class="st8" d="M96.6,207.7c6.9,3.8,13.9,2.8,20.4-1.4c5.2-4,8.3-9.6,6.3-15.8c-0.3-0.9-0.9-1.8-1.6-2.8
		c1.1,0.4,1.6,1.7,2.1,2.5c2.8,5.5-0.3,11.4-4.3,15.5c-4.6,4.6-12.8,5.9-19.2,3.8c-3.5-1.1-4.3-2.2-7.9-1.3
		c-0.9,0.1-1.8,0.1-2.6-0.5C92.2,207.6,94,206.4,96.6,207.7"/>
	<path class="st8" d="M148.4,178.2c0.7,0.8,1.7,1.7,1.7,2.7c-1.2-1.8-3.5-2.6-5.8-2.5c-2.7,0.4-5.9,2.5-6.8,4.8
		c-2.2,5.8-1.3,12.4-1.1,18.7c0.1,1.4,0.7,3,1.8,4.1c-1.3-0.3-2.2-1.4-2.7-2.6c-1-6-1.3-12.2-0.2-18.4c0.7-3.2,3.3-6.1,6.9-7.4
		C144.4,177.4,146.7,177.1,148.4,178.2"/>
	<path class="st8" d="M141,208.5c-0.5,1.8-3,1.3-4.4,1.6c-4,0.1-8.8,0.3-12.9-0.5l-0.2-0.6C129.1,209.2,135.4,209.9,141,208.5"/>
	<path class="st8" d="M166.1,208.3c0,0.7-0.7,1.3-1.4,1.4c-5.4,0.5-11.4,0.5-16.9-0.2l-0.5-0.7C153.5,209.1,159.9,209.3,166.1,208.3
		"/>
	<path class="st8" d="M217.9,176.2c-0.1,0.3-0.4,0.3-0.8,0.3c-1.1-1.3-0.3-3.1-1-4.7C218.2,172.3,217,174.9,217.9,176.2"/>
	<path class="st8" d="M246.6,195.4c-0.4,5.8-4.7,12.1-10.9,14.1c-2.8,0.9-6.5,1.2-9.4,0.5c-0.4-0.3-1.2-0.4-1.7-0.6
		c-2.1-0.9-3.8-1.9-5.5-3.2c0.2-0.5-0.5-0.2-0.8-0.5c-0.7,0.2-0.6,1-0.7,1.6c-0.1,3.1,0,6.8,1.5,9.5c-3.1-1.6-2.1-6-2.5-9
		c0.2-1.1,0.1-2.2,0.8-3.2c1.7-0.2,2.6,1.9,4,2.6c3.7,2.9,10.3,3.2,14.7,1.2c6.9-2.9,10.1-10.6,9.5-17.7c-0.6-5.5-1.1-10.7-5.1-15
		C246.3,180.9,246.9,188,246.6,195.4"/>
	<path class="st8" d="M232.3,180.9c-2-1.6-4.5-3.4-7.6-2.8c-4.9,0.9-6.1,5.4-7.1,9.2c-0.3,4.8-0.9,10.5,2.1,14.4
		c-3.2-3-3.4-7.6-3.4-12.2c0.5-5.1,1.6-11.3,7.6-12.4C227.1,176.4,231,178,232.3,180.9"/>
	<path class="st8" d="M220,220.5c0.8-0.5,2.1-0.2,2.8-1.1c0.2,0.5-0.3,1.1-0.9,1.4c-5.8,1-12.7,1.5-18.1-0.3l-0.2-0.6
		C208.9,221.3,214.3,221.1,220,220.5"/>
	<path class="st8" d="M312,181.4c-5.7,13.5-11.3,27.3-17.8,40.6c-2.4,2.2-6.2,1.7-9,0.8l0-0.7c2.4,0.4,5.4,1,7.7-0.4
		c2.9-4.7,4.7-9.5,6.8-14.3c4.3-9.2,7.9-18.5,12.4-27.5c0.4-0.6,1.1-0.9,1.7-1.4"/>
	<path class="st8" d="M287.9,177.5c0.9,6.9,3.6,12.8,6.6,18.8l1.1,0.5c-0.4,0.2-0.6,0.4-1,0.4c-2.1-0.6-2-2.7-3.2-4.2
		c-1.9-4.7-3.5-8.7-4.7-14c-0.2-1.4,0.4-2.8,1.5-3.9c1.2-1.1,3.2-1.1,4.3-2.6C292.3,175.3,288.1,174.6,287.9,177.5"/>
	<path class="st8" d="M273.1,177.2c-2.6-2.3-7.6-4.2-11.3-3.3c-2.3,0.7-4.3,2.3-4.8,4.9c-0.1,1.6,0.2,3,1.3,4.2
		c-1.1-0.3-2.4-2-2.5-3.6c0-2.3,1.6-4.3,3.4-5.5c3.8-2,8.3-0.9,12,1.6C271.8,175.8,272.4,176.6,273.1,177.2"/>
	<path class="st8" d="M279,201.6c-1.4,4.9-5.6,8.2-10,9.1c-4.8,0.5-9.7-0.6-14.5-2.2c-1.8-0.1-3.9,1.6-5.3-0.2
		c2.4,0.5,4.1-1.2,6.4-0.5c6.3,2.3,13.6,3.8,18.9-0.8c3.2-2.8,4.9-7.9,4-12.1c-0.4-1.8-1.2-3.2-2.3-4.8
		C279.3,192.7,280.3,197.5,279,201.6"/>
	<path class="st8" d="M269.8,198.2c-3.2-3.9-8.6-3.1-12.9-4.7c-1.7-0.6-3.6-1.7-4.8-3.2c4.6,3.7,11.6,2.2,16.7,6
		C269,197,269.8,197.5,269.8,198.2"/>
	<path class="st8" d="M338.4,177.2c-2.6-2.3-7.6-4.2-11.3-3.3c-2.3,0.7-4.3,2.3-4.8,4.9c0,1.6,0.2,3,1.3,4.2c-1.1-0.3-2.4-2-2.5-3.6
		c0-2.3,1.5-4.3,3.4-5.5c3.8-2,8.3-0.9,12,1.6C337.1,175.8,337.7,176.6,338.4,177.2"/>
	<path class="st8" d="M344.3,201.6c-1.3,4.9-5.6,8.2-10,9.1c-4.8,0.5-9.7-0.6-14.5-2.2c-1.8-0.1-3.9,1.6-5.3-0.2
		c2.4,0.5,4.1-1.2,6.4-0.5c6.3,2.3,13.6,3.8,18.9-0.8c3.2-2.8,4.9-7.9,4-12.1c-0.5-1.8-1.2-3.2-2.3-4.8
		C344.6,192.7,345.6,197.5,344.3,201.6"/>
	<path class="st8" d="M335,198.2c-3.2-3.9-8.6-3.1-12.9-4.7c-1.7-0.6-3.6-1.7-4.8-3.2c4.6,3.7,11.6,2.2,16.7,6
		C334.3,197,335.1,197.5,335,198.2"/>
	<path class="st8" d="M345.5,182c-0.2,0.6-0.5,1.5-1.2,1.4l-0.6-0.2c1.1-0.7,1.2-2.1,1.1-3.5c0-2.8-1-5.5-1.6-8.2
		c0.7,0,0.9,0.9,1.2,1.5C345.3,175.9,345.4,178.8,345.5,182"/>
	<path class="st8" d="M317.6,173.1c-0.1,0.2-0.2,0.5-0.5,0.5c0-1-0.5-2-1-2.9C317.2,170.8,317.7,172.1,317.6,173.1"/>
	<path class="st8" d="M191.5,177.4l0.7,1.6c-1.1-2-4.2-4-6.9-4.1c-2.6-0.1-4.6,1.4-6.2,2.9c-4.6,6.7-4.3,15.2-2.2,23.2
		c0.7,1.6,1.5,3,2.8,4.2c-6.4-3.6-5.5-12.6-5.2-18.6c0.6-4.9,2.8-11.2,8.6-12.7C186.1,173.3,189.8,174.5,191.5,177.4"/>
	<path class="st8" d="M206,192.5c-0.8,8.4-6.8,15.5-14.9,17.9c-5.1,1.4-10.7,1.2-15.4-1c7.8,2.5,18.4,1.1,23.8-5.6
		c5.4-6,6.8-14.6,3.6-22.3c-1.4-2.8-3.5-5.2-5.6-7.5C203.1,177.8,206.8,185.5,206,192.5"/>
	<path class="st8" d="M161.1,183.2c0.3,7.1-1.4,14.5,0.8,21.4c-3.5-2.9-2.1-7.6-2.2-11.5c-0.2-6.7,1.1-13.2-1.2-19.6
		C161.3,176,160.8,179.9,161.1,183.2"/>
	<path class="st8" d="M320.3,164.9l-1.5,3c0.4-3.2,3.3-6.6,1.6-10C322.8,159.7,320.9,162.6,320.3,164.9"/>
	<path class="st8" d="M317.6,163.6c-1-1-3.2-0.6-3.7-2.3l0.1-0.2C315,162.4,317.1,161.8,317.6,163.6"/>
	<path class="st8" d="M326.1,163.5c0-1.8,1.4-3.2,3.3-3.3c1.8,0,3.3,1.4,3.3,3.2c0,1.8-1.4,3.3-3.2,3.3
		C327.6,166.7,326.1,165.3,326.1,163.5 M332.3,163.4c0-1.6-1.3-2.8-2.9-2.8c-1.6,0-2.9,1.3-2.9,2.9c0,1.6,1.4,2.8,3,2.8
		C331,166.2,332.3,165,332.3,163.4 M331.1,165.2l-0.5,0l-1.1-1.7l-0.8,0l0,1.7l-0.5,0l-0.1-3.6l1.6,0c0.3,0,0.6,0,0.9,0.2
		c0.3,0.2,0.4,0.5,0.4,0.8c0,0.7-0.5,1-1.1,1L331.1,165.2z M329.3,163.2c0.5,0,1.3,0.1,1.3-0.7c0-0.6-0.5-0.6-0.9-0.6l-1.1,0l0,1.3
		L329.3,163.2z"/>
	<path class="st9" d="M253.3,113.5c0,16.5-13.3,29.8-29.8,29.8c-16.5,0-29.8-13.3-29.8-29.8s13.3-29.8,29.8-29.8
		C240,83.7,253.3,97,253.3,113.5"/>
	<path class="st10" d="M255,147.1c-0.7,0-1.3-0.3-1.8-0.7l-21-21c-0.3,0.2-0.6,0.4-0.9,0.7l-0.4,0.4l-8.9-8.9l-5,5l0.1,0.1
		c1,1,1,2.6,0,3.5L197,146.4c-0.5,0.5-1.1,0.7-1.8,0.7s-1.3-0.3-1.8-0.7l-2.5-2.5c-0.5-0.5-0.7-1.1-0.7-1.8c0-0.7,0.3-1.3,0.7-1.8
		l20.3-20.3c0.5-0.5,1.1-0.7,1.8-0.7s1.3,0.3,1.8,0.7l0.1,0.1l5-5l-34.7-34.7l1.1,0c0.3,0,0.6,0,0.9,0c13.6,0,26,11.5,40.9,26.6
		l9.9-9.9c-1.1-1.7-1.5-3.4-1.2-5.1c0.7-4.1,5.5-7.5,10.1-10.8c3.9-2.7,7.5-5.3,8.6-8.1l1.2-3.1l-0.3,3.3c-0.4,5.2-4.9,8.4-8.9,11.3
		c-2.9,2.1-5.4,3.9-5.5,5.9c-0.1,1,0.4,2.1,1.6,3.2c1.1,1.1,2.1,1.6,3,1.6h0c2.1,0,4-2.6,6.1-5.5c2.9-4,6.1-8.4,11.3-8.9l3.3-0.3
		l-3.1,1.2c-2.8,1.1-5.4,4.8-8.1,8.6c-3.5,5-7.2,10.2-11.8,10.2h0c-1.3,0-2.7-0.4-4.1-1.3l-9.9,9.9l0.2,0.2c2.2,2.2,4.3,4.4,6.5,6.6
		l0.3,0.3l-2.4,3.4l0.2,0.2l0.6-0.2c0.5-0.2,1.1-0.4,1.7-0.4c0.6,0,1,0.2,1.4,0.6l20.3,20.3c1,1,1,2.6,0,3.5l-2.5,2.5
		C256.3,146.8,255.7,147.1,255,147.1"/>
	<path class="st11" d="M255.9,73.4c-0.8,10.6-20.2,13.2-12.7,20.8c1.2,1.2,2.3,1.7,3.4,1.7c5.3,0,8.6-13.7,17.4-14.4
		c-6.7,2.7-12,18.8-19.7,18.8c-1.3,0-2.7-0.4-4.1-1.5l-10.5,10.5c2.3,2.4,4.7,4.8,7.1,7.2l-2.4,3.4l0.8,0.8l0.7-0.2
		c0.6-0.2,1.2-0.4,1.8-0.4c0.4,0,0.7,0.1,1.1,0.4l20.3,20.3c0.8,0.8,0.8,2,0,2.8l-2.5,2.5c-0.4,0.4-0.9,0.6-1.4,0.6
		c-0.5,0-1-0.2-1.4-0.6l-21.2-21.2c-0.5,0.3-1,0.6-1.3,0.9c-3-3-5.9-5.9-8.9-8.9l-5.7,5.7l0.4,0.4c0.8,0.8,0.8,2,0,2.8L196.7,146
		c-0.4,0.4-0.9,0.6-1.4,0.6c-0.5,0-1-0.2-1.4-0.6l-2.5-2.5c-0.8-0.8-0.8-2,0-2.8l20.3-20.3c0.4-0.4,0.9-0.6,1.4-0.6s1,0.2,1.4,0.6
		l0.4,0.4l5.7-5.7c-11.4-11.4-22.9-22.9-34.3-34.3c0.3,0,0.6,0,0.9,0c13.9,0,27.1,12.8,40.9,26.8l10.5-10.5
		C231.4,87,252.8,81.1,255.9,73.4 M257.4,66.9L255,73c-1.1,2.6-4.8,5.3-8.4,7.9c-4.7,3.3-9.6,6.8-10.3,11.1
		c-0.3,1.7,0.1,3.4,1.1,5.1l-9.2,9.2c-14.8-15-27.2-26.4-40.9-26.4c-0.3,0-0.6,0-0.9,0L184,80l1.6,1.6l12.9,12.9l20.7,20.7l-4.3,4.3
		c-0.5-0.4-1.2-0.6-1.8-0.6c-0.8,0-1.6,0.3-2.1,0.9L190.7,140c-1.2,1.2-1.2,3.1,0,4.2l2.5,2.5c0.6,0.6,1.3,0.9,2.1,0.9
		c0.8,0,1.6-0.3,2.1-0.9l20.3-20.3c0.6-0.6,0.9-1.3,0.9-2.1c0-0.7-0.2-1.3-0.6-1.8l4.3-4.3l3.7,3.7l4.4,4.4l0.7,0.7l0.7-0.7
		c0.1-0.1,0.3-0.2,0.4-0.4l20.7,20.7c0.6,0.6,1.3,0.9,2.1,0.9c0.8,0,1.6-0.3,2.1-0.9l2.5-2.5c1.2-1.2,1.2-3.1,0-4.2l-20.3-20.3
		c-0.5-0.5-1.1-0.7-1.8-0.7c-0.5,0-1,0.1-1.5,0.3l1.6-2.2l0.5-0.7l-0.6-0.6c-2.1-2.1-4.3-4.4-6.4-6.5l9.3-9.3c1.3,0.8,2.7,1.2,4,1.2
		c4.9,0,8.6-5.3,12.2-10.4c2.6-3.6,5.2-7.4,7.9-8.4l6.1-2.5l-6.6,0.5c-5.4,0.4-8.9,5.2-11.7,9.1c-2,2.7-3.9,5.3-5.7,5.3
		c-0.8,0-1.7-0.5-2.7-1.4c-1-1-1.5-2-1.4-2.8c0.1-1.8,2.7-3.6,5.3-5.5c3.8-2.8,8.6-6.3,9.1-11.7L257.4,66.9z"/>
	<path class="st9" d="M196.5,143.4c-0.6,0.6-1.7,0.6-2.4,0c-0.6-0.6-0.6-1.7,0-2.3s1.7-0.6,2.4,0
		C197.1,141.7,197.1,142.8,196.5,143.4"/>
	<path class="st9" d="M256,143.4c-0.6,0.6-1.7,0.6-2.4,0c-0.6-0.6-0.6-1.7,0-2.3s1.7-0.6,2.4,0C256.6,141.7,256.6,142.8,256,143.4"
		/>
	<path class="st11" d="M191.5,82.7c0,0,0.6,0.1,1.7,0.4c1.1,0.3,2.6,0.8,4.5,1.5c0.9,0.4,1.8,0.9,2.8,1.5c1,0.6,2,1.2,3,1.8
		c2.1,1.3,4.1,2.9,6.1,4.6c4,3.3,7.9,6.8,10.7,9.5c0.4,0.3,0.7,0.7,1,1c0.3,0.3,0.6,0.6,0.9,0.9c0.5,0.6,0.9,1.2,1.3,1.6
		c0.7,0.9,1.1,1.4,1.1,1.4s-0.5-0.4-1.4-1.1c-0.4-0.4-1-0.8-1.6-1.3c-0.3-0.2-0.6-0.5-0.9-0.8c-0.3-0.3-0.7-0.6-1-1
		c-2.8-2.7-6.6-6.1-10.6-9.4c-2-1.7-4-3.2-6-4.5c-1-0.7-2-1.3-3-1.8c-1-0.5-1.9-1-2.7-1.4c-1.7-1-3.1-1.7-4.1-2.1
		C192.1,82.9,191.5,82.7,191.5,82.7"/>
</g>
<g>
	<defs>
		<rect id="SVGID_18_" width="432" height="288"/>
	</defs>
	<clipPath id="SVGID_19_">
		<use xlink:href="#SVGID_18_"  style="overflow:visible;"/>
	</clipPath>
	<g class="st12">
		<defs>
			<rect id="SVGID_20_" x="195.8" y="50.7" width="55.4" height="31.9"/>
		</defs>
		<clipPath id="SVGID_21_">
			<use xlink:href="#SVGID_20_"  style="overflow:visible;"/>
		</clipPath>
		<g class="st13">
			<defs>
				<rect id="SVGID_22_" x="195.8" y="50.7" width="55.4" height="31.9"/>
			</defs>
			<clipPath id="SVGID_23_">
				<use xlink:href="#SVGID_22_"  style="overflow:visible;"/>
			</clipPath>
			<path class="st14" d="M223.5,79.5c6.3,0,10.7,3,10.9,3.1c-0.2-0.1-6.4-2.2-10.9-2.2c-5.2,0-10.7,2.1-10.9,2.2
				C212.8,82.5,217.2,79.5,223.5,79.5"/>
		</g>
	</g>
</g>
</svg>
