<?xml version="1.0" encoding="utf-8"?>
<!-- Generator: Adobe Illustrator 19.0.0, SVG Export Plug-In . SVG Version: 6.00 Build 0)  -->
<svg version="1.1" xmlns="http://www.w3.org/2000/svg" xmlns:xlink="http://www.w3.org/1999/xlink" x="0px" y="0px"
	 viewBox="0 0 432 288" style="enable-background:new 0 0 432 288;" xml:space="preserve">
<style type="text/css">
	.st0{clip-path:url(#SVGID_2_);fill:url(#SVGID_3_);}
	.st1{clip-path:url(#SVGID_5_);fill:#231F20;}
	.st2{clip-path:url(#SVGID_5_);fill-rule:evenodd;clip-rule:evenodd;fill:#FFFFFF;}
	.st3{clip-path:url(#SVGID_7_);fill:#FBBD18;}
	.st4{clip-path:url(#SVGID_9_);fill-rule:evenodd;clip-rule:evenodd;fill:#FFFFFF;}
	.st5{clip-path:url(#SVGID_11_);fill:#FBBD18;}
	.st6{clip-path:url(#SVGID_13_);fill-rule:evenodd;clip-rule:evenodd;fill:#FFFFFF;}
	.st7{clip-path:url(#SVGID_15_);fill:#FBBD18;}
	.st8{clip-path:url(#SVGID_17_);fill-rule:evenodd;clip-rule:evenodd;fill:#231F20;}
	.st9{clip-path:url(#SVGID_19_);fill-rule:evenodd;clip-rule:evenodd;}
	.st10{clip-path:url(#SVGID_19_);}
	.st11{clip-path:url(#SVGID_21_);}
	.st12{clip-path:url(#SVGID_23_);}
	.st13{clip-path:url(#SVGID_23_);fill:#FBBD18;}
</style>
<g id="Layer_2">
	<g>
		<defs>
			<rect id="SVGID_1_" x="-1" y="-1" width="432" height="288"/>
		</defs>
		<clipPath id="SVGID_2_">
			<use xlink:href="#SVGID_1_"  style="overflow:visible;"/>
		</clipPath>
		
			<radialGradient id="SVGID_3_" cx="-4.381188e-03" cy="288.0064" r="1" gradientTransform="matrix(228.2486 0 0 -155.0813 214 44806.6562)" gradientUnits="userSpaceOnUse">
			<stop  offset="0" style="stop-color:#CD2026"/>
			<stop  offset="1" style="stop-color:#AC2B31"/>
		</radialGradient>
		<rect x="-1" y="-1" class="st0" width="432" height="288"/>
	</g>
</g>
<g id="Layer_1">
	<g>
		<defs>
			<rect id="SVGID_4_" y="-12" width="432" height="288"/>
		</defs>
		<clipPath id="SVGID_5_">
			<use xlink:href="#SVGID_4_"  style="overflow:visible;"/>
		</clipPath>
		<path class="st1" d="M266.7,171.6c3.4,0.9,6.7,1.7,9.3,3.6c0-0.1-0.1-0.1-0.1-0.2c-0.8-1.4-1.6-2.8-2.1-3.7l0-0.1
			c-0.8-1.6-3-3.2-5.6-4.4c-2.7-1.3-5.6-2-7.4-1.8c-0.6,0.2-1.2,0.6-1.5,1c-0.3,0.3-0.5,0.8-0.6,1.3l0,0c0,0.2,0,0.4,0.1,0.6
			c0.1,0.3,0.2,0.6,0.4,0.8C261.2,170.2,263.9,170.9,266.7,171.6 M226.8,190.2c0.4-0.2,0.8-0.4,1.2-0.7c1.8-2,2.8-5,3-8.1
			c0.3-3.4-0.4-6.8-1.8-9.5c-0.2-0.4-0.5-0.7-0.9-1c-0.3-0.3-0.7-0.6-1.1-0.9c-0.9-0.4-1.9-0.6-2.9-0.6c-0.8,0-1.5,0.2-2.1,0.6
			c-1.8,2-2.9,4.9-3.1,8c-0.3,3.4,0.3,6.9,1.7,9.7c0.5,0.8,1.2,1.5,2,2c0.7,0.4,1.6,0.8,2.5,0.8
			C225.8,190.5,226.3,190.3,226.8,190.2 M188,189.5c0.9-1.5,1.4-3.3,1.7-5c0.3-2.8,0.5-6.1,0.1-9.1c-0.4-2.9-1.3-5.8-3-8
			c-0.8-0.6-1.6-1.1-2.4-1.2c-0.8-0.1-1.6-0.1-2.6,0.3c-3.8,2.1-4.2,6.8-4.6,10.8c0,0.3-0.1,0.7-0.1,1c0.1,0.9,0.1,1.6,0.2,2.3
			c0.2,4.1,0.5,9,4.2,10.9l0.2,0.1c0.9,0.6,2.5,0.3,3.8,0c0.4-0.1,0.2,0,0.3-0.1C186.7,191.2,187.4,190.4,188,189.5 M248.3,183.5
			c0.4-0.1,0.8-0.1,1.2,0l0.5,0.1c2.2,1,3.1,2.3,4,3.5c0.7,0.9,1.4,1.9,2.8,2.6l0.1,0.1c1.5,0.9,3.3,1.8,4.9,2c1.4,0.2,2.8,0,4-0.9
			c0.3-0.4,0.4-0.9,0.5-1.4c0-0.5,0-0.9-0.2-1.4c-1.9-1.9-4.5-2.3-7.2-2.7c-2.9-0.5-5.8-0.9-8.5-3c-0.7-0.6-1.3-1.2-1.9-1.8
			c0,0.7,0,1.4-0.1,2.2C248.3,182.9,248.3,183.2,248.3,183.5 M338.9,171.9c-0.2-0.2-0.4-0.5-0.6-0.7l-0.3-0.4
			c-0.8-1.6-2.8-3.1-5.2-4.3c-2.4-1.2-5.1-1.8-6.9-1.5c-0.6,0.2-1.2,0.6-1.6,1c-0.3,0.4-0.5,0.8-0.6,1.3l0,0c0,0.2,0,0.4,0.1,0.6
			c0.1,0.3,0.2,0.6,0.3,0.8c2.1,1.3,4.9,2,7.7,2.7c5.7,1.4,11.3,2.8,13.4,9.4c1.2,2.7,1.3,5.6,0.6,8.3c-0.8,3.1-2.5,6.1-4.6,8.2
			l-0.1,0.1c-3.5,2.9-7.5,4-11.7,4.1c-4,0-8-0.9-11.8-2.3c-0.4,0-0.9,0.2-1.4,0.4c-1.4,0.6-2.8,1.1-4.6-0.2l-0.4-0.4
			c-1.6-2.4-2.2-4.7-2.1-7c0-2.2,0.7-4.5,1.8-7l0.2-0.3c0.4-0.5,1-0.9,1.6-1.1c0.6-0.2,1.3-0.3,1.9-0.2l0.5,0.1c2.2,1,3.1,2.3,4,3.5
			c0.7,0.9,1.4,1.9,2.7,2.6l0.1,0.1c1.5,0.9,3.2,1.8,4.9,2c1.4,0.2,2.8,0,4-0.9c0.3-0.4,0.4-0.9,0.5-1.4c0-0.5,0-0.9-0.2-1.4
			c-1.9-1.9-4.5-2.3-7.2-2.7c-2.9-0.5-5.8-0.9-8.5-3h0c-1.4-1.1-2.7-2.6-3.6-4.2c-0.3-0.5-0.5-0.9-0.7-1.4
			c-2.2,5.1-4.4,10.3-6.7,15.3c-3,6.6-6.1,13.2-9.5,19.7l-0.3,0.4c-2.8,2.7-6.5,2.3-9.9,1.9c-0.6-0.1-1.2-0.1-2-0.2l-0.5-0.1
			c-1-0.4-2-1-2.5-1.9c-0.6-0.9-0.8-1.9-0.3-3.1l0.2-0.4c0.9-1.1,1.9-2.1,2.9-3.1c1.8-1.8,3.7-3.7,4.8-5.9c-0.1-1.5-0.7-2.9-1.3-4.4
			c-0.3-0.6-0.5-1.2-0.7-1.8c-1.7-3.4-3.2-6.3-4.6-8.8c0.2,1.7,0.1,3.4-0.3,5.1c-0.8,3.1-2.5,6.1-4.6,8.2l-0.1,0.1
			c-3.5,2.9-7.5,4-11.7,4.1c-3.9,0-8-0.9-11.8-2.3c-0.4,0-0.9,0.2-1.4,0.4c-1.4,0.6-2.7,1.1-4.5-0.2l-0.4-0.4
			c-1.3-2-1.9-3.9-2.1-5.7c-2.2,2.8-5.2,5.1-8.5,6.4l-0.1,0c-3,1-6.5,1.3-9.8,0.7c-2.5-0.4-4.9-1.3-6.9-2.6c0.1,1.4,0.3,2.8,0.8,4
			c0.6,1.4,1.7,2.6,3.4,3.4l0.8,0.8c0.3,0.8,0.4,1.7,0.3,2.4c-0.2,0.8-0.6,1.6-1.3,2.1l-0.2,0.1c-3.8,1.7-8.4,1.6-12.7,1.6
			c-1,0-1.9,0-2.8,0l-0.4-0.1c-0.5-0.1-1-0.2-1.6-0.2c-2.2-0.2-4.5-0.5-5.8-3l-0.1-0.4c-0.6-2.9,1-3.8,2.6-4.7
			c0.5-0.3,1-0.6,1.2-0.9c0.2-2.8,0.4-5.6,0.5-8.4c0-1,0.1-2,0.1-2.9c-1.6,2.4-3.7,4.6-6.3,6.1c-3.6,2.7-7.8,4-12,4.2
			c-4.7,0.3-9.5-0.8-13.6-2.8c-1.5-0.7-2.9-1.6-4.1-2.6c-0.2,0.6-0.6,1.4-1.2,2.2l-0.6,0.5c-3.1,1.4-6.2,1.3-9.3,1.2
			c-1.7-0.1-3.3-0.1-4.7,0h-0.4c-0.5-0.1-1.1-0.1-1.8-0.1c-2.6,0-5.4,0-6.4-3.4l-0.1-0.5c0.1-1.8,1.2-2.7,2.3-3.5
			c0.5-0.3,0.9-0.7,1.1-1c0.9-5.1,0.8-10.2,0.7-15.2c0-1.5-0.1-3-0.1-4.6c-0.2-0.4-0.5-0.9-0.9-1.5c-0.4-0.5-0.8-1-1.1-1.1
			c-0.5-0.2-1-0.3-1.5-0.3c-0.5,0-1,0-1.5,0.2c-2.1,0.9-3.2,2.4-3.7,4.1c-0.6,1.9-0.7,4.1-0.7,6.2c0.2,1.5,0.1,3,0.1,4.4
			c0,2.7-0.1,5.4,1,7.7c0.3,0.2,0.5,0.5,0.7,0.8c0.1,0.1,0.2,0.2,0.3,0.3l0.4,0.3c0,0,0.3,0.1,0.5,0.2c1,0.4,2,0.9,2.1,2.5v0
			c0.1,1.1-0.2,2-0.8,2.7c-0.6,0.8-1.5,1.3-2.4,1.6l-0.3,0.1c-2.9,0.4-5.8,0.6-8.7,0.5c-2.9,0-5.9-0.2-8.9-0.7l-0.4-0.1
			c-0.7-0.3-1.2-0.7-1.6-1.3c-0.4-0.5-0.6-1.1-0.6-1.7c-0.1,0.1-0.3,0.2-0.4,0.3c-2.9,2-6.4,3.3-9.7,3.4c-2.7,0.2-5.6,0.1-8.1-0.1
			c-2.5-0.2-4.8-0.6-6.6-1.2l-0.3-0.1c-0.7-0.4-1.6-0.2-2.6,0c-2.3,0.5-4.4,1-6.1-2.4l-0.1-0.1c-1.1-2.7-2.3-7.3-2.7-11.5
			c-0.3-3.3-0.2-6.4,0.9-8.4l0.1-0.2c0.8-1.2,1.9-1.3,3-1.5c0.2,0,0.4-0.1,0.5-0.1l0.7,0c3.1,0.9,4.2,3.1,5.4,5.4
			c0.6,1.2,1.2,2.5,2.2,3.3l0.2,0.2c1.7,2,3.7,3.8,5.8,4.9c1.7,0.9,3.5,1.3,5.4,1.2c0.8-0.3,1.6-0.8,2.2-1.3
			c0.4-0.4,0.8-0.9,0.9-1.4l0-0.1c0.2-0.5,0.2-1.1,0.1-1.6c-0.1-0.6-0.2-1.1-0.4-1.5c-2.4-2.9-5.8-4.4-9.3-5.8c-3-1.3-6-2.5-8.6-4.8
			h0c-2.5-2-4.2-4.4-5.2-7.1c-1-2.8-1.1-5.8-0.4-8.8v0c0.6-2.4,2.1-4.6,4-6.5c2-1.9,4.6-3.5,7.3-4.4h0c1.6-0.6,3.4-1,5.2-1.3
			c1.9-0.3,3.8-0.3,5.8,0l0.1,0c3.8,0.8,8.2,1.6,12.6,1.9c4.3,0.3,8.6,0.1,12.4-1.2l0.2-0.1c1-0.2,1.9,0,2.6,0.4
			c0.9,0.4,1.6,1.1,2,1.8l0.3,0.8c0,1.8,0,3.5,0,5.2c0,1.7-0.1,3.4,0,5.1c1.2-1,2.5-1.8,3.8-2.5c1.9-0.9,3.9-1.6,6.1-1.7v0
			c1.8-0.2,3.9,0.3,6,1c2.1,0.8,4.1,2,5.2,3.2c1.1,1.3,1.7,2.2,2.1,3.3c0.4,1,0.5,2,0.6,3.5l0.2,1.8l0,0.1c0,0.1,0,0.2,0,0.2
			c1.9-3.4,4.5-6.3,7.6-8.4c3.6-2.5,8-4,12.8-4.1c3.9-0.2,8.1,0.5,11.9,2.2c1.8,0.8,3.4,1.8,4.9,3c1.6-2.3,4.2-2.5,6.8-2.6
			c1.2-0.1,2.5-0.2,3.4-0.5l0.2-0.1c0.2,0,0.5-0.1,0.7-0.2c1.8-0.5,3.9-1,6.1-0.1l0,0c1.4,0.6,1.7,1.4,1.8,2.3
			c1.4-1.2,3.1-2.1,4.9-2.7v0c2.4-0.9,5.2-1.2,8.1-0.9c2.8,0.2,5.3,1.3,7.4,2.9c2.4,1.8,4.4,4.1,5.6,6.5l0,0
			c0.1,0.1,0.1,0.2,0.1,0.2c0,0,0,0,0,0c0,0,0,0,0,0l0,0c0,0.1,0.1,0.3,0.3,0.5c0.1,0.1,0.1,0.3,0.2,0.5c0.9-2.8,2.3-5.2,4.4-7
			c2.2-1.9,5-3.2,8.3-3.7l0.1,0c3.8-0.4,8,0.1,12.3,0.6c4.9,0.6,9.9,1.2,14.5,0.6l0.4,0c0.6,0.1,1.4,0,2.2-0.1
			c2.2-0.3,4.5-0.5,6.2,1.5l0.3,0.4c0.4,0.8,0.4,1.3,0.4,1.9c0,0.2,0,0.4,0,0.4l-0.1,0.7c-0.6,1.5-1.9,2.1-3.2,2.8
			c-0.9,0.5-1.8,1-1.6,1.9l0,0c0.8,2.6,1.5,5.2,2.4,7.7c0.8,2.4,1.8,4.7,3.1,6.8c0.1,0.1,0.5,0.3,1,0.5c0.1,0,0.1,0.2,0.2,0.3
			c1.4-2.3,2.5-4.6,3.5-7c1-2.5,1.7-5.1,2.3-7.7c0-0.7-0.7-1.5-1.4-2.3c-1.9-2.3-3.7-4.5-0.1-7.8l0.7-0.4c2.5-0.6,5.1-0.7,7.7-0.7
			c1.7,0,3.4,0,5.1-0.2c0.3-0.9,0.5-1.8,0.3-2.4c-0.3-0.1-0.6-0.3-0.9-0.4c-2.2-0.8-4.5-1.7-4-5l0-0.1c0.2-1.1,0.6-2.3,1.2-3.4
			c0.7-1.2,1.6-2.3,2.9-3l0.4-0.1c1.8-0.3,4.1-0.2,6,0.7c1,0.4,1.8,1,2.5,1.8c1.3,1.6,1.3,3.3,0.9,5.2c-0.2,1.3-0.6,2.6-1.2,3.8
			c-0.6,1.4-1.4,2.7-2.3,4c1.1-0.4,2.2-0.7,3.4-0.9l0.2,0l5.8-0.2h0.1c0.3,0,0.6,0,0.9,0.1c3.3,0.2,8.1,0.6,10.9,0.1l0.8,0.1
			c3.9,1.5,4.2,4.9,4.5,8.2c0.1,1,0.2,2.1,0.4,2.8l0,0.2c0.1,0.9,0.1,2.1-0.1,3.1c-0.3,1.3-1,2.4-2.3,3.1l-0.1,0.1
			C341.6,174.9,340.3,173.4,338.9,171.9 M121.7,171.7c0.6,0.6,1.2,1.3,1.7,2v-4.9c-0.1-0.7-0.7-4.6-2.4-7.2l-0.1-0.1
			c-0.4-0.7-1.2-1.6-2.1-2.4c-1-0.9-2-1.7-3-2.2c-1.6-0.7-3.2-1.2-4.9-1.3c-1.7-0.1-3.3,0-5,0.4c-0.8,0.4-1.7,0.9-2.4,1.5
			c-0.5,0.5-0.9,1-0.9,1.7l0,0.2c-0.1,0.5,0,0.9,0.2,1.4c0.2,0.5,0.5,1,0.9,1.4c2,1.1,4.2,2,6.5,2.9c1.6,0.7,3.3,1.3,5.1,2.1
			C117.5,168.1,119.8,169.7,121.7,171.7"/>
		<path class="st2" d="M92.2,219.9c0.4,0.6,0.8,1.4,1,2.2c0.2,0.8,0.3,1.7,0.3,2.7c0,0.9-0.1,1.7-0.3,2.5c-0.2,0.8-0.5,1.6-0.9,2.2
			c-0.5,0.7-1,1.1-1.7,1.5c-0.6,0.4-1.5,0.5-2.6,0.5c-0.3,0-0.8,0-1.3,0c-0.5,0-0.9,0-1.3,0c-0.4,0-0.8,0-1.4,0c-0.6,0-1,0-1.3,0
			c0,0-0.1-0.1-0.1-0.2c0-0.1,0-0.2,0-0.3c0-0.1,0-0.2,0-0.2c0-0.1,0.1-0.2,0.1-0.2c0.5-0.1,0.9-0.3,1-0.5c0.2-0.2,0.2-0.6,0.2-1.1
			v-8.6c0-0.5-0.1-0.9-0.2-1.1c-0.2-0.2-0.5-0.4-1-0.5c0,0-0.1-0.1-0.1-0.2c0-0.1,0-0.2,0-0.2c0-0.1,0-0.2,0-0.3
			c0-0.1,0.1-0.2,0.1-0.2c0.3,0,0.8,0,1.3,0c0.6,0,1.1,0,1.4,0c0.3,0,0.8,0,1.3,0c0.5,0,0.9,0,1.3,0c0.9,0,1.7,0.2,2.4,0.5
			C91.1,218.8,91.7,219.3,92.2,219.9 M90.7,224.8c0-1.8-0.2-3.3-0.6-4.3c-0.4-1.1-1.1-1.6-2.2-1.6l-0.5,0c-0.2,0-0.4,0.1-0.5,0.2
			c-0.2,0.1-0.3,0.4-0.3,0.9v9.3c0,0.5,0.1,0.8,0.3,0.9c0.2,0.1,0.4,0.2,0.5,0.2l0.5,0c1,0,1.7-0.5,2.1-1.5
			C90.5,228,90.7,226.6,90.7,224.8"/>
		<path class="st2" d="M104.2,226.9c-0.1,0.7-0.1,1.5-0.2,2.3c-0.1,0.8-0.1,1.6-0.1,2.3c-0.6,0-1.3-0.1-2.1-0.1c-0.9,0-1.5,0-2.1,0
			c-0.5,0-1.3,0-2.2,0c-1,0-1.7,0-2.2,0.1c0,0,0-0.1-0.1-0.2c0-0.1,0-0.2,0-0.3c0-0.1,0-0.2,0-0.2c0-0.1,0.1-0.2,0.1-0.2
			c0.5-0.1,0.9-0.3,1.1-0.5c0.1-0.2,0.2-0.6,0.2-1.2v-8.6c0-0.5-0.1-0.9-0.2-1.2c-0.2-0.2-0.5-0.4-1.1-0.5c0,0,0-0.1-0.1-0.2
			c0-0.1,0-0.2,0-0.3c0-0.1,0-0.2,0-0.3c0-0.1,0.1-0.2,0.1-0.2c0.5,0,1.2,0,2.1,0.1c0.9,0,1.6,0,2.2,0c0.5,0,1.2,0,2.1,0
			c0.9,0,1.6,0,2.1-0.1c0,0.5,0,1.2,0,2.1c0,0.8,0.1,1.6,0.1,2.3c0,0.1,0,0.1-0.1,0.2c-0.1,0.1-0.2,0.1-0.3,0.1
			c-0.1,0-0.1,0-0.2-0.1c0,0-0.1,0-0.1-0.1c-0.1-0.8-0.3-1.6-0.7-2.3c-0.4-0.7-1-1.1-1.7-1.1h-0.8c-0.2,0-0.4,0.1-0.5,0.2
			c-0.2,0.1-0.2,0.4-0.2,0.9v4h0.4c0.4,0,0.8-0.2,1.1-0.6c0.3-0.4,0.4-0.9,0.5-1.5c0,0,0-0.1,0.1-0.1c0.1,0,0.1,0,0.2,0
			c0,0,0.1,0,0.2,0c0.1,0,0.1,0.1,0.1,0.1c0,0.5,0,0.9,0,1.4c0,0.4,0,0.9,0,1.3c0,0.5,0,0.9,0,1.3c0,0.4,0,0.8,0,1.3
			c0,0,0,0.1-0.1,0.1c-0.1,0-0.1,0.1-0.2,0.1c0,0-0.1,0-0.2-0.1c-0.1,0-0.1-0.1-0.1-0.1c0-0.7-0.2-1.2-0.4-1.6
			c-0.3-0.4-0.6-0.6-1.1-0.6h-0.4v4.2c0,0.5,0.1,0.8,0.2,0.9c0.2,0.1,0.3,0.2,0.5,0.2h0.7c0.7,0,1.3-0.4,1.8-1.1
			c0.5-0.7,0.9-1.6,1-2.7c0,0,0-0.1,0-0.1c0,0,0.1,0,0.2,0c0.1,0,0.2,0,0.3,0.1C104.2,226.8,104.3,226.9,104.2,226.9"/>
		<path class="st2" d="M115.1,226.5c-0.1,0.7-0.1,1.6-0.2,2.7c-0.1,1.1-0.1,1.8-0.1,2.4c-0.6,0-1.3-0.1-2.1-0.1c-0.8,0-1.5,0-2.1,0
			c-0.6,0-1.3,0-2.2,0c-0.9,0-1.6,0-2,0.1c0,0,0-0.1-0.1-0.2c0-0.1,0-0.2,0-0.3c0-0.1,0-0.2,0-0.2c0-0.1,0-0.2,0.1-0.2
			c0.5-0.1,0.9-0.3,1-0.5c0.1-0.2,0.2-0.6,0.2-1.2v-8.6c0-0.5-0.1-0.9-0.2-1.2c-0.2-0.2-0.5-0.4-1-0.5c0,0,0-0.1-0.1-0.2
			c0-0.1,0-0.2,0-0.3c0-0.1,0-0.2,0-0.3c0-0.1,0-0.1,0.1-0.1c0.4,0,0.9,0,1.3,0.1c0.5,0,0.9,0,1.3,0c0.4,0,0.8,0,1.3,0
			c0.4,0,0.9-0.1,1.3-0.1c0,0,0,0.1,0.1,0.2c0,0.1,0,0.2,0,0.3c0,0.1,0,0.2,0,0.3c0,0.1,0,0.2-0.1,0.2c-0.5,0.1-0.8,0.2-1,0.5
			c-0.2,0.3-0.3,0.6-0.3,1.2v8.9c0,0.5,0.1,0.8,0.3,0.9c0.2,0.1,0.3,0.2,0.5,0.2h0.8c0.6,0,1.2-0.4,1.6-1.3c0.5-0.9,0.8-1.8,1-2.9
			c0,0,0-0.1,0.1-0.1c0,0,0.1,0,0.1,0c0.1,0,0.2,0,0.3,0.1C115,226.3,115.1,226.4,115.1,226.5"/>
		<path class="st2" d="M122.1,231.1c0,0.1,0,0.2,0,0.3c0,0.1-0.1,0.2-0.1,0.2c-0.5,0-0.9,0-1.3-0.1c-0.4,0-0.9,0-1.3,0
			c-0.4,0-0.9,0-1.3,0c-0.5,0-0.9,0.1-1.3,0.1c0,0-0.1-0.1-0.1-0.2c0-0.1,0-0.2,0-0.3c0-0.1,0-0.2,0-0.2c0-0.1,0-0.2,0.1-0.2
			c0.5-0.1,0.9-0.3,1-0.5c0.2-0.2,0.2-0.6,0.2-1.2v-8.6c0-0.5-0.1-0.9-0.2-1.2c-0.2-0.2-0.5-0.4-1-0.5c0,0-0.1-0.1-0.1-0.2
			c0-0.1,0-0.2,0-0.3c0-0.1,0-0.2,0-0.3c0-0.1,0-0.2,0-0.2c0.5,0,0.9,0,1.4,0.1c0.4,0,0.9,0,1.3,0c0.4,0,0.8,0,1.3,0
			c0.4,0,0.9-0.1,1.3-0.1c0,0,0,0.1,0.1,0.1c0,0.1,0,0.2,0,0.3c0,0.1,0,0.2,0,0.3c0,0.1-0.1,0.2-0.1,0.2c-0.5,0.1-0.9,0.2-1,0.5
			c-0.2,0.3-0.3,0.6-0.3,1.2v8.6c0,0.5,0.1,0.9,0.3,1.2c0.2,0.2,0.5,0.4,1,0.5c0,0,0,0.1,0.1,0.2C122.1,230.9,122.1,231,122.1,231.1
			"/>
	</g>
	<g>
		<defs>
			<path id="SVGID_6_" d="M127.8,222.5c-0.4,0.6-0.6,1.4-0.6,2.2c0,0.9,0.2,1.6,0.6,2.2c0.4,0.6,0.9,0.9,1.5,0.9
				c0.6,0,1.1-0.3,1.5-0.9c0.4-0.6,0.6-1.4,0.6-2.2c0-0.9-0.2-1.6-0.6-2.2c-0.4-0.6-0.9-0.9-1.5-0.9
				C128.7,221.6,128.2,221.9,127.8,222.5"/>
		</defs>
		<clipPath id="SVGID_7_">
			<use xlink:href="#SVGID_6_"  style="overflow:visible;"/>
		</clipPath>
		<polygon class="st3" points="128.6,219.6 124.2,225.8 130,230 134.5,223.7 		"/>
	</g>
	<g>
		<defs>
			<rect id="SVGID_8_" y="-12" width="432" height="288"/>
		</defs>
		<clipPath id="SVGID_9_">
			<use xlink:href="#SVGID_8_"  style="overflow:visible;"/>
		</clipPath>
		<path class="st4" d="M147.2,231.1c0,0.1,0,0.2-0.1,0.3c0,0.1-0.1,0.2-0.1,0.2c-0.2,0-0.6,0-1-0.1c-0.4,0-0.7,0-0.8,0
			c-0.2,0-0.5,0-0.9,0c-0.3,0-0.6,0.1-0.8,0.1l-1.7-5c-0.1-0.4-0.3-0.7-0.5-0.8c-0.2-0.2-0.4-0.2-0.8-0.2v3.5c0,0.5,0.1,0.9,0.2,1.2
			c0.1,0.2,0.5,0.4,1,0.5c0,0,0,0.1,0.1,0.2c0,0.1,0,0.2,0,0.3c0,0.1,0,0.2,0,0.3c0,0.1-0.1,0.2-0.1,0.2c-0.4,0-0.9,0-1.3-0.1
			c-0.4,0-0.8,0-1.2,0c-0.4,0-0.8,0-1.3,0c-0.4,0-0.9,0.1-1.3,0.1c0,0,0-0.1-0.1-0.2c0-0.1-0.1-0.2-0.1-0.3c0-0.1,0-0.2,0.1-0.2
			c0-0.1,0-0.2,0.1-0.2c0.5-0.1,0.9-0.3,1-0.5c0.2-0.2,0.2-0.6,0.2-1.2v-8.6c0-0.5-0.1-0.9-0.2-1.2c-0.2-0.2-0.5-0.4-1-0.5
			c0,0,0-0.1-0.1-0.2c0-0.1-0.1-0.2-0.1-0.3c0-0.1,0-0.2,0.1-0.3c0-0.1,0-0.1,0.1-0.1c0.4,0,0.9,0,1.4,0.1c0.5,0,0.9,0,1.3,0
			c0.4,0,0.8,0,1.1,0c0.3,0,0.7-0.1,1.2-0.1c1.4,0,2.5,0.4,3.1,1.1c0.7,0.7,1,1.5,1,2.5c0,0.9-0.1,1.6-0.4,2.1
			c-0.3,0.6-0.8,1-1.4,1.3l1.8,4.5c0.2,0.5,0.4,0.8,0.6,1c0.2,0.2,0.5,0.3,0.9,0.4c0,0,0.1,0.1,0.1,0.2
			C147.2,230.9,147.2,231,147.2,231.1 M142.8,221.8c0-1-0.1-1.7-0.4-2.2c-0.2-0.5-0.6-0.7-1.2-0.7c-0.3,0-0.5,0.1-0.6,0.3
			c-0.1,0.2-0.2,0.5-0.2,0.9v4.4c0.1,0,0.1,0,0.2,0c0.1,0,0.2,0,0.3,0c0.6,0,1.1-0.2,1.4-0.6C142.7,223.5,142.8,222.8,142.8,221.8"
			/>
		<path class="st4" d="M157,226.9c-0.1,0.7-0.1,1.5-0.2,2.3c-0.1,0.8-0.1,1.6-0.1,2.3c-0.6,0-1.3-0.1-2.1-0.1c-0.9,0-1.5,0-2.1,0
			c-0.5,0-1.2,0-2.2,0c-1,0-1.7,0-2.2,0.1c0,0-0.1-0.1-0.1-0.2c0-0.1,0-0.2,0-0.3c0-0.1,0-0.2,0-0.2c0-0.1,0-0.2,0.1-0.2
			c0.5-0.1,0.9-0.3,1-0.5c0.2-0.2,0.2-0.6,0.2-1.2v-8.6c0-0.5-0.1-0.9-0.2-1.2c-0.2-0.2-0.5-0.4-1-0.5c0,0-0.1-0.1-0.1-0.2
			c0-0.1,0-0.2,0-0.3c0-0.1,0-0.2,0-0.3c0-0.1,0-0.2,0.1-0.2c0.5,0,1.2,0,2,0.1c0.9,0,1.6,0,2.2,0c0.5,0,1.2,0,2,0
			c0.9,0,1.6,0,2.1-0.1c0,0.5,0,1.2,0,2.1c0,0.8,0.1,1.6,0.1,2.3c0,0.1,0,0.1-0.1,0.2c-0.1,0.1-0.1,0.1-0.3,0.1
			c-0.1,0-0.1,0-0.2-0.1c-0.1,0-0.1,0-0.1-0.1c-0.1-0.8-0.3-1.6-0.7-2.3c-0.4-0.7-1-1.1-1.7-1.1h-0.8c-0.2,0-0.4,0.1-0.5,0.2
			c-0.2,0.1-0.3,0.4-0.3,0.9v4h0.5c0.4,0,0.8-0.2,1.1-0.6c0.3-0.4,0.4-0.9,0.5-1.5c0,0,0-0.1,0.1-0.1c0.1,0,0.1,0,0.2,0
			c0.1,0,0.1,0,0.2,0c0.1,0,0.1,0.1,0.1,0.1c0,0.5,0,0.9,0,1.4c0,0.4,0,0.9,0,1.3c0,0.5,0,0.9,0,1.3c0,0.4,0,0.8,0,1.3
			c0,0,0,0.1-0.1,0.1c-0.1,0-0.1,0.1-0.2,0.1c0,0-0.1,0-0.2-0.1c-0.1,0-0.1-0.1-0.1-0.1c-0.1-0.7-0.2-1.2-0.5-1.6
			c-0.2-0.4-0.6-0.6-1.1-0.6h-0.5v4.2c0,0.5,0.1,0.8,0.3,0.9c0.2,0.1,0.4,0.2,0.5,0.2h0.7c0.7,0,1.3-0.4,1.8-1.1
			c0.5-0.7,0.9-1.6,1-2.7c0,0,0-0.1,0.1-0.1c0,0,0.1,0,0.1,0c0.1,0,0.2,0,0.3,0.1C157,226.8,157,226.9,157,226.9"/>
		<path class="st4" d="M164.8,223.4c0.5,0.5,1,1,1.5,1.6c0.4,0.6,0.7,1.4,0.7,2.4c0,1.4-0.4,2.5-1,3.3c-0.7,0.8-1.6,1.2-2.6,1.2
			c-0.6,0-1.2-0.1-1.6-0.4c-0.4-0.3-1-0.5-1.5-0.6c0-0.5,0-1.1,0-1.9c0-0.8,0-1.5,0-2.1c0,0,0-0.1,0.1-0.1c0.1,0,0.1-0.1,0.2-0.1
			c0.1,0,0.1,0,0.2,0c0.1,0,0.1,0.1,0.1,0.1c0.2,1.2,0.5,2.1,1.1,2.9c0.5,0.8,1.1,1.1,1.6,1.1c0.5,0,0.9-0.2,1.1-0.5
			c0.2-0.3,0.3-0.8,0.3-1.4c0-0.7-0.2-1.3-0.7-1.8c-0.5-0.5-1-0.9-1.5-1.4c-0.6-0.4-1.1-1-1.5-1.6c-0.5-0.6-0.7-1.4-0.7-2.3
			c0-1.2,0.3-2.2,0.9-3.1c0.6-0.8,1.5-1.2,2.6-1.2c0.5,0,0.9,0.1,1.3,0.3c0.4,0.2,0.7,0.3,1.2,0.4c0,0.5,0,1.1,0,1.8
			c0,0.7,0.1,1.3,0.1,1.8c0,0,0,0.1-0.1,0.1c-0.1,0-0.1,0-0.2,0c-0.1,0-0.1,0-0.2,0c-0.1,0-0.1-0.1-0.1-0.1c-0.2-1-0.4-1.8-0.7-2.4
			c-0.3-0.6-0.7-0.9-1.2-0.9c-0.4,0-0.8,0.2-1,0.5c-0.2,0.3-0.3,0.7-0.3,1.2c0,0.7,0.2,1.2,0.7,1.7
			C163.7,222.4,164.2,222.9,164.8,223.4"/>
		<path class="st4" d="M178.7,222.5c0,0.1,0,0.1-0.1,0.2c-0.1,0.1-0.1,0.1-0.2,0.1c0,0-0.1,0-0.2,0c-0.1,0-0.1,0-0.1-0.1
			c-0.1-0.7-0.4-1.5-0.9-2.4c-0.5-0.8-0.9-1.3-1.3-1.3h-0.2c-0.2,0-0.4,0.1-0.4,0.2c-0.1,0.1-0.1,0.3-0.1,0.6v9.3
			c0,0.5,0.1,0.9,0.3,1.2c0.2,0.2,0.5,0.4,1,0.5c0,0,0,0.1,0.1,0.2c0,0.1,0,0.2,0,0.3c0,0.1,0,0.2,0,0.3c0,0.1,0,0.2-0.1,0.2
			c-0.4,0-0.9,0-1.3-0.1c-0.4,0-0.9,0-1.3,0c-0.4,0-0.8,0-1.3,0c-0.4,0-0.9,0.1-1.3,0.1c0,0-0.1-0.1-0.1-0.2c0-0.1,0-0.2,0-0.3
			c0-0.1,0-0.2,0-0.2c0-0.1,0-0.2,0.1-0.2c0.5-0.1,0.9-0.3,1-0.5c0.2-0.2,0.3-0.6,0.3-1.2v-9.3c0-0.3,0-0.5-0.1-0.6
			c-0.1-0.1-0.2-0.2-0.5-0.2h-0.1c-0.4,0-0.8,0.4-1.4,1.2c-0.5,0.8-0.9,1.6-1.1,2.5c0,0,0,0.1-0.1,0.1c-0.1,0-0.1,0-0.1,0
			c-0.1,0-0.2,0-0.2-0.1c-0.1-0.1-0.1-0.1-0.1-0.2c0.1-0.6,0.2-1.4,0.3-2.4c0.1-1,0.2-1.7,0.2-2.4c0.3,0.1,0.8,0.2,1.5,0.2
			c0.7,0.1,1.7,0.1,3.1,0.1c1.2,0,2.2,0,3-0.1c0.8,0,1.4-0.1,1.6-0.2c0,0.6,0.1,1.4,0.1,2.2C178.6,220.8,178.7,221.7,178.7,222.5"/>
		<path class="st4" d="M189.6,231.1c0,0.1,0,0.2,0,0.3c0,0.1,0,0.1-0.1,0.1c-0.4,0-0.9,0-1.3-0.1c-0.5,0-0.8,0-1.2,0
			c-0.4,0-0.8,0-1.3,0c-0.4,0-0.9,0.1-1.3,0.1c0,0-0.1-0.1-0.1-0.1c0-0.1,0-0.2,0-0.3v-0.2c0-0.1,0-0.2,0.1-0.2
			c0.4,0,0.7-0.1,0.9-0.2c0.1-0.1,0.2-0.3,0.2-0.6c0-0.1,0-0.2-0.1-0.4c0-0.2-0.1-0.3-0.1-0.4l-0.4-1.4H182l-0.3,1.1
			c-0.1,0.2-0.1,0.4-0.1,0.5c0,0.2,0,0.3,0,0.4c0,0.3,0.1,0.5,0.1,0.7c0.1,0.2,0.4,0.2,0.9,0.3c0,0,0,0.1,0,0.2c0,0.1,0,0.2,0,0.3
			c0,0.1,0,0.2,0,0.3c0,0.1-0.1,0.1-0.1,0.1c-0.4,0-0.7,0-0.9-0.1c-0.2,0-0.5,0-0.9,0c-0.3,0-0.6,0-0.8,0c-0.2,0-0.5,0.1-0.8,0.1
			c0,0,0-0.1-0.1-0.2c0-0.1,0-0.2,0-0.3c0-0.1,0-0.2,0.1-0.2c0-0.1,0.1-0.2,0.1-0.2c0.4-0.1,0.7-0.2,0.9-0.5
			c0.2-0.3,0.4-0.8,0.7-1.5l3.3-10.9c0,0,0.1-0.1,0.1-0.1c0.1,0,0.2,0,0.3,0c0.1,0,0.2,0,0.2,0c0.1,0,0.1,0.1,0.2,0.1l3,10.9
			c0.2,0.6,0.3,1.1,0.6,1.4c0.2,0.3,0.6,0.5,1,0.5c0,0,0.1,0.1,0.1,0.2C189.6,230.9,189.6,231,189.6,231.1 M184.6,226.7l-1.1-4.3
			l-1.2,4.3H184.6z"/>
		<path class="st4" d="M200.8,218.3c0,0.1,0,0.2,0,0.3c0,0.1,0,0.2-0.1,0.2c-0.5,0.1-0.9,0.2-1.1,0.5c-0.2,0.2-0.3,0.6-0.3,1.2v6.2
			c0,1.4-0.3,2.6-0.9,3.7c-0.6,1-1.5,1.6-2.7,1.6c-1.5,0-2.6-0.5-3.4-1.4c-0.8-1-1.2-2.4-1.2-4.4v-5.6c0-0.5-0.1-0.9-0.3-1.2
			c-0.2-0.2-0.5-0.4-1-0.5c0,0,0-0.1-0.1-0.2c0-0.1,0-0.2,0-0.3c0-0.1,0-0.2,0-0.3c0-0.1,0-0.2,0.1-0.2c0.4,0,0.9,0,1.3,0.1
			c0.5,0,0.9,0,1.3,0c0.4,0,0.8,0,1.3,0c0.5,0,0.9-0.1,1.3-0.1c0,0,0,0.1,0.1,0.2c0,0.1,0,0.2,0,0.3c0,0.1,0,0.2,0,0.3
			c0,0.1,0,0.2-0.1,0.2c-0.5,0.1-0.9,0.2-1,0.5c-0.2,0.3-0.2,0.6-0.2,1.2v6.2c0,1.3,0.2,2.3,0.5,2.9c0.3,0.6,0.9,0.9,1.8,0.9
			c0.8,0,1.4-0.4,1.8-1.1c0.4-0.7,0.6-1.7,0.6-3v-6c0-0.5-0.1-0.9-0.3-1.1c-0.2-0.2-0.5-0.4-1-0.5c0,0-0.1-0.1-0.1-0.2
			c0-0.1,0-0.2,0-0.3c0-0.1,0-0.2,0-0.3c0-0.1,0.1-0.1,0.1-0.1c0.3,0,0.6,0,0.9,0.1c0.3,0,0.6,0,0.9,0c0.3,0,0.6,0,0.9,0
			c0.3,0,0.6-0.1,0.9-0.1c0,0,0,0.1,0.1,0.2C200.8,218.2,200.8,218.3,200.8,218.3"/>
		<path class="st4" d="M212.7,231.1c0,0.1,0,0.2,0,0.3c0,0.1-0.1,0.2-0.1,0.2c-0.2,0-0.6,0-1-0.1c-0.4,0-0.7,0-0.8,0
			c-0.2,0-0.5,0-0.9,0c-0.4,0-0.6,0.1-0.8,0.1l-1.7-5c-0.1-0.4-0.3-0.7-0.5-0.8c-0.2-0.2-0.4-0.2-0.8-0.2v3.5c0,0.5,0.1,0.9,0.2,1.2
			c0.1,0.2,0.5,0.4,1,0.5c0,0,0,0.1,0.1,0.2c0,0.1,0,0.2,0,0.3c0,0.1,0,0.2,0,0.3c0,0.1,0,0.2-0.1,0.2c-0.4,0-0.9,0-1.3-0.1
			c-0.4,0-0.8,0-1.2,0c-0.4,0-0.8,0-1.3,0c-0.4,0-0.9,0.1-1.3,0.1c0,0-0.1-0.1-0.1-0.2c0-0.1-0.1-0.2-0.1-0.3c0-0.1,0-0.2,0.1-0.2
			c0-0.1,0.1-0.2,0.1-0.2c0.5-0.1,0.9-0.3,1-0.5c0.2-0.2,0.3-0.6,0.3-1.2v-8.6c0-0.5-0.1-0.9-0.3-1.2c-0.2-0.2-0.5-0.4-1-0.5
			c0,0-0.1-0.1-0.1-0.2c0-0.1-0.1-0.2-0.1-0.3c0-0.1,0-0.2,0.1-0.3c0-0.1,0.1-0.1,0.1-0.1c0.4,0,0.9,0,1.3,0.1c0.5,0,0.9,0,1.3,0
			c0.4,0,0.8,0,1.1,0c0.3,0,0.7-0.1,1.1-0.1c1.5,0,2.5,0.4,3.2,1.1c0.6,0.7,0.9,1.5,0.9,2.5c0,0.9-0.1,1.6-0.4,2.1
			c-0.3,0.6-0.8,1-1.4,1.3l1.8,4.5c0.2,0.5,0.4,0.8,0.6,1c0.2,0.2,0.5,0.3,0.9,0.4c0,0,0,0.1,0.1,0.2
			C212.7,230.9,212.7,231,212.7,231.1 M208.4,221.8c0-1-0.1-1.7-0.4-2.2c-0.3-0.5-0.6-0.7-1.2-0.7c-0.3,0-0.5,0.1-0.6,0.3
			c-0.1,0.2-0.1,0.5-0.1,0.9v4.4c0.1,0,0.1,0,0.2,0c0.1,0,0.2,0,0.3,0c0.6,0,1.1-0.2,1.4-0.6C208.3,223.5,208.4,222.8,208.4,221.8"
			/>
		<path class="st4" d="M223.7,231.1c0,0.1,0,0.2,0,0.3c0,0.1-0.1,0.1-0.1,0.1c-0.4,0-0.9,0-1.3-0.1c-0.4,0-0.8,0-1.2,0
			c-0.4,0-0.8,0-1.3,0c-0.5,0-0.9,0.1-1.4,0.1c0,0,0-0.1-0.1-0.1c0-0.1,0-0.2,0-0.3c0-0.1,0-0.2,0-0.2c0-0.1,0-0.2,0.1-0.2
			c0.4,0,0.7-0.1,0.8-0.2c0.1-0.1,0.2-0.3,0.2-0.6c0-0.1,0-0.2,0-0.4c0-0.2-0.1-0.3-0.1-0.4l-0.4-1.4h-2.8l-0.3,1.1
			c-0.1,0.2-0.1,0.4-0.1,0.5c0,0.2,0,0.3,0,0.4c0,0.3,0,0.5,0.2,0.7c0.1,0.2,0.4,0.2,0.8,0.3c0,0,0.1,0.1,0.1,0.2c0,0.1,0,0.2,0,0.3
			c0,0.1,0,0.2,0,0.3c0,0.1-0.1,0.1-0.1,0.1c-0.4,0-0.7,0-0.9-0.1c-0.2,0-0.5,0-0.9,0c-0.3,0-0.6,0-0.8,0c-0.2,0-0.5,0.1-0.8,0.1
			c0,0-0.1-0.1-0.1-0.2c0-0.1,0-0.2,0-0.3c0-0.1,0-0.2,0.1-0.2c0-0.1,0.1-0.2,0.1-0.2c0.4-0.1,0.7-0.2,0.9-0.5
			c0.2-0.3,0.4-0.8,0.7-1.5l3.3-10.9c0,0,0.1-0.1,0.2-0.1c0.1,0,0.2,0,0.3,0c0.1,0,0.2,0,0.2,0c0.1,0,0.1,0.1,0.2,0.1l3,10.9
			c0.2,0.6,0.4,1.1,0.6,1.4c0.2,0.3,0.6,0.5,1,0.5c0,0,0,0.1,0.1,0.2C223.7,230.9,223.7,231,223.7,231.1 M218.6,226.7l-1.1-4.3
			l-1.2,4.3H218.6z"/>
		<path class="st4" d="M236.3,218.3c0,0.1,0,0.2,0,0.3c0,0.1-0.1,0.2-0.1,0.2c-0.5,0.1-0.9,0.2-1.1,0.5c-0.2,0.3-0.3,0.6-0.3,1.2
			l-0.2,11.2c0,0,0,0.1-0.1,0.1c0,0-0.2,0.1-0.3,0.1c-0.1,0-0.2,0-0.3,0c-0.1,0-0.1-0.1-0.2-0.1l-6.5-9.6l-0.1,7
			c0,0.5,0.1,0.9,0.3,1.2c0.2,0.2,0.6,0.4,1.1,0.5c0,0,0.1,0.1,0.1,0.2c0,0.1,0,0.2,0,0.3c0,0.1,0,0.2,0,0.3c0,0.1,0,0.2-0.1,0.2
			c-0.3,0-0.7,0-0.9-0.1c-0.3,0-0.6,0-0.9,0c-0.3,0-0.6,0-0.9,0c-0.3,0-0.6,0.1-0.8,0.1c0,0-0.1-0.1-0.1-0.2c0-0.1,0-0.2,0-0.3
			c0-0.1,0-0.2,0-0.3c0-0.1,0.1-0.2,0.1-0.2c0.5-0.1,0.9-0.2,1.1-0.5c0.2-0.2,0.3-0.6,0.3-1.2l0.2-8c0-0.7-0.1-1.2-0.3-1.6
			c-0.2-0.4-0.6-0.6-1.2-0.7c0,0-0.1-0.1-0.1-0.2c0-0.1,0-0.2,0-0.3c0-0.1,0-0.2,0-0.3c0-0.1,0.1-0.1,0.1-0.1c0.2,0,0.5,0,0.8,0.1
			c0.3,0,0.5,0,0.7,0c0.2,0,0.4,0,0.6,0c0.2,0,0.4-0.1,0.7-0.1l6,8.9v-6.4c0-0.5-0.1-0.9-0.3-1.1c-0.2-0.2-0.6-0.4-1.1-0.5
			c0,0,0-0.1-0.1-0.1c0-0.1,0-0.2,0-0.3c0-0.1,0-0.2,0-0.3c0-0.1,0.1-0.2,0.1-0.2c0.3,0,0.6,0,0.9,0.1c0.2,0,0.5,0,0.8,0
			c0.3,0,0.6,0,1,0c0.3,0,0.6-0.1,0.9-0.1c0,0,0,0.1,0.1,0.1C236.3,218.1,236.3,218.2,236.3,218.3"/>
		<path class="st4" d="M247.2,222.5c0,0.1,0,0.1-0.1,0.2c-0.1,0.1-0.1,0.1-0.2,0.1c0,0-0.1,0-0.2,0c-0.1,0-0.1,0-0.1-0.1
			c-0.1-0.7-0.4-1.5-0.9-2.4c-0.5-0.8-0.9-1.3-1.3-1.3h-0.2c-0.2,0-0.4,0.1-0.5,0.2c-0.1,0.1-0.1,0.3-0.1,0.6v9.3
			c0,0.5,0.1,0.9,0.3,1.2c0.2,0.2,0.5,0.4,1,0.5c0,0,0.1,0.1,0.1,0.2c0,0.1,0,0.2,0,0.3c0,0.1,0,0.2,0,0.3c0,0.1,0,0.2-0.1,0.2
			c-0.4,0-0.9,0-1.3-0.1c-0.5,0-0.9,0-1.3,0c-0.4,0-0.8,0-1.3,0c-0.4,0-0.9,0.1-1.3,0.1c0,0,0-0.1-0.1-0.2c0-0.1,0-0.2,0-0.3
			c0-0.1,0-0.2,0-0.2c0-0.1,0.1-0.2,0.1-0.2c0.5-0.1,0.9-0.3,1.1-0.5c0.2-0.2,0.3-0.6,0.3-1.2v-9.3c0-0.3,0-0.5-0.1-0.6
			c-0.1-0.1-0.2-0.2-0.5-0.2h-0.1c-0.4,0-0.8,0.4-1.4,1.2c-0.5,0.8-0.9,1.6-1.1,2.5c0,0,0,0.1-0.1,0.1c0,0-0.1,0-0.1,0
			c-0.1,0-0.2,0-0.2-0.1c-0.1-0.1-0.1-0.1-0.1-0.2c0.1-0.6,0.2-1.4,0.3-2.4c0.1-1,0.2-1.7,0.2-2.4c0.3,0.1,0.8,0.2,1.5,0.2
			c0.7,0.1,1.7,0.1,3.1,0.1c1.2,0,2.2,0,3.1-0.1c0.8,0,1.3-0.1,1.6-0.2c0,0.6,0.1,1.4,0.1,2.2C247.1,220.8,247.2,221.7,247.2,222.5"
			/>
	</g>
	<g>
		<defs>
			<path id="SVGID_10_" d="M251.8,222.5c-0.4,0.6-0.6,1.4-0.6,2.2c0,0.9,0.2,1.6,0.6,2.2c0.4,0.6,0.9,0.9,1.5,0.9
				c0.6,0,1.1-0.3,1.5-0.9c0.4-0.6,0.6-1.4,0.6-2.2c0-0.9-0.2-1.6-0.6-2.2c-0.4-0.6-0.9-0.9-1.5-0.9
				C252.7,221.6,252.2,221.9,251.8,222.5"/>
		</defs>
		<clipPath id="SVGID_11_">
			<use xlink:href="#SVGID_10_"  style="overflow:visible;"/>
		</clipPath>
		<polygon class="st5" points="252.6,219.6 248.2,225.8 254,230 258.5,223.7 		"/>
	</g>
	<g>
		<defs>
			<rect id="SVGID_12_" y="-12" width="432" height="288"/>
		</defs>
		<clipPath id="SVGID_13_">
			<use xlink:href="#SVGID_12_"  style="overflow:visible;"/>
		</clipPath>
		<path class="st6" d="M269.9,226.7c-0.1,0.6-0.1,1.3-0.2,2.3c-0.1,0.9-0.1,1.6-0.2,2c-0.4,0-0.9,0.2-1.5,0.4
			c-0.6,0.3-1.2,0.4-1.9,0.4c-0.9,0-1.7-0.2-2.4-0.6c-0.7-0.4-1.3-0.9-1.8-1.6c-0.5-0.7-0.8-1.4-1-2.2c-0.2-0.9-0.3-1.7-0.3-2.6
			c0-1.9,0.5-3.6,1.5-5c1-1.5,2.4-2.2,4.1-2.2c0.8,0,1.4,0.1,1.9,0.3c0.5,0.2,0.9,0.3,1.4,0.3c0,0.6,0,1.3,0.1,2.1
			c0,0.8,0.1,1.5,0.1,2.1c0,0,0,0.1-0.1,0.1c-0.1,0-0.1,0-0.2,0c0,0-0.1,0-0.2,0c-0.1,0-0.1-0.1-0.1-0.1c-0.1-0.9-0.5-1.8-1-2.7
			c-0.6-0.8-1.2-1.2-1.9-1.2c-1.1,0-1.8,0.6-2.2,1.8c-0.4,1.2-0.6,2.7-0.6,4.5c0,1.8,0.2,3.2,0.6,4.4c0.4,1.2,1.1,1.7,2.2,1.7
			c0.8,0,1.5-0.4,2-1.3c0.5-0.8,0.9-1.8,1.2-2.9c0,0,0-0.1,0.1-0.1c0.1,0,0.1,0,0.2,0c0,0,0.1,0,0.2,0
			C269.8,226.6,269.9,226.7,269.9,226.7"/>
		<path class="st6" d="M281.9,231.1c0,0.1,0,0.2,0,0.3c0,0.1,0,0.1-0.1,0.1c-0.4,0-0.9,0-1.3-0.1c-0.4,0-0.8,0-1.2,0
			c-0.4,0-0.9,0-1.3,0c-0.5,0-0.9,0.1-1.4,0.1c0,0,0-0.1-0.1-0.1c0-0.1,0-0.2,0-0.3c0-0.1,0-0.2,0-0.2c0-0.1,0-0.2,0-0.2
			c0.4,0,0.7-0.1,0.9-0.2c0.1-0.1,0.2-0.3,0.2-0.6c0-0.1,0-0.2,0-0.4c0-0.2-0.1-0.3-0.1-0.4l-0.4-1.4h-2.8l-0.3,1.1
			c0,0.2-0.1,0.4-0.1,0.5c0,0.2,0,0.3,0,0.4c0,0.3,0,0.5,0.1,0.7c0.1,0.2,0.4,0.2,0.9,0.3c0,0,0,0.1,0.1,0.2v0.3c0,0.1,0,0.2,0,0.3
			c0,0.1-0.1,0.1-0.1,0.1c-0.4,0-0.7,0-0.9-0.1c-0.2,0-0.5,0-0.8,0c-0.3,0-0.6,0-0.8,0c-0.2,0-0.5,0.1-0.8,0.1c0,0,0-0.1-0.1-0.2
			c0-0.1,0-0.2,0-0.3c0-0.1,0-0.2,0.1-0.2c0-0.1,0.1-0.2,0.1-0.2c0.4-0.1,0.7-0.2,0.9-0.5c0.2-0.3,0.4-0.8,0.7-1.5l3.3-10.9
			c0,0,0-0.1,0.1-0.1c0.1,0,0.2,0,0.3,0c0.1,0,0.2,0,0.2,0c0.1,0,0.1,0.1,0.2,0.1l3,10.9c0.2,0.6,0.4,1.1,0.6,1.4
			c0.2,0.3,0.6,0.5,1,0.5c0,0,0.1,0.1,0.1,0.2C281.9,230.9,281.9,231,281.9,231.1 M276.9,226.7l-1.1-4.3l-1.2,4.3H276.9z"/>
		<path class="st6" d="M291.9,222.5c0,0.1,0,0.1-0.1,0.2c-0.1,0.1-0.1,0.1-0.2,0.1c0,0-0.1,0-0.1,0c-0.1,0-0.1,0-0.1-0.1
			c-0.1-0.7-0.4-1.5-0.9-2.4c-0.5-0.8-0.9-1.3-1.3-1.3h-0.2c-0.2,0-0.4,0.1-0.4,0.2c-0.1,0.1-0.2,0.3-0.2,0.6v9.3
			c0,0.5,0.1,0.9,0.2,1.2c0.2,0.2,0.5,0.4,1,0.5c0,0,0,0.1,0.1,0.2c0,0.1,0,0.2,0,0.3c0,0.1,0,0.2,0,0.3c0,0.1,0,0.2-0.1,0.2
			c-0.4,0-0.9,0-1.3-0.1c-0.4,0-0.9,0-1.3,0c-0.4,0-0.9,0-1.3,0c-0.4,0-0.9,0.1-1.3,0.1c0,0,0-0.1-0.1-0.2c0-0.1,0-0.2,0-0.3
			c0-0.1,0-0.2,0-0.2c0-0.1,0-0.2,0.1-0.2c0.5-0.1,0.9-0.3,1-0.5c0.2-0.2,0.3-0.6,0.3-1.2v-9.3c0-0.3,0-0.5-0.1-0.6
			c-0.1-0.1-0.2-0.2-0.5-0.2h-0.1c-0.4,0-0.8,0.4-1.4,1.2c-0.5,0.8-0.9,1.6-1.1,2.5c0,0,0,0.1-0.1,0.1c-0.1,0-0.1,0-0.1,0
			c-0.1,0-0.2,0-0.2-0.1c-0.1-0.1-0.1-0.1-0.1-0.2c0.1-0.6,0.2-1.4,0.3-2.4c0.1-1,0.2-1.7,0.2-2.4c0.3,0.1,0.8,0.2,1.5,0.2
			c0.7,0.1,1.7,0.1,3.1,0.1c1.2,0,2.2,0,3.1-0.1c0.8,0,1.3-0.1,1.6-0.2c0,0.6,0.1,1.4,0.1,2.2C291.8,220.8,291.8,221.7,291.9,222.5"
			/>
		<path class="st6" d="M302.3,226.9c-0.1,0.7-0.1,1.5-0.2,2.3c-0.1,0.8-0.1,1.6-0.1,2.3c-0.6,0-1.3-0.1-2.1-0.1c-0.9,0-1.5,0-2.1,0
			c-0.5,0-1.3,0-2.2,0c-1,0-1.7,0-2.1,0.1c0,0-0.1-0.1-0.1-0.2c0-0.1,0-0.2,0-0.3c0-0.1,0-0.2,0-0.2c0-0.1,0.1-0.2,0.1-0.2
			c0.5-0.1,0.9-0.3,1-0.5c0.2-0.2,0.3-0.6,0.3-1.2v-8.6c0-0.5-0.1-0.9-0.3-1.2c-0.2-0.2-0.5-0.4-1-0.5c0,0-0.1-0.1-0.1-0.2
			c0-0.1,0-0.2,0-0.3c0-0.1,0-0.2,0-0.3c0-0.1,0.1-0.2,0.1-0.2c0.5,0,1.1,0,2,0.1c0.9,0,1.6,0,2.2,0c0.5,0,1.1,0,2,0
			c0.9,0,1.6,0,2.1-0.1c0,0.5,0,1.2,0,2.1c0,0.8,0,1.6,0.1,2.3c0,0.1,0,0.1-0.1,0.2c-0.1,0.1-0.1,0.1-0.3,0.1c-0.1,0-0.1,0-0.1-0.1
			c-0.1,0-0.1,0-0.1-0.1c-0.1-0.8-0.3-1.6-0.7-2.3c-0.4-0.7-1-1.1-1.7-1.1h-0.8c-0.2,0-0.4,0.1-0.5,0.2c-0.2,0.1-0.2,0.4-0.2,0.9v4
			h0.5c0.5,0,0.8-0.2,1.1-0.6c0.3-0.4,0.4-0.9,0.5-1.5c0,0,0-0.1,0.1-0.1c0.1,0,0.1,0,0.2,0c0.1,0,0.1,0,0.2,0
			c0.1,0,0.1,0.1,0.1,0.1c0,0.5,0,0.9,0,1.4c0,0.4,0,0.9,0,1.3c0,0.5,0,0.9,0,1.3c0,0.4,0,0.8,0,1.3c0,0,0,0.1-0.1,0.1
			c-0.1,0-0.2,0.1-0.2,0.1c0,0-0.1,0-0.2-0.1c-0.1,0-0.1-0.1-0.1-0.1c-0.1-0.7-0.2-1.2-0.5-1.6c-0.2-0.4-0.6-0.6-1.1-0.6h-0.5v4.2
			c0,0.5,0.1,0.8,0.2,0.9c0.2,0.1,0.4,0.2,0.5,0.2h0.7c0.7,0,1.3-0.4,1.8-1.1c0.5-0.7,0.9-1.6,1-2.7c0,0,0-0.1,0-0.1
			c0,0,0.1,0,0.1,0c0.1,0,0.2,0,0.3,0.1C302.2,226.8,302.3,226.9,302.3,226.9"/>
		<path class="st6" d="M314.9,231.1c0,0.1,0,0.2-0.1,0.3c0,0.1-0.1,0.2-0.1,0.2c-0.2,0-0.6,0-1-0.1c-0.4,0-0.7,0-0.9,0
			c-0.2,0-0.5,0-0.8,0c-0.4,0-0.7,0.1-0.9,0.1l-1.7-5c-0.1-0.4-0.3-0.7-0.5-0.8c-0.2-0.2-0.5-0.2-0.8-0.2v3.5c0,0.5,0.1,0.9,0.2,1.2
			c0.1,0.2,0.5,0.4,1,0.5c0,0,0.1,0.1,0.1,0.2c0,0.1,0,0.2,0,0.3c0,0.1,0,0.2,0,0.3c0,0.1,0,0.2-0.1,0.2c-0.4,0-0.9,0-1.3-0.1
			c-0.4,0-0.8,0-1.2,0c-0.4,0-0.8,0-1.3,0c-0.4,0-0.9,0.1-1.3,0.1c0,0,0-0.1-0.1-0.2c0-0.1,0-0.2,0-0.3c0-0.1,0-0.2,0-0.2
			c0-0.1,0-0.2,0.1-0.2c0.5-0.1,0.9-0.3,1-0.5c0.2-0.2,0.3-0.6,0.3-1.2v-8.6c0-0.5-0.1-0.9-0.3-1.2c-0.2-0.2-0.5-0.4-1-0.5
			c0,0,0-0.1-0.1-0.2c0-0.1,0-0.2,0-0.3c0-0.1,0-0.2,0-0.3c0-0.1,0-0.1,0.1-0.1c0.5,0,0.9,0,1.4,0.1c0.5,0,0.9,0,1.3,0
			c0.4,0,0.8,0,1.1,0c0.3,0,0.7-0.1,1.1-0.1c1.5,0,2.5,0.4,3.2,1.1c0.6,0.7,1,1.5,1,2.5c0,0.9-0.1,1.6-0.4,2.1
			c-0.3,0.6-0.8,1-1.4,1.3l1.9,4.5c0.2,0.5,0.4,0.8,0.6,1c0.2,0.2,0.5,0.3,0.9,0.4c0,0,0,0.1,0.1,0.2
			C314.9,230.9,314.9,231,314.9,231.1 M310.6,221.8c0-1-0.1-1.7-0.4-2.2c-0.3-0.5-0.6-0.7-1.2-0.7c-0.3,0-0.5,0.1-0.6,0.3
			c-0.1,0.2-0.2,0.5-0.2,0.9v4.4c0,0,0.1,0,0.3,0c0.1,0,0.2,0,0.3,0c0.6,0,1.1-0.2,1.4-0.6C310.4,223.5,310.6,222.8,310.6,221.8"/>
		<path class="st6" d="M321.3,231.1c0,0.1,0,0.2,0,0.3c0,0.1,0,0.2-0.1,0.2c-0.5,0-0.9,0-1.3-0.1c-0.4,0-0.9,0-1.3,0
			c-0.4,0-0.8,0-1.3,0c-0.4,0-0.9,0.1-1.3,0.1c0,0-0.1-0.1-0.1-0.2c0-0.1,0-0.2,0-0.3c0-0.1,0-0.2,0-0.2c0-0.1,0-0.2,0.1-0.2
			c0.5-0.1,0.9-0.3,1.1-0.5c0.2-0.2,0.2-0.6,0.2-1.2v-8.6c0-0.5-0.1-0.9-0.2-1.2c-0.2-0.2-0.5-0.4-1.1-0.5c0,0-0.1-0.1-0.1-0.2
			c0-0.1,0-0.2,0-0.3c0-0.1,0-0.2,0-0.3c0-0.1,0-0.2,0.1-0.2c0.5,0,0.9,0,1.3,0.1c0.5,0,0.9,0,1.3,0c0.4,0,0.8,0,1.3,0
			c0.4,0,0.9-0.1,1.3-0.1c0,0,0,0.1,0.1,0.1c0,0.1,0,0.2,0,0.3c0,0.1,0,0.2,0,0.3c0,0.1,0,0.2-0.1,0.2c-0.5,0.1-0.9,0.2-1,0.5
			c-0.2,0.3-0.3,0.6-0.3,1.2v8.6c0,0.5,0.1,0.9,0.3,1.2c0.2,0.2,0.5,0.4,1,0.5c0,0,0,0.1,0.1,0.2C321.2,230.9,321.3,231,321.3,231.1
			"/>
		<path class="st6" d="M334.4,218.3c0,0.1,0,0.2,0,0.3c0,0.1-0.1,0.2-0.1,0.2c-0.5,0.1-0.8,0.2-1,0.5c-0.2,0.3-0.3,0.6-0.3,1.2
			l-0.2,11.2c0,0,0,0.1-0.1,0.1c-0.1,0-0.2,0.1-0.3,0.1c-0.1,0-0.2,0-0.2,0c-0.1,0-0.1-0.1-0.2-0.1l-6.5-9.6l-0.1,7
			c0,0.5,0.1,0.9,0.3,1.2c0.2,0.2,0.6,0.4,1.1,0.5c0,0,0,0.1,0.1,0.2c0,0.1,0,0.2,0,0.3c0,0.1,0,0.2,0,0.3c0,0.1,0,0.2-0.1,0.2
			c-0.4,0-0.7,0-0.9-0.1c-0.3,0-0.6,0-0.9,0c-0.3,0-0.6,0-0.9,0c-0.3,0-0.6,0.1-0.9,0.1c0,0,0-0.1-0.1-0.2c0-0.1,0-0.2,0-0.3
			c0-0.1,0-0.2,0-0.3c0-0.1,0.1-0.2,0.1-0.2c0.5-0.1,0.9-0.2,1.1-0.5c0.2-0.2,0.3-0.6,0.3-1.2l0.2-8c0-0.7-0.1-1.2-0.3-1.6
			c-0.2-0.4-0.6-0.6-1.2-0.7c0,0-0.1-0.1-0.1-0.2c0-0.1,0-0.2,0-0.3c0-0.1,0-0.2,0-0.3c0-0.1,0-0.1,0.1-0.1c0.2,0,0.5,0,0.8,0.1
			c0.3,0,0.5,0,0.7,0c0.2,0,0.4,0,0.6,0c0.2,0,0.4-0.1,0.7-0.1l6,8.9v-6.4c0-0.5-0.1-0.9-0.3-1.1c-0.2-0.2-0.6-0.4-1.1-0.5
			c0,0,0-0.1-0.1-0.1c0-0.1,0-0.2,0-0.3c0-0.1,0-0.2,0-0.3c0-0.1,0-0.2,0.1-0.2c0.4,0,0.7,0,0.9,0.1c0.2,0,0.5,0,0.8,0
			c0.4,0,0.7,0,1,0c0.3,0,0.6-0.1,0.9-0.1c0,0,0.1,0.1,0.1,0.1C334.4,218.1,334.4,218.2,334.4,218.3"/>
		<path class="st6" d="M346.1,225.5c0,0.1,0,0.2,0,0.3c0,0.1,0,0.2-0.1,0.2c-0.4,0.1-0.7,0.2-0.9,0.5c-0.1,0.3-0.2,0.7-0.2,1.2v2
			c0,0.3,0,0.6,0,0.7c0,0.1,0.1,0.3,0.1,0.4c-0.5,0.3-1.2,0.5-1.9,0.8c-0.7,0.2-1.4,0.3-2.2,0.3c-0.9,0-1.6-0.2-2.3-0.6
			c-0.7-0.4-1.2-0.9-1.7-1.6c-0.4-0.6-0.8-1.4-1-2.2c-0.2-0.8-0.4-1.7-0.4-2.6c0-1,0.1-1.9,0.4-2.7c0.3-0.8,0.6-1.6,1.1-2.3
			c0.5-0.7,1.1-1.2,1.8-1.6c0.8-0.4,1.6-0.6,2.5-0.6c0.5,0,1.1,0.1,1.6,0.3c0.6,0.2,1,0.3,1.5,0.3c0,0.5,0,1.2,0,2.1
			c0,0.8,0,1.6,0,2.1c0,0,0,0.1-0.1,0.1c-0.1,0-0.1,0-0.2,0c-0.1,0-0.1,0-0.2,0c0,0-0.1-0.1-0.1-0.1c-0.2-1.1-0.6-2-1.1-2.8
			c-0.5-0.8-1.1-1.1-1.9-1.1c-0.8,0-1.4,0.6-1.9,1.7c-0.5,1.2-0.7,2.7-0.7,4.5c0,1.8,0.2,3.2,0.7,4.4c0.4,1.2,1.1,1.7,1.9,1.7
			c0.6,0,0.9-0.1,1.1-0.3c0.2-0.2,0.3-0.5,0.3-0.9v-2.3c0-0.4-0.1-0.8-0.3-0.9c-0.2-0.2-0.5-0.3-1.1-0.4c0,0-0.1-0.1-0.1-0.1
			c0-0.1,0-0.2,0-0.3c0-0.1,0-0.2,0-0.3c0-0.1,0.1-0.2,0.1-0.2c0.4,0,0.8,0,1.1,0.1c0.4,0,0.7,0.1,1.1,0.1c0.4,0,0.9,0,1.3-0.1
			c0.5,0,0.9-0.1,1.4-0.1c0,0,0,0.1,0.1,0.2C346.1,225.3,346.1,225.4,346.1,225.5"/>
	</g>
	<g>
		<defs>
			<path id="SVGID_14_" d="M219.4,188.4c-2.9-5.8-2.6-14.8,1.8-19.5c1.8-1.3,4.7-1.1,6.8-0.2c1,0.7,1.9,1.4,2.5,2.4
				c3.1,5.8,2.9,14.8-1.5,19.5c-1.1,1-2.4,1.4-3.8,1.5C222.7,191.9,220.6,190.3,219.4,188.4 M218.2,162.5c-2-0.3-0.1-2.7-2-3.4
				c-2-0.8-4.1-0.1-5.8,0.3c-3,1.2-7.6-0.1-9.6,2.8c1,0.9,1.8,2,2.6,3.1c0.2,0.3,0.4,0.7,0.6,1c0,0,0.1,0.1,0.1,0.1
				c0,0.1,0,0.1,0.1,0.2c0.5,0.9,0.9,1.9,1.3,2.9c0.2,0.4,0.4,0.8,0.6,1.3l0.1,0.2c0.2,0.6,0.4,1.2,0.6,1.9c0.2,0.7,0.3,1.4,0.4,2
				c0.2,0.8,0.2,1.7,0.3,2.5c0,0.8,0.1,1.7,0.1,2.5l0,0.2c-0.3,3-1.1,6.2-2.4,9c0.1,4.9-0.2,9.7-0.5,14.4c-0.6,2.3-4.5,2-3.9,5.1
				c1.2,2.3,4.3,1.9,6.4,2.4c0.9,0,1.9,0,2.8,0c4.2,0.1,8.6,0.1,12-1.4c0.8-0.5,0.9-1.8,0.5-2.7c-4.3-1.9-5.3-5.9-5.2-10.2
				c0.2-0.3,0.2-1,0.9-1c4.6,3.7,11.4,4.6,16.9,2.7c6.5-2.5,11.5-9.1,11.8-15.8c0.2-2,0.1-4-0.1-6c-1.3-6.6-2.8-8.9-3.3-10
				c0-0.1,0-0.1-0.1-0.2c-2.1-4.1-6.5-8.1-11.8-8.6c-0.6-0.1-1.2-0.1-1.8-0.1C225.1,157.7,221.1,159.4,218.2,162.5 M258.1,157.8
				c-6.1,0.9-10.1,4.7-11.6,10.3c-0.1,0.5-0.1,1-0.2,1.6c0.6,1.5,1.2,3.7,1.8,6.6l0,0.1c0,0.4,0.1,0.9,0.1,1.3
				c0.8,1.3,1.9,2.5,3,3.4c4.9,4,11.7,1.4,16,6.1c0.8,1.6,0.6,3.4-0.4,4.7c-3.1,2.8-7.6,1.2-10.8-0.8c-3.5-1.7-3.2-4.4-6.7-6.1
				c-0.5-0.1-0.9,0-1.4,0.2c-0.5,2.1-1.3,4.1-2.4,5.9c-0.3,2.4,0.2,4.7,1.8,7.2c1.1,0.8,2.1,0.4,3.2,0c0.7-0.3,1.5-0.6,2.3-0.4
				c7.4,2.7,15.7,3.8,22.2-1.4c3.6-3.7,6-9.9,3.6-14.9c-2.9-9.2-14.2-7.2-20.8-11.6c-0.5-0.7-1-1.8-0.9-2.7c0.2-2,1.6-3.1,3.2-3.7
				c4.1-0.8,12.9,3,14.9,7c3.3,5.9,6.6,11.3,11.9,21.8c0.8,2.3,2.2,4.5,2.2,7.2c-1.9,3.8-5.4,6.5-8.1,9.7c-0.6,1.4,0.6,2.4,2,3
				c3.4,0.2,7.9,1.5,10.7-1.2c6.7-12.9,12.4-26.2,18-39.4c0.1-0.1,0.1-0.2,0.1-0.2c0.1-0.4,0.3-1,0.7-1.8c0.2-0.4,0.4-0.8,0.7-1.1
				c0.1-0.1,0.2-0.2,0.3-0.4c2-2.4,3.3-5.7,3.7-6.8c0.2-0.5,0-1.2-0.2-1.7c-0.3,0.1-0.7,0.2-1.1,0.2c-0.4,0-0.8-0.1-1.2-0.2
				c-0.5-0.2-0.9-0.6-1.1-1.2c-0.1-0.2-0.2-0.4-0.2-0.6c-4.1,0.4-8.3-0.1-12.1,0.8c-4.1,3.8,2.2,5.8,2,9.1
				c-1.2,5.5-3.1,10.9-6.3,15.9c-0.6,0.4-2.8-0.4-3.4-1.1c-2.7-4.6-4.1-9.7-5.7-15.1c-1.1-3.6,3.7-3.3,4.8-5.7
				c-0.1-0.7,0-1.1-0.3-1.8c-1.3-1.4-3.1-1.2-4.9-1c-0.9,0.1-1.8,0.2-2.5,0.1c-4.7,0.6-9.8,0.1-14.6-0.5c-3.3-0.4-6.6-0.8-9.6-0.8
				C259.9,157.7,259,157.7,258.1,157.8 M323.4,157.8c-1.8,0.3-3.4,0.8-4.8,1.5c0.2,0.8,0.4,1.8,0.1,2.6c-0.2,0.7-0.9,2.3-1.8,4
				c-0.6,1.1-1.3,2.2-2.1,3.2l0,0c0,0,0,0-0.1,0.1c0,0.1-0.1,0.1-0.1,0.2l-0.2,0.3c-0.1,0-0.1,0.1-0.2,0.2c-0.1,0.1-0.1,0.2-0.2,0.3
				l-0.1,0.1c-0.2,0.3-0.3,0.5-0.4,0.7h0c-0.1,0.2-0.2,0.4-0.2,0.6l-0.1,0.4c0,0.1,0,0.1,0,0c0,0,0,0,0,0c0,0.1-0.1,0.1-0.1,0.2
				c-0.4,0.8-0.7,1.5-1,2.3c0.8,2.5,2.4,4.9,4.4,6.5c4.9,4,11.7,1.4,16,6.1c0.8,1.6,0.6,3.4-0.4,4.7c-3.1,2.8-7.5,1.2-10.8-0.8
				c-3.5-1.7-3.2-4.4-6.7-6.1c-0.7-0.1-1.6,0.1-2.1,0.7c-2,4.7-2.6,8.3,0.2,12.6c1.1,0.8,2.1,0.4,3.1,0c0.7-0.3,1.5-0.6,2.3-0.4
				c7.4,2.7,15.7,3.8,22.2-1.4c3.6-3.7,6-9.9,3.7-14.9c-2.9-9.2-14.2-7.2-20.8-11.6c-0.5-0.7-1-1.8-0.9-2.7c0.2-2,1.7-3.1,3.2-3.7
				c4.1-0.8,11.9,2.7,13.8,6.6c1.2,1.2,2.3,3.1,4.2,2.2c1.7-0.9,1.8-3.1,1.6-4.7c-0.8-3.5,0.2-8.4-3.9-10c-3.3,0.5-8.8,0.1-12.1-0.1
				L323.4,157.8z M180.8,192.9c-5.3-2.8-4.7-9.7-5.2-14.6c0.5-4.7,0.6-10.6,5.6-13.2c2.5-1,4.8-0.4,6.7,1.3c4,5,4,12.5,3.3,18.4
				c-0.6,3.2-1.9,7.2-5.1,8.3c-1,0.2-2.1,0.5-3.1,0.5C182.2,193.6,181.4,193.4,180.8,192.9 M183,157.4c-9.3,0.2-16.7,5.9-20.3,14
				c-0.4,1.5-1.3,3.1-1.6,6.1c-0.8,8.7,3.2,16.7,11.1,20.5c7.3,3.6,17.1,4,24.1-1.4c6.1-3.4,8.9-10.3,9.6-16.8
				c0-1.6-0.1-3.4-0.3-4.8c-0.2-1.2-0.6-2.6-1-3.8c-0.8-1.8-1.4-3.6-2.5-5.2c-3.7-5.7-11.3-8.7-17.9-8.7
				C183.8,157.4,183.4,157.4,183,157.4 M97.6,148.4c-4.8,1.6-9.3,5.5-10.3,9.8c-1.2,5.2,0.3,10.6,5,14.3c5.5,4.8,13.6,5,18.3,10.9
				c0.6,1.3,0.8,2.9,0.4,4.4c-0.4,2-2.5,3.3-4.3,4c-5,0.6-9.4-2.6-12.7-6.6c-3-2.6-2.8-7.2-7-8.4c-0.9,0.1-1.9,0.1-2.4,0.9
				c-2.1,4.1,0.1,14,1.9,18.6c1.2,2.3,2.8,2,4.4,1.6c1.2-0.3,2.4-0.5,3.6,0.1c3.4,1.1,9.1,1.5,14.2,1.2c5.8-0.2,12.4-4.3,14.4-10
				c0.2-0.9,0.8-2.3,1.1-3.2c1-3.9,0.1-6.8-0.2-7.8c-1.1-3.8-5.5-8-9.2-9.6c-4-1.9-8.2-3.1-12-5.2c-1.3-1.3-1.9-2.8-1.7-4.2
				c0-2.2,2.3-3.7,4.2-4.6c3.8-1,7.6-0.7,11.1,1c2.2,1.2,4.7,3.5,5.7,5.2c2.1,3.1,2.7,8,2.7,8v16.9c0.1,0.9,0.1,1.9,0,2.8v0
				c-0.1,1.1-0.2,2.3-0.4,3.5c-0.3,2.4-3.8,2.8-4.1,5.1c0,0.8,0.5,1.4,1.3,1.8c5.9,0.9,11.6,0.9,17.3,0.2c1.2-0.4,2.2-1.3,2.1-2.7
				c-0.1-1.3-1.6-1.1-2.3-1.9c-0.7-0.4-0.7-1-1.4-1.4c-2.1-4.1-1-8.7-1.4-13.1c0.1-4.3,0.2-9.6,5.5-11.8c1.4-0.4,2.6-0.3,4,0.2
				c1.1,0.5,2.7,2.7,3,3.8c0,6.8,0.6,13.6-0.7,20.5c-0.7,1.7-3.3,2.2-3.4,4.1c0.9,3.1,4.6,2.1,6.9,2.4c1.6-0.2,3.3-0.1,4.9-0.1
				c2.9,0.1,5.9,0.3,8.6-1c0.9-1.2,1-2,0.7-2.7c-0.4-0.4-0.8-0.9-1.2-1.3c-1.5-1.1-3.7-2-3.7-4.2c-0.1-0.6-0.1-1.5-0.1-2.5
				c-1.1-3.1-1.5-6.4-1.2-9.9c0.2-2.4,0.8-4,1.3-5.3c0,0,0-0.1,0-0.1c0-1.5,0.1-2.5,0.1-2.5s0-0.8,0-1.2l-0.2-1.8
				c-0.3-2.7-0.4-3.7-2.3-5.9c-1.9-2.1-6.9-4.1-9.9-3.8c-4.2,0.3-7.8,2.5-10.7,5.3c-0.6,0.1-0.6-0.4-0.8-0.6
				c-0.3-4.2,0.1-8.1,0-12.3c-0.6-0.9-1.6-1.7-3.2-1.5c-8.1,2.6-18,0.9-25.8-0.7c-0.8-0.1-1.7-0.2-2.5-0.2
				C102.6,146.9,100,147.6,97.6,148.4 M314.1,143.1c-1.9,1-2.8,3.4-3.3,5.4c-0.4,2.8,2.8,3,4.6,4c1,1.6,0.2,3.3-0.2,4.9
				c0,1.1,1.2,0.9,1.9,0.6c2.9-3.1,4.9-7.3,4.9-11.3c-0.8-2.6-3.7-3.7-6.3-3.7C315.1,143,314.6,143,314.1,143.1"/>
		</defs>
		<clipPath id="SVGID_15_">
			<use xlink:href="#SVGID_14_"  style="overflow:visible;"/>
		</clipPath>
		<polygon class="st7" points="325.6,127.9 93,127.7 48.9,189.9 117.5,238.5 329.5,237.4 379.9,166.4 		"/>
	</g>
	<g>
		<defs>
			<rect id="SVGID_16_" y="-12" width="432" height="288"/>
		</defs>
		<clipPath id="SVGID_17_">
			<use xlink:href="#SVGID_16_"  style="overflow:visible;"/>
		</clipPath>
		<path class="st8" d="M116.4,153.1c1,0.6,3.1,1.2,4.1,2c-4.6-2.7-11.6-3.8-16.6-1.8c-2.2,1.1-3.8,2.9-4.5,4.9
			c-0.4,1.9,0.1,3.7,1.3,5.3c-1.5-1.4-2.6-3.3-2.3-5.2c0.2-2.6,2.4-4.9,5.2-6.2C107.7,150.6,112.7,151.3,116.4,153.1"/>
		<path class="st8" d="M112,182.4c0,0.5,0.3,1,0.3,1.5c-3.4-5.9-10.2-6.9-15.6-10c-2-0.9-3.8-2.3-5.3-3.9
			C97.7,175.4,107.2,175.1,112,182.4"/>
		<path class="st8" d="M135.2,149.1l0.5,0.8c0.2,4.3-0.7,8.3,0.4,12.3l0.5,0.4c-0.2,0.4-0.6,0.7-0.9,1c-0.7,0.1-0.6-0.6-0.9-1
			c-0.6-4.4,0.1-9.3-0.3-13.7"/>
		<path class="st8" d="M95.2,195.7c6.9,3.8,13.9,2.8,20.4-1.4c5.2-4,8.3-9.6,6.3-15.8c-0.3-0.9-0.9-1.8-1.6-2.8
			c1.1,0.4,1.6,1.7,2.1,2.5c2.8,5.5-0.3,11.4-4.3,15.5c-4.6,4.6-12.8,5.9-19.2,3.8c-3.5-1.1-4.3-2.2-7.9-1.3
			c-0.9,0.1-1.8,0.1-2.6-0.5C90.8,195.6,92.6,194.4,95.2,195.7"/>
		<path class="st8" d="M147,166.2c0.7,0.8,1.7,1.7,1.7,2.7c-1.2-1.8-3.5-2.6-5.8-2.5c-2.7,0.4-5.9,2.5-6.8,4.8
			c-2.2,5.8-1.3,12.4-1.1,18.7c0.1,1.4,0.7,3,1.8,4.1c-1.3-0.3-2.2-1.4-2.7-2.6c-1-6-1.3-12.2-0.2-18.4c0.7-3.2,3.3-6.1,6.9-7.4
			C143,165.4,145.3,165.1,147,166.2"/>
		<path class="st8" d="M139.6,196.5c-0.5,1.8-3,1.3-4.4,1.6c-4,0.1-8.8,0.3-12.9-0.5l-0.2-0.6C127.7,197.2,134,197.9,139.6,196.5"/>
		<path class="st8" d="M164.6,196.3c0,0.7-0.7,1.3-1.4,1.4c-5.4,0.5-11.4,0.5-16.9-0.2l-0.5-0.7
			C152.1,197.1,158.4,197.3,164.6,196.3"/>
		<path class="st8" d="M216.5,164.2c-0.1,0.3-0.4,0.3-0.8,0.3c-1.1-1.3-0.3-3.1-1-4.7C216.8,160.3,215.6,162.9,216.5,164.2"/>
		<path class="st8" d="M245.2,183.4c-0.4,5.8-4.7,12.1-10.9,14.1c-2.8,0.9-6.5,1.2-9.4,0.5c-0.4-0.3-1.2-0.4-1.7-0.6
			c-2.1-0.9-3.8-1.9-5.5-3.2c0.2-0.5-0.5-0.2-0.8-0.5c-0.7,0.2-0.6,1-0.7,1.6c-0.1,3.1,0,6.8,1.5,9.5c-3.1-1.6-2.1-6-2.5-9
			c0.2-1.1,0.1-2.2,0.8-3.2c1.7-0.2,2.6,1.9,4,2.6c3.7,2.9,10.3,3.2,14.7,1.2c6.9-2.9,10.1-10.6,9.5-17.7c-0.6-5.5-1.1-10.7-5.1-15
			C244.9,168.9,245.5,176,245.2,183.4"/>
		<path class="st8" d="M230.9,168.9c-2-1.6-4.5-3.4-7.6-2.8c-4.9,0.9-6.1,5.4-7.1,9.2c-0.3,4.8-0.9,10.5,2.1,14.4
			c-3.2-3-3.4-7.6-3.4-12.2c0.5-5.1,1.6-11.3,7.6-12.4C225.7,164.4,229.6,166,230.9,168.9"/>
		<path class="st8" d="M218.6,208.5c0.8-0.5,2.1-0.2,2.8-1.1c0.2,0.5-0.3,1.1-0.9,1.4c-5.8,1-12.7,1.5-18.1-0.3l-0.2-0.6
			C207.5,209.3,212.9,209.1,218.6,208.5"/>
		<path class="st8" d="M310.6,169.4c-5.7,13.5-11.3,27.3-17.8,40.6c-2.4,2.2-6.2,1.7-9,0.8l0-0.7c2.4,0.4,5.4,1,7.7-0.4
			c2.9-4.7,4.7-9.5,6.8-14.3c4.3-9.2,7.9-18.5,12.4-27.5c0.4-0.6,1.1-0.9,1.7-1.4"/>
		<path class="st8" d="M286.5,165.5c0.9,6.9,3.6,12.8,6.6,18.8l1.1,0.5c-0.4,0.2-0.6,0.4-1,0.4c-2.1-0.6-2-2.7-3.2-4.2
			c-1.9-4.7-3.5-8.7-4.7-14c-0.2-1.4,0.4-2.8,1.5-3.9c1.2-1.1,3.2-1.1,4.3-2.6C290.9,163.3,286.7,162.6,286.5,165.5"/>
		<path class="st8" d="M271.7,165.2c-2.6-2.3-7.6-4.2-11.3-3.3c-2.3,0.7-4.3,2.3-4.8,4.9c-0.1,1.6,0.2,3,1.3,4.2
			c-1.1-0.3-2.4-2-2.5-3.6c0-2.3,1.6-4.3,3.4-5.5c3.8-2,8.3-0.9,12,1.6C270.4,163.8,271,164.6,271.7,165.2"/>
		<path class="st8" d="M277.6,189.6c-1.4,4.9-5.6,8.2-10,9.1c-4.8,0.5-9.7-0.6-14.5-2.2c-1.8-0.1-3.9,1.6-5.3-0.2
			c2.4,0.5,4.1-1.2,6.4-0.5c6.3,2.3,13.6,3.8,18.9-0.8c3.2-2.8,4.9-7.9,4-12.1c-0.4-1.8-1.2-3.2-2.3-4.8
			C277.9,180.7,278.9,185.5,277.6,189.6"/>
		<path class="st8" d="M268.4,186.2c-3.2-3.9-8.6-3.1-12.9-4.7c-1.7-0.6-3.6-1.7-4.8-3.2c4.6,3.7,11.6,2.2,16.7,6
			C267.6,185,268.4,185.5,268.4,186.2"/>
		<path class="st8" d="M337,165.2c-2.6-2.3-7.6-4.2-11.3-3.3c-2.3,0.7-4.3,2.3-4.8,4.9c0,1.6,0.2,3,1.3,4.2c-1.1-0.3-2.4-2-2.5-3.6
			c0-2.3,1.5-4.3,3.4-5.5c3.8-2,8.3-0.9,12,1.6C335.7,163.8,336.3,164.6,337,165.2"/>
		<path class="st8" d="M342.9,189.6c-1.3,4.9-5.6,8.2-10,9.1c-4.8,0.5-9.7-0.6-14.5-2.2c-1.8-0.1-3.9,1.6-5.3-0.2
			c2.4,0.5,4.1-1.2,6.4-0.5c6.3,2.3,13.6,3.8,18.9-0.8c3.2-2.8,4.9-7.9,4-12.1c-0.5-1.8-1.2-3.2-2.3-4.8
			C343.2,180.7,344.1,185.5,342.9,189.6"/>
		<path class="st8" d="M333.6,186.2c-3.2-3.9-8.6-3.1-12.9-4.7c-1.7-0.6-3.6-1.7-4.8-3.2c4.6,3.7,11.6,2.2,16.7,6
			C332.9,185,333.7,185.5,333.6,186.2"/>
		<path class="st8" d="M344.1,170c-0.2,0.6-0.5,1.5-1.2,1.4l-0.6-0.2c1.1-0.7,1.2-2.1,1.1-3.5c0-2.8-1-5.5-1.6-8.2
			c0.7,0,0.9,0.9,1.2,1.5C343.9,163.9,344,166.8,344.1,170"/>
		<path class="st8" d="M316.1,161.1c-0.1,0.2-0.2,0.5-0.5,0.5c0-1-0.5-2-1-2.9C315.8,158.8,316.3,160.1,316.1,161.1"/>
		<path class="st8" d="M190.1,165.4l0.7,1.6c-1.1-2-4.2-4-6.9-4.1c-2.6-0.1-4.6,1.4-6.2,2.9c-4.6,6.7-4.3,15.2-2.2,23.2
			c0.7,1.6,1.5,3,2.8,4.2c-6.4-3.6-5.5-12.6-5.2-18.6c0.6-4.9,2.8-11.2,8.6-12.7C184.7,161.3,188.4,162.5,190.1,165.4"/>
		<path class="st8" d="M204.6,180.5c-0.8,8.4-6.8,15.5-14.9,17.9c-5.1,1.4-10.7,1.2-15.4-1c7.8,2.5,18.4,1.1,23.8-5.6
			c5.4-6,6.8-14.6,3.6-22.3c-1.4-2.8-3.5-5.2-5.6-7.5C201.7,165.8,205.4,173.5,204.6,180.5"/>
		<path class="st8" d="M159.6,171.2c0.3,7.1-1.4,14.5,0.8,21.4c-3.5-2.9-2.1-7.6-2.2-11.5c-0.2-6.7,1.1-13.2-1.2-19.6
			C159.9,164,159.4,167.9,159.6,171.2"/>
		<path class="st8" d="M318.9,152.9l-1.5,3c0.4-3.2,3.3-6.6,1.6-10C321.3,147.7,319.5,150.6,318.9,152.9"/>
		<path class="st8" d="M316.2,151.6c-1-1-3.2-0.6-3.7-2.3l0.1-0.2C313.6,150.4,315.7,149.8,316.2,151.6"/>
		<path class="st8" d="M324.7,151.5c0-1.8,1.4-3.2,3.3-3.3c1.8,0,3.3,1.4,3.3,3.2c0,1.8-1.4,3.3-3.2,3.3
			C326.2,154.7,324.7,153.3,324.7,151.5 M330.9,151.4c0-1.6-1.3-2.8-2.9-2.8c-1.6,0-2.9,1.3-2.9,2.9c0,1.6,1.4,2.8,3,2.8
			C329.6,154.2,330.9,153,330.9,151.4 M329.6,153.2l-0.5,0l-1.1-1.7l-0.8,0l0,1.7l-0.5,0l-0.1-3.6l1.6,0c0.3,0,0.6,0,0.9,0.2
			c0.3,0.2,0.4,0.5,0.4,0.8c0,0.7-0.5,1-1.1,1L329.6,153.2z M327.9,151.2c0.5,0,1.3,0.1,1.3-0.7c0-0.6-0.5-0.6-0.9-0.6l-1.1,0l0,1.3
			L327.9,151.2z"/>
	</g>
	<rect x="195.3" y="78" width="45.3" height="34.3"/>
	<g>
		<defs>
			<rect id="SVGID_18_" y="-12" width="432" height="288"/>
		</defs>
		<clipPath id="SVGID_19_">
			<use xlink:href="#SVGID_18_"  style="overflow:visible;"/>
		</clipPath>
		<path class="st9" d="M175.9,56.6c-5.1,6,3.7,17.6-4.3,17.6c-8,0,0.8-11.6-4.3-17.6c2.5,5.7-5.7,20.1,3.4,21.7v24.9h-0.5
			c-0.8,0-1.5,0.7-1.5,1.5V126c0,0.8,0.7,1.5,1.5,1.5h2.6c0.8,0,1.5-0.7,1.5-1.5v-21.4c0-0.8-0.7-1.5-1.5-1.5h-0.5V78.2
			C181.6,76.7,173.4,62.3,175.9,56.6 M172.8,124c0,0.7-0.6,1.2-1.2,1.2c-0.7,0-1.2-0.6-1.2-1.2c0-0.7,0.6-1.2,1.2-1.2
			C172.3,122.8,172.8,123.3,172.8,124"/>
		<path class="st9" d="M269.4,101.7c0-18.2,1.5-36.7-7.8-45.3v47.2c0.3,0,0.7,0.1,1.2,0.2v22.4c0,0.8,0.7,1.5,1.5,1.5h2.6
			c0.8,0,1.5-0.7,1.5-1.5v-21.4c0-0.8-0.8-1.1-1.5-1.5l-0.5-0.2v-0.8L269.4,101.7z M266.8,124.2c0,0.7-0.6,1.2-1.2,1.2
			c-0.7,0-1.2-0.6-1.2-1.2c0-0.7,0.6-1.2,1.2-1.2C266.2,122.9,266.8,123.5,266.8,124.2"/>
		<g class="st10">
			<defs>
				<rect id="SVGID_20_" x="184.5" y="61.9" width="65.6" height="65.6"/>
			</defs>
			<clipPath id="SVGID_21_">
				<use xlink:href="#SVGID_20_"  style="overflow:visible;"/>
			</clipPath>
			<g class="st11">
				<defs>
					<rect id="SVGID_22_" x="184.5" y="61.9" width="65.6" height="65.6"/>
				</defs>
				<clipPath id="SVGID_23_">
					<use xlink:href="#SVGID_22_"  style="overflow:visible;"/>
				</clipPath>
				<path class="st12" d="M217.3,61.9c18.1,0,32.8,14.7,32.8,32.8c0,18.1-14.7,32.8-32.8,32.8c-18.1,0-32.8-14.7-32.8-32.8
					C184.5,76.6,199.2,61.9,217.3,61.9 M234.8,103.3V81l-4.5,7.6l1.5,2.4l-0.8,1.5c-5.1,8.9-9.9,0-9.9,0l-0.7-1.5l1.5-2.4l-4.5-7.6
					l-4.4,7.4l1.5,2.4l-1.1,1.8c-5.1,8.9-9.6,0-9.6,0l-1.1-1.8l1.5-2.4l-4.4-7.4v22.3c0,0,8.8-3.4,17.5-3.4
					C226.1,99.9,234.8,103.3,234.8,103.3 M234.7,107.8l0.1-2.3c-0.4-0.1-8.5-3.2-17.6-3.2c-9,0-17.1,3.1-17.4,3.2l0,2.4
					c0.1,0,8.8-3.4,17.5-3.4C225.9,104.4,234.7,107.7,234.7,107.8"/>
				<path class="st13" d="M234.8,81v22.3c0,0-8.8-3.4-17.5-3.4c-8.8,0-17.5,3.4-17.5,3.4V81l4.4,7.4l-1.5,2.4l1.1,1.8
					c0,0,4.5,8.9,9.6,0l1.1-1.8l-1.5-2.4l4.4-7.4l4.5,7.6l-1.5,2.4l0.7,1.5c0,0,4.8,8.9,9.9,0l0.8-1.5l-1.5-2.4L234.8,81z"/>
				<path class="st13" d="M234.8,105.4l-0.1,2.3c-0.1,0-8.9-3.4-17.5-3.4c-8.6,0-17.4,3.3-17.5,3.4l0-2.4c0.4-0.1,8.4-3.2,17.4-3.2
					C226.3,102.2,234.5,105.3,234.8,105.4"/>
			</g>
		</g>
	</g>
</g>
</svg>
