<?xml version="1.0" encoding="utf-8"?>
<!-- Generator: Adobe Illustrator 19.0.0, SVG Export Plug-In . SVG Version: 6.00 Build 0)  -->
<svg version="1.1" xmlns="http://www.w3.org/2000/svg" xmlns:xlink="http://www.w3.org/1999/xlink" x="0px" y="0px"
	 viewBox="0 0 432 288" style="enable-background:new 0 0 432 288;" xml:space="preserve">
<style type="text/css">
	.st0{clip-path:url(#SVGID_2_);fill:url(#SVGID_3_);}
	.st1{clip-path:url(#SVGID_5_);fill:#231F20;}
	.st2{clip-path:url(#SVGID_7_);fill:#FBBD18;}
	.st3{fill-rule:evenodd;clip-rule:evenodd;fill:#231F20;}
	.st4{fill-rule:evenodd;clip-rule:evenodd;fill:#FFFFFF;}
	.st5{fill:none;}
	.st6{clip-path:url(#SVGID_9_);fill:#FBBD18;}
	.st7{clip-path:url(#SVGID_11_);fill:#FBBD18;}
	.st8{clip-path:url(#SVGID_13_);fill-rule:evenodd;clip-rule:evenodd;fill:#FFFFFF;}
	.st9{fill:#FFFFFF;}
	.st10{font-family:'HoeflerText-Black';}
	.st11{font-size:11.5592px;}
	.st12{fill-rule:evenodd;clip-rule:evenodd;fill:#FBBD18;}
	.st13{fill:#020201;}
	.st14{fill:#020101;}
</style>
<g id="Layer_2">
	<g>
		<defs>
			<rect id="SVGID_1_" width="432" height="288"/>
		</defs>
		<clipPath id="SVGID_2_">
			<use xlink:href="#SVGID_1_"  style="overflow:visible;"/>
		</clipPath>
		
			<radialGradient id="SVGID_3_" cx="0" cy="288" r="1" gradientTransform="matrix(228.2486 0 0 -155.0813 216.5278 44806.6562)" gradientUnits="userSpaceOnUse">
			<stop  offset="0" style="stop-color:#CD2026"/>
			<stop  offset="1" style="stop-color:#AC2B31"/>
		</radialGradient>
		<rect x="0" y="0" class="st0" width="432" height="288"/>
	</g>
</g>
<g id="Layer_1">
	<g>
		<defs>
			<rect id="SVGID_4_" y="-74" width="432" height="288"/>
		</defs>
		<clipPath id="SVGID_5_">
			<use xlink:href="#SVGID_4_"  style="overflow:visible;"/>
		</clipPath>
		<path class="st1" d="M269.2,109.6c3.4,0.9,6.7,1.7,9.3,3.6c0-0.1-0.1-0.1-0.1-0.2c-0.8-1.4-1.6-2.8-2.1-3.7l0-0.1
			c-0.8-1.6-3-3.2-5.6-4.4c-2.7-1.3-5.6-2-7.4-1.8c-0.6,0.2-1.2,0.6-1.5,1c-0.3,0.3-0.5,0.8-0.6,1.3l0,0c0,0.2,0,0.4,0.1,0.6
			c0.1,0.3,0.2,0.6,0.4,0.8C263.7,108.2,266.5,108.9,269.2,109.6 M229.3,128.2c0.4-0.2,0.8-0.4,1.2-0.7c1.8-2,2.8-5,3-8.1
			c0.3-3.3-0.4-6.8-1.8-9.5c-0.2-0.4-0.5-0.7-0.9-1c-0.3-0.3-0.7-0.6-1.1-0.9c-0.9-0.4-1.9-0.6-2.9-0.6c-0.8,0-1.5,0.2-2.1,0.6
			c-1.8,2-2.9,4.9-3.1,8c-0.3,3.4,0.3,6.9,1.7,9.7c0.5,0.8,1.2,1.5,2,2c0.7,0.4,1.6,0.8,2.5,0.8
			C228.3,128.5,228.9,128.3,229.3,128.2 M190.5,127.5c0.9-1.5,1.4-3.3,1.7-5c0.3-2.8,0.5-6,0.1-9.1c-0.4-2.9-1.3-5.8-3-8
			c-0.8-0.6-1.6-1.1-2.4-1.2c-0.8-0.1-1.6-0.1-2.6,0.3c-3.8,2.1-4.2,6.8-4.6,10.8c0,0.3-0.1,0.7-0.1,1c0.1,0.9,0.1,1.6,0.2,2.3
			c0.2,4.1,0.5,9,4.2,10.9l0.2,0.1c0.9,0.6,2.5,0.3,3.8,0c0.4-0.1,0.2,0,0.3-0.1C189.2,129.2,190,128.4,190.5,127.5 M250.8,121.5
			c0.4-0.1,0.8-0.1,1.2,0l0.5,0.1c2.2,1,3.1,2.3,4,3.5c0.7,0.9,1.4,1.9,2.8,2.6l0.1,0.1c1.5,0.9,3.3,1.8,4.9,2c1.4,0.2,2.8,0,4-0.9
			c0.3-0.4,0.4-0.9,0.5-1.4c0-0.5,0-0.9-0.2-1.4c-1.9-1.9-4.5-2.3-7.2-2.7c-2.9-0.5-5.8-0.9-8.5-3c-0.7-0.6-1.3-1.2-1.9-1.8
			c0,0.7,0,1.4-0.1,2.2C250.9,120.9,250.9,121.2,250.8,121.5 M341.4,109.9c-0.2-0.2-0.4-0.5-0.6-0.7l-0.3-0.4
			c-0.8-1.6-2.8-3.1-5.2-4.3c-2.4-1.2-5.1-1.8-6.9-1.5c-0.6,0.2-1.2,0.6-1.6,1c-0.3,0.4-0.5,0.8-0.6,1.3l0,0c0,0.2,0,0.4,0.1,0.6
			c0.1,0.3,0.2,0.6,0.3,0.8c2.1,1.3,4.9,2,7.7,2.7c5.7,1.4,11.3,2.8,13.4,9.4c1.2,2.7,1.3,5.6,0.6,8.3c-0.8,3.1-2.5,6.1-4.6,8.2
			l-0.1,0.1c-3.5,2.9-7.5,4-11.7,4.1c-4,0-8-0.9-11.8-2.3c-0.4,0-0.9,0.2-1.4,0.4c-1.4,0.6-2.8,1.1-4.6-0.2l-0.4-0.4
			c-1.6-2.4-2.2-4.7-2.1-7c0.1-2.2,0.7-4.5,1.8-7l0.2-0.3c0.4-0.5,1-0.9,1.6-1.1c0.6-0.2,1.3-0.3,1.9-0.2l0.5,0.1
			c2.2,1,3.1,2.3,4,3.5c0.7,0.9,1.4,1.9,2.7,2.6l0.1,0.1c1.5,0.9,3.2,1.8,4.9,2c1.4,0.2,2.8,0,4-0.9c0.3-0.4,0.4-0.9,0.5-1.4
			c0-0.5,0-0.9-0.2-1.4c-1.9-1.9-4.5-2.3-7.2-2.7c-2.9-0.5-5.8-0.9-8.5-3h0c-1.4-1.1-2.7-2.6-3.6-4.2c-0.3-0.5-0.5-0.9-0.7-1.4
			c-2.2,5.1-4.4,10.3-6.7,15.3c-3,6.6-6.1,13.2-9.5,19.7l-0.3,0.4c-2.8,2.7-6.5,2.3-9.9,1.9c-0.6-0.1-1.2-0.1-2-0.2l-0.5-0.1
			c-1-0.4-2-1-2.5-1.9c-0.6-0.9-0.8-1.9-0.3-3.1l0.2-0.4c0.9-1.1,1.9-2.1,2.9-3.1c1.8-1.8,3.6-3.7,4.8-5.9c-0.1-1.5-0.7-2.9-1.3-4.4
			c-0.3-0.6-0.5-1.2-0.7-1.8c-1.7-3.4-3.2-6.3-4.6-8.8c0.2,1.7,0.1,3.4-0.3,5.1c-0.8,3.1-2.5,6.1-4.6,8.2l-0.1,0.1
			c-3.5,2.9-7.6,4-11.7,4.1c-3.9,0-8-0.9-11.8-2.3c-0.4,0-0.9,0.2-1.4,0.4c-1.4,0.6-2.7,1.1-4.5-0.2l-0.4-0.4
			c-1.3-2-1.9-3.9-2.1-5.7c-2.2,2.8-5.2,5.1-8.5,6.4l-0.1,0c-3,1-6.5,1.3-9.8,0.7c-2.5-0.4-4.9-1.3-6.9-2.6c0.1,1.4,0.3,2.8,0.8,4
			c0.6,1.4,1.7,2.6,3.5,3.4l0.8,0.8c0.3,0.8,0.4,1.7,0.3,2.4c-0.2,0.8-0.6,1.6-1.3,2.1l-0.2,0.1c-3.8,1.7-8.4,1.6-12.7,1.6
			c-1,0-1.9,0-2.8,0l-0.4-0.1c-0.5-0.1-1-0.2-1.6-0.2c-2.2-0.2-4.5-0.5-5.8-3l-0.1-0.4c-0.6-2.9,1-3.8,2.6-4.7
			c0.5-0.3,1-0.6,1.2-0.9c0.2-2.8,0.4-5.6,0.5-8.4c0-1,0.1-2,0.1-2.9c-1.6,2.4-3.7,4.6-6.3,6.1c-3.6,2.7-7.8,4-12,4.2
			c-4.7,0.3-9.5-0.8-13.6-2.8c-1.5-0.7-2.9-1.6-4.1-2.6c-0.2,0.6-0.6,1.4-1.2,2.2l-0.6,0.5c-3.1,1.4-6.2,1.3-9.3,1.2
			c-1.7-0.1-3.3-0.1-4.7,0h-0.4c-0.5-0.1-1.1-0.1-1.8-0.1c-2.6,0-5.4,0-6.4-3.4l-0.1-0.5c0.1-1.8,1.2-2.7,2.3-3.5
			c0.5-0.3,0.9-0.7,1.1-1c0.9-5.1,0.8-10.2,0.7-15.2c0-1.5-0.1-3-0.1-4.6c-0.2-0.4-0.5-0.9-0.9-1.5c-0.4-0.5-0.8-1-1.1-1.1
			c-0.5-0.2-1-0.3-1.5-0.3c-0.5,0-1,0-1.5,0.2c-2.1,0.9-3.2,2.4-3.7,4.1c-0.6,1.9-0.7,4.1-0.7,6.2c0.2,1.5,0.1,3,0.1,4.4
			c0,2.7-0.1,5.4,1,7.7c0.3,0.2,0.5,0.5,0.7,0.8c0.1,0.1,0.2,0.2,0.3,0.3l0.4,0.3c0,0,0.3,0.1,0.5,0.2c1,0.4,2,0.9,2.1,2.5v0
			c0.1,1.1-0.2,2-0.8,2.7c-0.6,0.8-1.5,1.3-2.4,1.6l-0.3,0.1c-2.9,0.4-5.8,0.6-8.7,0.5c-2.9,0-5.9-0.2-8.9-0.7l-0.4-0.1
			c-0.7-0.3-1.2-0.7-1.6-1.3c-0.4-0.5-0.6-1.1-0.6-1.7c-0.1,0.1-0.3,0.2-0.4,0.3c-2.9,2-6.4,3.3-9.7,3.4c-2.7,0.2-5.6,0.1-8.1-0.1
			c-2.5-0.2-4.8-0.6-6.6-1.2l-0.3-0.1c-0.7-0.4-1.6-0.2-2.6,0c-2.3,0.5-4.4,1-6.1-2.4l-0.1-0.1c-1.1-2.7-2.3-7.3-2.7-11.5
			c-0.3-3.3-0.2-6.4,0.9-8.4l0.1-0.2c0.8-1.2,1.9-1.3,3-1.5c0.2,0,0.4-0.1,0.5-0.1l0.7,0c3.1,0.9,4.2,3.1,5.4,5.4
			c0.6,1.2,1.2,2.5,2.2,3.3l0.2,0.2c1.7,2,3.7,3.8,5.8,4.9c1.7,0.9,3.5,1.3,5.4,1.2c0.8-0.3,1.6-0.7,2.2-1.3
			c0.4-0.4,0.8-0.9,0.9-1.4l0-0.1c0.2-0.5,0.2-1.1,0.1-1.6c-0.1-0.6-0.2-1.1-0.4-1.5c-2.4-2.9-5.8-4.4-9.3-5.8c-3-1.3-6-2.5-8.6-4.8
			h0c-2.5-2-4.2-4.4-5.2-7.1c-1-2.8-1.1-5.8-0.4-8.8v0c0.6-2.4,2.1-4.6,4-6.5c2-1.9,4.6-3.5,7.3-4.4h0c1.6-0.6,3.4-1,5.2-1.3
			c1.9-0.3,3.8-0.3,5.8,0l0.1,0c3.8,0.8,8.2,1.6,12.6,1.9c4.3,0.3,8.6,0.1,12.4-1.2l0.2-0.1c1-0.2,1.9,0,2.6,0.4
			c0.9,0.4,1.6,1.1,2,1.8l0.3,0.8c0,1.8,0,3.5,0,5.2c0,1.7-0.1,3.4,0,5.1c1.2-1,2.5-1.8,3.8-2.5c1.9-0.9,3.9-1.6,6.1-1.7v0
			c1.8-0.2,3.9,0.3,6,1c2.1,0.8,4.1,2,5.2,3.2c1.1,1.3,1.7,2.2,2.1,3.3c0.4,1,0.5,2,0.6,3.5l0.2,1.8l0,0.1c0,0.1,0,0.2,0,0.2
			c1.9-3.4,4.5-6.3,7.6-8.4c3.6-2.5,8-4,12.8-4.1c3.9-0.2,8.1,0.5,11.9,2.2c1.8,0.8,3.4,1.8,4.9,3c1.6-2.3,4.2-2.5,6.8-2.6
			c1.2-0.1,2.5-0.2,3.4-0.5l0.2-0.1c0.2,0,0.5-0.1,0.7-0.2c1.8-0.5,3.9-1,6.1-0.1l0,0c1.4,0.6,1.7,1.4,1.8,2.3
			c1.4-1.2,3.1-2.1,4.9-2.7v0c2.4-0.9,5.2-1.2,8.1-0.9c2.8,0.2,5.3,1.3,7.4,2.9c2.4,1.8,4.4,4.1,5.6,6.5l0,0
			c0.1,0.1,0.1,0.2,0.1,0.2c0,0,0,0,0,0c0,0,0,0,0,0l0,0c0,0.1,0.1,0.3,0.3,0.5c0.1,0.1,0.1,0.3,0.2,0.5c0.9-2.8,2.3-5.2,4.4-7
			c2.2-1.9,5-3.2,8.3-3.7l0.1,0c3.8-0.4,8,0.1,12.3,0.6c4.9,0.6,9.9,1.2,14.5,0.6l0.4,0c0.6,0.1,1.4,0,2.2-0.1
			c2.2-0.3,4.5-0.5,6.2,1.5l0.3,0.4c0.4,0.8,0.4,1.3,0.4,1.9c0,0.2,0,0.4,0,0.4l-0.1,0.7c-0.6,1.5-1.9,2.1-3.2,2.8
			c-0.9,0.5-1.8,1-1.6,1.9l0,0c0.8,2.6,1.5,5.2,2.4,7.7c0.8,2.4,1.8,4.7,3.1,6.8c0.1,0.1,0.5,0.3,1,0.5c0.1,0,0.1,0.2,0.2,0.3
			c1.4-2.3,2.5-4.6,3.5-7c1-2.5,1.7-5.1,2.3-7.7c0-0.7-0.7-1.5-1.4-2.3c-1.9-2.3-3.7-4.5-0.1-7.8l0.7-0.4c2.5-0.6,5.1-0.7,7.7-0.7
			c1.7,0,3.4,0,5.1-0.2c0.3-0.9,0.5-1.8,0.3-2.4c-0.3-0.1-0.6-0.3-0.9-0.4c-2.2-0.8-4.5-1.7-4-5l0-0.1c0.2-1.1,0.6-2.3,1.2-3.4
			c0.7-1.2,1.6-2.3,2.9-3l0.4-0.1c1.8-0.3,4.1-0.2,6,0.7c1,0.4,1.8,1,2.5,1.8c1.3,1.6,1.3,3.3,0.9,5.2c-0.2,1.3-0.6,2.6-1.2,3.8
			c-0.6,1.4-1.4,2.7-2.3,4c1.1-0.4,2.2-0.7,3.4-0.9l0.2,0l5.8-0.2h0.1c0.3,0,0.6,0,0.9,0.1c3.3,0.2,8.1,0.6,10.9,0.1l0.8,0.1
			c3.9,1.5,4.2,4.9,4.5,8.2c0.1,1,0.2,2.1,0.4,2.8l0,0.2c0.1,0.9,0.1,2.1-0.1,3.1c-0.3,1.3-1,2.4-2.3,3.1l-0.1,0.1
			C344.2,112.9,342.8,111.4,341.4,109.9 M124.2,109.7c0.6,0.6,1.2,1.3,1.7,2v-4.9c-0.1-0.7-0.7-4.6-2.4-7.2l-0.1-0.1
			c-0.4-0.7-1.2-1.6-2.1-2.4c-1-0.9-2-1.7-3-2.2c-1.6-0.7-3.2-1.2-4.9-1.3c-1.7-0.1-3.3,0-5,0.4c-0.8,0.4-1.7,0.9-2.4,1.5
			c-0.5,0.5-0.9,1-0.9,1.7l0,0.2c-0.1,0.5,0,0.9,0.2,1.4c0.2,0.5,0.5,1,0.9,1.4c2,1.1,4.2,2,6.5,2.9c1.6,0.7,3.3,1.3,5.1,2.1
			C120,106.1,122.3,107.7,124.2,109.7"/>
	</g>
	<g>
		<defs>
			<path id="SVGID_6_" d="M221.9,126.4c-2.9-5.8-2.6-14.8,1.8-19.5c1.8-1.3,4.7-1.1,6.8-0.2c1,0.7,1.9,1.4,2.5,2.4
				c3.1,5.8,2.9,14.8-1.5,19.5c-1.1,1-2.4,1.4-3.8,1.5C225.2,129.9,223.1,128.3,221.9,126.4 M220.8,100.5c-2-0.3-0.1-2.7-2-3.4
				c-2-0.8-4.1-0.1-5.8,0.3c-3,1.2-7.6-0.1-9.6,2.8c1,0.9,1.8,2,2.6,3.1c0.2,0.3,0.4,0.7,0.6,1c0,0,0.1,0.1,0.1,0.1
				c0,0.1,0,0.1,0.1,0.2c0.5,0.9,0.9,1.9,1.3,2.9c0.2,0.4,0.4,0.8,0.6,1.3l0.1,0.2c0.2,0.6,0.4,1.2,0.6,1.9c0.2,0.7,0.3,1.4,0.4,2
				c0.1,0.8,0.2,1.7,0.3,2.5c0,0.8,0.1,1.7,0.1,2.5l0,0.2c-0.3,3-1.1,6.2-2.4,9c0.1,4.9-0.2,9.7-0.5,14.4c-0.6,2.3-4.5,2-3.9,5.1
				c1.2,2.3,4.3,1.9,6.4,2.4c0.9,0,1.9,0,2.8,0c4.2,0.1,8.6,0.1,12-1.4c0.8-0.5,0.9-1.8,0.5-2.7c-4.3-1.9-5.3-5.9-5.2-10.2
				c0.2-0.3,0.2-1,0.9-1c4.6,3.7,11.4,4.6,16.9,2.7c6.5-2.5,11.5-9.1,11.8-15.8c0.2-2,0.1-4-0.1-6c-1.3-6.6-2.8-8.9-3.3-10
				c0-0.1,0-0.1-0.1-0.2c-2.1-4.1-6.5-8.1-11.8-8.6c-0.6-0.1-1.2-0.1-1.8-0.1C227.6,95.7,223.6,97.4,220.8,100.5 M260.7,95.8
				c-6.1,0.9-10.1,4.7-11.6,10.3c-0.1,0.5-0.1,1-0.2,1.6c0.6,1.5,1.2,3.7,1.8,6.6l0,0.1c0,0.4,0.1,0.9,0.1,1.3
				c0.8,1.3,1.9,2.5,3,3.4c4.9,4,11.7,1.4,16,6.1c0.8,1.6,0.6,3.4-0.4,4.7c-3.1,2.8-7.6,1.2-10.8-0.8c-3.5-1.7-3.2-4.4-6.7-6.1
				c-0.5-0.1-0.9,0-1.4,0.2c-0.5,2.1-1.3,4.1-2.4,5.9c-0.3,2.4,0.2,4.7,1.8,7.2c1.1,0.8,2.1,0.4,3.2,0c0.7-0.3,1.5-0.6,2.3-0.4
				c7.4,2.7,15.7,3.8,22.2-1.4c3.6-3.7,6-9.9,3.6-14.9c-2.9-9.2-14.2-7.2-20.8-11.6c-0.5-0.7-1-1.8-0.9-2.7c0.2-2,1.6-3.1,3.2-3.7
				c4.1-0.8,12.9,3,14.9,7c3.3,5.9,6.6,11.3,11.9,21.8c0.8,2.3,2.2,4.5,2.2,7.2c-1.9,3.8-5.4,6.5-8.1,9.7c-0.6,1.4,0.6,2.4,2,3
				c3.4,0.2,7.9,1.5,10.7-1.2c6.7-12.9,12.4-26.2,18-39.4c0.1-0.1,0.1-0.2,0.1-0.2c0.1-0.5,0.3-1,0.7-1.8c0.2-0.4,0.4-0.8,0.7-1.1
				c0.1-0.1,0.2-0.2,0.3-0.4c2-2.4,3.3-5.7,3.7-6.8c0.2-0.5,0-1.2-0.2-1.7c-0.3,0.1-0.7,0.2-1.1,0.2c-0.4,0-0.8-0.1-1.2-0.2
				c-0.5-0.2-0.9-0.6-1.1-1.2c-0.1-0.2-0.2-0.4-0.2-0.6c-4.1,0.4-8.3-0.1-12.1,0.8c-4.1,3.8,2.2,5.8,2,9.1
				c-1.2,5.5-3.1,10.9-6.3,15.9c-0.6,0.4-2.8-0.4-3.4-1.1c-2.7-4.6-4.1-9.7-5.7-15.1c-1.1-3.6,3.7-3.3,4.8-5.7
				c-0.1-0.7,0-1.1-0.3-1.8c-1.3-1.4-3.1-1.2-4.9-1c-0.9,0.1-1.8,0.2-2.5,0.1c-4.7,0.6-9.8,0.1-14.6-0.5c-3.3-0.4-6.6-0.8-9.6-0.8
				C262.4,95.7,261.5,95.7,260.7,95.8 M326,95.8c-1.8,0.3-3.4,0.8-4.8,1.5c0.2,0.8,0.4,1.8,0.1,2.6c-0.2,0.7-0.9,2.3-1.8,4
				c-0.6,1.1-1.3,2.2-2.1,3.2l0,0c0,0,0,0-0.1,0.1c0,0.1-0.1,0.1-0.1,0.2l-0.2,0.3c-0.1,0-0.1,0.1-0.2,0.2c-0.1,0.1-0.1,0.2-0.2,0.3
				l-0.1,0.1c-0.2,0.3-0.3,0.5-0.4,0.7h0c-0.1,0.2-0.2,0.4-0.2,0.6l-0.1,0.4c0,0.1,0,0.1,0,0c0,0,0,0,0,0c0,0.1-0.1,0.1-0.1,0.2
				c-0.4,0.8-0.7,1.5-1,2.3c0.8,2.5,2.4,4.9,4.4,6.5c4.9,4,11.7,1.4,16,6.1c0.8,1.6,0.6,3.4-0.4,4.7c-3.1,2.8-7.5,1.2-10.8-0.8
				c-3.5-1.7-3.2-4.4-6.7-6.1c-0.7-0.1-1.6,0.1-2.1,0.7c-2,4.7-2.6,8.3,0.2,12.6c1.1,0.8,2.1,0.4,3.1,0c0.7-0.3,1.5-0.6,2.3-0.4
				c7.4,2.7,15.7,3.8,22.2-1.4c3.6-3.7,6-9.9,3.7-14.9c-2.9-9.2-14.2-7.2-20.8-11.6c-0.5-0.7-1-1.8-0.9-2.7c0.2-2,1.7-3.1,3.2-3.7
				c4.1-0.8,11.9,2.7,13.8,6.6c1.2,1.2,2.3,3.1,4.2,2.2c1.7-0.9,1.8-3.1,1.6-4.7c-0.8-3.5,0.2-8.4-3.9-10c-3.3,0.5-8.8,0.1-12.1-0.1
				L326,95.8z M183.3,130.9c-5.3-2.8-4.7-9.7-5.2-14.6c0.5-4.7,0.6-10.6,5.6-13.2c2.5-1,4.8-0.4,6.7,1.3c4,5,4,12.5,3.3,18.4
				c-0.6,3.2-1.9,7.2-5.1,8.3c-1,0.2-2.1,0.5-3.1,0.5C184.8,131.6,184,131.4,183.3,130.9 M185.5,95.4c-9.3,0.2-16.7,5.9-20.3,14
				c-0.4,1.5-1.3,3.1-1.6,6.1c-0.8,8.7,3.2,16.7,11.1,20.5c7.3,3.6,17.1,4,24.1-1.4c6.1-3.4,8.9-10.3,9.6-16.8
				c0-1.6-0.1-3.4-0.3-4.8c-0.2-1.2-0.6-2.6-1-3.8c-0.8-1.8-1.4-3.6-2.5-5.2c-3.7-5.7-11.3-8.7-17.9-8.7
				C186.3,95.4,185.9,95.4,185.5,95.4 M100.1,86.4c-4.8,1.6-9.3,5.5-10.3,9.8c-1.2,5.2,0.3,10.6,5,14.3c5.5,4.8,13.6,5,18.3,10.9
				c0.6,1.3,0.8,2.9,0.4,4.4c-0.4,2-2.5,3.3-4.3,4c-5,0.6-9.4-2.6-12.7-6.6c-3-2.6-2.8-7.2-7-8.4c-0.9,0.1-1.9,0.1-2.4,0.9
				c-2.1,4.1,0.1,14,1.9,18.6c1.2,2.3,2.8,2,4.4,1.6c1.2-0.3,2.4-0.5,3.6,0.1c3.4,1.1,9.1,1.5,14.2,1.2c5.8-0.2,12.4-4.3,14.4-10
				c0.2-0.9,0.8-2.3,1.1-3.2c1-3.9,0.1-6.8-0.2-7.8c-1.1-3.8-5.5-8-9.2-9.6c-4-1.9-8.2-3.1-12-5.2c-1.3-1.3-1.9-2.8-1.7-4.2
				c0-2.2,2.3-3.7,4.2-4.6c3.8-1,7.6-0.7,11.1,1c2.2,1.2,4.7,3.5,5.7,5.2c2.1,3.1,2.7,8,2.7,8v16.9c0.1,0.9,0.1,1.9,0,2.8v0
				c-0.1,1.1-0.2,2.3-0.4,3.5c-0.3,2.4-3.8,2.8-4.1,5.1c0,0.8,0.5,1.4,1.3,1.8c5.9,0.9,11.6,0.9,17.3,0.2c1.2-0.4,2.2-1.3,2.1-2.7
				c-0.1-1.3-1.6-1.1-2.3-1.9c-0.7-0.4-0.7-1-1.4-1.4c-2.1-4.1-1-8.7-1.4-13.1c0.1-4.3,0.2-9.6,5.5-11.8c1.4-0.4,2.6-0.3,4,0.2
				c1.1,0.5,2.7,2.7,3,3.8c0,6.8,0.6,13.6-0.7,20.5c-0.7,1.7-3.3,2.2-3.4,4.1c0.9,3.1,4.6,2.1,6.9,2.4c1.6-0.2,3.3-0.1,4.9-0.1
				c2.9,0.1,5.9,0.3,8.6-1c0.9-1.2,1-2,0.7-2.7c-0.4-0.4-0.8-0.9-1.2-1.3c-1.5-1.1-3.7-2-3.7-4.2c-0.1-0.6-0.1-1.5-0.1-2.5
				c-1.1-3.1-1.5-6.4-1.2-9.9c0.2-2.4,0.8-4,1.3-5.3c0,0,0-0.1,0-0.1c0-1.5,0.1-2.5,0.1-2.5s0-0.8,0-1.2l-0.2-1.8
				c-0.3-2.7-0.4-3.7-2.3-5.9c-1.9-2.1-6.9-4.1-9.9-3.8c-4.2,0.3-7.8,2.5-10.7,5.3c-0.6,0.1-0.6-0.4-0.8-0.6
				c-0.3-4.2,0.1-8.1,0-12.3c-0.6-0.9-1.6-1.7-3.2-1.5c-8.1,2.6-18,0.9-25.8-0.7c-0.8-0.1-1.7-0.2-2.5-0.2
				C105.2,84.9,102.6,85.6,100.1,86.4 M316.6,81.1c-1.9,1-2.8,3.4-3.3,5.4c-0.4,2.8,2.8,3,4.6,4c1,1.6,0.2,3.3-0.2,4.9
				c0,1.1,1.2,0.9,1.9,0.6c2.9-3.1,4.9-7.3,4.9-11.3c-0.8-2.6-3.7-3.7-6.3-3.7C317.7,81,317.1,81,316.6,81.1"/>
		</defs>
		<clipPath id="SVGID_7_">
			<use xlink:href="#SVGID_6_"  style="overflow:visible;"/>
		</clipPath>
		<polygon class="st2" points="328.1,65.9 95.6,65.7 51.5,127.9 120,176.5 332,175.4 382.4,104.4 		"/>
	</g>
	<path class="st3" d="M118.9,91.1c1,0.6,3.1,1.2,4.1,2c-4.6-2.7-11.6-3.8-16.6-1.8c-2.2,1.1-3.8,2.9-4.5,4.9
		c-0.4,1.9,0.1,3.7,1.3,5.3c-1.5-1.4-2.6-3.3-2.3-5.2c0.2-2.6,2.4-4.9,5.2-6.2C110.2,88.6,115.2,89.3,118.9,91.1"/>
	<path class="st3" d="M114.5,120.4c0,0.5,0.3,1,0.3,1.5c-3.4-5.9-10.2-6.9-15.6-10c-2-0.9-3.8-2.3-5.3-3.9
		C100.3,113.4,109.7,113.1,114.5,120.4"/>
	<path class="st3" d="M137.8,87.1l0.5,0.8c0.2,4.3-0.7,8.3,0.4,12.3l0.5,0.4c-0.2,0.4-0.6,0.7-0.9,1c-0.7,0.1-0.6-0.6-0.9-1
		c-0.6-4.4,0.1-9.3-0.3-13.7"/>
	<path class="st3" d="M97.7,133.7c6.9,3.8,13.9,2.8,20.4-1.4c5.2-4,8.3-9.6,6.3-15.8c-0.3-0.9-0.9-1.8-1.6-2.8
		c1.1,0.4,1.6,1.7,2.1,2.5c2.8,5.5-0.3,11.4-4.3,15.5c-4.6,4.6-12.8,5.9-19.2,3.8c-3.5-1.1-4.3-2.2-7.9-1.3
		c-0.9,0.1-1.8,0.1-2.6-0.5C93.3,133.6,95.2,132.4,97.7,133.7"/>
	<path class="st3" d="M149.5,104.2c0.7,0.8,1.7,1.7,1.7,2.7c-1.2-1.8-3.5-2.6-5.8-2.5c-2.7,0.4-5.9,2.5-6.8,4.8
		c-2.2,5.8-1.3,12.4-1.1,18.7c0.1,1.4,0.7,3,1.8,4.1c-1.3-0.3-2.2-1.4-2.7-2.6c-1-6-1.3-12.2-0.2-18.4c0.7-3.2,3.3-6.1,6.9-7.4
		C145.5,103.4,147.8,103.1,149.5,104.2"/>
	<path class="st3" d="M142.1,134.5c-0.5,1.8-3,1.3-4.4,1.6c-4,0.1-8.8,0.3-12.9-0.5l-0.2-0.6C130.2,135.2,136.5,135.9,142.1,134.5"
		/>
	<path class="st3" d="M167.2,134.3c0,0.7-0.7,1.3-1.4,1.4c-5.4,0.5-11.4,0.5-16.9-0.2l-0.5-0.7C154.6,135.1,161,135.3,167.2,134.3"
		/>
	<path class="st3" d="M219,102.2c-0.1,0.3-0.4,0.3-0.8,0.3c-1.1-1.3-0.3-3.1-1-4.7C219.3,98.3,218.1,100.9,219,102.2"/>
	<path class="st3" d="M247.7,121.4c-0.4,5.8-4.7,12.1-10.9,14.1c-2.8,0.9-6.5,1.2-9.4,0.5c-0.4-0.3-1.2-0.4-1.7-0.6
		c-2.1-0.9-3.8-1.9-5.5-3.2c0.2-0.5-0.5-0.2-0.8-0.5c-0.7,0.2-0.6,1-0.7,1.6c-0.1,3.1,0,6.8,1.5,9.5c-3.1-1.6-2.1-6-2.5-9
		c0.2-1.1,0.1-2.2,0.8-3.2c1.7-0.2,2.6,1.9,4,2.6c3.7,2.9,10.3,3.2,14.7,1.2c6.9-2.9,10.1-10.6,9.5-17.7c-0.6-5.5-1.1-10.7-5.1-15
		C247.4,106.9,248,114,247.7,121.4"/>
	<path class="st3" d="M233.4,106.9c-2-1.6-4.5-3.4-7.6-2.8c-4.9,0.9-6.1,5.4-7.1,9.2c-0.3,4.8-0.9,10.5,2.1,14.4
		c-3.2-3-3.4-7.6-3.4-12.2c0.5-5.1,1.6-11.3,7.6-12.4C228.2,102.4,232.2,104,233.4,106.9"/>
	<path class="st3" d="M221.1,146.5c0.8-0.5,2.1-0.2,2.8-1.1c0.2,0.5-0.3,1.1-0.9,1.4c-5.8,1-12.7,1.5-18.1-0.3l-0.2-0.6
		C210,147.3,215.4,147.1,221.1,146.5"/>
	<path class="st3" d="M313.1,107.4c-5.7,13.5-11.3,27.3-17.8,40.6c-2.4,2.2-6.2,1.7-9,0.8l0-0.7c2.4,0.4,5.4,1,7.7-0.4
		c2.9-4.7,4.7-9.5,6.8-14.3c4.3-9.2,7.9-18.5,12.4-27.5c0.4-0.6,1.1-0.9,1.7-1.4"/>
	<path class="st3" d="M289,103.5c0.9,6.9,3.6,12.8,6.6,18.8l1.1,0.5c-0.4,0.2-0.6,0.4-1,0.4c-2.1-0.6-2-2.7-3.2-4.2
		c-1.9-4.7-3.5-8.7-4.7-14c-0.2-1.4,0.4-2.8,1.5-3.9c1.2-1.1,3.2-1.1,4.3-2.6C293.4,101.3,289.3,100.6,289,103.5"/>
	<path class="st3" d="M274.2,103.2c-2.6-2.3-7.6-4.2-11.3-3.3c-2.3,0.7-4.3,2.3-4.8,4.9c-0.1,1.6,0.2,3,1.3,4.2
		c-1.1-0.3-2.4-2-2.5-3.6c0-2.3,1.6-4.3,3.4-5.5c3.8-2,8.3-0.9,12,1.6C273,101.8,273.6,102.6,274.2,103.2"/>
	<path class="st3" d="M280.1,127.6c-1.4,4.9-5.6,8.2-10,9.1c-4.8,0.5-9.7-0.6-14.5-2.2c-1.8-0.1-3.9,1.6-5.3-0.2
		c2.4,0.5,4.1-1.2,6.4-0.5c6.3,2.3,13.6,3.8,18.9-0.8c3.2-2.8,4.9-7.9,4-12.1c-0.4-1.8-1.2-3.2-2.3-4.8
		C280.4,118.7,281.4,123.5,280.1,127.6"/>
	<path class="st3" d="M270.9,124.2c-3.2-3.9-8.6-3.1-12.9-4.7c-1.7-0.6-3.6-1.7-4.8-3.2c4.6,3.7,11.6,2.2,16.7,6
		C270.1,123,270.9,123.5,270.9,124.2"/>
	<path class="st3" d="M339.5,103.2c-2.6-2.3-7.6-4.2-11.3-3.3c-2.3,0.7-4.3,2.3-4.8,4.9c0,1.6,0.2,3,1.3,4.2c-1.1-0.3-2.4-2-2.5-3.6
		c0-2.3,1.5-4.3,3.4-5.5c3.8-2,8.3-0.9,12,1.6C338.2,101.8,338.8,102.6,339.5,103.2"/>
	<path class="st3" d="M345.4,127.6c-1.3,4.9-5.6,8.2-10,9.1c-4.8,0.5-9.7-0.6-14.5-2.2c-1.8-0.1-3.9,1.6-5.3-0.2
		c2.4,0.5,4.1-1.2,6.4-0.5c6.3,2.3,13.6,3.8,18.9-0.8c3.2-2.8,4.9-7.9,4-12.1c-0.5-1.8-1.2-3.2-2.3-4.8
		C345.7,118.7,346.7,123.5,345.4,127.6"/>
	<path class="st3" d="M336.2,124.2c-3.2-3.9-8.6-3.1-12.9-4.7c-1.7-0.6-3.6-1.7-4.8-3.2c4.6,3.7,11.6,2.2,16.7,6
		C335.4,123,336.2,123.5,336.2,124.2"/>
	<path class="st3" d="M346.6,108c-0.2,0.6-0.5,1.5-1.2,1.4l-0.6-0.2c1.1-0.7,1.2-2.1,1.1-3.5c0-2.8-1-5.5-1.6-8.2
		c0.7,0,0.9,0.9,1.2,1.5C346.4,101.9,346.5,104.8,346.6,108"/>
	<path class="st3" d="M318.7,99.1c-0.1,0.2-0.2,0.5-0.5,0.5c0-1-0.5-2-1-2.9C318.3,96.8,318.8,98.1,318.7,99.1"/>
	<path class="st3" d="M192.6,103.4l0.7,1.6c-1.1-2-4.2-4-6.9-4.1c-2.6-0.1-4.6,1.4-6.2,2.9c-4.6,6.7-4.3,15.2-2.2,23.2
		c0.7,1.6,1.5,3,2.8,4.2c-6.4-3.6-5.5-12.6-5.2-18.6c0.6-4.9,2.8-11.2,8.6-12.7C187.2,99.3,190.9,100.5,192.6,103.4"/>
	<path class="st3" d="M207.1,118.5c-0.8,8.4-6.8,15.5-14.9,17.9c-5.1,1.4-10.7,1.2-15.4-1c7.8,2.5,18.4,1.1,23.8-5.6
		c5.4-6,6.8-14.6,3.6-22.3c-1.4-2.8-3.5-5.2-5.6-7.5C204.2,103.8,208,111.5,207.1,118.5"/>
	<path class="st3" d="M162.2,109.2c0.3,7.1-1.4,14.5,0.8,21.4c-3.5-2.9-2.1-7.6-2.2-11.5c-0.2-6.7,1.1-13.2-1.2-19.6
		C162.4,102,161.9,105.9,162.2,109.2"/>
	<path class="st3" d="M321.4,90.9l-1.5,3c0.4-3.2,3.3-6.7,1.6-10C323.9,85.7,322,88.6,321.4,90.9"/>
	<path class="st3" d="M318.7,89.6c-1-1-3.2-0.6-3.7-2.3l0.1-0.2C316.1,88.4,318.2,87.8,318.7,89.6"/>
	<path class="st3" d="M327.2,89.5c0-1.8,1.4-3.2,3.3-3.3c1.8,0,3.3,1.4,3.3,3.2c0,1.8-1.4,3.3-3.2,3.3
		C328.7,92.7,327.2,91.3,327.2,89.5 M333.4,89.4c0-1.6-1.3-2.8-2.9-2.8c-1.6,0-2.9,1.3-2.9,2.9c0,1.6,1.4,2.8,3,2.8
		C332.1,92.2,333.4,91,333.4,89.4 M332.2,91.2l-0.5,0l-1.1-1.7l-0.8,0l0,1.7l-0.5,0l-0.1-3.6l1.6,0c0.3,0,0.6,0,0.9,0.2
		c0.3,0.2,0.4,0.5,0.4,0.8c0,0.7-0.5,1-1.1,1L332.2,91.2z M330.4,89.2c0.5,0,1.3,0.1,1.3-0.7c0-0.6-0.5-0.6-0.9-0.6l-1.1,0l0,1.3
		L330.4,89.2z"/>
	<path class="st4" d="M136.5,157.9c0.4,0.6,0.8,1.4,1,2.2c0.2,0.8,0.3,1.7,0.3,2.7c0,0.9-0.1,1.7-0.3,2.5c-0.2,0.8-0.5,1.6-0.9,2.2
		c-0.5,0.7-1,1.1-1.7,1.5c-0.6,0.4-1.5,0.5-2.6,0.5c-0.3,0-0.8,0-1.3,0c-0.5,0-0.9,0-1.3,0c-0.4,0-0.8,0-1.4,0c-0.6,0-1,0-1.3,0
		c0,0-0.1-0.1-0.1-0.2c0-0.1,0-0.2,0-0.3c0-0.1,0-0.2,0-0.2c0-0.1,0.1-0.2,0.1-0.2c0.5-0.1,0.9-0.3,1-0.5c0.2-0.2,0.2-0.6,0.2-1.1
		v-8.6c0-0.5-0.1-0.9-0.2-1.1c-0.2-0.2-0.5-0.4-1-0.5c0,0-0.1-0.1-0.1-0.2c0-0.1,0-0.2,0-0.2c0-0.1,0-0.2,0-0.3
		c0-0.1,0.1-0.2,0.1-0.2c0.3,0,0.8,0,1.3,0c0.6,0,1.1,0,1.4,0c0.3,0,0.8,0,1.3,0c0.5,0,0.9,0,1.3,0c0.9,0,1.7,0.2,2.4,0.5
		C135.5,156.8,136.1,157.3,136.5,157.9 M135.1,162.8c0-1.8-0.2-3.3-0.6-4.3c-0.4-1.1-1.1-1.6-2.2-1.6l-0.5,0c-0.2,0-0.4,0.1-0.5,0.2
		c-0.1,0.1-0.3,0.4-0.3,0.9v9.3c0,0.5,0.1,0.8,0.3,0.9c0.2,0.1,0.4,0.2,0.5,0.2l0.5,0c1,0,1.7-0.5,2.1-1.5
		C134.9,166,135.1,164.6,135.1,162.8"/>
	<path class="st4" d="M148.6,164.9c-0.1,0.7-0.1,1.5-0.2,2.3c-0.1,0.8-0.1,1.6-0.1,2.3c-0.6,0-1.3-0.1-2.1-0.1c-0.9,0-1.5,0-2.1,0
		c-0.5,0-1.3,0-2.2,0c-1,0-1.7,0-2.2,0.1c0,0,0-0.1-0.1-0.2c0-0.1,0-0.2,0-0.3c0-0.1,0-0.2,0-0.2c0-0.1,0.1-0.2,0.1-0.2
		c0.5-0.1,0.9-0.3,1.1-0.5c0.1-0.2,0.2-0.6,0.2-1.2v-8.6c0-0.5-0.1-0.9-0.2-1.2c-0.2-0.2-0.5-0.4-1.1-0.5c0,0,0-0.1-0.1-0.2
		c0-0.1,0-0.2,0-0.3c0-0.1,0-0.2,0-0.3c0-0.1,0.1-0.2,0.1-0.2c0.5,0,1.2,0,2.1,0.1c0.9,0,1.6,0,2.2,0c0.5,0,1.2,0,2.1,0
		c0.9,0,1.6,0,2.1-0.1c0,0.5,0,1.2,0,2.1c0,0.8,0.1,1.6,0.1,2.3c0,0.1,0,0.1-0.1,0.2c-0.1,0.1-0.2,0.1-0.3,0.1c-0.1,0-0.1,0-0.2-0.1
		c0,0-0.1,0-0.1-0.1c-0.1-0.8-0.3-1.6-0.7-2.3c-0.4-0.7-1-1.1-1.7-1.1h-0.8c-0.2,0-0.4,0.1-0.5,0.2c-0.2,0.1-0.2,0.4-0.2,0.9v4h0.4
		c0.4,0,0.8-0.2,1.1-0.6c0.3-0.4,0.4-0.9,0.5-1.5c0,0,0-0.1,0.1-0.1c0.1,0,0.1,0,0.2,0c0.1,0,0.1,0,0.2,0c0.1,0,0.1,0.1,0.1,0.1
		c0,0.5,0,0.9,0,1.4c0,0.4,0,0.9,0,1.3c0,0.5,0,0.9,0,1.3c0,0.4,0,0.8,0,1.3c0,0,0,0.1-0.1,0.1c-0.1,0-0.1,0.1-0.2,0.1
		c0,0-0.1,0-0.2-0.1c-0.1,0-0.1-0.1-0.1-0.1c0-0.7-0.2-1.2-0.4-1.6c-0.3-0.4-0.6-0.6-1.1-0.6h-0.4v4.2c0,0.5,0.1,0.8,0.2,0.9
		c0.2,0.1,0.3,0.2,0.5,0.2h0.7c0.7,0,1.3-0.4,1.8-1.1c0.5-0.7,0.9-1.6,1-2.7c0,0,0-0.1,0-0.1c0,0,0.1,0,0.2,0c0.1,0,0.2,0,0.3,0.1
		C148.6,164.8,148.6,164.9,148.6,164.9"/>
	<path class="st4" d="M159.4,164.5c-0.1,0.7-0.1,1.6-0.2,2.7c-0.1,1.1-0.1,1.8-0.1,2.4c-0.6,0-1.3-0.1-2.1-0.1c-0.8,0-1.5,0-2.1,0
		c-0.6,0-1.3,0-2.2,0c-0.9,0-1.6,0-2,0.1c0,0,0-0.1-0.1-0.2c0-0.1,0-0.2,0-0.3c0-0.1,0-0.2,0-0.2c0-0.1,0-0.2,0.1-0.2
		c0.5-0.1,0.9-0.3,1-0.5c0.1-0.2,0.2-0.6,0.2-1.2v-8.6c0-0.5-0.1-0.9-0.2-1.2c-0.2-0.2-0.5-0.4-1-0.5c0,0,0-0.1-0.1-0.2
		c0-0.1,0-0.2,0-0.3c0-0.1,0-0.2,0-0.3c0-0.1,0-0.1,0.1-0.1c0.4,0,0.9,0,1.3,0.1c0.5,0,0.9,0,1.3,0c0.4,0,0.8,0,1.3,0
		c0.4,0,0.9-0.1,1.3-0.1c0,0,0,0.1,0.1,0.2c0,0.1,0,0.2,0,0.3c0,0.1,0,0.2,0,0.3c0,0.1,0,0.2-0.1,0.2c-0.5,0.1-0.8,0.2-1,0.5
		c-0.2,0.3-0.3,0.6-0.3,1.2v8.9c0,0.5,0.1,0.8,0.3,0.9c0.2,0.1,0.3,0.2,0.5,0.2h0.8c0.6,0,1.2-0.4,1.6-1.3c0.5-0.9,0.8-1.8,1-2.9
		c0,0,0-0.1,0.1-0.1c0,0,0.1,0,0.1,0c0.1,0,0.2,0,0.3,0.1C159.4,164.3,159.4,164.4,159.4,164.5"/>
	<path class="st4" d="M166.5,169.1c0,0.1,0,0.2,0,0.3c0,0.1-0.1,0.2-0.1,0.2c-0.5,0-0.9,0-1.3-0.1c-0.4,0-0.9,0-1.3,0
		c-0.4,0-0.9,0-1.3,0c-0.5,0-0.9,0.1-1.3,0.1c0,0-0.1-0.1-0.1-0.2c0-0.1,0-0.2,0-0.3c0-0.1,0-0.2,0-0.2c0-0.1,0-0.2,0.1-0.2
		c0.5-0.1,0.9-0.3,1-0.5c0.2-0.2,0.2-0.6,0.2-1.2v-8.6c0-0.5-0.1-0.9-0.2-1.2c-0.2-0.2-0.5-0.4-1-0.5c0,0-0.1-0.1-0.1-0.2
		c0-0.1,0-0.2,0-0.3c0-0.1,0-0.2,0-0.3c0-0.1,0-0.2,0-0.2c0.5,0,0.9,0,1.4,0.1c0.4,0,0.9,0,1.3,0c0.4,0,0.8,0,1.3,0
		c0.4,0,0.9-0.1,1.3-0.1c0,0,0,0.1,0.1,0.1c0,0.1,0,0.2,0,0.3c0,0.1,0,0.2,0,0.3c0,0.1-0.1,0.2-0.1,0.2c-0.5,0.1-0.9,0.2-1,0.5
		c-0.2,0.3-0.3,0.6-0.3,1.2v8.6c0,0.5,0.1,0.9,0.3,1.2c0.2,0.2,0.5,0.4,1,0.5c0,0,0,0.1,0.1,0.2C166.5,168.9,166.5,169,166.5,169.1"
		/>
	<rect y="-74" class="st5" width="432" height="288"/>
	<g>
		<defs>
			<path id="SVGID_8_" d="M172.2,160.5c-0.4,0.6-0.6,1.4-0.6,2.2c0,0.9,0.2,1.6,0.6,2.2c0.4,0.6,0.9,0.9,1.5,0.9
				c0.6,0,1.1-0.3,1.5-0.9c0.4-0.6,0.6-1.4,0.6-2.2c0-0.9-0.2-1.6-0.6-2.2c-0.4-0.6-0.9-0.9-1.5-0.9
				C173.1,159.6,172.6,159.9,172.2,160.5"/>
		</defs>
		<clipPath id="SVGID_9_">
			<use xlink:href="#SVGID_8_"  style="overflow:visible;"/>
		</clipPath>
		<polygon class="st6" points="173,157.6 168.6,163.8 174.4,168 178.9,161.7 		"/>
	</g>
	<g>
		<defs>
			<path id="SVGID_10_" d="M214.7,160.5c-0.4,0.6-0.6,1.4-0.6,2.2c0,0.9,0.2,1.6,0.6,2.2c0.4,0.6,0.9,0.9,1.5,0.9
				c0.6,0,1.1-0.3,1.5-0.9c0.4-0.6,0.6-1.4,0.6-2.2c0-0.9-0.2-1.6-0.6-2.2c-0.4-0.6-0.9-0.9-1.5-0.9
				C215.7,159.6,215.2,159.9,214.7,160.5"/>
		</defs>
		<clipPath id="SVGID_11_">
			<use xlink:href="#SVGID_10_"  style="overflow:visible;"/>
		</clipPath>
		<polygon class="st7" points="215.5,157.6 211.1,163.8 217,168 221.4,161.7 		"/>
	</g>
	<g>
		<defs>
			<rect id="SVGID_12_" y="-74" width="432" height="288"/>
		</defs>
		<clipPath id="SVGID_13_">
			<use xlink:href="#SVGID_12_"  style="overflow:visible;"/>
		</clipPath>
		<path class="st8" d="M232.8,164.7c-0.1,0.6-0.1,1.3-0.2,2.3c-0.1,0.9-0.1,1.6-0.2,2c-0.4,0-0.9,0.2-1.5,0.4
			c-0.6,0.3-1.2,0.4-1.9,0.4c-0.9,0-1.7-0.2-2.4-0.6c-0.7-0.4-1.3-0.9-1.8-1.6c-0.5-0.7-0.8-1.4-1-2.2c-0.2-0.9-0.3-1.7-0.3-2.6
			c0-1.9,0.5-3.6,1.5-5c1-1.5,2.4-2.2,4.1-2.2c0.8,0,1.4,0.1,1.9,0.3c0.5,0.2,0.9,0.3,1.4,0.3c0,0.6,0,1.3,0.1,2.1
			c0,0.8,0.1,1.5,0.1,2.1c0,0,0,0.1-0.1,0.1c-0.1,0-0.1,0-0.2,0c0,0-0.1,0-0.2,0c-0.1,0-0.1-0.1-0.1-0.1c-0.1-0.9-0.5-1.8-1-2.7
			c-0.6-0.8-1.2-1.2-1.9-1.2c-1.1,0-1.8,0.6-2.2,1.8c-0.4,1.2-0.6,2.7-0.6,4.5c0,1.8,0.2,3.2,0.6,4.4c0.4,1.2,1.1,1.7,2.2,1.7
			c0.8,0,1.5-0.4,2-1.3c0.5-0.8,0.9-1.8,1.2-2.9c0,0,0-0.1,0.1-0.1c0.1,0,0.1,0,0.2,0c0,0,0.1,0,0.2,0
			C232.7,164.6,232.8,164.7,232.8,164.7"/>
		<path class="st8" d="M244.8,169.1c0,0.1,0,0.2,0,0.3c0,0.1,0,0.1-0.1,0.1c-0.4,0-0.9,0-1.3-0.1c-0.4,0-0.8,0-1.2,0
			c-0.4,0-0.9,0-1.3,0c-0.5,0-0.9,0.1-1.4,0.1c0,0,0-0.1-0.1-0.1c0-0.1,0-0.2,0-0.3c0-0.1,0-0.2,0-0.2c0-0.1,0-0.2,0-0.2
			c0.4,0,0.7-0.1,0.9-0.2c0.1-0.1,0.2-0.3,0.2-0.6c0-0.1,0-0.2,0-0.4c0-0.2-0.1-0.3-0.1-0.4l-0.4-1.4h-2.8l-0.3,1.1
			c-0.1,0.2-0.1,0.4-0.1,0.5c0,0.2,0,0.3,0,0.4c0,0.3,0,0.5,0.1,0.7c0.1,0.2,0.4,0.2,0.9,0.3c0,0,0,0.1,0.1,0.2v0.3
			c0,0.1,0,0.2,0,0.3c0,0.1-0.1,0.1-0.1,0.1c-0.4,0-0.7,0-0.9-0.1c-0.2,0-0.5,0-0.8,0c-0.3,0-0.6,0-0.8,0c-0.2,0-0.5,0.1-0.8,0.1
			c0,0,0-0.1-0.1-0.2c0-0.1,0-0.2,0-0.3c0-0.1,0-0.2,0.1-0.2c0-0.1,0.1-0.2,0.1-0.2c0.4-0.1,0.7-0.2,0.9-0.5
			c0.2-0.3,0.4-0.8,0.7-1.5l3.3-10.9c0,0,0-0.1,0.1-0.1c0.1,0,0.2,0,0.3,0c0.1,0,0.2,0,0.2,0c0.1,0,0.1,0.1,0.2,0.1l3,10.9
			c0.2,0.6,0.4,1.1,0.6,1.4c0.2,0.3,0.6,0.5,1,0.5c0,0,0.1,0.1,0.1,0.2C244.8,168.9,244.8,169,244.8,169.1 M239.8,164.7l-1.1-4.3
			l-1.2,4.3H239.8z"/>
		<path class="st8" d="M254.8,160.5c0,0.1,0,0.1-0.1,0.2c-0.1,0.1-0.1,0.1-0.2,0.1c0,0-0.1,0-0.1,0c-0.1,0-0.1,0-0.1-0.1
			c-0.1-0.7-0.4-1.5-0.9-2.4c-0.5-0.8-0.9-1.3-1.3-1.3h-0.2c-0.2,0-0.4,0.1-0.4,0.2c-0.1,0.1-0.2,0.3-0.2,0.6v9.3
			c0,0.5,0.1,0.9,0.2,1.2c0.2,0.2,0.5,0.4,1,0.5c0,0,0,0.1,0.1,0.2c0,0.1,0,0.2,0,0.3c0,0.1,0,0.2,0,0.3c0,0.1,0,0.2-0.1,0.2
			c-0.4,0-0.9,0-1.3-0.1c-0.4,0-0.9,0-1.3,0c-0.4,0-0.9,0-1.3,0c-0.4,0-0.9,0.1-1.3,0.1c0,0,0-0.1-0.1-0.2c0-0.1,0-0.2,0-0.3
			c0-0.1,0-0.2,0-0.2c0-0.1,0-0.2,0.1-0.2c0.5-0.1,0.9-0.3,1-0.5c0.2-0.2,0.3-0.6,0.3-1.2v-9.3c0-0.3,0-0.5-0.1-0.6
			c-0.1-0.1-0.2-0.2-0.5-0.2h-0.1c-0.4,0-0.8,0.4-1.4,1.2c-0.5,0.8-0.9,1.6-1.1,2.5c0,0,0,0.1-0.1,0.1c-0.1,0-0.1,0-0.1,0
			c-0.1,0-0.2,0-0.2-0.1c-0.1-0.1-0.1-0.1-0.1-0.2c0.1-0.6,0.2-1.4,0.3-2.4c0.1-1,0.2-1.7,0.2-2.4c0.3,0.1,0.8,0.2,1.5,0.2
			c0.7,0.1,1.7,0.1,3.1,0.1c1.2,0,2.2,0,3.1-0.1c0.8,0,1.3-0.1,1.6-0.2c0,0.6,0.1,1.4,0.1,2.2C254.7,158.8,254.7,159.7,254.8,160.5"
			/>
		<path class="st8" d="M265.2,164.9c-0.1,0.7-0.1,1.5-0.2,2.3c-0.1,0.8-0.1,1.6-0.1,2.3c-0.6,0-1.3-0.1-2.1-0.1c-0.9,0-1.5,0-2.1,0
			c-0.5,0-1.3,0-2.2,0c-1,0-1.7,0-2.1,0.1c0,0-0.1-0.1-0.1-0.2c0-0.1,0-0.2,0-0.3c0-0.1,0-0.2,0-0.2c0-0.1,0.1-0.2,0.1-0.2
			c0.5-0.1,0.9-0.3,1-0.5c0.2-0.2,0.3-0.6,0.3-1.2v-8.6c0-0.5-0.1-0.9-0.3-1.2c-0.2-0.2-0.5-0.4-1-0.5c0,0-0.1-0.1-0.1-0.2
			c0-0.1,0-0.2,0-0.3c0-0.1,0-0.2,0-0.3c0-0.1,0.1-0.2,0.1-0.2c0.5,0,1.1,0,2,0.1c0.9,0,1.6,0,2.2,0c0.5,0,1.1,0,2,0
			c0.9,0,1.6,0,2.1-0.1c0,0.5,0,1.2,0,2.1c0,0.8,0,1.6,0.1,2.3c0,0.1,0,0.1-0.1,0.2c-0.1,0.1-0.1,0.1-0.3,0.1c-0.1,0-0.1,0-0.1-0.1
			c-0.1,0-0.1,0-0.1-0.1c-0.1-0.8-0.3-1.6-0.7-2.3c-0.4-0.7-1-1.1-1.7-1.1h-0.8c-0.2,0-0.4,0.1-0.5,0.2c-0.2,0.1-0.2,0.4-0.2,0.9v4
			h0.5c0.5,0,0.8-0.2,1.1-0.6c0.3-0.4,0.4-0.9,0.5-1.5c0,0,0-0.1,0.1-0.1c0.1,0,0.1,0,0.2,0c0.1,0,0.1,0,0.2,0
			c0.1,0,0.1,0.1,0.1,0.1c0,0.5,0,0.9,0,1.4c0,0.4,0,0.9,0,1.3c0,0.5,0,0.9,0,1.3c0,0.4,0,0.8,0,1.3c0,0,0,0.1-0.1,0.1
			c-0.1,0-0.2,0.1-0.2,0.1c0,0-0.1,0-0.2-0.1c-0.1,0-0.1-0.1-0.1-0.1c-0.1-0.7-0.2-1.2-0.5-1.6c-0.2-0.4-0.6-0.6-1.1-0.6h-0.5v4.2
			c0,0.5,0.1,0.8,0.2,0.9c0.2,0.1,0.4,0.2,0.5,0.2h0.7c0.7,0,1.3-0.4,1.8-1.1c0.5-0.7,0.9-1.6,1-2.7c0,0,0-0.1,0-0.1
			c0,0,0.1,0,0.1,0c0.1,0,0.2,0,0.3,0.1C265.2,164.8,265.2,164.9,265.2,164.9"/>
		<path class="st8" d="M277.8,169.1c0,0.1,0,0.2-0.1,0.3c0,0.1-0.1,0.2-0.1,0.2c-0.2,0-0.6,0-1-0.1c-0.4,0-0.7,0-0.9,0
			c-0.2,0-0.5,0-0.8,0c-0.4,0-0.7,0.1-0.9,0.1l-1.7-5c-0.1-0.4-0.3-0.7-0.5-0.8c-0.2-0.2-0.5-0.2-0.8-0.2v3.5c0,0.5,0.1,0.9,0.2,1.2
			c0.1,0.2,0.5,0.4,1,0.5c0,0,0.1,0.1,0.1,0.2c0,0.1,0,0.2,0,0.3c0,0.1,0,0.2,0,0.3c0,0.1,0,0.2-0.1,0.2c-0.4,0-0.9,0-1.3-0.1
			c-0.4,0-0.8,0-1.2,0c-0.4,0-0.8,0-1.3,0c-0.4,0-0.9,0.1-1.3,0.1c0,0,0-0.1-0.1-0.2c0-0.1,0-0.2,0-0.3c0-0.1,0-0.2,0-0.2
			c0-0.1,0-0.2,0.1-0.2c0.5-0.1,0.9-0.3,1-0.5c0.2-0.2,0.3-0.6,0.3-1.2v-8.6c0-0.5-0.1-0.9-0.3-1.2c-0.2-0.2-0.5-0.4-1-0.5
			c0,0,0-0.1-0.1-0.2c0-0.1,0-0.2,0-0.3c0-0.1,0-0.2,0-0.3c0-0.1,0-0.1,0.1-0.1c0.5,0,0.9,0,1.4,0.1c0.5,0,0.9,0,1.3,0
			c0.4,0,0.8,0,1.1,0c0.3,0,0.7-0.1,1.1-0.1c1.5,0,2.5,0.4,3.2,1.1c0.6,0.7,1,1.5,1,2.5c0,0.9-0.1,1.6-0.4,2.1
			c-0.3,0.6-0.8,1-1.4,1.3l1.9,4.5c0.2,0.5,0.4,0.8,0.6,1c0.2,0.2,0.5,0.3,0.9,0.4c0,0,0,0.1,0.1,0.2
			C277.8,168.9,277.8,169,277.8,169.1 M273.5,159.8c0-1-0.1-1.7-0.4-2.2c-0.3-0.5-0.6-0.7-1.2-0.7c-0.3,0-0.5,0.1-0.6,0.3
			c-0.1,0.2-0.2,0.5-0.2,0.9v4.4c0,0,0.1,0,0.3,0c0.1,0,0.2,0,0.3,0c0.6,0,1.1-0.2,1.4-0.6C273.4,161.5,273.5,160.8,273.5,159.8"/>
		<path class="st8" d="M284.2,169.1c0,0.1,0,0.2,0,0.3c0,0.1,0,0.2-0.1,0.2c-0.5,0-0.9,0-1.3-0.1c-0.4,0-0.9,0-1.3,0
			c-0.4,0-0.8,0-1.3,0c-0.4,0-0.9,0.1-1.3,0.1c0,0-0.1-0.1-0.1-0.2c0-0.1,0-0.2,0-0.3c0-0.1,0-0.2,0-0.2c0-0.1,0-0.2,0.1-0.2
			c0.5-0.1,0.9-0.3,1.1-0.5c0.2-0.2,0.2-0.6,0.2-1.2v-8.6c0-0.5-0.1-0.9-0.2-1.2c-0.2-0.2-0.5-0.4-1.1-0.5c0,0-0.1-0.1-0.1-0.2
			c0-0.1,0-0.2,0-0.3c0-0.1,0-0.2,0-0.3c0-0.1,0-0.2,0.1-0.2c0.5,0,0.9,0,1.3,0.1c0.5,0,0.9,0,1.3,0c0.4,0,0.8,0,1.3,0
			c0.4,0,0.9-0.1,1.3-0.1c0,0,0,0.1,0.1,0.1c0,0.1,0,0.2,0,0.3c0,0.1,0,0.2,0,0.3c0,0.1,0,0.2-0.1,0.2c-0.5,0.1-0.9,0.2-1,0.5
			c-0.2,0.3-0.3,0.6-0.3,1.2v8.6c0,0.5,0.1,0.9,0.3,1.2c0.2,0.2,0.5,0.4,1,0.5c0,0,0,0.1,0.1,0.2C284.2,168.9,284.2,169,284.2,169.1
			"/>
		<path class="st8" d="M297.3,156.3c0,0.1,0,0.2,0,0.3c0,0.1-0.1,0.2-0.1,0.2c-0.5,0.1-0.8,0.2-1,0.5c-0.2,0.3-0.3,0.6-0.3,1.2
			l-0.2,11.2c0,0,0,0.1-0.1,0.1c-0.1,0-0.2,0.1-0.3,0.1c-0.1,0-0.2,0-0.2,0c-0.1,0-0.1-0.1-0.2-0.1l-6.5-9.6l-0.1,7
			c0,0.5,0.1,0.9,0.3,1.2c0.2,0.2,0.6,0.4,1.1,0.5c0,0,0,0.1,0.1,0.2c0,0.1,0,0.2,0,0.3c0,0.1,0,0.2,0,0.3c0,0.1,0,0.2-0.1,0.2
			c-0.4,0-0.7,0-0.9-0.1c-0.3,0-0.6,0-0.9,0c-0.3,0-0.6,0-0.9,0c-0.3,0-0.6,0.1-0.9,0.1c0,0,0-0.1-0.1-0.2c0-0.1,0-0.2,0-0.3
			c0-0.1,0-0.2,0-0.3c0-0.1,0.1-0.2,0.1-0.2c0.5-0.1,0.9-0.2,1.1-0.5c0.2-0.2,0.3-0.6,0.3-1.2l0.2-8c0-0.7-0.1-1.2-0.3-1.6
			c-0.2-0.4-0.6-0.6-1.2-0.7c0,0-0.1-0.1-0.1-0.2c0-0.1,0-0.2,0-0.3c0-0.1,0-0.2,0-0.3c0-0.1,0-0.1,0.1-0.1c0.2,0,0.5,0,0.8,0.1
			c0.3,0,0.5,0,0.7,0c0.2,0,0.4,0,0.6,0c0.2,0,0.4-0.1,0.7-0.1l6,8.9v-6.4c0-0.5-0.1-0.9-0.3-1.1c-0.2-0.2-0.6-0.4-1.1-0.5
			c0,0,0-0.1-0.1-0.1c0-0.1,0-0.2,0-0.3c0-0.1,0-0.2,0-0.3c0-0.1,0-0.2,0.1-0.2c0.4,0,0.7,0,0.9,0.1c0.2,0,0.5,0,0.8,0
			c0.4,0,0.7,0,1,0c0.3,0,0.6-0.1,0.9-0.1c0,0,0.1,0.1,0.1,0.1C297.3,156.1,297.3,156.2,297.3,156.3"/>
		<path class="st8" d="M309,163.5c0,0.1,0,0.2,0,0.3c0,0.1,0,0.2-0.1,0.2c-0.4,0.1-0.7,0.2-0.9,0.5c-0.1,0.3-0.2,0.7-0.2,1.2v2
			c0,0.3,0,0.6,0,0.7c0,0.1,0.1,0.3,0.1,0.4c-0.5,0.3-1.2,0.5-1.9,0.8c-0.7,0.2-1.4,0.3-2.2,0.3c-0.9,0-1.6-0.2-2.3-0.6
			c-0.7-0.4-1.2-0.9-1.7-1.6c-0.4-0.6-0.8-1.4-1-2.2c-0.2-0.8-0.4-1.7-0.4-2.6c0-1,0.1-1.9,0.4-2.7c0.3-0.8,0.6-1.6,1.1-2.3
			c0.5-0.7,1.1-1.2,1.8-1.6c0.8-0.4,1.6-0.6,2.5-0.6c0.5,0,1.1,0.1,1.6,0.3c0.6,0.2,1,0.3,1.5,0.3c0,0.5,0,1.2,0,2.1
			c0,0.8,0,1.6,0,2.1c0,0,0,0.1-0.1,0.1c-0.1,0-0.1,0-0.2,0c-0.1,0-0.1,0-0.2,0c0,0-0.1-0.1-0.1-0.1c-0.2-1.1-0.6-2-1.1-2.8
			c-0.5-0.8-1.1-1.1-1.9-1.1c-0.8,0-1.4,0.6-1.9,1.7c-0.5,1.2-0.7,2.7-0.7,4.5c0,1.8,0.2,3.2,0.7,4.4c0.4,1.2,1.1,1.7,1.9,1.7
			c0.6,0,0.9-0.1,1.1-0.3c0.2-0.2,0.3-0.5,0.3-0.9v-2.3c0-0.4-0.1-0.8-0.3-0.9c-0.2-0.2-0.5-0.3-1.1-0.4c0,0-0.1-0.1-0.1-0.1
			c0-0.1,0-0.2,0-0.3c0-0.1,0-0.2,0-0.3c0-0.1,0.1-0.2,0.1-0.2c0.4,0,0.8,0,1.1,0.1c0.4,0,0.7,0.1,1.1,0.1c0.4,0,0.9,0,1.3-0.1
			c0.5,0,0.9-0.1,1.4-0.1c0,0,0,0.1,0.1,0.2C309,163.3,309,163.4,309,163.5"/>
	</g>
	<text transform="matrix(1 0 0 1.7026 180.9834 169.5859)"><tspan x="0" y="0" class="st9 st10 st11">B</tspan><tspan x="9.6" y="0" class="st9 st10 st11">A</tspan><tspan x="19.4" y="0" class="st9 st10 st11">R</tspan></text>
	<g>
		<path class="st12" d="M124.7,200.9c1.8-1.5,4.2-2.3,7.2-2.3c2,0,4.1,0.3,6.1,0.6c1.6,0.3,3.2,0.5,4.5,0.5c2.1,0,3.4-0.6,3.4-3.4
			c0-2.8-1.3-3.4-3.4-3.4c-1.3,0-2.8,0.2-4.5,0.5c-2,0.3-4,0.6-6.1,0.6c-3,0-5.4-0.8-7.2-2.3l-4.6-3.9l5.5,2.4
			c0.8,0.3,1.8,0.5,3.2,0.5c2.1,0,4.6-0.4,7.3-0.9c2.7-0.5,5.5-0.9,8-0.9c4.7,0,7.4,1.8,8.3,5.4h28.7c0.2-1.3,1.3-2.4,2.7-2.4h26
			c1.5,0,2.7,1.2,2.7,2.7v3.2c0,1.5-1.2,2.7-2.7,2.7h-26c-1.4,0-2.5-1-2.7-2.4h-28.7c-0.9,3.7-3.6,5.4-8.3,5.4c-2.5,0-5.3-0.5-8-1
			c-2.6-0.5-5.1-0.9-7.3-0.9c-1.3,0-2.4,0.2-3.2,0.5l-5.5,2.4L124.7,200.9z M207.4,195.8c-0.3,0-0.6,0.3-0.6,0.6
			c0,0.3,0.3,0.6,0.6,0.6c0.3,0,0.6-0.3,0.6-0.6C208,196.1,207.7,195.8,207.4,195.8"/>
		<path class="st12" d="M273.6,203.8c-2.7,0-5.4,0-8.1-0.1c-2.7,0-5.5-0.1-8.3-0.1h-0.8l-0.5-3.1c-0.4,0.8-1,1.8-2.4,1.8h-26
			c-1.5,0-2.7-1.2-2.7-2.7v-3.2c0-1.5,1.2-2.7,2.7-2.7h26.5c0-0.2,0-0.4,0-0.5v-0.9h60.4l-1.4,1.5C304.7,203,289,203.8,273.6,203.8
			C273.6,203.8,273.6,203.8,273.6,203.8 M230,197.4c-0.3,0-0.6,0.3-0.6,0.6c0,0.3,0.3,0.6,0.6,0.6c0.3,0,0.6-0.3,0.6-0.6
			C230.6,197.7,230.3,197.4,230,197.4"/>
		<g>
			<path class="st13" d="M144.1,190c3.8,0,6.8,1.2,7.5,5.4H182v-0.6c0-1,0.8-1.8,1.8-1.8h26c1,0,1.8,0.8,1.8,1.8v3.2
				c0,1-0.8,1.8-1.8,1.8h-26c-1,0-1.8-0.8-1.8-1.8v-0.6h-30.3c-0.7,4.3-3.7,5.4-7.5,5.4c-4.8,0-10.8-1.8-15.3-1.8
				c-1.3,0-2.5,0.2-3.5,0.6c1.9-1.6,4.2-2.1,6.6-2.1c3.7,0,7.7,1.2,10.5,1.2c2.5,0,4.3-0.9,4.3-4.3c0-3.4-1.7-4.3-4.3-4.3
				c-2.9,0-6.8,1.2-10.5,1.2c-2.4,0-4.7-0.5-6.6-2.1c1,0.4,2.2,0.6,3.5,0.6C133.3,191.8,139.3,190,144.1,190 M207.4,197.9
				c0.8,0,1.5-0.7,1.5-1.5c0-0.8-0.7-1.5-1.5-1.5c-0.8,0-1.5,0.7-1.5,1.5C205.9,197.2,206.6,197.9,207.4,197.9 M114.9,184.8l9.2,7.8
				c2,1.7,4.5,2.5,7.8,2.5c2.1,0,4.3-0.3,6.2-0.7c1.6-0.3,3.1-0.5,4.3-0.5c1.8,0,2.5,0.4,2.5,2.5c0,2.1-0.6,2.4-2.5,2.4
				c-1.2,0-2.7-0.2-4.3-0.5c-1.9-0.3-4.1-0.7-6.2-0.7c-3.3,0-5.8,0.8-7.8,2.5l-9.2,7.8l11.1-4.7c0.7-0.3,1.6-0.4,2.8-0.4
				c2.1,0,4.5,0.4,7.1,0.9c2.8,0.5,5.6,1,8.2,1c4.8,0,7.8-1.8,9-5.4h27.3c0.5,1.4,1.8,2.4,3.4,2.4h26c2,0,3.6-1.6,3.6-3.6v-3.2
				c0-2-1.6-3.6-3.6-3.6h-26c-1.6,0-2.9,1-3.4,2.4h-27.3c-1.2-3.6-4.2-5.4-9-5.4c-2.6,0-5.4,0.5-8.2,1c-2.6,0.4-5.1,0.9-7.1,0.9
				c-1.2,0-2.1-0.1-2.8-0.4L114.9,184.8z"/>
			<path class="st13" d="M312.5,193.2c-7.9,8.6-22.6,9.6-38.8,9.6c-5.3,0-10.9-0.1-16.3-0.1l-0.6-3.7h-1l-0.3,0.6
				c-0.4,0.9-0.8,1.8-1.8,1.8h-26c-1,0-1.8-0.8-1.8-1.8v-3.2c0-1,0.8-1.8,1.8-1.8h27.2c0.1-0.5,0.2-1,0.2-1.4H312.5 M230,199.5
				c0.8,0,1.5-0.7,1.5-1.5s-0.7-1.5-1.5-1.5c-0.8,0-1.5,0.7-1.5,1.5S229.2,199.5,230,199.5 M316.6,191.4h-4.2h-57.4h-1.8v1.4h-25.6
				c-2,0-3.6,1.6-3.6,3.6v3.2c0,2,1.6,3.6,3.6,3.6h26c0.8,0,1.4-0.2,1.8-0.6l0.1,0.4l0.3,1.5h1.5c2.8,0,5.5,0,8.3,0.1
				c2.7,0,5.4,0.1,8.1,0.1c15.6,0,31.5-0.8,40.2-10.2L316.6,191.4z"/>
			<path class="st14" d="M218.5,211c-7.2,0-13-5.8-13-13c0-7.2,5.8-13,13-13c7.2,0,13,5.8,13,13C231.5,205.1,225.7,211,218.5,211"/>
			<path class="st9" d="M215.4,192.8c0,0.7,0.1,1.3,0.6,1.8c-0.5-0.1-1-0.8-1.1-1.5c0-1,0.7-1.8,1.4-2.3c1.6-0.9,3.5-0.4,5.1,0.7
				c0.3,0.2,0.6,0.5,0.8,0.8c-1.1-1-3.2-1.8-4.8-1.4C216.5,191,215.7,191.7,215.4,192.8 M220.4,200.3c0.1,0.2,0.5,0.5,0.5,0.8
				c-1.4-1.6-3.6-1.3-5.5-2c-0.7-0.2-1.5-0.7-2.1-1.3C215.3,199.3,218.2,198.7,220.4,200.3 M224.5,199.6c-0.2-0.7-0.5-1.4-1-2
				c1.4,1.1,1.8,3.2,1.2,4.9c-0.6,2.1-2.4,3.5-4.3,3.9c-2,0.2-4.1-0.3-6.2-0.9c-0.7-0.1-1.6,0.7-2.3-0.1c1,0.2,1.7-0.5,2.7-0.2
				c2.7,1,5.8,1.6,8-0.3C224.2,203.6,224.9,201.4,224.5,199.6 M224.8,190.3c0.4,1.3,0.5,2.5,0.5,3.9c-0.1,0.2-0.2,0.6-0.5,0.6
				l-0.2-0.1c0.5-0.3,0.5-0.9,0.5-1.5c0-1.2-0.4-2.4-0.7-3.5C224.6,189.7,224.6,190.1,224.8,190.3 M217.4,191.4
				c1.7-0.3,5,1.1,5.9,2.8c0.5,0.5,1,1.3,1.8,1c0.7-0.4,0.8-1.3,0.7-2c-0.4-1.5,0.1-3.6-1.7-4.2c-1.4,0.2-3.7,0-5.1-0.1l-2.5,0.1
				c-2.6,0.4-4.3,2-4.9,4.4c-0.1,0.8-0.1,1.5,0,2v0c0.2,1.4,1,2.7,2.1,3.6c2.1,1.7,5,0.6,6.8,2.6c0.4,0.7,0.3,1.4-0.2,2
				c-1.3,1.2-3.2,0.5-4.6-0.3c-1.5-0.7-1.4-1.9-2.9-2.6c-0.3,0-0.7,0.1-0.9,0.3c-0.9,2-1.1,3.5,0.1,5.3c0.8,0.6,1.5-0.3,2.3-0.2
				c3.1,1.1,6.7,1.6,9.4-0.6c1.5-1.6,2.5-4.2,1.5-6.3c-1.2-3.9-6-3.1-8.8-4.9c-0.2-0.3-0.4-0.8-0.4-1.2
				C216.1,192.2,216.8,191.7,217.4,191.4"/>
		</g>
		<path class="st14" d="M260.1,200.4c0,0,0.7-0.1,1.9-0.2c0.6-0.1,1.4-0.1,2.2-0.2c0.4,0,0.9-0.1,1.4-0.1c0.5,0,1,0,1.5,0h15.4
			c1.3,0,2.8-0.2,4.1-0.3c1.4-0.1,2.7-0.3,4-0.4c1.3-0.2,2.6-0.3,3.7-0.5c1.2-0.2,2.3-0.4,3.3-0.6c0.5-0.1,1-0.2,1.5-0.3
			c0.5-0.1,0.9-0.1,1.3-0.2c0.8-0.2,1.6-0.3,2.1-0.5c0.6-0.1,1-0.3,1.4-0.4c0.3-0.1,0.5-0.2,0.5-0.2s-0.1,0.1-0.4,0.3
			c-0.3,0.2-0.7,0.5-1.2,0.7c-0.6,0.3-1.3,0.6-2.1,0.9c-0.8,0.3-1.7,0.7-2.8,0.8c-1,0.2-2.2,0.4-3.4,0.6c-1.2,0.2-2.5,0.4-3.8,0.5
			c-1.3,0.2-2.7,0.3-4.1,0.4c-1.4,0.1-2.8,0.2-4.2,0.3h-15.4c-0.5,0-1,0-1.5,0c-0.5,0-0.9-0.1-1.4-0.1c-0.9-0.1-1.6-0.2-2.2-0.2
			C260.8,200.5,260.1,200.4,260.1,200.4"/>
	</g>
	<rect x="10.3" y="-199" class="st5" width="432" height="288"/>
</g>
</svg>
