<?xml version="1.0" encoding="utf-8"?>
<!-- Generator: Adobe Illustrator 19.0.0, SVG Export Plug-In . SVG Version: 6.00 Build 0)  -->
<svg version="1.1" id="Layer_1" xmlns="http://www.w3.org/2000/svg" xmlns:xlink="http://www.w3.org/1999/xlink" x="0px" y="0px"
	 viewBox="0 0 50 50" style="enable-background:new 0 0 50 50;" xml:space="preserve">
<path id="XMLID_85_" d="M38.5,87L37,85h-6.5l-1.7,2H7v22h33V87H38.5z M24.1,104.5c-3.7,0-6.6-3-6.6-6.6s3-6.6,6.6-6.6s6.6,3,6.6,6.6
	S27.8,104.5,24.1,104.5z"/>
<g id="XMLID_124_">
	<polygon id="XMLID_126_" points="106.9,89.1 109.5,86.4 103.7,80.9 101.1,83.7 	"/>
	<polygon id="XMLID_127_" points="99.5,85.3 81.7,103.9 80.1,111.2 87.6,109.7 105.3,90.8 	"/>
</g>
<g id="XMLID_298_">
	<rect id="XMLID_144_" x="85" y="-35" width="11" height="6"/>
	<g id="XMLID_140_">
		<path id="XMLID_273_" d="M91.5-50.7C91.4-50.7,91-50,91-50h-1.4c0,0-0.2-0.7-0.3-0.7c-0.1,0-0.3,0.3-0.3,0.9V-37h3v-12.9
			C92-50.4,91.6-50.7,91.5-50.7z"/>
		<path id="XMLID_274_" d="M90.3-61.2c-5.9,0-10.8,4.8-10.8,10.8c0,1.9,0.5,3.3,1.3,4.8l4,8.6H88v-12.9c0-1.2,0.5-2.2,1.5-2.2
			c0.4,0,0.6,0.2,0.9,0.4c0.3-0.3,0.5-0.4,0.9-0.4c1,0,1.7,1,1.7,2.2V-37h3.3l4.5-11.9c0.1-0.6,0.2-1,0.2-1.6
			C101-56.5,96.2-61.2,90.3-61.2z"/>
	</g>
</g>
<path id="XMLID_318_" d="M-401-173c-57,0-114,0-171,0c0,52,0,104.3,0,156.3c0,8,0,16,0,24c0,77.3,0,154.7,0,231.7
	c57.5,0,114.7,0,172,0c7,0,14,0,21,0c57.7,0,115.3,0,173,0c0-77,0-154.5,0-231.7c0-8,0-16,0-24c0-52,0-104.3,0-156.3
	c-56.7,0-113.3,0-170,0C-384.3-173-392.7-173-401-173z M-388.5,189.3c-11.2,0-22.3,0-33.5,0C-410.8,189.2-399.7,189.3-388.5,189.3
	c5.4,0,10.8,0,16.2,0C-377.7,189.3-383.1,189.3-388.5,189.3z M-346.1-93.5c38.6,15.4,58.8,44.6,61.6,86c1.5,23.5-5,45.1-16,65.6
	c-8.4,15.5-17.4,30.6-25.9,46.1c-6.9,12.6-11.2,25.8-11.6,40.8c-34.2,0-68,0-102.1,0c-0.6-20-9.2-36.9-18.5-53.8
	c-9.7-17.6-19.8-35.1-27.8-53.5c-9.2-21.2-9.9-43.7-4.2-66.1c7.8-30.7,26.9-52,55.9-64.1C-405.4-104.7-375.5-105.2-346.1-93.5z"/>
<path id="XMLID_48_" d="M104.3,18c-0.3-4.1-2.3-7-6.1-8.5c-2.9-1.2-5.8-1.1-8.7,0.1c-2.9,1.2-4.7,3.3-5.5,6.3
	c-0.6,2.2-0.5,4.4,0.4,6.5c0.8,1.8,1.8,3,2.7,4.7c0.8,1.4,2,4.7,2.2,5.7l3.6,0v-9.9l-3.4-4.2l1.2-0.7l3.2,4.5V34h-4.9l0.3,0.2
	l-0.5,0.5l0.6,0.6l-0.6,0.5l0.5,0.5l-0.6,0.6l0.6,0.6l-0.5,0.7l0.5,0.8H94h4.6l0.7-0.9l-0.5-0.6l0.6-0.7l-0.6-0.6l0.5-0.5l-0.6-0.6
	l0.6-0.7l-0.5-0.6l0.5-0.8L99,32.7c0.1-1.3,0.5-2.6,1.1-3.7c0.8-1.5,1.7-3,2.5-4.5C103.8,22.4,104.4,20.3,104.3,18z M96,22.8V34h-1
	V22.4l2.9-4.5l1,0.7L96,22.8z"/>
<path id="XMLID_62_" d="M25.1,10h-0.2L7.4,25H13v15h5.7h12.5H37V25h5.9L25.1,10z M29,33h-8v-8h8V33z"/>
<path id="XMLID_118_" d="M173.5,25.7L165,8.2V20h0.1c0.4,0,0.7,0.7,0.7,1.1c0,0.6-0.5,1.2-1.2,1.2c-0.6,0-1.2-0.5-1.2-1.1
	c0-0.5,0.7-0.9,0.7-1.1V8.4l-8.2,17.3c0,0,6,3.3,6,8.3H159v2h3v4h1h2.5h2.5v-4h3v-2h-3.2C167.8,29,173.5,25.7,173.5,25.7z"/>
<g id="GYYMVZ.tif">
	<g id="XMLID_105_">
		<path id="XMLID_148_" d="M16.9,154.6c0.2,0,0.4,0.1,0.6,0.1c1.2,0.2,2,1.2,2,2.4c0,1.2-0.8,2.1-1.9,2.3c-1,0.2-1.9,0.1-2.7-0.7
			c-0.3-0.3-0.5-0.7-0.6-1.2c0,0,0-0.1-0.1-0.1c0-0.3,0-0.5,0-0.8c0,0,0,0,0-0.1c0.2-1.1,0.9-1.7,2-1.9c0.2,0,0.4-0.1,0.6-0.1
			C16.9,154.6,16.9,154.6,16.9,154.6z"/>
		<path id="XMLID_146_" d="M21.8,161.4c1.6,0,3.1,0,4.7,0c0,0.6,0,1.3,0,1.9c0.1-0.1,0.1-0.1,0.1-0.1c1.1-1.6,2.6-2.2,4.4-2.1
			c2.5,0.1,4.4,1.7,4.9,4.3c0.1,0.7,0.2,1.4,0.2,2.1c0,2.6,0,5.1,0,7.7c0,0.1,0,0.2,0,0.3c-1.6,0-3.1,0-4.7,0c0-0.1,0-0.2,0-0.3
			c0-2.4,0-4.9,0-7.3c0-0.4-0.1-0.9-0.2-1.3c-0.2-0.8-0.7-1.5-1.5-1.7c-0.9-0.2-1.8,0-2.4,0.7c-0.5,0.5-0.8,1.1-0.8,1.8
			c0,2.6,0,5.2,0,7.8c0,0.1,0,0.2,0,0.3c-1.6,0-3.1,0-4.7,0C21.8,170.8,21.8,166.1,21.8,161.4z"/>
		<path id="XMLID_145_" d="M14.5,161.4c1.5,0,3.1,0,4.6,0c0,4.7,0,9.4,0,14.1c-1.5,0-3.1,0-4.6,0C14.5,170.8,14.5,166.1,14.5,161.4z
			"/>
	</g>
</g>
<g id="XMLID_141_">
	<polygon id="XMLID_181_" points="161.7,97 166.8,97 179.5,85.4 180,85.7 180,85 149.3,85 	"/>
	<polygon id="XMLID_182_" points="167.2,98 161.3,98 161.2,97.9 149,86.3 149,107 180,107 180,86.4 	"/>
</g>
<g id="FwRkvf.tif">
	<g id="XMLID_152_">
		<path id="XMLID_194_" d="M81.3,164.9c0.3-1.4,0.8-2.6,1.7-3.7c1.9-2,4.9-2.7,7.4-1.6c2.6,1.1,4.1,3.7,3.9,6.7
			c-0.2,2.6-2.2,4.9-4.8,5.6c-3.8,1-7.5-1.4-8.1-5.3c0-0.1-0.1-0.1-0.1-0.2C81.3,165.9,81.3,165.4,81.3,164.9z"/>
		<path id="XMLID_193_" d="M108.8,166.5c-0.3,1.4-0.8,2.6-1.7,3.7c-1.9,2-4.9,2.7-7.4,1.6c-2.6-1.1-4.1-3.7-3.9-6.7
			c0.2-2.6,2.2-4.9,4.8-5.6c3.8-1,7.5,1.4,8.1,5.3c0,0.1,0.1,0.1,0.1,0.2C108.8,165.4,108.8,165.9,108.8,166.5z"/>
	</g>
</g>
<g id="syc5yU.tif">
	<g id="XMLID_235_">
		<path id="XMLID_272_" d="M176.6,166.4c0,0.7,0,1.4,0,2.1c0,0.2-0.1,0.4-0.1,0.5c-0.2,3.3-2,5.6-5.2,6.5c-2.3,0.7-4.7,0.8-7.1,0.7
			c-2.3-0.1-4.6-0.2-6.7-1.1c-2.2-0.8-3.7-2.3-4.2-4.6c-0.2-0.7-0.3-1.4-0.4-2.1c0-0.7,0-1.4,0-2.1c0-0.1,0.1-0.2,0.1-0.4
			c0.2-1.5,0.6-2.8,1.5-4c0.2-0.3,0.3-0.6,0.2-0.9c-0.3-1.2-0.4-2.4,0-3.6c0.5-1.8,0.3-1.5,2-1.2c1.4,0.2,2.5,1.1,3.6,1.9
			c0.2,0.1,0.5,0.2,0.7,0.2c2.5-0.5,4.9-0.6,7.4-0.1c0.5,0.1,0.8,0,1.1-0.3c1.3-1,2.6-1.8,4.3-1.9c0.4,0,0.6,0.1,0.8,0.5
			c0.6,1.5,0.6,3,0.2,4.5c-0.1,0.3,0,0.6,0.1,0.9c0.5,0.9,0.9,1.8,1.3,2.7C176.5,165.3,176.5,165.9,176.6,166.4z M164.7,175.1
			c0-0.1,0-0.1,0-0.2c0.5,0,1,0,1.5,0c1.7-0.1,3.4-0.2,5-1c1.9-1,2.8-3.4,2-5.6c-0.6-1.9-2.2-2.9-4.4-2.5c-2.7,0.4-5.3,0.5-8,0
			c-2.5-0.4-4.2,0.8-4.6,3.1c-0.5,2.7,0.9,4.9,3.7,5.5C161.4,174.8,163.1,174.9,164.7,175.1z"/>
		<path id="XMLID_265_" d="M162,169.9c0,0.8-0.2,1.5-0.7,2.1c-0.6,0.8-1.5,0.8-2.2,0.1c-1-1.1-1-3.4,0-4.5c0.6-0.7,1.5-0.7,2.1,0.1
			C161.9,168.3,162,169.1,162,169.9z"/>
		<path id="XMLID_264_" d="M167.5,169.8c0-0.9,0.2-1.6,0.9-2.2c0.5-0.5,1.3-0.6,1.9-0.1c1.2,1.1,1.2,3.7,0,4.7
			c-0.5,0.5-1.3,0.5-1.8,0C167.7,171.6,167.6,170.7,167.5,169.8z"/>
	</g>
</g>
</svg>
