<?xml version="1.0" encoding="utf-8"?>
<!-- Generator: Adobe Illustrator 19.0.0, SVG Export Plug-In . SVG Version: 6.00 Build 0)  -->
<svg version="1.1" id="Layer_1" xmlns="http://www.w3.org/2000/svg" xmlns:xlink="http://www.w3.org/1999/xlink" x="0px" y="0px"
	 viewBox="0 0 100 100" style="enable-background:new 0 0 100 100;" xml:space="preserve">
<style type="text/css">
	.st0{fill:#020101;}
	.st1{fill:#575757;}
	.st2{fill:#FFFFFF;}
	.st3{fill:#929292;}
	.st4{fill:#060404;}
	.st5{fill:#828383;}
</style>
<rect id="XMLID_28_" x="-1.1" class="st0" width="102.5" height="100"/>
<g id="XMLID_11_">
	<g id="XMLID_268_">
		<g id="XMLID_298_">
			<polygon id="XMLID_24_" class="st1" points="43.7,55.9 49.7,64.8 41.7,64.9 			"/>
			<polygon id="XMLID_23_" class="st2" points="49.4,35 36.9,48.7 37.7,38.9 			"/>
			<polygon id="XMLID_22_" class="st1" points="36.9,48.7 43.7,55.9 31.3,52.6 			"/>
			<polygon id="XMLID_21_" class="st3" points="43.7,55.9 41.7,64.9 37.3,58.7 			"/>
			<polygon id="XMLID_20_" class="st3" points="36.9,48.7 31.3,52.6 24.4,42.1 31.3,45.8 			"/>
			<polygon id="XMLID_19_" class="st1" points="31.5,34.9 31.3,45.8 24.4,42.1 			"/>
			<polygon id="XMLID_18_" class="st2" points="31.5,34.9 24.4,42.1 24.4,34.9 			"/>
			<polygon id="XMLID_17_" class="st2" points="31.3,52.6 31.5,64.9 24.4,57.5 			"/>
			<polygon id="XMLID_16_" class="st4" points="24.4,57.5 31.5,64.9 24.4,57.5 			"/>
			<polygon id="XMLID_15_" class="st1" points="24.4,57.5 31.5,64.9 24.4,64.9 			"/>
			<polygon id="XMLID_14_" class="st4" points="24.4,42.1 31.3,52.6 24.4,42.1 24.4,42.1 			"/>
			<polygon id="XMLID_13_" class="st4" points="24.4,57.5 24.4,57.5 24.4,57.4 			"/>
			<polygon id="XMLID_10_" class="st4" points="24.4,42.1 24.4,42.1 24.3,42 			"/>
		</g>
		<g id="XMLID_297_">
		</g>
	</g>
	<g id="XMLID_12_">
		<g id="XMLID_258_">
			<polygon id="XMLID_9_" class="st3" points="68.5,50.8 77.5,64.9 67.7,61.9 			"/>
			<polygon id="XMLID_8_" class="st5" points="77,35 73.1,41.1 69.1,35 			"/>
			<polygon id="XMLID_7_" class="st1" points="69.1,35 73.1,41.1 63.6,43.6 			"/>
			<polygon id="XMLID_6_" class="st2" points="73.1,41.1 67.5,49.4 63.6,43.6 			"/>
			<polygon id="XMLID_5_" class="st1" points="68.5,50.8 67.7,61.9 63.2,55.7 			"/>
			<polygon id="XMLID_4_" class="st5" points="63.6,43.6 63.2,55.7 59.3,49.8 59.3,49.8 56.5,45.7 			"/>
			<polygon id="XMLID_3_" class="st1" points="63.2,55.7 57.2,64.9 54,57 			"/>
			<polygon id="XMLID_2_" class="st1" points="58.1,35 56.5,45.7 49.4,35 			"/>
			<polygon id="XMLID_1_" class="st2" points="54,57 57.2,64.9 49.7,64.8 			"/>
		</g>
		<g id="XMLID_257_">
		</g>
	</g>
</g>
</svg>
