<?xml version="1.0" encoding="utf-8"?>
<!-- Generator: Adobe Illustrator 19.0.0, SVG Export Plug-In . SVG Version: 6.00 Build 0)  -->
<svg version="1.1" id="Layer_1" xmlns="http://www.w3.org/2000/svg" xmlns:xlink="http://www.w3.org/1999/xlink" x="0px" y="0px"
	 viewBox="0 0 50 50" style="enable-background:new 0 0 50 50;" xml:space="preserve">
<style type="text/css">
	.st0{fill:#2173A2;}
	.st1{fill:#0A8D56;}
	.st2{fill:#DB9528;}
	.st3{fill:#774393;}
	.st4{fill:#933132;}
	.st5{fill:#838788;}
</style>
<path id="XMLID_43_" class="st0" d="M-136,5v40h41V5H-136z M-107,32c-9,6.1-16,0-16,0v-6.4l7.8,4.6l0.4,0.3l0.6-0.3l7.2-4.7V32z
	 M-114.9,29.4l-8.4-4.8l7.9-3.8l-9.5,2.9V24l0,0v4h0.2l0.4,4.7c0,0-0.4,0.3-1,0.3c-0.3,0-0.7,0-1-0.3l0.4-4.7h0v-5l-1.5-0.9
	l12.1-7.2l12.1,6.5L-114.9,29.4z"/>
<path id="XMLID_40_" class="st1" d="M-205.4,5.3v39.4h40.9V5.3H-205.4z M-173,29.1c-2.5,0-5.1,0-7.6,0c0,2.5,0,5.1,0,7.6
	c-2.8,0-5.5,0-8.3,0c0-2.5,0-5.1,0-7.6c-2.5,0-5,0-7.5,0c0-2.8,0-5.5,0-8.3c2.5,0,5,0,7.5,0c0-2.5,0-5,0-7.6c2.8,0,5.5,0,8.3,0
	c0,2.5,0,5,0,7.6c2.5,0,5.1,0,7.6,0C-173,23.6-173,26.4-173,29.1z"/>
<g id="XMLID_35_">
	<path id="XMLID_37_" class="st2" d="M-65,5v40h40V5H-65z M-45,37.8c-6.6,0-11.9-5.3-11.9-11.9c0-6.6,5.3-11.9,11.9-11.9
		c6.6,0,11.9,5.3,11.9,11.9C-33.1,32.5-38.4,37.8-45,37.8z"/>
	<polygon id="XMLID_36_" class="st2" points="-53.5,32 -36.5,32 -45,16 	"/>
</g>
<g id="XMLID_28_">
	<path id="XMLID_34_" class="st3" d="M170.2,16h-9.4c-0.2,0-0.8,0.9-0.8,1.5V19h11v-1.5C171,16.9,170.4,16,170.2,16z"/>
	<path id="XMLID_30_" class="st3" d="M145,5v40h40V5H145z M154,19h4v-1.5c0-1.7,1.4-3.5,2.8-3.5h9.4c1.4,0,2.8,1.8,2.8,3.5V19h3v4.3
		c0,1.4-0.9,2.7-2.3,2.7h-17.3c-1.3,0-2.4-1.3-2.4-2.7V19z M177,34h-24v-9c1,1.1,2.1,2,3.4,2h17.3c1.2,0,2.3-0.9,3.3-1.9V34z"/>
	<path id="XMLID_29_" class="st3" d="M170.8,17.5c0-0.7-0.4-1.1-0.6-1.1h-9.4c-0.2,0-0.6,0.4-0.6,1.1v1.2h10.5V17.5z"/>
</g>
<g id="XMLID_7_">
	<path id="XMLID_27_" class="st4" d="M100.7,23H96v4h3.2C100,25,100.5,24,100.7,23z"/>
	<path id="XMLID_26_" class="st4" d="M100.7,20.3c-0.1-1.3-0.5-2.3-1-4.3H96v6h4.8C100.8,21,100.8,20.6,100.7,20.3z"/>
	<path id="XMLID_25_" class="st4" d="M95,23h-4.7c0.2,1,0.7,2,1.5,4H95V23z"/>
	<path id="XMLID_24_" class="st4" d="M98.3,28H96v3.9C97,31,97.7,30,98.3,28z"/>
	<path id="XMLID_23_" class="st4" d="M102.1,20.2c0,0.3,0.1,0.8,0.1,1.8h3.4c-0.1-3-0.5-4-1.2-6h-3.1C101.7,18,102,19,102.1,20.2z"
		/>
	<path id="XMLID_22_" class="st4" d="M99.2,29.7l0.4,0.9c0,0,0.1,0.2,0.3,0.4c0.5-0.6,1.1-1,1.3-1.2l0.7-0.5l0-0.4
		c0.1-0.1,0.1-0.9,0.2-0.9H100C99.7,28,99.5,29.4,99.2,29.7z"/>
	<path id="XMLID_21_" class="st4" d="M103.7,26.9l0.3,0.6c0.2-0.6,0.6-1,0.8-1.3c0.4-0.9,0.7-2.2,0.8-3.2h-3.5c-0.2,1-0.6,2-1.4,4
		h2.5L103.7,26.9z"/>
	<path id="XMLID_20_" class="st4" d="M103.5,15c-1.4-1-3.5-3.2-5.8-3.7c0.9,0.9,2,2.7,2.9,3.7H103.5z"/>
	<path id="XMLID_19_" class="st4" d="M96,13v2h3C98.1,14,97,13.7,96,13z"/>
	<path id="XMLID_18_" class="st4" d="M95,16h-3.7c-0.5,2-0.9,3-1,4.3c0,0.3,0,0.7,0,1.7H95V16z"/>
	<path id="XMLID_17_" class="st4" d="M108.3,28.2c2.1,0,1.2-3,1.2-3s-3.4,0.2-2.3,2.4c-0.1,0.1-0.2,0.3-0.3,0.4
		c-0.2-0.5-0.6-0.9-0.8-1.2c-0.1-0.1-0.2-0.2-0.2-0.2s-1.4,1.3-0.9,2.3c0.1,0.3,0.4,0.5,0.9,0.7c-0.3,0.3-0.6,0.7-0.9,1
		c0-0.4-0.2-0.8-0.5-1.1c-0.3-0.5-0.7-0.8-0.7-0.8s-1.6,1.5-1,2.5c0.1,0.3,0.4,0.5,0.9,0.7c-0.3,0.3-0.7,0.6-1,0.9
		c0-0.4-0.2-0.8-0.3-1.1c-0.3-0.5-0.6-0.8-0.6-0.8s-1.5,1-1.5,2c0,0.4,0.2,0.8,0.7,1.1c-0.3,0.2-0.6,0.4-1,0.5
		c0.2-0.5,0.1-1-0.1-1.5c-0.2-0.5-0.5-0.9-0.7-1.2l-0.2-0.3L98,32.1c-0.4,0.4-0.9,1-1.1,1.6c-0.1,0.6,0.1,1.2,0.9,1.7
		c-0.8,0.3-1.5,0.5-2.2,0.7c-0.7-0.2-1.5-0.4-2.2-0.7c0.8-0.5,1-1.1,0.9-1.7c-0.1-0.6-0.6-1.2-1-1.6c-0.4-0.4-0.9-0.7-0.9-0.7
		s-0.1,0.1-0.3,0.4c-0.2,0.3-0.5,0.7-0.7,1.2c-0.2,0.5-0.3,1-0.1,1.5c-0.3-0.2-0.7-0.4-1-0.5c0.5-0.3,0.7-0.7,0.7-1.1
		c0-1.1-1.5-2.1-1.5-2.1s-0.3,0.4-0.6,0.9c-0.2,0.3-0.3,0.7-0.3,1.1c-0.3-0.3-0.7-0.6-1-0.9c0.4-0.2,0.7-0.4,0.8-0.6
		c0.7-1-0.9-2.6-0.9-2.6s-0.4,0.4-0.8,0.9c-0.2,0.3-0.4,0.7-0.4,1c-0.3-0.3-0.6-0.7-0.9-1c0.4-0.2,0.7-0.4,0.8-0.6
		c0.6-1-0.9-2.4-0.9-2.4S85.1,26.8,85,27c-0.3,0.3-0.6,0.7-0.7,1.1c-0.1-0.1-0.2-0.3-0.3-0.4c1.1-2.2-2.3-2.4-2.3-2.4s-0.9,3,1.2,3
		c0.1,0,0.2,0,0.3,0c0.1,0.2,0.3,0.4,0.4,0.6c-0.9,0-2,0.8-2,0.8s0.9,1.4,2,1.4c0.4,0,0.7-0.2,1.1-0.7c0.2,0.3,0.4,0.5,0.6,0.8
		c-0.9,0.1-1.8,0.9-1.8,0.9s1,1.4,2.1,1.4c0.4,0,0.8-0.2,1.2-0.8c0.3,0.3,0.7,0.6,1,0.8c-0.9,0.3-1.8,1.2-1.8,1.2s1.1,1.1,2.1,1.1
		c0.5,0,1-0.3,1.4-1.1c0.4,0.2,0.7,0.4,1,0.6c-1.1,0.6-1.9,1.9-1.9,1.9s1.3,0.9,2.5,0.9c0.8,0,1.5-0.4,1.8-1.7
		c0.2,0.1,0.4,0.1,0.6,0.2l0.2,0.9c0.6-0.1,1.2-0.2,1.8-0.4c0.6,0.1,1.2,0.3,1.8,0.4l0.2-0.9c0.2-0.1,0.4-0.1,0.6-0.2
		c0.3,1.3,1,1.7,1.8,1.7c1.2,0,2.5-0.9,2.5-0.9s-0.8-1.4-1.9-1.9c0.3-0.2,0.7-0.4,1-0.6c0.3,0.8,0.8,1.1,1.4,1.1
		c1,0,2.1-1.1,2.1-1.1s-0.9-0.9-1.8-1.2c0.3-0.3,0.7-0.6,1-0.8c0.4,0.6,0.8,0.8,1.2,0.8c1.1,0,2.1-1.4,2.1-1.4s-0.9-0.7-1.8-0.9
		c0.2-0.2,0.4-0.5,0.7-0.8c0.3,0.5,0.7,0.7,1.1,0.7c1,0,2-1.4,2-1.4s-1-0.8-2-0.8c0.1-0.2,0.3-0.4,0.4-0.6
		C108.1,28.2,108.2,28.2,108.3,28.2z"/>
	<path id="XMLID_16_" class="st4" d="M88.9,20.2C89,19,89.3,18,89.7,16h-3.1c-0.7,2-1.1,3-1.2,6h3.4C88.8,21,88.9,20.5,88.9,20.2z"
		/>
	<path id="XMLID_13_" class="st4" d="M75,5v40h41V5H75z M110.4,30.2c-0.1,0.2-0.7,1-1.5,1.4l0.1,0.1l-0.5,0.8
		c-0.2,0.3-1.1,1.5-2.3,1.8l0.4,0.4l-0.7,0.7c-0.1,0.1-1.2,1.2-2.5,1.4l0.4,0.7l-0.8,0.5c-0.2,0.1-1.6,1.1-3.1,1.1
		c-0.7,0-1.4-0.2-1.8-0.7l-0.1,0.2l-0.9-0.1c-0.5-0.1-1-0.2-1.6-0.3c-0.6,0.1-1.1,0.2-1.6,0.3l-0.9,0.1L93,38.4
		c-0.5,0.4-1.1,0.7-1.8,0.7c-1.5,0-3-1-3.1-1.1l-0.8-0.5l0.4-0.7c-1.3-0.2-2.3-1.3-2.5-1.4l-0.7-0.7l0.4-0.4
		c-1.2-0.3-2.1-1.5-2.3-1.8l-0.5-0.8l0.1-0.1c-0.8-0.5-1.4-1.2-1.5-1.4l-0.5-0.8l0.7-0.6c0.1,0,0.1-0.1,0.2-0.2
		c-0.1-0.1-0.2-0.2-0.2-0.3c-0.9-1.2-0.4-3-0.3-3.4l0.2-0.8l0.8,0c0.3,0,1.8,0.1,2.7,0.9c-0.2-0.9-0.4-1.8-0.4-2.8
		c0-6.3,5.1-11.5,11.5-11.5c6.3,0,11.5,5.1,11.5,11.5c0,1-0.1,2-0.4,2.9c0.9-0.9,2.5-1,2.8-1.1l0.8,0l0.2,0.8
		c0.1,0.4,0.6,2.2-0.3,3.4c-0.1,0.1-0.1,0.2-0.2,0.3c0.1,0.1,0.2,0.1,0.2,0.2l0.7,0.6L110.4,30.2z"/>
	<path id="XMLID_12_" class="st4" d="M95,31.9V28h-2.3C93.3,30,94,31,95,31.9z"/>
	<path id="XMLID_11_" class="st4" d="M93.3,11.3c-2.3,0.5-4.4,2.7-5.8,3.7h2.9C91.3,14,92.4,12.2,93.3,11.3z"/>
	<path id="XMLID_10_" class="st4" d="M89.3,29.4l0.7,0.5c0.2,0.1,0.8,0.5,1.3,1.2c0.1-0.2,0.2-0.3,0.3-0.4l0.4-0.9
		c-0.3-0.4-0.6,0.2-0.8-1.8h-2c0.1,0,0.1,0.8,0.2,0.9L89.3,29.4z"/>
	<path id="XMLID_9_" class="st4" d="M85.5,23c0.1,1,0.3,1.9,0.7,2.8c0.3,0.3,0.8,1,1.1,1.7l0.3-0.5l0.4-0.1h2.4c-0.7-2-1.2-3-1.4-4
		H85.5z"/>
	<path id="XMLID_8_" class="st4" d="M95,13c-1,0.7-2,1-3,2h3V13z"/>
</g>
<g id="XMLID_2_">
	<path id="XMLID_4_" class="st5" d="M4.6,5.4v39.2h40.7V5.4H4.6z M34.8,26.9c0,0.1-0.3,9.4-10.2,11.1c-9.4-1.7-9.4-11.1-9.4-11.1
		v-6.5l9.4-2l8.5,1.9v-2.3l-8.5-1.8l-9.4,2.1v-1.7l9.4-2.1l10.2,2.2V26.9z"/>
	<path id="XMLID_3_" class="st5" d="M24.6,36.4c8.4-1.5,8.5-9.2,8.5-9.5v-4.5l-8.5-1.8V36.4z"/>
</g>
</svg>
